<svg width="64" height="64" viewBox="0 0 64 64" fill="none" xmlns="http://www.w3.org/2000/svg">
<path d="M59.522 31.4891C59.6546 31.4891 59.7818 31.4364 59.8755 31.3427C59.9693 31.2489 60.022 31.1217 60.022 30.9891V27.9891C60.022 27.8565 59.9693 27.7293 59.8755 27.6356C59.7818 27.5418 59.6546 27.4891 59.522 27.4891H58.022V25.9951C58.022 25.8625 57.9693 25.7353 57.8755 25.6416C57.7818 25.5478 57.6546 25.4951 57.522 25.4951H34.522C34.3894 25.4951 34.2622 25.5478 34.1684 25.6416C34.0747 25.7353 34.022 25.8625 34.022 25.9951V37.9851C34.022 38.1177 34.0747 38.2449 34.1684 38.3387C34.2622 38.4324 34.3894 38.4851 34.522 38.4851C34.6546 38.4851 34.7818 38.4324 34.8755 38.3387C34.9693 38.2449 35.022 38.1177 35.022 37.9851V26.4951H53.022V45.7271L50.245 47.5791C50.1765 47.6248 50.1203 47.6867 50.0814 47.7592C50.0425 47.8318 50.0221 47.9128 50.022 47.9951V57.4951H34.522C34.3894 57.4951 34.2622 57.5478 34.1684 57.6416C34.0747 57.7353 34.022 57.8625 34.022 57.9951C34.022 58.1277 34.0747 58.2549 34.1684 58.3487C34.2622 58.4424 34.3894 58.4951 34.522 58.4951H57.522C57.6546 58.4951 57.7818 58.4424 57.8755 58.3487C57.9693 58.2549 58.022 58.1277 58.022 57.9951V41.4891H59.522C59.6546 41.4891 59.7818 41.4364 59.8755 41.3427C59.9693 41.2489 60.022 41.1217 60.022 40.9891V37.9891C60.022 37.8565 59.9693 37.7293 59.8755 37.6356C59.7818 37.5418 59.6546 37.4891 59.522 37.4891H58.022V36.4891H59.522C59.6546 36.4891 59.7818 36.4364 59.8755 36.3427C59.9693 36.2489 60.022 36.1217 60.022 35.9891V32.9891C60.022 32.8565 59.9693 32.7293 59.8755 32.6356C59.7818 32.5418 59.6546 32.4891 59.522 32.4891H58.022V31.4891H59.522ZM58.022 28.4891H59.022V30.4891H58.022V28.4891ZM57.022 27.9891V57.4951H51.022V48.2631L53.799 46.4111C53.8675 46.3654 53.9236 46.3036 53.9625 46.231C54.0014 46.1585 54.0218 46.0774 54.022 45.9951V26.4951H57.022V27.9891ZM59.022 38.4891V40.4891H58.022V38.4891H59.022ZM59.022 33.4891V35.4891H58.022V33.4891H59.022Z" fill="url(#paint0_linear_838_5147)"/>
<path d="M49.522 33.4951C49.6546 33.4951 49.7818 33.4424 49.8755 33.3487C49.9693 33.2549 50.022 33.1277 50.022 32.9951V29.9951C50.022 29.8625 49.9693 29.7353 49.8755 29.6416C49.7818 29.5478 49.6546 29.4951 49.522 29.4951H41.522C41.3894 29.4951 41.2622 29.5478 41.1684 29.6416C41.0747 29.7353 41.022 29.8625 41.022 29.9951V32.9951C41.022 33.1277 41.0747 33.2549 41.1684 33.3487C41.2622 33.4424 41.3894 33.4951 41.522 33.4951H49.522ZM42.022 30.4951H49.022V32.4951H42.022V30.4951Z" fill="url(#paint1_linear_838_5147)"/>
<path d="M42 37.485H31V30.989C31 29.059 29.43 27.489 27.5 27.489H7.5C5.57 27.489 4 29.059 4 30.989V34.995C4 35.1276 4.05268 35.2548 4.14645 35.3486C4.24021 35.4423 4.36739 35.495 4.5 35.495H10V54.995C10 55.1276 10.0527 55.2548 10.1464 55.3486C10.2402 55.4423 10.3674 55.495 10.5 55.495H14.001C14.0042 56.2886 14.3214 57.0486 14.8834 57.6089C15.4454 58.1692 16.2064 58.4842 17 58.485V58.505H42C43.654 58.505 45 57.159 45 55.505V40.485C45 38.831 43.655 37.485 42 37.485ZM10 33.989V34.495H5V30.989C5 29.611 6.121 28.489 7.5 28.489C8.879 28.489 10 29.611 10 30.989V33.989ZM19 55.505C19 56.608 18.103 57.505 17 57.505V57.485C16.4716 57.4842 15.965 57.2746 15.5905 56.9018C15.2161 56.5291 15.0042 56.0234 15.001 55.495H19V55.505ZM13.5 46.489H19V48.489H13.5C13.3674 48.489 13.2402 48.5417 13.1464 48.6355C13.0527 48.7292 13 48.8564 13 48.989C13 49.1216 13.0527 49.2488 13.1464 49.3426C13.2402 49.4363 13.3674 49.489 13.5 49.489H19V51.489H13.5C13.3674 51.489 13.2402 51.5417 13.1464 51.6355C13.0527 51.7292 13 51.8564 13 51.989C13 52.1216 13.0527 52.2488 13.1464 52.3426C13.2402 52.4363 13.3674 52.489 13.5 52.489H19V54.495H11V30.989C11 30.009 10.593 29.125 9.942 28.489H27.5C28.879 28.489 30 29.611 30 30.989V42.505H22C21.899 42.505 21.803 42.525 21.704 42.535C21.64 42.5055 21.5705 42.4898 21.5 42.489H13.5C13.3674 42.489 13.2402 42.5417 13.1464 42.6355C13.0527 42.7292 13 42.8564 13 42.989C13 43.1216 13.0527 43.2488 13.1464 43.3426C13.2402 43.4363 13.3674 43.489 13.5 43.489H19.793C19.2896 44.0341 19.0073 44.7471 19.001 45.489H13.499C13.4333 45.4891 13.3683 45.5021 13.3077 45.5273C13.2471 45.5525 13.192 45.5893 13.1456 45.6358C13.0992 45.6823 13.0624 45.7374 13.0374 45.7981C13.0123 45.8588 12.9994 45.9239 12.9995 45.9895C12.9996 46.0552 13.0126 46.1202 13.0378 46.1808C13.0629 46.2415 13.0998 46.2965 13.1463 46.3429C13.1928 46.3893 13.2479 46.4261 13.3086 46.4511C13.3693 46.4762 13.4343 46.4891 13.5 46.489ZM44 48.985V55.505C44 56.608 43.103 57.505 42 57.505H19.235C19.7288 56.9559 20.0017 56.2434 20.001 55.505V45.505C20.001 44.402 20.898 43.505 22.001 43.505H42.001C43.104 43.505 44.001 44.402 44.001 45.505V48.985H44ZM44 43.285C43.4536 42.7852 42.7405 42.5071 42 42.505H31V38.485H42C43.103 38.485 44 39.382 44 40.485V43.285Z" fill="url(#paint2_linear_838_5147)"/>
<path d="M16.5 31.489H24.5C24.6326 31.489 24.7598 31.4363 24.8536 31.3426C24.9473 31.2488 25 31.1216 25 30.989C25 30.8564 24.9473 30.7292 24.8536 30.6355C24.7598 30.5417 24.6326 30.489 24.5 30.489H16.5C16.3674 30.489 16.2402 30.5417 16.1464 30.6355C16.0527 30.7292 16 30.8564 16 30.989C16 31.1216 16.0527 31.2488 16.1464 31.3426C16.2402 31.4363 16.3674 31.489 16.5 31.489ZM13.5 34.489H27.5C27.6326 34.489 27.7598 34.4363 27.8536 34.3426C27.9473 34.2488 28 34.1216 28 33.989C28 33.8564 27.9473 33.7292 27.8536 33.6355C27.7598 33.5417 27.6326 33.489 27.5 33.489H13.5C13.3674 33.489 13.2402 33.5417 13.1464 33.6355C13.0527 33.7292 13 33.8564 13 33.989C13 34.1216 13.0527 34.2488 13.1464 34.3426C13.2402 34.4363 13.3674 34.489 13.5 34.489ZM13.5 37.489H27.5C27.6326 37.489 27.7598 37.4363 27.8536 37.3426C27.9473 37.2488 28 37.1216 28 36.989C28 36.8564 27.9473 36.7292 27.8536 36.6355C27.7598 36.5417 27.6326 36.489 27.5 36.489H13.5C13.3674 36.489 13.2402 36.5417 13.1464 36.6355C13.0527 36.7292 13 36.8564 13 36.989C13 37.1216 13.0527 37.2488 13.1464 37.3426C13.2402 37.4363 13.3674 37.489 13.5 37.489ZM13.5 40.489H27.5C27.6326 40.489 27.7598 40.4363 27.8536 40.3426C27.9473 40.2488 28 40.1216 28 39.989C28 39.8564 27.9473 39.7292 27.8536 39.6355C27.7598 39.5417 27.6326 39.489 27.5 39.489H13.5C13.3674 39.489 13.2402 39.5417 13.1464 39.6355C13.0527 39.7292 13 39.8564 13 39.989C13 40.1216 13.0527 40.2488 13.1464 40.3426C13.2402 40.4363 13.3674 40.489 13.5 40.489Z" fill="url(#paint3_linear_838_5147)"/>
<path d="M41.5417 6C37.9211 6 33.8789 10.0294 32.5 11.5269C31.1211 10.0287 27.0789 6 23.4583 6C19.4141 6 17 8.4297 17 12.5C17 16.5703 19.4141 19 23.4583 19C27.0789 19 31.1211 14.9706 32.5 13.473C33.8789 14.9713 37.9211 19 41.5417 19C45.5859 19 48 16.5703 48 12.5C48 8.4297 45.5859 6 41.5417 6ZM23.4583 17.7C18.9633 17.7 18.2917 14.4422 18.2917 12.5C18.2917 10.5578 18.9633 7.3 23.4583 7.3C26.5984 7.3 30.4346 11.1941 31.6326 12.5C30.4353 13.8065 26.6029 17.7 23.4583 17.7ZM41.5417 17.7C38.4016 17.7 34.5654 13.8058 33.3674 12.5C34.5647 11.1935 38.3971 7.3 41.5417 7.3C46.0367 7.3 46.7083 10.5578 46.7083 12.5C46.7083 14.4422 46.0367 17.7 41.5417 17.7Z" fill="#0071BC"/>
<defs>
<linearGradient id="paint0_linear_838_5147" x1="34.0385" y1="29.2927" x2="69.6371" y2="49.7439" gradientUnits="userSpaceOnUse">
<stop stop-color="#07FFE1"/>
<stop offset="1" stop-color="#9DFF00"/>
</linearGradient>
<linearGradient id="paint1_linear_838_5147" x1="41.0277" y1="29.9554" x2="45.4673" y2="37.2392" gradientUnits="userSpaceOnUse">
<stop stop-color="#07FFE1"/>
<stop offset="1" stop-color="#9DFF00"/>
</linearGradient>
<linearGradient id="paint2_linear_838_5147" x1="4.0261" y1="31.0583" x2="42.7305" y2="68.3649" gradientUnits="userSpaceOnUse">
<stop stop-color="#07FFE1"/>
<stop offset="1" stop-color="#9DFF00"/>
</linearGradient>
<linearGradient id="paint3_linear_838_5147" x1="13.0095" y1="31.6398" x2="25.4469" y2="45.2431" gradientUnits="userSpaceOnUse">
<stop stop-color="#07FFE1"/>
<stop offset="1" stop-color="#9DFF00"/>
</linearGradient>
</defs>
</svg>
