<svg width="24" height="24" viewBox="0 0 24 24" fill="none" xmlns="http://www.w3.org/2000/svg">
<path d="M22.7758 19.9609H1.25537C1.02236 19.9609 0.833496 19.772 0.833496 19.539C0.833496 19.306 1.02236 19.1171 1.25537 19.1171H22.7758C23.0088 19.1171 23.1976 19.306 23.1976 19.539C23.1976 19.772 23.0088 19.9609 22.7758 19.9609ZM22.7758 12.4098H1.25537C1.02236 12.4098 0.833496 12.2209 0.833496 11.9879C0.833496 11.7549 1.02236 11.566 1.25537 11.566H22.7758C23.0088 11.566 23.1976 11.7549 23.1976 11.9879C23.1976 12.2209 23.0088 12.4098 22.7758 12.4098ZM22.7758 4.85873H1.25537C1.02236 4.85873 0.833496 4.66987 0.833496 4.43686C0.833496 4.20384 1.02236 4.01498 1.25537 4.01498H22.7758C23.0088 4.01498 23.1976 4.20384 23.1976 4.43686C23.1976 4.66987 23.0088 4.85873 22.7758 4.85873Z" fill="#07FFE1"/>
</svg>
