<svg width="24" height="24" viewBox="0 0 24 24" fill="none" xmlns="http://www.w3.org/2000/svg">
<path d="M2 13C2.55228 13 3 12.5523 3 12C3 11.4477 2.55228 11 2 11C1.44772 11 1 11.4477 1 12C1 12.5523 1.44772 13 2 13Z" fill="#07FFE1"/>
<path d="M21.485 11H7.48499C6.9327 11 6.48499 11.4477 6.48499 12C6.48499 12.5523 6.9327 13 7.48499 13H21.485C22.0373 13 22.485 12.5523 22.485 12C22.485 11.4477 22.0373 11 21.485 11Z" fill="#07FFE1"/>
<path d="M2 20.0567H22C22.5523 20.0567 23 19.609 23 19.0567C23 18.5044 22.5523 18.0567 22 18.0567H2C1.44772 18.0567 1 18.5044 1 19.0567C1 19.609 1.44772 20.0567 2 20.0567Z" fill="#07FFE1"/>
<path d="M22 4H2C1.44772 4 1 4.44772 1 5C1 5.55228 1.44772 6 2 6H22C22.5523 6 23 5.55228 23 5C23 4.44772 22.5523 4 22 4Z" fill="#07FFE1"/>
</svg>
