<svg width="32" height="32" viewBox="0 0 32 32" fill="none" xmlns="http://www.w3.org/2000/svg">
<path d="M27.8162 21.8648C26.7378 20.7568 23.6724 18.6812 21.6633 18.6812C21.198 18.6812 20.7917 18.7847 20.4594 18.9989C19.477 19.6267 18.694 20.1142 18.3173 20.1142C18.1105 20.1142 17.8889 19.9295 17.4014 19.5085L17.3202 19.4347C15.9685 18.2602 15.6804 17.9574 15.156 17.4108L15.023 17.2705C14.927 17.1744 14.8457 17.0858 14.7645 17.0045C14.3065 16.5318 13.9741 16.192 12.7997 14.8625L12.748 14.8034C12.1866 14.1682 11.8173 13.7545 11.7952 13.4517C11.773 13.1562 12.0315 12.6761 12.6889 11.7824C13.4866 10.704 13.5162 9.37443 12.7849 7.83068C12.2014 6.61193 11.2486 5.44489 10.4065 4.41818L10.3327 4.32955C9.60879 3.44318 8.76674 3 7.82867 3C6.78719 3 5.92299 3.56136 5.46503 3.85682C5.4281 3.87898 5.39117 3.90852 5.35424 3.93068C4.32753 4.58068 3.58151 5.47443 3.30083 6.38295C2.87981 7.74943 2.59912 9.52216 4.6156 13.208C6.35879 16.3989 7.93947 18.5409 10.4508 21.1187C12.8145 23.5415 13.8633 24.3244 16.2122 26.0233C18.827 27.9142 21.3383 29 23.0963 29C24.7287 29 26.0139 29 27.8457 26.7915C29.7662 24.4722 28.9685 23.054 27.8162 21.8648ZM26.9668 25.9937C25.4895 27.7812 24.64 27.7812 23.1037 27.7812C21.6043 27.7812 19.2775 26.7472 16.8844 25.0261C14.5946 23.3716 13.5753 22.6108 11.2781 20.2545C8.84799 17.7653 7.31901 15.6898 5.63492 12.6097C3.85481 9.35227 4.05424 7.9267 4.41617 6.75227C4.60822 6.12443 5.18435 5.45227 5.96731 4.96477C6.00424 4.94261 6.04117 4.91307 6.08549 4.89091C6.47697 4.63977 7.12697 4.21875 7.83606 4.21875C8.42697 4.21875 8.9514 4.5142 9.45367 5.12727L9.52754 5.21591C11.4111 7.52045 12.8809 9.55909 11.773 11.0659C10.99 12.1222 10.5764 12.8386 10.6429 13.5773C10.702 14.2938 11.1821 14.833 11.9059 15.6455L11.9577 15.7045C13.1469 17.0489 13.4866 17.4034 13.9594 17.8835C14.0406 17.9648 14.1219 18.0534 14.2179 18.1494L14.3508 18.2898C14.8974 18.8585 15.2003 19.1687 16.5889 20.3875L16.6702 20.4614C17.2611 20.9784 17.6969 21.3551 18.3321 21.3551C18.9895 21.3551 19.7133 20.9415 21.0872 20.0625C21.2275 19.9739 21.427 19.9222 21.6781 19.9222C23.281 19.9222 26.0435 21.754 27.0111 22.7511C27.8974 23.6523 28.3406 24.3318 26.9668 25.9937Z" fill="#07FFE1"/>
</svg>
