<svg width="65" height="64" viewBox="0 0 65 64" fill="none" xmlns="http://www.w3.org/2000/svg">
<g clip-path="url(#clip0_964_3161)">
<path d="M16.5 10C15.2444 10 14.2143 11.0301 14.2143 12.2857C14.2143 13.5413 15.2444 14.5714 16.5 14.5714C17.7556 14.5714 18.7857 13.5413 18.7857 12.2857C18.7857 11.0301 17.7556 10 16.5 10ZM16.5 11.1429C17.138 11.1429 17.6429 11.6478 17.6429 12.2857C17.6429 12.9237 17.138 13.4286 16.5 13.4286C15.8621 13.4286 15.3571 12.9237 15.3571 12.2857C15.3571 11.6478 15.8621 11.1429 16.5 11.1429ZM18.8304 14.0558L17.9442 14.7768L18.6652 15.6652L19.5513 14.942L18.8304 14.0558ZM20.2746 15.8281L19.3884 16.5513L20.1094 17.4375L20.9955 16.7143L20.2746 15.8281ZM21.7165 17.6004L21.2277 18H12.5C10.927 18 9.64286 19.2842 9.64286 20.8571V33.1719L6.03348 33.6049C5.63392 32.5075 4.58811 31.7143 3.35714 31.7143C1.78595 31.7143 0.499988 33.0002 0.5 34.5714C0.499988 36.1426 1.78595 37.4286 3.35714 37.4286C4.87182 37.4286 6.11074 36.2303 6.19866 34.7366L9.64286 34.3237V46.5714H5.64286C5.49131 46.5714 5.34597 46.6317 5.23881 46.7388C5.13165 46.846 5.07144 46.9913 5.07143 47.1429V49.4286C5.07143 51.6347 6.86531 53.4286 9.07143 53.4286H55.9286C58.1347 53.4286 59.9286 51.6347 59.9286 49.4286V47.1429C59.9286 46.9913 59.8684 46.846 59.7612 46.7388C59.654 46.6317 59.5087 46.5714 59.3571 46.5714H55.3571V38.8482L56.3973 39.1563L56.7232 38.0625L55.6272 37.7366L55.3571 38.6473V20.8571C55.3571 19.2842 54.073 18 52.5 18H22.0424L21.7165 17.6004ZM12.5 19.1429H21.4978L21.5513 19.2098L21.6339 19.1429H52.5C53.4596 19.1429 54.2143 19.8976 54.2143 20.8571V37.3192L53.4353 37.0893L53.1094 38.1853L54.2054 38.5089L54.2143 38.4799V46.5714H10.7857V34.1875L13.0714 33.9129V43.7143C13.0714 43.8658 13.1317 44.0112 13.2388 44.1183C13.346 44.2255 13.4913 44.2857 13.6429 44.2857H36.4777L37.3036 45.7165C37.7735 46.5305 38.8312 46.8137 39.6451 46.3438C40.3673 45.927 40.6684 45.0473 40.3996 44.2857H51.3571C51.5087 44.2857 51.654 44.2255 51.7612 44.1183C51.8684 44.0112 51.9286 43.8658 51.9286 43.7143V37.8371L52.0134 37.8594L52.3393 36.7634L51.9286 36.6429V22C51.9286 21.8485 51.8684 21.7031 51.7612 21.596C51.654 21.4888 51.5087 21.4286 51.3571 21.4286H24.8348L24.6027 21.1429L24.2545 21.4286H13.6429C13.4913 21.4286 13.346 21.4888 13.2388 21.596C13.1317 21.7031 13.0714 21.8485 13.0714 22V32.7612L10.7857 33.0379V20.8571C10.7857 19.8976 11.5404 19.1429 12.5 19.1429ZM23.1607 19.3705L22.2746 20.0938L22.9955 20.9799L23.8817 20.2567L23.1607 19.3705ZM14.2143 22.5714H24.2902L24.4397 22.7522L24.6629 22.5714H50.7857V43.1429H39.7768L36.558 37.567C36.6676 37.5064 36.7543 37.4115 36.8048 37.2969C36.8552 37.1823 36.8666 37.0542 36.8372 36.9325C36.8077 36.8108 36.7391 36.7021 36.6419 36.6231C36.5447 36.5442 36.4243 36.4994 36.2991 36.4955C36.1898 36.4904 36.0814 36.5167 35.9866 36.5714L34.9955 37.1429L34.5804 36.4196C37.0208 34.752 37.8098 31.4514 36.308 28.8504C35.1267 26.8044 32.8579 25.7655 30.6473 26.0379C29.9105 26.1282 29.182 26.3651 28.5 26.7589C25.772 28.334 24.8312 31.839 26.4063 34.567C27.861 37.0866 30.9612 38.0749 33.5759 36.971L34.0067 37.7143L33.0179 38.2857C32.8872 38.3619 32.792 38.4867 32.7531 38.6328C32.7142 38.779 32.7347 38.9346 32.8103 39.0657C32.8858 39.1967 33.0102 39.2925 33.1562 39.332C33.3022 39.3716 33.4579 39.3517 33.5893 39.2768L35.817 43.1384H14.2143V33.7723L24.5536 32.5313C24.509 32.1493 24.5007 31.7647 24.5201 31.3839L14.2143 32.6228V22.5714ZM26.0469 22.9174L25.1607 23.6384L25.8817 24.5246L26.7679 23.8036L26.0469 22.9174ZM47.3571 23.7143C46.1015 23.7143 45.0714 24.7445 45.0714 26C45.0714 26.124 45.09 26.2426 45.1094 26.3616L37.7902 29.3571C37.9231 29.7218 38.0235 30.0921 38.0915 30.4665L45.5692 27.404C45.9889 27.9362 46.6319 28.2857 47.3571 28.2857C48.6127 28.2857 49.6429 27.2557 49.6429 26C49.6429 24.7445 48.6127 23.7143 47.3571 23.7143ZM27.4911 24.6897L26.6049 25.4129L27.2589 26.2143C27.4715 26.0555 27.6935 25.9059 27.9286 25.7701C27.9663 25.7484 28.0062 25.7338 28.0446 25.7121L28.2121 25.5737L27.4911 24.6897ZM47.3571 24.8571C47.9951 24.8571 48.5 25.3621 48.5 26C48.5 26.6379 47.9951 27.1429 47.3571 27.1429C46.7192 27.1429 46.2143 26.6379 46.2143 26C46.2143 25.3621 46.7192 24.8571 47.3571 24.8571ZM31.4576 27.1339C33.0007 27.1671 34.486 27.9848 35.317 29.4241C36.5833 31.6174 35.8362 34.4056 33.6429 35.6719C31.4497 36.938 28.6636 36.1933 27.3973 34C26.1311 31.8069 26.8783 29.0185 29.0714 27.7522C29.6197 27.4357 30.2051 27.2457 30.7946 27.1719C31.0157 27.1444 31.2371 27.1304 31.4576 27.1362V27.1339ZM31.3571 28.2857C29.4704 28.2857 27.9286 29.8275 27.9286 31.7143C27.9286 33.6011 29.4704 35.1429 31.3571 35.1429C33.2439 35.1429 34.7857 33.6011 34.7857 31.7143C34.7857 29.8275 33.2439 28.2857 31.3571 28.2857ZM31.3571 29.4286C32.6263 29.4286 33.6429 30.4451 33.6429 31.7143C33.6429 32.9834 32.6263 34 31.3571 34C30.088 34 29.0714 32.9834 29.0714 31.7143C29.0714 30.4451 30.088 29.4286 31.3571 29.4286ZM38.1451 32.5603C38.0971 32.9405 38.0184 33.3142 37.9085 33.6808L38.8661 33.9621L39.1897 32.8661L38.1451 32.5603ZM3.35714 32.8571C4.31069 32.8571 5.07144 33.6178 5.07143 34.5714C5.07144 35.5249 4.31069 36.2857 3.35714 36.2857C2.4036 36.2857 1.64285 35.5249 1.64286 34.5714C1.64285 33.6178 2.4036 32.8571 3.35714 32.8571ZM40.2857 33.1942L39.9621 34.2902L41.0558 34.6138L41.3817 33.5179L40.2857 33.1942ZM42.4777 33.8415L42.1518 34.9375L43.2478 35.2612L43.5737 34.1652L42.4777 33.8415ZM44.6696 34.4911L44.3438 35.5848L45.4397 35.9129L45.7634 34.8147L44.6696 34.4911ZM46.8594 35.1384L46.5357 36.2366L47.6317 36.5625L47.9554 35.4665L46.8594 35.1384ZM49.0513 35.7902L48.7277 36.8862L49.8237 37.2098L50.1473 36.1138L49.0513 35.7902ZM25.8728 35.8192L24.4888 37.2031L25.2969 38.0112L26.6317 36.6763C26.3573 36.4166 26.1048 36.1285 25.8728 35.8192ZM61.6429 37.4286C60.0717 37.4286 58.7857 38.7145 58.7857 40.2857C58.7857 41.8569 60.0717 43.1429 61.6429 43.1429C63.2141 43.1429 64.5 41.8569 64.5 40.2857C64.5 38.7145 63.2141 37.4286 61.6429 37.4286ZM23.6808 38.0134L22.9487 38.7433C22.725 38.6359 22.4772 38.5714 22.2143 38.5714C21.2743 38.5714 20.5 39.3457 20.5 40.2857C20.5 41.2257 21.2743 42 22.2143 42C23.1543 42 23.9286 41.2257 23.9286 40.2857C23.9286 40.0234 23.8619 39.7791 23.7545 39.5558L24.4888 38.8192L23.6808 38.0134ZM35.5692 38.1384L39.2835 44.5714C39.4467 44.8542 39.3564 45.1895 39.0737 45.3527C38.7909 45.516 38.4557 45.4259 38.2924 45.1429L34.5781 38.7098L35.5692 38.1384ZM57.817 38.3862L57.4933 39.4844L58.5893 39.808L58.9129 38.7098L57.817 38.3862ZM61.6429 38.5714C62.5964 38.5714 63.3572 39.3321 63.3571 40.2857C63.3572 41.2392 62.5964 42 61.6429 42C60.6893 42 59.9286 41.2392 59.9286 40.2857C59.9286 39.3321 60.6893 38.5714 61.6429 38.5714ZM22.2143 39.7143C22.5366 39.7143 22.7857 39.9633 22.7857 40.2857C22.7857 40.608 22.5366 40.8571 22.2143 40.8571C21.8919 40.8571 21.6429 40.608 21.6429 40.2857C21.6429 39.9633 21.8919 39.7143 22.2143 39.7143ZM40.442 47.7121H58.7857V49.4263C58.7857 51.0191 57.5213 52.2835 55.9286 52.2835H9.07143C7.47869 52.2835 6.21429 51.0191 6.21429 49.4263V47.7143H25.7009C25.9682 49.0139 27.1236 49.9978 28.5 49.9978H37.6429C39.0192 49.9978 40.1747 49.0116 40.442 47.7121ZM27.0201 47.7143H39.1228C38.8747 48.3515 38.377 48.8571 37.6429 48.8571H28.5C27.7659 48.8571 27.2682 48.3515 27.0201 47.7143Z" fill="url(#paint0_linear_964_3161)"/>
</g>
<defs>
<linearGradient id="paint0_linear_964_3161" x1="0.540746" y1="14.9977" x2="54.6313" y2="73.1214" gradientUnits="userSpaceOnUse">
<stop stop-color="#07FFE1"/>
<stop offset="1" stop-color="#9DFF00"/>
</linearGradient>
<clipPath id="clip0_964_3161">
<rect width="64" height="64" fill="white" transform="translate(0.5)"/>
</clipPath>
</defs>
</svg>
