<svg width="65" height="64" viewBox="0 0 65 64" fill="none" xmlns="http://www.w3.org/2000/svg">
<path d="M57.1429 52.1033H7.85714C6.43669 52.1021 5.07474 51.5292 4.07032 50.5102C3.06591 49.4912 2.50114 48.1095 2.5 46.6684V44.4944C2.5 44.2062 2.61288 43.9297 2.81381 43.7258C3.01475 43.522 3.28727 43.4075 3.57143 43.4075H61.4286C61.7127 43.4075 61.9853 43.522 62.1862 43.7258C62.3871 43.9297 62.5 44.2062 62.5 44.4944V46.6684C62.5 49.6663 60.0979 52.1033 57.1429 52.1033ZM4.03838 45.0878V46.6684C4.03838 48.4663 5.62239 50.5102 7.39454 50.5102H57.242C59.0142 50.5102 61.1364 48.4663 61.1364 46.6684V45.0878H4.03838Z" fill="url(#paint0_linear_968_3411)"/>
<path d="M6.62207 44.1034H6.02207V44.7034H6.62207V44.1034ZM58.3237 44.1034V44.7034H58.9237V44.1034H58.3237ZM7.22207 44.1034V14.5H6.02207V44.1034H7.22207ZM9.12207 12.6H55.8237V11.4H9.12207V12.6ZM57.7237 14.5V44.1034H58.9237V14.5H57.7237ZM58.3237 43.5034H6.62207V44.7034H58.3237V43.5034ZM55.8237 12.6C56.873 12.6 57.7237 13.4507 57.7237 14.5H58.9237C58.9237 12.7879 57.5357 11.4 55.8237 11.4V12.6ZM7.22207 14.5C7.22207 13.4507 8.07273 12.6 9.12207 12.6V11.4C7.40999 11.4 6.02207 12.7879 6.02207 14.5H7.22207Z" fill="url(#paint1_linear_968_3411)"/>
<path d="M9.33555 15.5513V41.0295H10.5355V15.5513H9.33555ZM10.0355 41.7295H54.8414V40.5295H10.0355V41.7295ZM55.5414 41.0295V15.5513H54.3414V41.0295H55.5414ZM54.8414 14.8513H10.0355V16.0513H54.8414V14.8513ZM55.5414 15.5513C55.5414 15.1647 55.228 14.8513 54.8414 14.8513V16.0513C54.5653 16.0513 54.3414 15.8274 54.3414 15.5513H55.5414ZM54.8414 41.7295C55.228 41.7295 55.5414 41.4161 55.5414 41.0295H54.3414C54.3414 40.7534 54.5653 40.5295 54.8414 40.5295V41.7295ZM9.33555 41.0295C9.33555 41.4161 9.64894 41.7295 10.0355 41.7295V40.5295C10.3117 40.5295 10.5355 40.7534 10.5355 41.0295H9.33555ZM10.5355 15.5513C10.5355 15.8274 10.3117 16.0513 10.0355 16.0513V14.8513C9.64893 14.8513 9.33555 15.1647 9.33555 15.5513H10.5355Z" fill="url(#paint2_linear_968_3411)"/>
<path d="M26.0738 44.1033V47.6554H27.2738V44.1033H26.0738ZM26.7738 48.3554H38.2261V47.1554H26.7738V48.3554ZM38.9261 47.6554V44.1033H37.7261V47.6554H38.9261ZM38.2261 48.3554C38.6127 48.3554 38.9261 48.042 38.9261 47.6554H37.7261C37.7261 47.3792 37.95 47.1554 38.2261 47.1554V48.3554ZM26.0738 47.6554C26.0738 48.042 26.3872 48.3554 26.7738 48.3554V47.1554C27.05 47.1554 27.2738 47.3792 27.2738 47.6554H26.0738Z" fill="url(#paint3_linear_968_3411)"/>
<path d="M30.9373 33.0417C30.7731 33.0419 30.6106 33.0096 30.4589 32.9467C30.3072 32.8839 30.1695 32.7917 30.0536 32.6754L26.9286 29.5504C26.8125 29.4344 26.7204 29.2966 26.6576 29.145C26.5948 28.9933 26.5625 28.8308 26.5625 28.6667C26.5625 28.5026 26.5948 28.34 26.6576 28.1884C26.7204 28.0368 26.8125 27.899 26.9286 27.7829C27.0446 27.6669 27.1824 27.5748 27.334 27.512C27.4857 27.4492 27.6482 27.4169 27.8123 27.4169C27.9764 27.4169 28.139 27.4492 28.2906 27.512C28.4422 27.5748 28.58 27.6669 28.6961 27.7829L30.9373 30.0242L36.3036 24.6579C36.4196 24.5419 36.5574 24.4498 36.709 24.387C36.8607 24.3242 37.0232 24.2919 37.1873 24.2919C37.3514 24.2919 37.514 24.3242 37.6656 24.387C37.8172 24.4498 37.955 24.5419 38.0711 24.6579C38.1871 24.774 38.2792 24.9118 38.342 25.0634C38.4048 25.215 38.4371 25.3776 38.4371 25.5417C38.4371 25.7058 38.4048 25.8683 38.342 26.02C38.2792 26.1716 38.1871 26.3094 38.0711 26.4254L31.8211 32.6754C31.7051 32.7917 31.5674 32.8839 31.4157 32.9467C31.2641 33.0096 31.1015 33.0419 30.9373 33.0417Z" fill="#0071BC"/>
<path d="M22.35 28.6666C22.35 34.2632 26.9034 38.8166 32.5 38.8166C38.0966 38.8166 42.65 34.2632 42.65 28.6666C42.65 23.07 38.0966 18.5166 32.5 18.5166C26.9034 18.5166 22.35 23.07 22.35 28.6666ZM23.9 28.6666C23.9 23.9257 27.7591 20.0666 32.5 20.0666C37.2409 20.0666 41.1 23.9257 41.1 28.6666C41.1 33.4075 37.2409 37.2666 32.5 37.2666C27.7591 37.2666 23.9 33.4075 23.9 28.6666Z" fill="#0071BC" stroke="#0071BC" stroke-width="0.3"/>
<defs>
<linearGradient id="paint0_linear_968_3411" x1="2.5382" y1="44.4082" x2="6.69073" y2="65.3002" gradientUnits="userSpaceOnUse">
<stop stop-color="#07FFE1"/>
<stop offset="1" stop-color="#9DFF00"/>
</linearGradient>
<linearGradient id="paint1_linear_968_3411" x1="6.65499" y1="15.6944" x2="46.2314" y2="62.1691" gradientUnits="userSpaceOnUse">
<stop stop-color="#07FFE1"/>
<stop offset="1" stop-color="#9DFF00"/>
</linearGradient>
<linearGradient id="paint2_linear_968_3411" x1="9.9642" y1="18.4063" x2="41.0883" y2="58.1829" gradientUnits="userSpaceOnUse">
<stop stop-color="#07FFE1"/>
<stop offset="1" stop-color="#9DFF00"/>
</linearGradient>
<linearGradient id="paint3_linear_968_3411" x1="26.6812" y1="44.5236" x2="29.9904" y2="52.2221" gradientUnits="userSpaceOnUse">
<stop stop-color="#07FFE1"/>
<stop offset="1" stop-color="#9DFF00"/>
</linearGradient>
</defs>
</svg>
