<svg width="64" height="64" viewBox="0 0 64 64" fill="none" xmlns="http://www.w3.org/2000/svg">
<path d="M41.5708 46.1606C41.1603 46.1624 40.755 46.0675 40.3878 45.8838C40.0207 45.7001 39.7018 45.4326 39.457 45.103L39.0112 44.507C38.9512 44.4269 38.9256 44.3262 38.9399 44.2272C38.9542 44.1281 39.0072 44.0388 39.0874 43.9789C39.1675 43.919 39.2681 43.8934 39.3672 43.9076C39.4662 43.9219 39.5555 43.975 39.6154 44.0551L40.0613 44.6511C40.236 44.8867 40.4636 45.0778 40.7259 45.2092C40.9881 45.3405 41.2776 45.4082 41.5708 45.407C42.1706 45.407 42.7206 45.1316 43.0804 44.6511L43.5263 44.0551C43.5862 43.975 43.6755 43.9219 43.7745 43.9076C43.8736 43.8934 43.9742 43.919 44.0543 43.9789C44.1345 44.0388 44.1875 44.1281 44.2018 44.2272C44.2161 44.3262 44.1905 44.4269 44.1305 44.507L43.6847 45.103C43.4398 45.4325 43.1209 45.6999 42.7537 45.8836C42.3866 46.0673 41.9814 46.1622 41.5708 46.1606ZM21.9511 43.3067C21.0525 43.3093 20.1779 43.0176 19.4608 42.4761C19.3853 42.4146 19.3365 42.3262 19.3247 42.2295C19.3129 42.1327 19.339 42.0352 19.3975 41.9573C19.456 41.8794 19.5424 41.8272 19.6386 41.8115C19.7348 41.7959 19.8332 41.818 19.9134 41.8734C21.0993 42.7636 22.8156 42.7613 24 41.8636C24.0798 41.8031 24.1802 41.7769 24.2793 41.7905C24.3784 41.8042 24.4681 41.8566 24.5285 41.9364C24.5889 42.0161 24.6152 42.1166 24.6015 42.2157C24.5879 42.3148 24.5354 42.4044 24.4557 42.4648C23.7362 43.0134 22.8558 43.3093 21.9511 43.3067Z" fill="#0071BC"/>
<path d="M50.6238 58.5866C50.5237 58.5866 50.4278 58.5468 50.357 58.4761C50.2863 58.4053 50.2466 58.3094 50.2466 58.2094V48.0589C50.2466 47.9588 50.2863 47.8629 50.357 47.7921C50.4278 47.7214 50.5237 47.6817 50.6238 47.6817C50.7238 47.6817 50.8197 47.7214 50.8905 47.7921C50.9612 47.8629 51.001 47.9588 51.001 48.0589V58.2094C51.001 58.3094 50.9612 58.4053 50.8905 58.4761C50.8197 58.5468 50.7238 58.5866 50.6238 58.5866ZM41.5709 44.6656C41.2777 44.6669 40.9883 44.5993 40.726 44.4681C40.4638 44.3369 40.2361 44.1459 40.0614 43.9104L39.012 42.508C38.9628 42.4422 38.9363 42.3622 38.9365 42.2801L38.9524 36.9925C38.9528 36.8927 38.9927 36.7972 39.0634 36.7268C39.1341 36.6564 39.2298 36.6168 39.3296 36.6168H39.3303C39.5386 36.6176 39.7075 36.7873 39.7068 36.9955L39.6909 42.1564L40.6649 43.4585C41.0964 44.0349 42.0454 44.0349 42.477 43.4585L43.4516 42.1557L43.4675 36.9933C43.4679 36.8935 43.5078 36.7979 43.5785 36.7275C43.6492 36.6571 43.7449 36.6176 43.8447 36.6176H43.8454C44.0537 36.6183 44.2226 36.7881 44.2219 36.9963L44.2061 42.2831C44.206 42.3643 44.1795 42.4432 44.1306 42.508L43.0812 43.9104C42.9063 44.1459 42.6785 44.3369 42.4161 44.4681C42.1538 44.5992 41.8642 44.6669 41.5709 44.6656Z" fill="url(#paint0_linear_838_5148)"/>
<path d="M39.2896 59C39.1896 59 39.0937 58.9603 39.0229 58.8895C38.9522 58.8188 38.9124 58.7228 38.9124 58.6228L38.9283 42.0191C38.9283 41.9191 38.968 41.8231 39.0388 41.7524C39.1095 41.6817 39.2054 41.6419 39.3055 41.6419C39.4055 41.6419 39.5015 41.6817 39.5722 41.7524C39.6429 41.8231 39.6827 41.9191 39.6827 42.0191L39.6668 58.6228C39.6668 58.7228 39.6271 58.8188 39.5564 58.8895C39.4856 58.9603 39.3897 59 39.2896 59ZM43.8047 59C43.7047 59 43.6088 58.9603 43.538 58.8895C43.4673 58.8188 43.4275 58.7228 43.4275 58.6228L43.4434 42.0199C43.4434 41.9198 43.4831 41.8239 43.5539 41.7532C43.6246 41.6824 43.7205 41.6427 43.8206 41.6427C43.9206 41.6427 44.0166 41.6824 44.0873 41.7532C44.158 41.8239 44.1978 41.9198 44.1978 42.0199L44.1819 58.6228C44.1819 58.7228 44.1422 58.8188 44.0715 58.8895C44.0007 58.9603 43.9048 59 43.8047 59ZM47.6062 31.7781C47.5061 31.7781 47.4102 31.7383 47.3395 31.6676C47.2687 31.5969 47.229 31.5009 47.229 31.4009V25.4124C47.229 22.293 44.6912 19.7552 41.571 19.7552C38.4507 19.7552 35.9129 22.293 35.9129 25.4117V31.4001C35.9129 31.5002 35.8732 31.5961 35.8024 31.6669C35.7317 31.7376 35.6358 31.7773 35.5357 31.7773C35.4357 31.7773 35.3397 31.7376 35.269 31.6669C35.1983 31.5961 35.1585 31.5002 35.1585 31.4001V25.4117C35.1585 21.8758 38.0351 19 41.571 19C45.1068 19 47.9834 21.8765 47.9834 25.4117V31.4001C47.9835 31.4497 47.9738 31.4989 47.9549 31.5447C47.936 31.5906 47.9082 31.6322 47.8732 31.6673C47.8381 31.7025 47.7965 31.7303 47.7507 31.7493C47.7049 31.7683 47.6558 31.7781 47.6062 31.7781Z" fill="url(#paint1_linear_838_5148)"/>
<path d="M41.571 31.085C40.9471 31.085 40.4394 30.5773 40.4394 29.9534V29.5935C40.4394 29.4935 40.4791 29.3975 40.5499 29.3268C40.6206 29.256 40.7166 29.2163 40.8166 29.2163C40.9166 29.2163 41.0126 29.256 41.0833 29.3268C41.1541 29.3975 41.1938 29.4935 41.1938 29.5935V29.9534C41.1938 30.0534 41.2335 30.1493 41.3043 30.2201C41.375 30.2908 41.471 30.3306 41.571 30.3306C41.671 30.3306 41.767 30.2908 41.8377 30.2201C41.9085 30.1493 41.9482 30.0534 41.9482 29.9534V29.5935C41.9482 29.4935 41.9879 29.3975 42.0587 29.3268C42.1294 29.256 42.2254 29.2163 42.3254 29.2163C42.4254 29.2163 42.5214 29.256 42.5921 29.3268C42.6629 29.3975 42.7026 29.4935 42.7026 29.5935V29.9534C42.7026 30.5773 42.1949 31.085 41.571 31.085Z" fill="url(#paint2_linear_838_5148)"/>
<path d="M38.9299 27.311C39.1382 27.311 39.3071 27.1422 39.3071 26.9338C39.3071 26.7255 39.1382 26.5566 38.9299 26.5566C38.7216 26.5566 38.5527 26.7255 38.5527 26.9338C38.5527 27.1422 38.7216 27.311 38.9299 27.311Z" fill="url(#paint3_linear_838_5148)"/>
<path d="M44.2107 27.311C44.419 27.311 44.5879 27.1422 44.5879 26.9338C44.5879 26.7255 44.419 26.5566 44.2107 26.5566C44.0023 26.5566 43.8335 26.7255 43.8335 26.9338C43.8335 27.1422 44.0023 27.311 44.2107 27.311Z" fill="url(#paint4_linear_838_5148)"/>
<path d="M35.5199 29.576H34.7813C34.1574 29.576 33.6497 29.0683 33.6497 28.4444V26.1812C33.6497 25.5573 34.1574 25.0496 34.7813 25.0496H35.5199C35.6199 25.0496 35.7159 25.0893 35.7866 25.16C35.8574 25.2308 35.8971 25.3267 35.8971 25.4268C35.8971 25.5268 35.8574 25.6227 35.7866 25.6935C35.7159 25.7642 35.6199 25.804 35.5199 25.804H34.7813C34.6813 25.804 34.5854 25.8437 34.5146 25.9144C34.4439 25.9852 34.4041 26.0811 34.4041 26.1812V28.4444C34.4041 28.5444 34.4439 28.6404 34.5146 28.7111C34.5854 28.7818 34.6813 28.8216 34.7813 28.8216H35.5199C35.6199 28.8216 35.7159 28.8613 35.7866 28.9321C35.8574 29.0028 35.8971 29.0987 35.8971 29.1988C35.8971 29.2988 35.8574 29.3948 35.7866 29.4655C35.7159 29.5362 35.6199 29.576 35.5199 29.576ZM48.3448 29.576H47.6062C47.5062 29.576 47.4102 29.5362 47.3395 29.4655C47.2687 29.3948 47.229 29.2988 47.229 29.1988C47.229 29.0987 47.2687 29.0028 47.3395 28.9321C47.4102 28.8613 47.5062 28.8216 47.6062 28.8216H48.3448C48.4448 28.8216 48.5407 28.7818 48.6115 28.7111C48.6822 28.6404 48.722 28.5444 48.722 28.4444V26.1812C48.722 26.0811 48.6822 25.9852 48.6115 25.9144C48.5407 25.8437 48.4448 25.804 48.3448 25.804H47.6062C47.5062 25.804 47.4102 25.7642 47.3395 25.6935C47.2687 25.6227 47.229 25.5268 47.229 25.4268C47.229 25.3267 47.2687 25.2308 47.3395 25.16C47.4102 25.0893 47.5062 25.0496 47.6062 25.0496H48.3448C48.9687 25.0496 49.4764 25.5573 49.4764 26.1812V28.4444C49.4764 29.0683 48.9687 29.576 48.3448 29.576ZM38.5534 31.8384C38.4534 31.8384 38.3576 31.7988 38.2869 31.7282C38.2162 31.6577 38.1764 31.5619 38.1762 31.462V31.4597C38.1762 30.4194 39.0226 29.5737 40.0622 29.5737H40.8166C40.9166 29.5737 41.0126 29.6135 41.0833 29.6842C41.154 29.7549 41.1938 29.8509 41.1938 29.9509C41.1938 30.051 41.154 30.1469 41.0833 30.2176C41.0126 30.2884 40.9166 30.3281 40.8166 30.3281H40.0622C39.4383 30.3281 38.9306 30.8358 38.9306 31.4597C38.9306 31.5599 38.8909 31.656 38.8202 31.727C38.7495 31.798 38.6535 31.838 38.5534 31.8384ZM44.5886 31.8384C44.4887 31.8384 44.3929 31.7988 44.3221 31.7282C44.2514 31.6577 44.2116 31.5619 44.2114 31.462V31.4597C44.2114 30.8358 43.7037 30.3281 43.0798 30.3281H42.3254C42.2253 30.3281 42.1294 30.2884 42.0587 30.2176C41.9879 30.1469 41.9482 30.051 41.9482 29.9509C41.9482 29.8509 41.9879 29.7549 42.0587 29.6842C42.1294 29.6135 42.2253 29.5737 42.3254 29.5737H43.0798C44.1194 29.5737 44.9658 30.4194 44.9658 31.4597C44.9659 31.5094 44.9562 31.5585 44.9373 31.6044C44.9184 31.6503 44.8907 31.692 44.8556 31.7272C44.8206 31.7624 44.779 31.7903 44.7332 31.8094C44.6874 31.8285 44.6382 31.8383 44.5886 31.8384ZM41.9482 34.1024H41.1938C41.0937 34.1024 40.9978 34.0627 40.9271 33.9919C40.8563 33.9212 40.8166 33.8252 40.8166 33.7252C40.8166 33.6252 40.8563 33.5292 40.9271 33.4585C40.9978 33.3877 41.0937 33.348 41.1938 33.348H41.9482C42.0482 33.348 42.1442 33.3877 42.2149 33.4585C42.2856 33.5292 42.3254 33.6252 42.3254 33.7252C42.3254 33.8252 42.2856 33.9212 42.2149 33.9919C42.1442 34.0627 42.0482 34.1024 41.9482 34.1024Z" fill="url(#paint5_linear_838_5148)"/>
<path d="M38.5533 31.0848H37.4217C36.174 31.0848 35.1585 30.0693 35.1585 28.8216V26.9356C35.1585 26.8355 35.1983 26.7396 35.269 26.6688C35.3397 26.5981 35.4357 26.5583 35.5357 26.5583C35.6358 26.5583 35.7317 26.5981 35.8024 26.6688C35.8732 26.7396 35.9129 26.8355 35.9129 26.9356V28.8216C35.9129 29.6537 36.5896 30.3304 37.4217 30.3304H38.5533C38.6534 30.3304 38.7493 30.3701 38.8201 30.4408C38.8908 30.5116 38.9305 30.6075 38.9305 30.7076C38.9305 30.8076 38.8908 30.9036 38.8201 30.9743C38.7493 31.045 38.6534 31.0848 38.5533 31.0848ZM45.7202 31.0848H44.5886C44.4885 31.0848 44.3926 31.045 44.3218 30.9743C44.2511 30.9036 44.2114 30.8076 44.2114 30.7076C44.2114 30.6075 44.2511 30.5116 44.3218 30.4408C44.3926 30.3701 44.4885 30.3304 44.5886 30.3304H45.7202C46.5523 30.3304 47.229 29.6537 47.229 28.8216V26.9356C47.229 26.8355 47.2687 26.7396 47.3395 26.6688C47.4102 26.5981 47.5061 26.5583 47.6062 26.5583C47.7062 26.5583 47.8022 26.5981 47.8729 26.6688C47.9436 26.7396 47.9834 26.8355 47.9834 26.9356V28.8216C47.9834 30.0693 46.968 31.0848 45.7202 31.0848ZM41.6343 32.6034C40.9667 32.6034 40.3458 32.3922 39.8841 32.0089C39.8072 31.9449 39.7588 31.8529 39.7497 31.7533C39.7406 31.6536 39.7714 31.5544 39.8355 31.4774C39.8995 31.4005 39.9914 31.3522 40.0911 31.343C40.1908 31.3339 40.29 31.3648 40.3669 31.4288C41.0097 31.9637 42.2597 31.9637 42.9017 31.4288C42.9787 31.3648 43.0779 31.3339 43.1775 31.343C43.2772 31.3522 43.3692 31.4005 43.4332 31.4774C43.4972 31.5544 43.5281 31.6536 43.5189 31.7533C43.5098 31.8529 43.4615 31.9449 43.3845 32.0089C42.9228 32.3922 42.302 32.6034 41.6343 32.6034Z" fill="url(#paint6_linear_838_5148)"/>
<path d="M43.0955 37.12H40.0621C38.7621 37.1184 37.5157 36.6013 36.5965 35.682C35.6772 34.7628 35.1601 33.5164 35.1585 32.2164V30.7076C35.1585 30.6075 35.1982 30.5116 35.2689 30.4409C35.3397 30.3701 35.4356 30.3304 35.5357 30.3304C35.6357 30.3304 35.7317 30.3701 35.8024 30.4409C35.8731 30.5116 35.9129 30.6075 35.9129 30.7076V32.2164C35.9129 34.5037 37.774 36.3656 40.0621 36.3656H43.0955C45.3837 36.3656 47.2448 34.5037 47.2448 32.2164V30.7076C47.2448 30.6075 47.2845 30.5116 47.3553 30.4409C47.426 30.3701 47.5219 30.3304 47.622 30.3304C47.722 30.3304 47.818 30.3701 47.8887 30.4409C47.9594 30.5116 47.9992 30.6075 47.9992 30.7076V32.2164C47.9992 34.9202 45.7993 37.12 43.0955 37.12ZM38.1761 25.804H35.1585C35.0584 25.804 34.9625 25.7642 34.8917 25.6935C34.821 25.6227 34.7813 25.5268 34.7813 25.4268C34.7813 25.3267 34.821 25.2308 34.8917 25.16C34.9625 25.0893 35.0584 25.0496 35.1585 25.0496H38.1761C38.2761 25.0496 38.3721 25.0893 38.4428 25.16C38.5135 25.2308 38.5533 25.3267 38.5533 25.4268C38.5533 25.5268 38.5135 25.6227 38.4428 25.6935C38.3721 25.7642 38.2761 25.804 38.1761 25.804ZM47.9833 25.804H44.9657C44.8657 25.804 44.7697 25.7642 44.699 25.6935C44.6283 25.6227 44.5885 25.5268 44.5885 25.4268C44.5885 25.3267 44.6283 25.2308 44.699 25.16C44.7697 25.0893 44.8657 25.0496 44.9657 25.0496H47.9833C48.0834 25.0496 48.1793 25.0893 48.2501 25.16C48.3208 25.2308 48.3605 25.3267 48.3605 25.4268C48.3605 25.5268 48.3208 25.6227 48.2501 25.6935C48.1793 25.7642 48.0834 25.804 47.9833 25.804ZM42.3253 27.1649C42.2423 27.165 42.1616 27.1376 42.0958 27.0869C42.03 27.0363 41.9829 26.9653 41.9617 26.885C41.7829 26.418 41.2805 26.5191 41.1816 26.885C41.1689 26.9329 41.1467 26.9779 41.1166 27.0172C41.0864 27.0565 41.0487 27.0895 41.0057 27.1143C40.9628 27.139 40.9153 27.155 40.8662 27.1614C40.817 27.1678 40.767 27.1643 40.7192 27.1513C40.6713 27.1386 40.6265 27.1165 40.5872 27.0863C40.5479 27.0562 40.515 27.0186 40.4902 26.9757C40.4655 26.9328 40.4495 26.8855 40.4431 26.8364C40.4367 26.7873 40.44 26.7374 40.4529 26.6896C40.5932 26.1683 41.0534 25.8032 41.5717 25.8032C42.0424 25.8032 42.4634 26.0974 42.6437 26.5516C42.6618 26.5976 42.6776 26.6436 42.6904 26.6911C42.7052 26.747 42.707 26.8056 42.6956 26.8622C42.6841 26.9189 42.6599 26.9722 42.6246 27.018C42.5893 27.0638 42.5439 27.1008 42.4921 27.1263C42.4402 27.1518 42.3831 27.165 42.3253 27.1649Z" fill="url(#paint7_linear_838_5148)"/>
<path d="M39.3077 28.8216H38.5533C38.0533 28.821 37.5739 28.6221 37.2204 28.2685C36.8668 27.915 36.6679 27.4356 36.6673 26.9356V26.1812C36.6673 25.5573 37.175 25.0496 37.7989 25.0496H40.0621C40.686 25.0496 41.1937 25.5573 41.1937 26.1812V26.9356C41.1937 27.9759 40.3473 28.8216 39.3077 28.8216ZM37.7989 25.804C37.6989 25.804 37.6029 25.8437 37.5322 25.9144C37.4614 25.9852 37.4217 26.0811 37.4217 26.1812V26.9356C37.4217 27.5595 37.9294 28.0672 38.5533 28.0672H39.3077C39.9316 28.0672 40.4393 27.5595 40.4393 26.9356V26.1812C40.4393 26.0811 40.3996 25.9852 40.3288 25.9144C40.2581 25.8437 40.1621 25.804 40.0621 25.804H37.7989ZM44.5885 28.8216H43.8341C43.3341 28.821 42.8547 28.6221 42.5012 28.2685C42.1476 27.915 41.9487 27.4356 41.9481 26.9356V26.1812C41.9481 25.5573 42.4558 25.0496 43.0797 25.0496H45.3429C45.9668 25.0496 46.4745 25.5573 46.4745 26.1812V26.9356C46.4745 27.9759 45.6281 28.8216 44.5885 28.8216ZM43.0797 25.804C42.9797 25.804 42.8837 25.8437 42.813 25.9144C42.7423 25.9852 42.7025 26.0811 42.7025 26.1812V26.9356C42.7025 27.5595 43.2102 28.0672 43.8341 28.0672H44.5885C45.2124 28.0672 45.7201 27.5595 45.7201 26.9356V26.1812C45.7201 26.0811 45.6804 25.9852 45.6097 25.9144C45.5389 25.8437 45.443 25.804 45.3429 25.804H43.0797ZM37.0445 43.9097C36.9445 43.9097 36.8485 43.8699 36.7778 43.7992C36.707 43.7284 36.6673 43.6325 36.6673 43.5325V39.7604C36.6673 39.6344 36.7299 39.5168 36.8355 39.4466L39.0987 37.9378C39.1555 37.8999 39.2215 37.8782 39.2897 37.875C39.3579 37.8718 39.4257 37.8873 39.4857 37.9197C39.5459 37.9517 39.5963 37.9996 39.6314 38.058C39.6665 38.1165 39.685 38.1834 39.6849 38.2516V42.0236C39.6849 42.0858 39.6696 42.147 39.6402 42.2017C39.6109 42.2565 39.5684 42.3031 39.5167 42.3375L37.2535 43.8463C37.1915 43.8874 37.1189 43.9095 37.0445 43.9097ZM37.4217 39.9619V42.8271L38.9305 41.8215V38.9562L37.4217 39.9619ZM39.3077 42.0236H39.3152H39.3077ZM46.0973 43.9097C46.0229 43.9098 45.9502 43.8878 45.8884 43.8463L43.6252 42.3375C43.5734 42.3031 43.5309 42.2565 43.5016 42.2017C43.4722 42.147 43.4569 42.0858 43.4569 42.0236V38.2516C43.457 38.1834 43.4755 38.1165 43.5106 38.0579C43.5456 37.9994 43.5959 37.9515 43.6561 37.9193C43.7162 37.8871 43.784 37.8718 43.8521 37.8751C43.9203 37.8783 43.9863 37.9 44.0431 37.9378L46.3063 39.4466C46.4119 39.5168 46.4745 39.6344 46.4745 39.7604V43.5325C46.4747 43.582 46.4651 43.6312 46.4462 43.677C46.4273 43.7229 46.3996 43.7646 46.3645 43.7996C46.3294 43.8347 46.2878 43.8625 46.2419 43.8813C46.1961 43.9002 46.1469 43.9099 46.0973 43.9097ZM44.2113 41.8215L45.7201 42.8271V39.9619L44.2113 38.9562V41.8215ZM12.1492 58.5896C12.0491 58.5896 11.9532 58.5499 11.8825 58.4791C11.8117 58.4084 11.772 58.3124 11.772 58.2124V48.0611C11.772 47.9611 11.8117 47.8652 11.8825 47.7944C11.9532 47.7237 12.0491 47.6839 12.1492 47.6839C12.2492 47.6839 12.3452 47.7237 12.4159 47.7944C12.4866 47.8652 12.5264 47.9611 12.5264 48.0611V58.2124C12.5264 58.3124 12.4866 58.4084 12.4159 58.4791C12.3452 58.5499 12.2492 58.5896 12.1492 58.5896ZM19.6932 58.5896C19.5932 58.5896 19.4972 58.5499 19.4265 58.4791C19.3557 58.4084 19.316 58.3124 19.316 58.2124L19.3107 39.0083C19.3107 38.9083 19.3505 38.8123 19.4212 38.7416C19.4919 38.6708 19.5879 38.6311 19.6879 38.6311C19.788 38.6311 19.8839 38.6708 19.9547 38.7416C20.0254 38.8123 20.0651 38.9083 20.0651 39.0083L20.0704 58.2124C20.0704 58.3124 20.0307 58.4084 19.9599 58.4791C19.8892 58.5499 19.7933 58.5896 19.6932 58.5896ZM31.0093 58.5896C30.9092 58.5896 30.8133 58.5499 30.7425 58.4791C30.6718 58.4084 30.6321 58.3124 30.6321 58.2124V48.0611C30.6321 47.9611 30.6718 47.8652 30.7425 47.7944C30.8133 47.7237 30.9092 47.6839 31.0093 47.6839C31.1093 47.6839 31.2052 47.7237 31.276 47.7944C31.3467 47.8652 31.3865 47.9611 31.3865 48.0611V58.2124C31.3865 58.3124 31.3467 58.4084 31.276 58.4791C31.2052 58.5499 31.1093 58.5896 31.0093 58.5896Z" fill="url(#paint8_linear_838_5148)"/>
<path d="M21.9549 41.8018C21.2563 41.801 20.5865 41.5231 20.0925 41.0291C19.5985 40.5351 19.3206 39.8653 19.3198 39.1667L19.31 36.8137C19.3092 36.6047 19.4684 36.4123 19.6872 36.435C19.787 36.435 19.8827 36.4745 19.9534 36.5449C20.0241 36.6153 20.064 36.7109 20.0644 36.8106L20.0742 39.1651C20.0742 40.204 20.9176 41.0474 21.9549 41.0474C22.9922 41.0474 23.8357 40.204 23.8357 39.1667L23.8447 36.785C23.8451 36.6852 23.885 36.5897 23.9557 36.5193C24.0264 36.4488 24.1221 36.4093 24.2219 36.4093C24.4467 36.3761 24.5991 36.579 24.5991 36.788L24.5901 39.1682C24.5889 39.8665 24.3108 40.5359 23.8168 41.0296C23.3229 41.5233 22.6533 41.801 21.9549 41.8018ZM22.3336 35.6134H21.5792C21.4792 35.6134 21.3833 35.5737 21.3125 35.5029C21.2418 35.4322 21.202 35.3363 21.202 35.2362C21.202 35.1362 21.2418 35.0402 21.3125 34.9695C21.3833 34.8987 21.4792 34.859 21.5792 34.859H22.3336C22.4337 34.859 22.5296 34.8987 22.6004 34.9695C22.6711 35.0402 22.7108 35.1362 22.7108 35.2362C22.7108 35.3363 22.6711 35.4322 22.6004 35.5029C22.5296 35.5737 22.4337 35.6134 22.3336 35.6134ZM18.1527 58.9999C18.0655 58.9998 17.9809 58.9695 17.9135 58.9141C17.8461 58.8586 17.8 58.7815 17.7831 58.6959L15.5455 47.3957C15.5357 47.3469 15.5357 47.2965 15.5456 47.2477C15.5554 47.1989 15.5749 47.1525 15.6029 47.1113L16.9057 45.1875L14.8764 43.9511C14.7952 43.9016 14.7357 43.8232 14.7099 43.7318C14.684 43.6403 14.6936 43.5424 14.7368 43.4577L17.0943 38.837C17.1415 38.751 17.2204 38.6868 17.3142 38.658C17.408 38.6292 17.5093 38.638 17.5966 38.6827C17.684 38.7273 17.7505 38.8043 17.7821 38.8972C17.8137 38.9901 17.8078 39.0916 17.7657 39.1802L15.5674 43.4894L17.6367 44.7492C17.6803 44.7758 17.718 44.8109 17.7476 44.8525C17.7773 44.8941 17.7981 44.9412 17.809 44.9911C17.8198 45.0409 17.8205 45.0925 17.8108 45.1426C17.8012 45.1927 17.7815 45.2403 17.7529 45.2826L16.3165 47.404L18.5232 58.5503C18.534 58.605 18.5325 58.6614 18.5189 58.7154C18.5053 58.7695 18.4799 58.8198 18.4444 58.8628C18.409 58.9059 18.3644 58.9405 18.314 58.9642C18.2636 58.9879 18.2085 59.0001 18.1527 58.9999Z" fill="url(#paint9_linear_838_5148)"/>
<path d="M24.2219 58.5894C24.1219 58.5894 24.026 58.5497 23.9552 58.479C23.8845 58.4082 23.8447 58.3123 23.8447 58.2122L23.85 39.0081C23.85 38.9081 23.8898 38.8121 23.9605 38.7414C24.0312 38.6707 24.1272 38.6309 24.2272 38.6309C24.3273 38.6309 24.4232 38.6707 24.4939 38.7414C24.5647 38.8121 24.6044 38.9081 24.6044 39.0081L24.5991 58.2122C24.5991 58.3123 24.5594 58.4082 24.4887 58.479C24.4179 58.5497 24.322 58.5894 24.2219 58.5894ZM25.7624 58.9998C25.7066 59 25.6515 58.9878 25.601 58.9641C25.5504 58.9403 25.5058 58.9056 25.4704 58.8625C25.4349 58.8194 25.4095 58.7689 25.396 58.7148C25.3824 58.6607 25.3811 58.6042 25.392 58.5494L27.5987 47.4031L26.1623 45.2817C26.1337 45.2395 26.114 45.1918 26.1043 45.1417C26.0947 45.0916 26.0953 45.0401 26.1062 44.9902C26.1171 44.9403 26.1379 44.8932 26.1675 44.8516C26.1971 44.8101 26.2349 44.7749 26.2784 44.7484L28.3478 43.4885L26.1494 39.1794C26.1074 39.0907 26.1015 38.9892 26.1331 38.8963C26.1647 38.8034 26.2312 38.7265 26.3185 38.6818C26.4059 38.6372 26.5072 38.6283 26.601 38.6571C26.6948 38.6859 26.7736 38.7501 26.8209 38.8361L29.1784 43.4568C29.2216 43.5415 29.2312 43.6394 29.2053 43.7309C29.1794 43.8224 29.12 43.9007 29.0388 43.9502L27.0095 45.1867L28.3123 47.1104C28.3689 47.1934 28.39 47.296 28.3704 47.3948L26.1328 58.695C26.1158 58.7808 26.0696 58.858 26.002 58.9136C25.9345 58.9691 25.8499 58.9996 25.7624 58.9998ZM27.9917 32.5346C27.8917 32.5346 27.7957 32.4948 27.725 32.4241C27.6542 32.3534 27.6145 32.2574 27.6145 32.1574V27.6777C27.6145 27.5777 27.6542 27.4818 27.725 27.411C27.7957 27.3403 27.8917 27.3005 27.9917 27.3005C28.0917 27.3005 28.1877 27.3403 28.2584 27.411C28.3292 27.4818 28.3689 27.5777 28.3689 27.6777V32.1574C28.3689 32.2574 28.3292 32.3534 28.2584 32.4241C28.1877 32.4948 28.0917 32.5346 27.9917 32.5346ZM15.9212 32.5346C15.8212 32.5346 15.7253 32.4948 15.6545 32.4241C15.5838 32.3534 15.544 32.2574 15.544 32.1574V27.6777C15.544 27.5777 15.5838 27.4818 15.6545 27.411C15.7253 27.3403 15.8212 27.3005 15.9212 27.3005C16.0213 27.3005 16.1172 27.3403 16.188 27.411C16.2587 27.4818 16.2984 27.5777 16.2984 27.6777V32.1574C16.2984 32.2574 16.2587 32.3534 16.188 32.4241C16.1172 32.4948 16.0213 32.5346 15.9212 32.5346ZM21.9565 31.8413C21.3326 31.8413 20.8249 31.3336 20.8249 30.7097C20.8249 30.6096 20.8646 30.5137 20.9353 30.443C21.0061 30.3722 21.102 30.3325 21.2021 30.3325C21.3021 30.3325 21.398 30.3722 21.4688 30.443C21.5395 30.5137 21.5793 30.6096 21.5793 30.7097C21.5793 30.8097 21.619 30.9057 21.6897 30.9764C21.7605 31.0471 21.8564 31.0869 21.9565 31.0869C22.0565 31.0869 22.1525 31.0471 22.2232 30.9764C22.2939 30.9057 22.3337 30.8097 22.3337 30.7097C22.3337 30.6096 22.3734 30.5137 22.4442 30.443C22.5149 30.3722 22.6108 30.3325 22.7109 30.3325C22.8109 30.3325 22.9069 30.3722 22.9776 30.443C23.0483 30.5137 23.0881 30.6096 23.0881 30.7097C23.0881 31.3336 22.5804 31.8413 21.9565 31.8413Z" fill="url(#paint10_linear_838_5148)"/>
<path d="M15.9054 31.0871H15.1669C14.543 31.0871 14.0352 30.5794 14.0352 29.9555V27.6923C14.0352 27.0684 14.543 26.5607 15.1669 26.5607H15.6089C15.709 26.5607 15.8049 26.6004 15.8757 26.6711C15.9464 26.7419 15.9861 26.8378 15.9861 26.9379C15.9861 27.0379 15.9464 27.1339 15.8757 27.2046C15.8049 27.2753 15.709 27.3151 15.6089 27.3151H15.1669C15.0668 27.3151 14.9709 27.3548 14.9001 27.4256C14.8294 27.4963 14.7897 27.5922 14.7897 27.6923V29.9555C14.7897 30.0555 14.8294 30.1515 14.9001 30.2222C14.9709 30.2929 15.0668 30.3327 15.1669 30.3327H15.9054C16.0055 30.3327 16.1014 30.3724 16.1721 30.4432C16.2429 30.5139 16.2826 30.6098 16.2826 30.7099C16.2826 30.8099 16.2429 30.9059 16.1721 30.9766C16.1014 31.0474 16.0055 31.0871 15.9054 31.0871ZM28.7303 31.0871H27.9917C27.8917 31.0871 27.7957 31.0474 27.725 30.9766C27.6543 30.9059 27.6145 30.8099 27.6145 30.7099C27.6145 30.6098 27.6543 30.5139 27.725 30.4432C27.7957 30.3724 27.8917 30.3327 27.9917 30.3327H28.7303C28.8303 30.3327 28.9263 30.2929 28.997 30.2222C29.0677 30.1515 29.1075 30.0555 29.1075 29.9555V27.6923C29.1075 27.5922 29.0677 27.4963 28.997 27.4256C28.9263 27.3548 28.8303 27.3151 28.7303 27.3151H28.1426C28.0426 27.3151 27.9466 27.2753 27.8759 27.2046C27.8051 27.1339 27.7654 27.0379 27.7654 26.9379C27.7654 26.8378 27.8051 26.7419 27.8759 26.6711C27.9466 26.6004 28.0426 26.5607 28.1426 26.5607H28.7303C29.3542 26.5607 29.8619 27.0684 29.8619 27.6923V29.9555C29.8619 30.5794 29.3542 31.0871 28.7303 31.0871ZM21.9701 37.8903C21.1943 37.8919 20.4337 37.6757 19.7748 37.2664L17.1434 35.6271C16.6529 35.3235 16.2483 34.8993 15.9683 34.3949C15.6883 33.8906 15.5423 33.3229 15.5441 32.746V32.1576C15.5441 32.0576 15.5838 31.9616 15.6545 31.8909C15.7253 31.8201 15.8212 31.7804 15.9213 31.7804C16.0213 31.7804 16.1172 31.8201 16.188 31.8909C16.2587 31.9616 16.2985 32.0576 16.2985 32.1576V32.746C16.2985 33.6634 16.7632 34.5008 17.5417 34.9874L20.1731 36.6267C20.7132 36.9608 21.3359 37.1377 21.971 37.1374C22.6062 37.1371 23.2287 36.9597 23.7686 36.6252L26.3886 34.9874C26.7694 34.7511 27.0835 34.4213 27.3008 34.0294C27.5182 33.6375 27.6316 33.1964 27.6304 32.7483V32.1576C27.6304 32.0576 27.6701 31.9616 27.7408 31.8909C27.8116 31.8201 27.9075 31.7804 28.0076 31.7804C28.1076 31.7804 28.2035 31.8201 28.2743 31.8909C28.345 31.9616 28.3848 32.0576 28.3848 32.1576V32.7483C28.3867 33.3244 28.241 33.8914 27.9615 34.3953C27.6821 34.8991 27.2782 35.3229 26.7884 35.6263L24.1684 37.2642C23.5089 37.6749 22.7471 37.8919 21.9701 37.8903Z" fill="url(#paint11_linear_838_5148)"/>
<path d="M21.9723 34.0994C21.015 34.0994 20.1255 33.7983 19.4677 33.2514C19.3908 33.1874 19.3424 33.0954 19.3333 32.9957C19.3242 32.8961 19.355 32.7969 19.419 32.7199C19.4831 32.643 19.575 32.5946 19.6747 32.5855C19.7744 32.5764 19.8736 32.6072 19.9505 32.6713C20.9803 33.529 22.9644 33.529 23.9941 32.6713C24.071 32.6072 24.1703 32.5764 24.2699 32.5855C24.3696 32.5946 24.4616 32.643 24.5256 32.7199C24.5896 32.7969 24.6205 32.8961 24.6113 32.9957C24.6022 33.0954 24.5539 33.1874 24.4769 33.2514C23.8191 33.7976 22.9297 34.0994 21.9723 34.0994ZM27.9917 29.9554C27.8917 29.9554 27.7957 29.9157 27.725 29.8449C27.6542 29.7742 27.6145 29.6783 27.6145 29.5782V27.7601L26.6949 26.8903C26.5093 26.7135 26.3615 26.501 26.2602 26.2655C26.159 26.0301 26.1064 25.7766 26.1057 25.5203V25.429C26.1057 25.329 26.066 25.233 25.9952 25.1623C25.9245 25.0915 25.8285 25.0518 25.7285 25.0518H18.1845C18.0844 25.0518 17.9885 25.0915 17.9177 25.1623C17.847 25.233 17.8072 25.329 17.8072 25.429V25.5437C17.8072 26.0484 17.6111 26.5221 17.2543 26.8782L16.2984 27.8325V29.5775C16.2984 29.6775 16.2587 29.7734 16.188 29.8442C16.1172 29.9149 16.0213 29.9547 15.9212 29.9547C15.8212 29.9547 15.7253 29.9149 15.6545 29.8442C15.5838 29.7734 15.544 29.6775 15.544 29.5775V27.6764C15.544 27.576 15.584 27.4802 15.6542 27.4093L16.7209 26.3441C16.9352 26.1306 17.0528 25.8462 17.0528 25.5429V25.4282C17.0528 24.8043 17.5606 24.2966 18.1845 24.2966H25.7285C26.3524 24.2966 26.8601 24.8043 26.8601 25.4282V25.5195C26.8601 25.8288 26.9891 26.1283 27.2139 26.3418L28.2512 27.3233C28.2884 27.3586 28.318 27.401 28.3383 27.4481C28.3585 27.4952 28.3689 27.5459 28.3689 27.5971V29.5775C28.369 29.6271 28.3593 29.6762 28.3404 29.722C28.3215 29.7679 28.2937 29.8096 28.2587 29.8447C28.2237 29.8798 28.182 29.9076 28.1362 29.9266C28.0904 29.9456 28.0413 29.9554 27.9917 29.9554Z" fill="url(#paint12_linear_838_5148)"/>
<path d="M27.9917 28.0696C27.9358 28.0696 27.8807 28.0573 27.8302 28.0335C27.7796 28.0096 27.7351 27.9749 27.6996 27.9317C27.6642 27.8885 27.6388 27.8381 27.6252 27.7839C27.6117 27.7297 27.6103 27.6732 27.6213 27.6184L28.2618 24.4152C28.3478 23.986 28.3892 23.35 28.1003 22.7601C27.8845 22.3148 27.5473 21.9397 27.1275 21.6778C26.7077 21.4159 26.2225 21.278 25.7277 21.2799H19.6925C19.5924 21.2799 19.4965 21.2402 19.4258 21.1694C19.355 21.0987 19.3153 21.0028 19.3153 20.9027C19.3153 20.8027 19.355 20.7067 19.4258 20.636C19.4965 20.5653 19.5924 20.5255 19.6925 20.5255H25.7277C27.0336 20.5255 28.2022 21.255 28.7778 22.4281C29.0803 23.0452 29.1572 23.7838 29.0011 24.5631L28.3606 27.7655C28.3441 27.8512 28.2982 27.9285 28.2309 27.984C28.1635 28.0395 28.0789 28.0697 27.9917 28.0696Z" fill="url(#paint13_linear_838_5148)"/>
<path d="M15.8963 28.0693C15.8092 28.0693 15.7247 28.039 15.6573 27.9837C15.5899 27.9284 15.5438 27.8515 15.5267 27.766L14.8854 24.5628C14.7293 23.7835 14.807 23.045 15.1087 22.4286C15.3863 21.8564 15.8199 21.3742 16.3595 21.0376C16.8991 20.701 17.5228 20.5237 18.1588 20.526H24.194C24.2941 20.526 24.39 20.5658 24.4608 20.6365C24.5315 20.7072 24.5712 20.8032 24.5712 20.9032C24.5712 21.0033 24.5315 21.0992 24.4608 21.1699C24.39 21.2407 24.2941 21.2804 24.194 21.2804H18.1588C17.6639 21.2785 17.1786 21.4165 16.7587 21.6783C16.3388 21.9402 16.0015 22.3154 15.7854 22.7606C15.4965 23.3505 15.538 23.9865 15.624 24.4157L16.2652 27.6189C16.276 27.6735 16.2746 27.7298 16.2611 27.7838C16.2476 27.8378 16.2223 27.8881 16.187 27.9311C16.1518 27.9742 16.1074 28.0089 16.0572 28.0328C16.0069 28.0567 15.952 28.0691 15.8963 28.0693ZM34.7813 58.9999H8.3772C8.27716 58.9999 8.18122 58.9601 8.11048 58.8894C8.03974 58.8186 8 58.7227 8 58.6227V46.5522C8 42.1842 11.5532 38.631 15.9212 38.631H19.6774C19.7775 38.631 19.8734 38.6707 19.9441 38.7414C20.0149 38.8122 20.0546 38.9081 20.0546 39.0082C20.0546 39.1082 20.0149 39.2041 19.9441 39.2749C19.8734 39.3456 19.7775 39.3854 19.6774 39.3854H15.9212C11.9697 39.3854 8.7544 42.6006 8.7544 46.5522V58.2455H34.4041V46.5522C34.4041 42.6006 31.1889 39.3854 27.2373 39.3854H24.2272C24.1272 39.3854 24.0312 39.3456 23.9605 39.2749C23.8898 39.2041 23.85 39.1082 23.85 39.0082C23.85 38.9081 23.8898 38.8122 23.9605 38.7414C24.0312 38.6707 24.1272 38.631 24.2272 38.631H27.2373C31.6053 38.631 35.1585 42.1842 35.1585 46.5522V58.6227C35.1585 58.7227 35.1188 58.8186 35.0481 58.8894C34.9773 58.9601 34.8814 58.9999 34.7813 58.9999Z" fill="url(#paint14_linear_838_5148)"/>
<path d="M55.9047 58.9979H34.7814C34.6813 58.9979 34.5854 58.9582 34.5147 58.8874C34.4439 58.8167 34.4042 58.7208 34.4042 58.6207V46.5533C34.4042 44.3112 33.3774 42.2381 31.5865 40.8658C31.5344 40.8263 31.4936 40.774 31.4679 40.7139C31.4423 40.6538 31.4328 40.588 31.4403 40.5231C31.4479 40.4582 31.4722 40.3964 31.5109 40.3438C31.5497 40.2912 31.6014 40.2496 31.6612 40.2231C32.8781 39.6696 34.1996 39.3835 35.5365 39.3842H36.9669C37.0669 39.3842 37.1629 39.4239 37.2336 39.4947C37.3043 39.5654 37.3441 39.6613 37.3441 39.7614C37.3441 39.8614 37.3043 39.9574 37.2336 40.0281C37.1629 40.0988 37.0669 40.1386 36.9669 40.1386H35.5358C34.5075 40.1386 33.5019 40.3196 32.5385 40.678C33.3655 41.4167 34.0265 42.3222 34.4781 43.3349C34.9297 44.3476 35.1616 45.4445 35.1586 46.5533V58.2435H55.5275V48.8135C55.5275 44.0298 51.6355 40.1378 46.8518 40.1378H46.0989C45.9989 40.1378 45.903 40.0981 45.8322 40.0273C45.7615 39.9566 45.7217 39.8607 45.7217 39.7606C45.7217 39.6606 45.7615 39.5646 45.8322 39.4939C45.903 39.4232 45.9989 39.3834 46.0989 39.3834H46.8518C52.0519 39.3834 56.2819 43.6134 56.2819 48.8135V58.6207C56.2819 58.6703 56.2721 58.7193 56.2532 58.7651C56.2342 58.8108 56.2064 58.8524 56.1714 58.8874C56.1364 58.9225 56.0948 58.9503 56.049 58.9692C56.0033 58.9882 55.9542 58.9979 55.9047 58.9979Z" fill="url(#paint15_linear_838_5148)"/>
<path d="M19.3312 29.569C19.7479 29.569 20.0856 29.2312 20.0856 28.8146C20.0856 28.3979 19.7479 28.0602 19.3312 28.0602C18.9146 28.0602 18.5768 28.3979 18.5768 28.8146C18.5768 29.2312 18.9146 29.569 19.3312 29.569Z" fill="url(#paint16_linear_838_5148)"/>
<path d="M20.8286 28.0641C20.7698 28.0643 20.7119 28.0506 20.6593 28.0243C20.6068 27.998 20.5612 27.9597 20.5261 27.9125C20.3891 27.7274 20.2112 27.5765 20.0062 27.4714C19.8013 27.3664 19.575 27.31 19.3447 27.3067C19.1145 27.31 18.8882 27.3663 18.6834 27.4713C18.4785 27.5762 18.3005 27.7269 18.1633 27.9117C18.1337 27.9514 18.0966 27.9849 18.0541 28.0102C18.0116 28.0356 17.9645 28.0523 17.9156 28.0594C17.8666 28.0666 17.8167 28.064 17.7687 28.0519C17.7208 28.0397 17.6757 28.0183 17.636 27.9887C17.5963 27.9591 17.5628 27.922 17.5375 27.8795C17.5122 27.837 17.4954 27.7899 17.4883 27.741C17.4811 27.692 17.4837 27.6421 17.4959 27.5941C17.508 27.5462 17.5295 27.501 17.559 27.4614C17.7592 27.191 18.0177 26.9692 18.3154 26.8123C18.613 26.6555 18.9421 26.5676 19.2783 26.5553C19.2987 26.5516 19.3213 26.5523 19.344 26.5523C19.6914 26.5572 20.0331 26.6417 20.3428 26.7993C20.6525 26.9569 20.9219 27.1834 21.1304 27.4614C21.1725 27.5173 21.1981 27.5839 21.2045 27.6537C21.2108 27.7234 21.1975 27.7936 21.1662 27.8562C21.1348 27.9188 21.0866 27.9715 21.027 28.0082C20.9674 28.0449 20.8987 28.0643 20.8286 28.0641Z" fill="url(#paint17_linear_838_5148)"/>
<path d="M24.6121 29.569C25.0287 29.569 25.3665 29.2312 25.3665 28.8146C25.3665 28.3979 25.0287 28.0602 24.6121 28.0602C24.1954 28.0602 23.8577 28.3979 23.8577 28.8146C23.8577 29.2312 24.1954 29.569 24.6121 29.569Z" fill="url(#paint18_linear_838_5148)"/>
<path d="M26.1094 28.0641C26.0506 28.0643 25.9926 28.0506 25.9401 28.0243C25.8876 27.998 25.8419 27.9597 25.8069 27.9125C25.6698 27.7274 25.4919 27.5765 25.287 27.4714C25.0821 27.3664 24.8557 27.31 24.6255 27.3067C24.3953 27.31 24.169 27.3663 23.9641 27.4713C23.7593 27.5762 23.5813 27.7269 23.4441 27.9117C23.4155 27.9539 23.3787 27.9899 23.3358 28.0174C23.2929 28.0449 23.2449 28.0635 23.1947 28.072C23.1444 28.0805 23.093 28.0787 23.0435 28.0667C22.9939 28.0548 22.9473 28.0329 22.9065 28.0025C22.8656 27.972 22.8314 27.9336 22.8058 27.8896C22.7802 27.8455 22.7638 27.7967 22.7575 27.7462C22.7513 27.6956 22.7554 27.6443 22.7695 27.5953C22.7837 27.5464 22.8076 27.5008 22.8398 27.4614C23.04 27.191 23.2985 26.9692 23.5962 26.8123C23.8938 26.6555 24.2229 26.5676 24.5591 26.5553C24.5802 26.5516 24.6029 26.5523 24.6247 26.5523C24.9722 26.5572 25.3139 26.6417 25.6236 26.7993C25.9333 26.9569 26.2027 27.1834 26.4112 27.4614C26.4533 27.5173 26.4789 27.5839 26.4853 27.6537C26.4916 27.7234 26.4783 27.7936 26.447 27.8562C26.4156 27.9188 26.3674 27.9715 26.3078 28.0082C26.2481 28.0449 26.1794 28.0643 26.1094 28.0641Z" fill="url(#paint19_linear_838_5148)"/>
<path d="M40.479 8H35.479C35.3464 8 35.2192 8.05268 35.1255 8.14645C35.0317 8.24021 34.979 8.36739 34.979 8.5C34.979 8.63261 35.0317 8.75979 35.1255 8.85355C35.2192 8.94732 35.3464 9 35.479 9H40.479C40.6116 9 40.7388 8.94732 40.8326 8.85355C40.9263 8.75979 40.979 8.63261 40.979 8.5C40.979 8.36739 40.9263 8.24021 40.8326 8.14645C40.7388 8.05268 40.6116 8 40.479 8ZM38.479 10H35.479C35.3464 10 35.2192 10.0527 35.1255 10.1464C35.0317 10.2402 34.979 10.3674 34.979 10.5C34.979 10.6326 35.0317 10.7598 35.1255 10.8536C35.2192 10.9473 35.3464 11 35.479 11H38.479C38.6116 11 38.7388 10.9473 38.8326 10.8536C38.9263 10.7598 38.979 10.6326 38.979 10.5C38.979 10.3674 38.9263 10.2402 38.8326 10.1464C38.7388 10.0527 38.6116 10 38.479 10Z" fill="#0071BC"/>
<path d="M41.5 6H34.5C33.673 6 33 6.673 33 7.5V11.5C33 12.327 33.673 13 34.5 13H40.293L42.147 14.854C42.217 14.9238 42.3061 14.9712 42.403 14.9904C42.4999 15.0096 42.6004 14.9996 42.6917 14.9617C42.7829 14.9238 42.8609 14.8598 42.9158 14.7776C42.9707 14.6954 43 14.5988 43 14.5V7.5C43 6.673 42.327 6 41.5 6ZM42 13.293L40.854 12.147C40.8075 12.1006 40.7523 12.0638 40.6915 12.0388C40.6308 12.0137 40.5657 12.0009 40.5 12.001H34.5C34.3674 12.001 34.2402 11.9483 34.1464 11.8546C34.0527 11.7608 34 11.6336 34 11.501V7.501C34 7.36839 34.0527 7.24121 34.1464 7.14745C34.2402 7.05368 34.3674 7.001 34.5 7.001H41.5C41.6326 7.001 41.7598 7.05368 41.8535 7.14745C41.9473 7.24121 42 7.36839 42 7.501V13.293ZM26.521 9H21.521C21.3884 9 21.2612 9.05268 21.1674 9.14645C21.0737 9.24021 21.021 9.36739 21.021 9.5C21.021 9.63261 21.0737 9.75979 21.1674 9.85355C21.2612 9.94732 21.3884 10 21.521 10H26.521C26.6536 10 26.7808 9.94732 26.8745 9.85355C26.9683 9.75979 27.021 9.63261 27.021 9.5C27.021 9.36739 26.9683 9.24021 26.8745 9.14645C26.7808 9.05268 26.6536 9 26.521 9ZM26.521 11H23.521C23.3884 11 23.2612 11.0527 23.1674 11.1464C23.0737 11.2402 23.021 11.3674 23.021 11.5C23.021 11.6326 23.0737 11.7598 23.1674 11.8536C23.2612 11.9473 23.3884 12 23.521 12H26.521C26.6536 12 26.7808 11.9473 26.8745 11.8536C26.9683 11.7598 27.021 11.6326 27.021 11.5C27.021 11.3674 26.9683 11.2402 26.8745 11.1464C26.7808 11.0527 26.6536 11 26.521 11Z" fill="#0071BC"/>
<path d="M27.5 7H20.5C19.673 7 19 7.673 19 8.5V15.5C18.9998 15.599 19.0291 15.6959 19.084 15.7783C19.1389 15.8606 19.2171 15.9249 19.3085 15.9628C19.4 16.0007 19.5007 16.0106 19.5978 15.9912C19.6949 15.9719 19.7841 15.9241 19.854 15.854L21.708 14H27.5C28.327 14 29 13.327 29 12.5V8.5C29 7.673 28.327 7 27.5 7ZM28 12.5C28 12.6326 27.9473 12.7598 27.8536 12.8536C27.7598 12.9473 27.6326 13 27.5 13H21.5C21.3674 13.0002 21.2402 13.0527 21.146 13.146L20 14.293V8.5C20 8.36739 20.0527 8.24021 20.1464 8.14645C20.2402 8.05268 20.3674 8 20.5 8H27.5C27.6326 8 27.7598 8.05268 27.8536 8.14645C27.9473 8.24021 28 8.36739 28 8.5V12.5Z" fill="#0071BC"/>
<defs>
<linearGradient id="paint0_linear_838_5148" x1="38.9442" y1="39.1451" x2="57.8785" y2="46.7266" gradientUnits="userSpaceOnUse">
<stop stop-color="#07FFE1"/>
<stop offset="1" stop-color="#9DFF00"/>
</linearGradient>
<linearGradient id="paint1_linear_838_5148" x1="35.1667" y1="23.6032" x2="57.3112" y2="28.7803" gradientUnits="userSpaceOnUse">
<stop stop-color="#07FFE1"/>
<stop offset="1" stop-color="#9DFF00"/>
</linearGradient>
<linearGradient id="paint2_linear_838_5148" x1="40.4408" y1="29.4314" x2="42.7564" y2="31.4763" gradientUnits="userSpaceOnUse">
<stop stop-color="#07FFE1"/>
<stop offset="1" stop-color="#9DFF00"/>
</linearGradient>
<linearGradient id="paint3_linear_838_5148" x1="38.5532" y1="26.6435" x2="39.4501" y2="27.2975" gradientUnits="userSpaceOnUse">
<stop stop-color="#07FFE1"/>
<stop offset="1" stop-color="#9DFF00"/>
</linearGradient>
<linearGradient id="paint4_linear_838_5148" x1="43.8339" y1="26.6435" x2="44.7309" y2="27.2975" gradientUnits="userSpaceOnUse">
<stop stop-color="#07FFE1"/>
<stop offset="1" stop-color="#9DFF00"/>
</linearGradient>
<linearGradient id="paint5_linear_838_5148" x1="33.6598" y1="26.0914" x2="44.6392" y2="40.0876" gradientUnits="userSpaceOnUse">
<stop stop-color="#07FFE1"/>
<stop offset="1" stop-color="#9DFF00"/>
</linearGradient>
<linearGradient id="paint6_linear_838_5148" x1="35.1667" y1="27.254" x2="42.0497" y2="37.9018" gradientUnits="userSpaceOnUse">
<stop stop-color="#07FFE1"/>
<stop offset="1" stop-color="#9DFF00"/>
</linearGradient>
<linearGradient id="paint7_linear_838_5148" x1="34.7899" y1="26.4386" x2="49.5717" y2="38.5643" gradientUnits="userSpaceOnUse">
<stop stop-color="#07FFE1"/>
<stop offset="1" stop-color="#9DFF00"/>
</linearGradient>
<linearGradient id="paint8_linear_838_5148" x1="11.7941" y1="28.9093" x2="52.067" y2="59.2929" gradientUnits="userSpaceOnUse">
<stop stop-color="#07FFE1"/>
<stop offset="1" stop-color="#9DFF00"/>
</linearGradient>
<linearGradient id="paint9_linear_838_5148" x1="14.7019" y1="37.6371" x2="31.2556" y2="42.5889" gradientUnits="userSpaceOnUse">
<stop stop-color="#07FFE1"/>
<stop offset="1" stop-color="#9DFF00"/>
</linearGradient>
<linearGradient id="paint10_linear_838_5148" x1="15.5527" y1="30.9485" x2="38.2142" y2="38.0772" gradientUnits="userSpaceOnUse">
<stop stop-color="#07FFE1"/>
<stop offset="1" stop-color="#9DFF00"/>
</linearGradient>
<linearGradient id="paint11_linear_838_5148" x1="14.0453" y1="27.8645" x2="28.1906" y2="42.2727" gradientUnits="userSpaceOnUse">
<stop stop-color="#07FFE1"/>
<stop offset="1" stop-color="#9DFF00"/>
</linearGradient>
<linearGradient id="paint12_linear_838_5148" x1="15.5522" y1="25.4247" x2="27.7796" y2="37.0892" gradientUnits="userSpaceOnUse">
<stop stop-color="#07FFE1"/>
<stop offset="1" stop-color="#9DFF00"/>
</linearGradient>
<linearGradient id="paint13_linear_838_5148" x1="19.3215" y1="21.3937" x2="28.7262" y2="30.2697" gradientUnits="userSpaceOnUse">
<stop stop-color="#07FFE1"/>
<stop offset="1" stop-color="#9DFF00"/>
</linearGradient>
<linearGradient id="paint14_linear_838_5148" x1="8.01729" y1="24.9535" x2="47.1161" y2="45.0783" gradientUnits="userSpaceOnUse">
<stop stop-color="#07FFE1"/>
<stop offset="1" stop-color="#9DFF00"/>
</linearGradient>
<linearGradient id="paint15_linear_838_5148" x1="31.4536" y1="41.6406" x2="55.8696" y2="64.1906" gradientUnits="userSpaceOnUse">
<stop stop-color="#07FFE1"/>
<stop offset="1" stop-color="#9DFF00"/>
</linearGradient>
<linearGradient id="paint16_linear_838_5148" x1="18.5778" y1="28.2338" x2="20.3716" y2="29.5418" gradientUnits="userSpaceOnUse">
<stop stop-color="#07FFE1"/>
<stop offset="1" stop-color="#9DFF00"/>
</linearGradient>
<linearGradient id="paint17_linear_838_5148" x1="17.4867" y1="26.7262" x2="19.0921" y2="29.6077" gradientUnits="userSpaceOnUse">
<stop stop-color="#07FFE1"/>
<stop offset="1" stop-color="#9DFF00"/>
</linearGradient>
<linearGradient id="paint18_linear_838_5148" x1="23.8586" y1="28.2338" x2="25.6525" y2="29.5418" gradientUnits="userSpaceOnUse">
<stop stop-color="#07FFE1"/>
<stop offset="1" stop-color="#9DFF00"/>
</linearGradient>
<linearGradient id="paint19_linear_838_5148" x1="22.7571" y1="26.7277" x2="24.3813" y2="29.6262" gradientUnits="userSpaceOnUse">
<stop stop-color="#07FFE1"/>
<stop offset="1" stop-color="#9DFF00"/>
</linearGradient>
</defs>
</svg>
