<svg width="64" height="64" viewBox="0 0 64 64" fill="none" xmlns="http://www.w3.org/2000/svg">
<path d="M29.494 32.124C29.3614 32.124 29.2342 32.0713 29.1404 31.9775C29.0467 31.8838 28.994 31.7566 28.994 31.624L28.992 27.588C28.992 27.4554 29.0447 27.3282 29.1384 27.2344C29.2322 27.1407 29.3594 27.088 29.492 27.088C29.6246 27.088 29.7518 27.1407 29.8456 27.2344C29.9393 27.3282 29.992 27.4554 29.992 27.588L29.994 31.624C29.994 31.7566 29.9413 31.8838 29.8476 31.9775C29.7538 32.0713 29.6266 32.124 29.494 32.124ZM35.503 32.124C35.3704 32.124 35.2432 32.0713 35.1494 31.9775C35.0557 31.8838 35.003 31.7566 35.003 31.624L35.002 27.555C35.002 27.4224 35.0547 27.2952 35.1484 27.2014C35.2422 27.1077 35.3694 27.055 35.502 27.055C35.6346 27.055 35.7618 27.1077 35.8556 27.2014C35.9493 27.2952 36.002 27.4224 36.002 27.555L36.003 31.624C36.003 31.7566 35.9503 31.8838 35.8566 31.9775C35.7628 32.0713 35.6356 32.124 35.503 32.124ZM33 26H32C31.8674 26 31.7402 25.9473 31.6464 25.8535C31.5527 25.7598 31.5 25.6326 31.5 25.5C31.5 25.3674 31.5527 25.2402 31.6464 25.1464C31.7402 25.0527 31.8674 25 32 25H33C33.1326 25 33.2598 25.0527 33.3536 25.1464C33.4473 25.2402 33.5 25.3674 33.5 25.5C33.5 25.6326 33.4473 25.7598 33.3536 25.8535C33.2598 25.9473 33.1326 26 33 26ZM40.5 21.918C40.3674 21.918 40.2402 21.8653 40.1464 21.7715C40.0527 21.6778 40 21.5506 40 21.418V15.48C40 15.3474 40.0527 15.2202 40.1464 15.1264C40.2402 15.0327 40.3674 14.98 40.5 14.98C40.6326 14.98 40.7598 15.0327 40.8536 15.1264C40.9473 15.2202 41 15.3474 41 15.48V21.418C41 21.5506 40.9473 21.6778 40.8536 21.7715C40.7598 21.8653 40.6326 21.918 40.5 21.918ZM24.5 21.918C24.3674 21.918 24.2402 21.8653 24.1464 21.7715C24.0527 21.6778 24 21.5506 24 21.418V15.48C24 15.3474 24.0527 15.2202 24.1464 15.1264C24.2402 15.0327 24.3674 14.98 24.5 14.98C24.6326 14.98 24.7598 15.0327 24.8536 15.1264C24.9473 15.2202 25 15.3474 25 15.48V21.418C25 21.5506 24.9473 21.6778 24.8536 21.7715C24.7598 21.8653 24.6326 21.918 24.5 21.918ZM32.5 21C31.673 21 31 20.327 31 19.5C31 19.3674 31.0527 19.2402 31.1464 19.1464C31.2402 19.0527 31.3674 19 31.5 19C31.6326 19 31.7598 19.0527 31.8536 19.1464C31.9473 19.2402 32 19.3674 32 19.5C32 19.775 32.225 20 32.5 20C32.775 20 33 19.775 33 19.5C33 19.3674 33.0527 19.2402 33.1464 19.1464C33.2402 19.0527 33.3674 19 33.5 19C33.6326 19 33.7598 19.0527 33.8536 19.1464C33.9473 19.2402 34 19.3674 34 19.5C34 20.327 33.327 21 32.5 21Z" fill="url(#paint0_linear_838_5146)"/>
<path d="M28.999 17.999C29.5513 17.999 29.999 17.5513 29.999 16.999C29.999 16.4467 29.5513 15.999 28.999 15.999C28.4467 15.999 27.999 16.4467 27.999 16.999C27.999 17.5513 28.4467 17.999 28.999 17.999Z" fill="#0071BC"/>
<path d="M30.9838 16.004C30.906 16.0043 30.8292 15.9862 30.7597 15.9513C30.6902 15.9164 30.63 15.8656 30.5838 15.803C30.4018 15.5578 30.1658 15.3578 29.894 15.2186C29.6223 15.0793 29.3221 15.0045 29.0168 15C28.7118 15.0044 28.412 15.079 28.1406 15.2181C27.8691 15.3572 27.6334 15.557 27.4518 15.802C27.3726 15.9082 27.2545 15.9786 27.1234 15.9978C26.9923 16.0169 26.859 15.9832 26.7528 15.904C26.6465 15.8248 26.5761 15.7067 26.557 15.5756C26.5379 15.4445 26.5716 15.3112 26.6508 15.205C26.9176 14.8489 27.2602 14.5564 27.6538 14.3487C28.0474 14.141 28.4822 14.0233 28.9268 14.004C28.9578 14 28.9888 14.001 29.0158 14C29.0458 14.001 29.0768 14 29.1068 14.003C29.5515 14.0227 29.9864 14.1407 30.3801 14.3485C30.7738 14.5564 31.1166 14.8489 31.3838 15.205C31.4396 15.2792 31.4736 15.3675 31.482 15.4599C31.4904 15.5524 31.4728 15.6454 31.4312 15.7284C31.3897 15.8114 31.3258 15.8812 31.2467 15.9299C31.1677 15.9786 31.0766 16.0042 30.9838 16.004Z" fill="url(#paint1_linear_838_5146)"/>
<path d="M35.999 17.999C36.5513 17.999 36.999 17.5513 36.999 16.999C36.999 16.4467 36.5513 15.999 35.999 15.999C35.4467 15.999 34.999 16.4467 34.999 16.999C34.999 17.5513 35.4467 17.999 35.999 17.999Z" fill="#0071BC"/>
<path d="M37.984 16.004C37.9062 16.0043 37.8295 15.9862 37.76 15.9513C37.6905 15.9164 37.6302 15.8656 37.584 15.803C37.402 15.5578 37.166 15.3578 36.8942 15.2186C36.6225 15.0793 36.3223 15.0045 36.017 15C35.712 15.0044 35.4122 15.079 35.1408 15.2181C34.8694 15.3572 34.6337 15.557 34.452 15.802C34.4128 15.8546 34.3636 15.899 34.3073 15.9325C34.2509 15.9661 34.1885 15.9883 34.1236 15.9978C34.0587 16.0072 33.9926 16.0038 33.929 15.9877C33.8654 15.9717 33.8056 15.9432 33.753 15.904C33.7004 15.8648 33.656 15.8156 33.6225 15.7593C33.5889 15.7029 33.5667 15.6405 33.5572 15.5756C33.5478 15.5107 33.5512 15.4446 33.5673 15.381C33.5833 15.3174 33.6118 15.2576 33.651 15.205C33.9179 14.8489 34.2604 14.5564 34.654 14.3487C35.0476 14.141 35.4824 14.0233 35.927 14.004C35.958 14 35.989 14.001 36.016 14C36.046 14.001 36.077 14 36.107 14.003C36.5518 14.0227 36.9866 14.1407 37.3804 14.3485C37.7741 14.5564 38.1168 14.8489 38.384 15.205C38.4398 15.2792 38.4738 15.3675 38.4822 15.4599C38.4906 15.5524 38.473 15.6454 38.4315 15.7284C38.3899 15.8114 38.326 15.8812 38.247 15.9299C38.1679 15.9786 38.0768 16.0042 37.984 16.004ZM24.479 20H23.5C22.673 20 22 19.327 22 18.5V15.5C22 14.673 22.673 14 23.5 14H24.087C24.2196 14 24.3468 14.0527 24.4406 14.1464C24.5343 14.2402 24.587 14.3674 24.587 14.5C24.587 14.6326 24.5343 14.7598 24.4406 14.8536C24.3468 14.9473 24.2196 15 24.087 15H23.5C23.225 15 23 15.225 23 15.5V18.5C23 18.775 23.225 19 23.5 19H24.479C24.6116 19 24.7388 19.0527 24.8326 19.1464C24.9263 19.2402 24.979 19.3674 24.979 19.5C24.979 19.6326 24.9263 19.7598 24.8326 19.8536C24.7388 19.9473 24.6116 20 24.479 20ZM41.479 20H40.5C40.3674 20 40.2402 19.9473 40.1464 19.8536C40.0527 19.7598 40 19.6326 40 19.5C40 19.3674 40.0527 19.2402 40.1464 19.1464C40.2402 19.0527 40.3674 19 40.5 19H41.479C41.754 19 41.979 18.775 41.979 18.5V15.5C41.979 15.225 41.754 15 41.479 15H40.7C40.5674 15 40.4402 14.9473 40.3464 14.8536C40.2527 14.7598 40.2 14.6326 40.2 14.5C40.2 14.3674 40.2527 14.2402 40.3464 14.1464C40.4402 14.0527 40.5674 14 40.7 14H41.479C42.306 14 42.979 14.673 42.979 15.5V18.5C42.979 19.327 42.306 20 41.479 20ZM32.517 29.018C31.4893 29.0203 30.4815 28.7345 29.608 28.193L26.119 26.018C25.469 25.6154 24.933 25.053 24.5621 24.3845C24.1912 23.716 23.9976 22.9635 24 22.199V21.419C24 21.2864 24.0527 21.1592 24.1464 21.0654C24.2402 20.9717 24.3674 20.919 24.5 20.919C24.6326 20.919 24.7598 20.9717 24.8536 21.0654C24.9473 21.1592 25 21.2864 25 21.419V22.199C25 23.415 25.616 24.525 26.648 25.17L30.137 27.344C30.8532 27.7864 31.6785 28.0206 32.5203 28.0203C33.3621 28.0199 34.1872 27.785 34.903 27.342L38.377 25.171C38.8814 24.8573 39.2974 24.4199 39.5853 23.9002C39.8732 23.3806 40.0235 22.796 40.022 22.202V21.419C40.022 21.2864 40.0747 21.1592 40.1684 21.0654C40.2622 20.9717 40.3894 20.919 40.522 20.919C40.6546 20.919 40.7818 20.9717 40.8756 21.0654C40.9693 21.1592 41.022 21.2864 41.022 21.419V22.202C41.0243 22.9655 40.8312 23.717 40.4612 24.3849C40.0912 25.0528 39.5565 25.615 38.908 26.018L35.433 28.189C34.5575 28.7323 33.5473 29.0194 32.517 29.018Z" fill="url(#paint2_linear_838_5146)"/>
<path d="M32.521 23.992C31.252 23.992 30.074 23.593 29.202 22.868C29.1502 22.8265 29.1071 22.775 29.0754 22.7167C29.0437 22.6584 29.0239 22.5943 29.0172 22.5282C29.0105 22.4621 29.017 22.3954 29.0364 22.3319C29.0558 22.2684 29.0876 22.2093 29.1301 22.1583C29.1725 22.1072 29.2247 22.0651 29.2836 22.0344C29.3425 22.0037 29.4069 21.985 29.4731 21.9795C29.5393 21.974 29.6059 21.9817 29.6691 22.0022C29.7322 22.0228 29.7907 22.0557 29.841 22.099C31.208 23.236 33.835 23.236 35.202 22.099C35.3043 22.017 35.4347 21.9785 35.565 21.9917C35.6954 22.005 35.8154 22.0688 35.8992 22.1696C35.983 22.2705 36.0238 22.4001 36.0129 22.5307C36.002 22.6613 35.9403 22.7825 35.841 22.868C34.968 23.593 33.79 23.992 32.521 23.992ZM40.5 18.5C40.3674 18.5 40.2402 18.4473 40.1464 18.3536C40.0527 18.2598 40 18.1326 40 18V15.59L38.781 14.436C38.5349 14.202 38.3388 13.9205 38.2046 13.6085C38.0703 13.2966 38.0007 12.9606 38 12.621V12.5C38 12.225 37.775 12 37.5 12H27.5C27.225 12 27 12.225 27 12.5V12.652C27 13.32 26.74 13.947 26.268 14.42L25 15.687V18C25 18.1326 24.9473 18.2598 24.8536 18.3536C24.7598 18.4473 24.6326 18.5 24.5 18.5C24.3674 18.5 24.2402 18.4473 24.1464 18.3536C24.0527 18.2598 24 18.1326 24 18V15.479C24 15.346 24.053 15.219 24.146 15.125L25.56 13.712C25.839 13.433 25.999 13.046 25.999 12.651V12.5C25.999 11.673 26.672 11 27.499 11H37.499C38.326 11 38.999 11.673 38.999 12.5V12.62C38.999 13.03 39.17 13.428 39.468 13.709L40.843 15.012C40.8923 15.0587 40.9316 15.115 40.9584 15.1774C40.9852 15.2398 40.999 15.3071 40.999 15.375V18C40.9991 18.0656 40.9863 18.1306 40.9613 18.1913C40.9363 18.2519 40.8995 18.3071 40.8532 18.3535C40.8069 18.3999 40.7518 18.4368 40.6912 18.4619C40.6306 18.4871 40.5656 18.5 40.5 18.5Z" fill="url(#paint3_linear_838_5146)"/>
<path d="M40.5 16C40.4259 16.0003 40.3526 15.984 40.2856 15.9525C40.2185 15.921 40.1593 15.8749 40.1122 15.8177C40.0651 15.7604 40.0313 15.6935 40.0133 15.6216C39.9953 15.5497 39.9935 15.4747 40.008 15.402L40.858 11.156C40.972 10.587 41.027 9.745 40.644 8.962C40.358 8.372 39.9111 7.8748 39.3549 7.52768C38.7987 7.18056 38.1557 6.99764 37.5 7H29.5C29.3674 7 29.2402 6.94732 29.1464 6.85355C29.0527 6.75979 29 6.63261 29 6.5C29 6.36739 29.0527 6.24021 29.1464 6.14645C29.2402 6.05268 29.3674 6 29.5 6H37.5C39.231 6 40.78 6.967 41.544 8.522C41.944 9.34 42.047 10.319 41.84 11.352L40.99 15.597C40.9676 15.7105 40.9065 15.8127 40.8171 15.8862C40.7278 15.9597 40.6157 15.9999 40.5 16Z" fill="url(#paint4_linear_838_5146)"/>
<path d="M24.4661 16C24.3507 15.9997 24.239 15.9595 24.1499 15.8863C24.0607 15.813 23.9997 15.7112 23.9771 15.598L23.1281 11.352C22.9211 10.319 23.0241 9.33903 23.4241 8.52303C23.7918 7.76425 24.3664 7.12481 25.0817 6.67842C25.797 6.23203 26.6239 5.99687 27.4671 6.00003H35.4671C35.5997 6.00003 35.7269 6.05271 35.8206 6.14648C35.9144 6.24025 35.9671 6.36742 35.9671 6.50003C35.9671 6.63264 35.9144 6.75982 35.8206 6.85358C35.7269 6.94735 35.5997 7.00003 35.4671 7.00003H27.4671C26.8113 6.99748 26.168 7.18031 25.6116 7.52744C25.0552 7.87457 24.6082 8.37188 24.3221 8.96203C23.9381 9.74303 23.9941 10.586 24.1081 11.155L24.9571 15.402C24.9716 15.4746 24.9698 15.5495 24.9518 15.6214C24.9339 15.6932 24.9002 15.7601 24.8532 15.8173C24.8062 15.8745 24.7471 15.9206 24.6802 15.9522C24.6132 15.9838 24.5401 16.0001 24.4661 16Z" fill="url(#paint5_linear_838_5146)"/>
<path d="M50.0714 60.0711H13.9286C12.8869 60.0703 11.8881 59.6561 11.1516 58.9195C10.415 58.183 10.0008 57.1842 10 56.1425V54.5711C10 54.3627 10.0828 54.1629 10.2301 54.0155C10.3775 53.8682 10.5773 53.7854 10.7857 53.7854H53.2143C53.4227 53.7854 53.6225 53.8682 53.7699 54.0155C53.9172 54.1629 54 54.3627 54 54.5711V56.1425C54 58.3095 52.2384 60.0711 50.0714 60.0711ZM11.1281 55V56.1425C11.1281 57.4421 12.2898 58.9195 13.5893 58.9195H50.1442C51.4437 58.9195 53 57.4421 53 56.1425V55H11.1281Z" fill="#0071BC"/>
<path d="M14 54.4411H13.5V54.9411H14V54.4411ZM50 54.4411V54.9411H50.5V54.4411H50ZM14.5 54.4411V34H13.5V54.4411H14.5ZM16 32.5H48V31.5H16V32.5ZM49.5 34V54.4411H50.5V34H49.5ZM50 53.9411H14V54.9411H50V53.9411ZM48 32.5C48.8284 32.5 49.5 33.1716 49.5 34H50.5C50.5 32.6193 49.3807 31.5 48 31.5V32.5ZM14.5 34C14.5 33.1716 15.1716 32.5 16 32.5V31.5C14.6193 31.5 13.5 32.6193 13.5 34H14.5Z" fill="#0071BC"/>
<path d="M35.4441 45.176C35.181 45.0639 34.9569 44.877 34.7997 44.6386C34.6426 44.4003 34.5594 44.1211 34.5605 43.8359C34.5639 43.5813 34.6323 43.3318 34.7593 43.1108C34.8863 42.8899 35.0676 42.7049 35.2862 42.5731C35.3357 42.5427 35.3784 42.5025 35.4119 42.4551C35.4453 42.4077 35.4688 42.3541 35.4808 42.2974C35.4929 42.2407 35.4933 42.1822 35.482 42.1253C35.4707 42.0685 35.4479 42.0145 35.4151 41.9667C35.2186 41.6819 34.9624 41.443 34.6642 41.2664C34.3661 41.0899 34.033 40.98 33.688 40.9442C34.0091 40.4364 34.1548 39.8379 34.103 39.2399C34.0928 39.1313 34.0409 39.0309 33.9581 38.9596C33.8752 38.8884 33.7679 38.8519 33.6586 38.8578C32.9203 38.9234 32.2358 39.2705 31.7478 39.8267C31.4386 40.1839 31.2203 40.6102 31.1116 41.0693C30.8871 40.9936 30.6519 40.9535 30.4149 40.9505C29.976 40.9629 29.5478 41.0881 29.1718 41.3139C28.7958 41.5398 28.4847 41.8586 28.2687 42.2396C27.4569 43.6442 27.9535 45.749 28.8329 47.0159C29.1857 47.5236 29.715 48.2857 30.5136 48.2857C30.5293 48.2857 30.5453 48.2857 30.5612 48.2849C30.8288 48.2698 31.0907 48.2022 31.3321 48.0861C31.5248 47.9887 31.7375 47.9369 31.9536 47.9346C32.1568 47.937 32.3567 47.9866 32.5374 48.0794C32.8013 48.2039 33.089 48.2705 33.3811 48.2748C34.2037 48.2594 34.6897 47.552 35.0445 47.0351C35.3245 46.6246 35.5436 46.1759 35.695 45.7029C35.7273 45.5998 35.7194 45.4882 35.6729 45.3906C35.6264 45.293 35.5447 45.2164 35.4441 45.176ZM32.399 40.3863C32.6248 40.1345 32.9079 39.9402 33.2244 39.8196C33.1552 40.1591 33.0019 40.4761 32.7786 40.7416C32.6271 40.9229 32.4426 41.0741 32.235 41.1874C32.2228 41.1924 32.2094 41.1975 32.1972 41.2025C32.117 41.2339 32.0179 41.2728 31.9414 41.2979C32.0152 40.9607 32.1725 40.6474 32.399 40.3863ZM34.3348 46.5514C33.9892 47.0544 33.7172 47.4114 33.3653 47.4177C33.1952 47.4172 33.0279 47.3742 32.8788 47.2926C32.5905 47.1526 32.2743 47.0791 31.9536 47.0774C31.6218 47.0791 31.2945 47.1541 30.9953 47.2972C30.8498 47.3712 30.6911 47.4158 30.5283 47.4286H30.5155C30.1659 47.4286 29.7898 46.8874 29.5401 46.5279C28.9154 45.628 28.3393 43.835 29.0141 42.6673C29.1557 42.4146 29.3603 42.2027 29.6082 42.0521C29.8562 41.9014 30.139 41.8172 30.4292 41.8077L30.4437 41.8072C30.6885 41.828 30.9275 41.8925 31.1494 41.9977C31.2059 42.0198 31.2615 42.042 31.3168 42.0625C31.3308 42.0684 31.3453 42.0738 31.36 42.0784C31.513 42.1398 31.6756 42.1742 31.8404 42.1801C32.0738 42.1617 32.3018 42.1005 32.513 41.9998C32.8107 41.8558 33.138 41.7828 33.4688 41.7867C33.8228 41.8005 34.1625 41.9289 34.4366 42.1525C34.2024 42.3676 34.0159 42.6292 33.8891 42.9204C33.7623 43.2116 33.6981 43.526 33.7004 43.8434C33.698 44.2277 33.7934 44.6067 33.9778 44.9442C34.1621 45.2818 34.4294 45.5672 34.7545 45.7737C34.6413 46.0464 34.5007 46.3069 34.3348 46.5514Z" fill="#0071BC"/>
<defs>
<linearGradient id="paint0_linear_838_5146" x1="24.0108" y1="16.9529" x2="44.3407" y2="31.6522" gradientUnits="userSpaceOnUse">
<stop stop-color="#07FFE1"/>
<stop offset="1" stop-color="#9DFF00"/>
</linearGradient>
<linearGradient id="paint1_linear_838_5146" x1="26.5549" y1="14.2306" x2="28.683" y2="18.0497" gradientUnits="userSpaceOnUse">
<stop stop-color="#07FFE1"/>
<stop offset="1" stop-color="#9DFF00"/>
</linearGradient>
<linearGradient id="paint2_linear_838_5146" x1="22.0134" y1="15.7283" x2="40.7636" y2="34.8271" gradientUnits="userSpaceOnUse">
<stop stop-color="#07FFE1"/>
<stop offset="1" stop-color="#9DFF00"/>
</linearGradient>
<linearGradient id="paint3_linear_838_5146" x1="24.0108" y1="12.4951" x2="40.2164" y2="27.9561" gradientUnits="userSpaceOnUse">
<stop stop-color="#07FFE1"/>
<stop offset="1" stop-color="#9DFF00"/>
</linearGradient>
<linearGradient id="paint4_linear_838_5146" x1="29.0082" y1="7.15079" x2="41.4747" y2="18.9172" gradientUnits="userSpaceOnUse">
<stop stop-color="#07FFE1"/>
<stop offset="1" stop-color="#9DFF00"/>
</linearGradient>
<linearGradient id="paint5_linear_838_5146" x1="23.0322" y1="7.1508" x2="35.4986" y2="18.9162" gradientUnits="userSpaceOnUse">
<stop stop-color="#07FFE1"/>
<stop offset="1" stop-color="#9DFF00"/>
</linearGradient>
</defs>
</svg>
