<svg width="65" height="64" viewBox="0 0 65 64" fill="none" xmlns="http://www.w3.org/2000/svg">
<path d="M29.994 32.124C29.8614 32.124 29.7342 32.0713 29.6404 31.9775C29.5467 31.8838 29.494 31.7566 29.494 31.624L29.492 27.588C29.492 27.4554 29.5447 27.3282 29.6384 27.2344C29.7322 27.1407 29.8594 27.088 29.992 27.088C30.1246 27.088 30.2518 27.1407 30.3456 27.2344C30.4393 27.3282 30.492 27.4554 30.492 27.588L30.494 31.624C30.494 31.7566 30.4413 31.8838 30.3476 31.9775C30.2538 32.0713 30.1266 32.124 29.994 32.124ZM36.003 32.124C35.8704 32.124 35.7432 32.0713 35.6494 31.9775C35.5557 31.8838 35.503 31.7566 35.503 31.624L35.502 27.555C35.502 27.4224 35.5547 27.2952 35.6484 27.2014C35.7422 27.1077 35.8694 27.055 36.002 27.055C36.1346 27.055 36.2618 27.1077 36.3556 27.2014C36.4493 27.2952 36.502 27.4224 36.502 27.555L36.503 31.624C36.503 31.7566 36.4503 31.8838 36.3566 31.9775C36.2628 32.0713 36.1356 32.124 36.003 32.124ZM33.5 26H32.5C32.3674 26 32.2402 25.9473 32.1464 25.8535C32.0527 25.7598 32 25.6326 32 25.5C32 25.3674 32.0527 25.2402 32.1464 25.1464C32.2402 25.0527 32.3674 25 32.5 25H33.5C33.6326 25 33.7598 25.0527 33.8536 25.1464C33.9473 25.2402 34 25.3674 34 25.5C34 25.6326 33.9473 25.7598 33.8536 25.8535C33.7598 25.9473 33.6326 26 33.5 26ZM41 21.918C40.8674 21.918 40.7402 21.8653 40.6464 21.7715C40.5527 21.6778 40.5 21.5506 40.5 21.418V15.48C40.5 15.3474 40.5527 15.2202 40.6464 15.1264C40.7402 15.0327 40.8674 14.98 41 14.98C41.1326 14.98 41.2598 15.0327 41.3536 15.1264C41.4473 15.2202 41.5 15.3474 41.5 15.48V21.418C41.5 21.5506 41.4473 21.6778 41.3536 21.7715C41.2598 21.8653 41.1326 21.918 41 21.918ZM25 21.918C24.8674 21.918 24.7402 21.8653 24.6464 21.7715C24.5527 21.6778 24.5 21.5506 24.5 21.418V15.48C24.5 15.3474 24.5527 15.2202 24.6464 15.1264C24.7402 15.0327 24.8674 14.98 25 14.98C25.1326 14.98 25.2598 15.0327 25.3536 15.1264C25.4473 15.2202 25.5 15.3474 25.5 15.48V21.418C25.5 21.5506 25.4473 21.6778 25.3536 21.7715C25.2598 21.8653 25.1326 21.918 25 21.918ZM33 21C32.173 21 31.5 20.327 31.5 19.5C31.5 19.3674 31.5527 19.2402 31.6464 19.1464C31.7402 19.0527 31.8674 19 32 19C32.1326 19 32.2598 19.0527 32.3536 19.1464C32.4473 19.2402 32.5 19.3674 32.5 19.5C32.5 19.775 32.725 20 33 20C33.275 20 33.5 19.775 33.5 19.5C33.5 19.3674 33.5527 19.2402 33.6464 19.1464C33.7402 19.0527 33.8674 19 34 19C34.1326 19 34.2598 19.0527 34.3536 19.1464C34.4473 19.2402 34.5 19.3674 34.5 19.5C34.5 20.327 33.827 21 33 21Z" fill="url(#paint0_linear_968_3429)"/>
<path d="M29.499 17.999C30.0513 17.999 30.499 17.5513 30.499 16.999C30.499 16.4467 30.0513 15.999 29.499 15.999C28.9467 15.999 28.499 16.4467 28.499 16.999C28.499 17.5513 28.9467 17.999 29.499 17.999Z" fill="#0071BC"/>
<path d="M31.4838 16.004C31.406 16.0043 31.3292 15.9862 31.2597 15.9513C31.1902 15.9164 31.13 15.8656 31.0838 15.803C30.9018 15.5578 30.6658 15.3578 30.394 15.2186C30.1223 15.0793 29.8221 15.0045 29.5168 15C29.2118 15.0044 28.912 15.079 28.6406 15.2181C28.3691 15.3572 28.1334 15.557 27.9518 15.802C27.8726 15.9082 27.7545 15.9786 27.6234 15.9978C27.4923 16.0169 27.359 15.9832 27.2528 15.904C27.1465 15.8248 27.0761 15.7067 27.057 15.5756C27.0379 15.4445 27.0716 15.3112 27.1508 15.205C27.4176 14.8489 27.7602 14.5564 28.1538 14.3487C28.5474 14.141 28.9822 14.0233 29.4268 14.004C29.4578 14 29.4888 14.001 29.5158 14C29.5458 14.001 29.5768 14 29.6068 14.003C30.0515 14.0227 30.4864 14.1407 30.8801 14.3485C31.2738 14.5564 31.6166 14.8489 31.8838 15.205C31.9396 15.2792 31.9736 15.3675 31.982 15.4599C31.9904 15.5524 31.9728 15.6454 31.9312 15.7284C31.8897 15.8114 31.8258 15.8812 31.7467 15.9299C31.6677 15.9786 31.5766 16.0042 31.4838 16.004Z" fill="url(#paint1_linear_968_3429)"/>
<path d="M36.499 17.999C37.0513 17.999 37.499 17.5513 37.499 16.999C37.499 16.4467 37.0513 15.999 36.499 15.999C35.9467 15.999 35.499 16.4467 35.499 16.999C35.499 17.5513 35.9467 17.999 36.499 17.999Z" fill="#0071BC"/>
<path d="M38.484 16.004C38.4062 16.0043 38.3295 15.9862 38.26 15.9513C38.1905 15.9164 38.1302 15.8656 38.084 15.803C37.902 15.5578 37.666 15.3578 37.3942 15.2186C37.1225 15.0793 36.8223 15.0045 36.517 15C36.212 15.0044 35.9122 15.079 35.6408 15.2181C35.3694 15.3572 35.1337 15.557 34.952 15.802C34.9128 15.8546 34.8636 15.899 34.8073 15.9325C34.7509 15.9661 34.6885 15.9883 34.6236 15.9978C34.5587 16.0072 34.4926 16.0038 34.429 15.9877C34.3654 15.9717 34.3056 15.9432 34.253 15.904C34.2004 15.8648 34.156 15.8156 34.1225 15.7593C34.0889 15.7029 34.0667 15.6405 34.0572 15.5756C34.0478 15.5107 34.0512 15.4446 34.0673 15.381C34.0833 15.3174 34.1118 15.2576 34.151 15.205C34.4179 14.8489 34.7604 14.5564 35.154 14.3487C35.5476 14.141 35.9824 14.0233 36.427 14.004C36.458 14 36.489 14.001 36.516 14C36.546 14.001 36.577 14 36.607 14.003C37.0518 14.0227 37.4866 14.1407 37.8804 14.3485C38.2741 14.5564 38.6168 14.8489 38.884 15.205C38.9398 15.2792 38.9738 15.3675 38.9822 15.4599C38.9906 15.5524 38.973 15.6454 38.9315 15.7284C38.8899 15.8114 38.826 15.8812 38.747 15.9299C38.6679 15.9786 38.5768 16.0042 38.484 16.004ZM24.979 20H24C23.173 20 22.5 19.327 22.5 18.5V15.5C22.5 14.673 23.173 14 24 14H24.587C24.7196 14 24.8468 14.0527 24.9406 14.1464C25.0343 14.2402 25.087 14.3674 25.087 14.5C25.087 14.6326 25.0343 14.7598 24.9406 14.8536C24.8468 14.9473 24.7196 15 24.587 15H24C23.725 15 23.5 15.225 23.5 15.5V18.5C23.5 18.775 23.725 19 24 19H24.979C25.1116 19 25.2388 19.0527 25.3326 19.1464C25.4263 19.2402 25.479 19.3674 25.479 19.5C25.479 19.6326 25.4263 19.7598 25.3326 19.8536C25.2388 19.9473 25.1116 20 24.979 20ZM41.979 20H41C40.8674 20 40.7402 19.9473 40.6464 19.8536C40.5527 19.7598 40.5 19.6326 40.5 19.5C40.5 19.3674 40.5527 19.2402 40.6464 19.1464C40.7402 19.0527 40.8674 19 41 19H41.979C42.254 19 42.479 18.775 42.479 18.5V15.5C42.479 15.225 42.254 15 41.979 15H41.2C41.0674 15 40.9402 14.9473 40.8464 14.8536C40.7527 14.7598 40.7 14.6326 40.7 14.5C40.7 14.3674 40.7527 14.2402 40.8464 14.1464C40.9402 14.0527 41.0674 14 41.2 14H41.979C42.806 14 43.479 14.673 43.479 15.5V18.5C43.479 19.327 42.806 20 41.979 20ZM33.017 29.018C31.9893 29.0203 30.9815 28.7345 30.108 28.193L26.619 26.018C25.969 25.6154 25.433 25.053 25.0621 24.3845C24.6912 23.716 24.4976 22.9635 24.5 22.199V21.419C24.5 21.2864 24.5527 21.1592 24.6464 21.0654C24.7402 20.9717 24.8674 20.919 25 20.919C25.1326 20.919 25.2598 20.9717 25.3536 21.0654C25.4473 21.1592 25.5 21.2864 25.5 21.419V22.199C25.5 23.415 26.116 24.525 27.148 25.17L30.637 27.344C31.3532 27.7864 32.1785 28.0206 33.0203 28.0203C33.8621 28.0199 34.6872 27.785 35.403 27.342L38.877 25.171C39.3814 24.8573 39.7974 24.4199 40.0853 23.9002C40.3732 23.3806 40.5235 22.796 40.522 22.202V21.419C40.522 21.2864 40.5747 21.1592 40.6684 21.0654C40.7622 20.9717 40.8894 20.919 41.022 20.919C41.1546 20.919 41.2818 20.9717 41.3756 21.0654C41.4693 21.1592 41.522 21.2864 41.522 21.419V22.202C41.5243 22.9655 41.3312 23.717 40.9612 24.3849C40.5912 25.0528 40.0565 25.615 39.408 26.018L35.933 28.189C35.0575 28.7323 34.0473 29.0194 33.017 29.018Z" fill="url(#paint2_linear_968_3429)"/>
<path d="M33.021 23.992C31.752 23.992 30.574 23.593 29.702 22.868C29.6502 22.8265 29.6071 22.775 29.5754 22.7167C29.5437 22.6584 29.5239 22.5943 29.5172 22.5282C29.5105 22.4621 29.517 22.3954 29.5364 22.3319C29.5558 22.2684 29.5876 22.2093 29.6301 22.1583C29.6725 22.1072 29.7247 22.0651 29.7836 22.0344C29.8425 22.0037 29.9069 21.985 29.9731 21.9795C30.0393 21.974 30.1059 21.9817 30.1691 22.0022C30.2322 22.0228 30.2907 22.0557 30.341 22.099C31.708 23.236 34.335 23.236 35.702 22.099C35.8043 22.017 35.9347 21.9785 36.065 21.9917C36.1954 22.005 36.3154 22.0688 36.3992 22.1696C36.483 22.2705 36.5238 22.4001 36.5129 22.5307C36.502 22.6613 36.4403 22.7825 36.341 22.868C35.468 23.593 34.29 23.992 33.021 23.992ZM41 18.5C40.8674 18.5 40.7402 18.4473 40.6464 18.3536C40.5527 18.2598 40.5 18.1326 40.5 18V15.59L39.281 14.436C39.0349 14.202 38.8388 13.9205 38.7046 13.6085C38.5703 13.2966 38.5007 12.9606 38.5 12.621V12.5C38.5 12.225 38.275 12 38 12H28C27.725 12 27.5 12.225 27.5 12.5V12.652C27.5 13.32 27.24 13.947 26.768 14.42L25.5 15.687V18C25.5 18.1326 25.4473 18.2598 25.3536 18.3536C25.2598 18.4473 25.1326 18.5 25 18.5C24.8674 18.5 24.7402 18.4473 24.6464 18.3536C24.5527 18.2598 24.5 18.1326 24.5 18V15.479C24.5 15.346 24.553 15.219 24.646 15.125L26.06 13.712C26.339 13.433 26.499 13.046 26.499 12.651V12.5C26.499 11.673 27.172 11 27.999 11H37.999C38.826 11 39.499 11.673 39.499 12.5V12.62C39.499 13.03 39.67 13.428 39.968 13.709L41.343 15.012C41.3923 15.0587 41.4316 15.115 41.4584 15.1774C41.4852 15.2398 41.499 15.3071 41.499 15.375V18C41.4991 18.0656 41.4863 18.1306 41.4613 18.1913C41.4363 18.2519 41.3995 18.3071 41.3532 18.3535C41.3069 18.3999 41.2518 18.4368 41.1912 18.4619C41.1306 18.4871 41.0656 18.5 41 18.5Z" fill="url(#paint3_linear_968_3429)"/>
<path d="M41 16C40.9259 16.0003 40.8526 15.984 40.7856 15.9525C40.7185 15.921 40.6593 15.8749 40.6122 15.8177C40.5651 15.7604 40.5313 15.6935 40.5133 15.6216C40.4953 15.5497 40.4935 15.4747 40.508 15.402L41.358 11.156C41.472 10.587 41.527 9.745 41.144 8.962C40.858 8.372 40.4111 7.8748 39.8549 7.52768C39.2987 7.18056 38.6557 6.99764 38 7H30C29.8674 7 29.7402 6.94732 29.6464 6.85355C29.5527 6.75979 29.5 6.63261 29.5 6.5C29.5 6.36739 29.5527 6.24021 29.6464 6.14645C29.7402 6.05268 29.8674 6 30 6H38C39.731 6 41.28 6.967 42.044 8.522C42.444 9.34 42.547 10.319 42.34 11.352L41.49 15.597C41.4676 15.7105 41.4065 15.8127 41.3171 15.8862C41.2278 15.9597 41.1157 15.9999 41 16Z" fill="url(#paint4_linear_968_3429)"/>
<path d="M24.9661 16C24.8507 15.9997 24.739 15.9595 24.6499 15.8863C24.5607 15.813 24.4997 15.7112 24.4771 15.598L23.6281 11.352C23.4211 10.319 23.5241 9.33903 23.9241 8.52303C24.2918 7.76425 24.8664 7.12481 25.5817 6.67842C26.297 6.23203 27.1239 5.99687 27.9671 6.00003H35.9671C36.0997 6.00003 36.2269 6.05271 36.3206 6.14648C36.4144 6.24025 36.4671 6.36742 36.4671 6.50003C36.4671 6.63264 36.4144 6.75982 36.3206 6.85358C36.2269 6.94735 36.0997 7.00003 35.9671 7.00003H27.9671C27.3113 6.99748 26.668 7.18031 26.1116 7.52744C25.5552 7.87457 25.1082 8.37188 24.8221 8.96203C24.4381 9.74303 24.4941 10.586 24.6081 11.155L25.4571 15.402C25.4716 15.4746 25.4698 15.5495 25.4518 15.6214C25.4339 15.6932 25.4002 15.7601 25.3532 15.8173C25.3062 15.8745 25.2471 15.9206 25.1802 15.9522C25.1132 15.9838 25.0401 16.0001 24.9661 16Z" fill="url(#paint5_linear_968_3429)"/>
<path d="M50.5714 60.0711H14.4286C13.3869 60.0703 12.3881 59.6561 11.6516 58.9195C10.915 58.183 10.5008 57.1842 10.5 56.1425V54.5711C10.5 54.3627 10.5828 54.1629 10.7301 54.0155C10.8775 53.8682 11.0773 53.7854 11.2857 53.7854H53.7143C53.9227 53.7854 54.1225 53.8682 54.2699 54.0155C54.4172 54.1629 54.5 54.3627 54.5 54.5711V56.1425C54.5 58.3095 52.7384 60.0711 50.5714 60.0711ZM11.6281 55V56.1425C11.6281 57.4421 12.7898 58.9195 14.0893 58.9195H50.6442C51.9437 58.9195 53.5 57.4421 53.5 56.1425V55H11.6281Z" fill="#0071BC"/>
<path d="M14.5 54.4411H14V54.9411H14.5V54.4411ZM50.5 54.4411V54.9411H51V54.4411H50.5ZM15 54.4411V34H14V54.4411H15ZM16.5 32.5H48.5V31.5H16.5V32.5ZM50 34V54.4411H51V34H50ZM50.5 53.9411H14.5V54.9411H50.5V53.9411ZM48.5 32.5C49.3284 32.5 50 33.1716 50 34H51C51 32.6193 49.8807 31.5 48.5 31.5V32.5ZM15 34C15 33.1716 15.6716 32.5 16.5 32.5V31.5C15.1193 31.5 14 32.6193 14 34H15Z" fill="#0071BC"/>
<path d="M35.9441 45.176C35.681 45.0639 35.4569 44.877 35.2997 44.6386C35.1426 44.4003 35.0594 44.1211 35.0605 43.8359C35.0639 43.5813 35.1323 43.3318 35.2593 43.1108C35.3863 42.8899 35.5676 42.7049 35.7862 42.5731C35.8357 42.5427 35.8784 42.5025 35.9119 42.4551C35.9453 42.4077 35.9688 42.3541 35.9808 42.2974C35.9929 42.2407 35.9933 42.1822 35.982 42.1253C35.9707 42.0685 35.9479 42.0145 35.9151 41.9667C35.7186 41.6819 35.4624 41.443 35.1642 41.2664C34.8661 41.0899 34.533 40.98 34.188 40.9442C34.5091 40.4364 34.6548 39.8379 34.603 39.2399C34.5928 39.1313 34.5409 39.0309 34.4581 38.9596C34.3752 38.8884 34.2679 38.8519 34.1586 38.8578C33.4203 38.9234 32.7358 39.2705 32.2478 39.8267C31.9386 40.1839 31.7203 40.6102 31.6116 41.0693C31.3871 40.9936 31.1519 40.9535 30.9149 40.9505C30.476 40.9629 30.0478 41.0881 29.6718 41.3139C29.2958 41.5398 28.9847 41.8586 28.7687 42.2396C27.9569 43.6442 28.4535 45.749 29.3329 47.0159C29.6857 47.5236 30.215 48.2857 31.0136 48.2857C31.0293 48.2857 31.0453 48.2857 31.0612 48.2849C31.3288 48.2698 31.5907 48.2022 31.8321 48.0861C32.0248 47.9887 32.2375 47.9369 32.4536 47.9346C32.6568 47.937 32.8567 47.9866 33.0374 48.0794C33.3013 48.2039 33.589 48.2705 33.8811 48.2748C34.7037 48.2594 35.1897 47.552 35.5445 47.0351C35.8245 46.6246 36.0436 46.1759 36.195 45.7029C36.2273 45.5998 36.2194 45.4882 36.1729 45.3906C36.1264 45.293 36.0447 45.2164 35.9441 45.176ZM32.899 40.3863C33.1248 40.1345 33.4079 39.9402 33.7244 39.8196C33.6552 40.1591 33.5019 40.4761 33.2786 40.7416C33.1271 40.9229 32.9426 41.0741 32.735 41.1874C32.7228 41.1924 32.7094 41.1975 32.6972 41.2025C32.617 41.2339 32.5179 41.2728 32.4414 41.2979C32.5152 40.9607 32.6725 40.6474 32.899 40.3863ZM34.8348 46.5514C34.4892 47.0544 34.2172 47.4114 33.8653 47.4177C33.6952 47.4172 33.5279 47.3742 33.3788 47.2926C33.0905 47.1526 32.7743 47.0791 32.4536 47.0774C32.1218 47.0791 31.7945 47.1541 31.4953 47.2972C31.3498 47.3712 31.1911 47.4158 31.0283 47.4286H31.0155C30.6659 47.4286 30.2898 46.8874 30.0401 46.5279C29.4154 45.628 28.8393 43.835 29.5141 42.6673C29.6557 42.4146 29.8603 42.2027 30.1082 42.0521C30.3562 41.9014 30.639 41.8172 30.9292 41.8077L30.9437 41.8072C31.1885 41.828 31.4275 41.8925 31.6494 41.9977C31.7059 42.0198 31.7615 42.042 31.8168 42.0625C31.8308 42.0684 31.8453 42.0738 31.86 42.0784C32.013 42.1398 32.1756 42.1742 32.3404 42.1801C32.5738 42.1617 32.8018 42.1005 33.013 41.9998C33.3107 41.8558 33.638 41.7828 33.9688 41.7867C34.3228 41.8005 34.6625 41.9289 34.9366 42.1525C34.7024 42.3676 34.5159 42.6292 34.3891 42.9204C34.2623 43.2116 34.1981 43.526 34.2004 43.8434C34.198 44.2277 34.2934 44.6067 34.4778 44.9442C34.6621 45.2818 34.9294 45.5672 35.2545 45.7737C35.1413 46.0464 35.0007 46.3069 34.8348 46.5514Z" fill="#0071BC"/>
<defs>
<linearGradient id="paint0_linear_968_3429" x1="24.5108" y1="16.9529" x2="44.8407" y2="31.6522" gradientUnits="userSpaceOnUse">
<stop stop-color="#07FFE1"/>
<stop offset="1" stop-color="#9DFF00"/>
</linearGradient>
<linearGradient id="paint1_linear_968_3429" x1="27.0549" y1="14.2306" x2="29.183" y2="18.0497" gradientUnits="userSpaceOnUse">
<stop stop-color="#07FFE1"/>
<stop offset="1" stop-color="#9DFF00"/>
</linearGradient>
<linearGradient id="paint2_linear_968_3429" x1="22.5134" y1="15.7283" x2="41.2636" y2="34.8271" gradientUnits="userSpaceOnUse">
<stop stop-color="#07FFE1"/>
<stop offset="1" stop-color="#9DFF00"/>
</linearGradient>
<linearGradient id="paint3_linear_968_3429" x1="24.5108" y1="12.4951" x2="40.7164" y2="27.9561" gradientUnits="userSpaceOnUse">
<stop stop-color="#07FFE1"/>
<stop offset="1" stop-color="#9DFF00"/>
</linearGradient>
<linearGradient id="paint4_linear_968_3429" x1="29.5082" y1="7.15079" x2="41.9747" y2="18.9172" gradientUnits="userSpaceOnUse">
<stop stop-color="#07FFE1"/>
<stop offset="1" stop-color="#9DFF00"/>
</linearGradient>
<linearGradient id="paint5_linear_968_3429" x1="23.5322" y1="7.1508" x2="35.9986" y2="18.9162" gradientUnits="userSpaceOnUse">
<stop stop-color="#07FFE1"/>
<stop offset="1" stop-color="#9DFF00"/>
</linearGradient>
</defs>
</svg>
