<svg width="65" height="64" viewBox="0 0 65 64" fill="none" xmlns="http://www.w3.org/2000/svg">
<path d="M42.0707 46.1606C41.6601 46.1624 41.2548 46.0675 40.8877 45.8838C40.5205 45.7001 40.2016 45.4326 39.9568 45.103L39.511 44.507C39.451 44.4269 39.4254 44.3262 39.4397 44.2272C39.454 44.1281 39.507 44.0388 39.5872 43.9789C39.6673 43.919 39.768 43.8934 39.867 43.9076C39.966 43.9219 40.0553 43.975 40.1153 44.0551L40.5611 44.6511C40.7358 44.8867 40.9635 45.0778 41.2257 45.2092C41.4879 45.3405 41.7774 45.4082 42.0707 45.407C42.6704 45.407 43.2204 45.1316 43.5802 44.6511L44.0261 44.0551C44.086 43.975 44.1753 43.9219 44.2743 43.9076C44.3734 43.8934 44.474 43.919 44.5542 43.9789C44.6343 44.0388 44.6873 44.1281 44.7016 44.2272C44.7159 44.3262 44.6903 44.4269 44.6304 44.507L44.1845 45.103C43.9396 45.4325 43.6207 45.6999 43.2536 45.8836C42.8864 46.0673 42.4812 46.1622 42.0707 46.1606ZM22.4509 43.3067C21.5523 43.3093 20.6777 43.0176 19.9606 42.4761C19.8851 42.4146 19.8363 42.3262 19.8246 42.2295C19.8128 42.1327 19.8389 42.0352 19.8974 41.9573C19.9559 41.8794 20.0422 41.8272 20.1384 41.8115C20.2346 41.7959 20.3331 41.818 20.4132 41.8734C21.5992 42.7636 23.3154 42.7613 24.4998 41.8636C24.5796 41.8031 24.68 41.7769 24.7792 41.7905C24.8783 41.8042 24.9679 41.8566 25.0283 41.9364C25.0887 42.0161 25.115 42.1166 25.1014 42.2157C25.0877 42.3148 25.0352 42.4044 24.9555 42.4648C24.236 43.0134 23.3557 43.3093 22.4509 43.3067Z" fill="#0071BC"/>
<path d="M51.1237 58.5866C51.0237 58.5866 50.9278 58.5468 50.857 58.4761C50.7863 58.4053 50.7465 58.3094 50.7465 58.2094V48.0589C50.7465 47.9588 50.7863 47.8629 50.857 47.7921C50.9278 47.7214 51.0237 47.6817 51.1237 47.6817C51.2238 47.6817 51.3197 47.7214 51.3905 47.7921C51.4612 47.8629 51.501 47.9588 51.501 48.0589V58.2094C51.501 58.3094 51.4612 58.4053 51.3905 58.4761C51.3197 58.5468 51.2238 58.5866 51.1237 58.5866ZM42.0709 44.6656C41.7777 44.6669 41.4882 44.5993 41.226 44.4681C40.9638 44.3369 40.7361 44.1459 40.5613 43.9104L39.512 42.508C39.4628 42.4422 39.4363 42.3622 39.4365 42.2801L39.4524 36.9925C39.4528 36.8927 39.4927 36.7972 39.5634 36.7268C39.6341 36.6564 39.7298 36.6168 39.8296 36.6168H39.8303C40.0385 36.6176 40.2075 36.7873 40.2068 36.9955L40.1909 42.1564L41.1649 43.4585C41.5964 44.0349 42.5454 44.0349 42.9769 43.4585L43.9516 42.1557L43.9675 36.9933C43.9679 36.8935 44.0078 36.7979 44.0785 36.7275C44.1492 36.6571 44.2449 36.6176 44.3447 36.6176H44.3454C44.5536 36.6183 44.7226 36.7881 44.7219 36.9963L44.706 42.2831C44.706 42.3643 44.6795 42.4432 44.6306 42.508L43.5812 43.9104C43.4063 44.1459 43.1785 44.3369 42.9161 44.4681C42.6537 44.5992 42.3642 44.6669 42.0709 44.6656Z" fill="url(#paint0_linear_968_3420)"/>
<path d="M39.7898 59C39.6898 59 39.5938 58.9603 39.5231 58.8895C39.4523 58.8188 39.4126 58.7228 39.4126 58.6228L39.4284 42.0191C39.4284 41.9191 39.4682 41.8231 39.5389 41.7524C39.6097 41.6817 39.7056 41.6419 39.8057 41.6419C39.9057 41.6419 40.0016 41.6817 40.0724 41.7524C40.1431 41.8231 40.1829 41.9191 40.1829 42.0191L40.167 58.6228C40.167 58.7228 40.1273 58.8188 40.0565 58.8895C39.9858 58.9603 39.8898 59 39.7898 59ZM44.3049 59C44.2049 59 44.1089 58.9603 44.0382 58.8895C43.9675 58.8188 43.9277 58.7228 43.9277 58.6228L43.9436 42.0199C43.9436 41.9198 43.9833 41.8239 44.054 41.7532C44.1248 41.6824 44.2207 41.6427 44.3208 41.6427C44.4208 41.6427 44.5167 41.6824 44.5875 41.7532C44.6582 41.8239 44.698 41.9198 44.698 42.0199L44.6821 58.6228C44.6821 58.7228 44.6424 58.8188 44.5716 58.8895C44.5009 58.9603 44.405 59 44.3049 59ZM48.1064 31.7781C48.0063 31.7781 47.9104 31.7383 47.8396 31.6676C47.7689 31.5969 47.7292 31.5009 47.7292 31.4009V25.4124C47.7292 22.293 45.1913 19.7552 42.0711 19.7552C38.9509 19.7552 36.4131 22.293 36.4131 25.4117V31.4001C36.4131 31.5002 36.3734 31.5961 36.3026 31.6669C36.2319 31.7376 36.1359 31.7773 36.0359 31.7773C35.9359 31.7773 35.8399 31.7376 35.7692 31.6669C35.6984 31.5961 35.6587 31.5002 35.6587 31.4001V25.4117C35.6587 21.8758 38.5352 19 42.0711 19C45.607 19 48.4836 21.8765 48.4836 25.4117V31.4001C48.4837 31.4497 48.474 31.4989 48.4551 31.5447C48.4361 31.5906 48.4084 31.6322 48.3733 31.6673C48.3383 31.7025 48.2967 31.7303 48.2509 31.7493C48.2051 31.7683 48.156 31.7781 48.1064 31.7781Z" fill="url(#paint1_linear_968_3420)"/>
<path d="M42.0711 31.085C41.4472 31.085 40.9395 30.5773 40.9395 29.9534V29.5935C40.9395 29.4935 40.9792 29.3975 41.0499 29.3268C41.1207 29.256 41.2166 29.2163 41.3167 29.2163C41.4167 29.2163 41.5126 29.256 41.5834 29.3268C41.6541 29.3975 41.6939 29.4935 41.6939 29.5935V29.9534C41.6939 30.0534 41.7336 30.1493 41.8043 30.2201C41.8751 30.2908 41.971 30.3306 42.0711 30.3306C42.1711 30.3306 42.267 30.2908 42.3378 30.2201C42.4085 30.1493 42.4483 30.0534 42.4483 29.9534V29.5935C42.4483 29.4935 42.488 29.3975 42.5587 29.3268C42.6295 29.256 42.7254 29.2163 42.8255 29.2163C42.9255 29.2163 43.0214 29.256 43.0922 29.3268C43.1629 29.3975 43.2027 29.4935 43.2027 29.5935V29.9534C43.2027 30.5773 42.695 31.085 42.0711 31.085Z" fill="url(#paint2_linear_968_3420)"/>
<path d="M39.4299 27.311C39.6383 27.311 39.8071 27.1422 39.8071 26.9338C39.8071 26.7255 39.6383 26.5566 39.4299 26.5566C39.2216 26.5566 39.0527 26.7255 39.0527 26.9338C39.0527 27.1422 39.2216 27.311 39.4299 27.311Z" fill="url(#paint3_linear_968_3420)"/>
<path d="M44.7107 27.311C44.919 27.311 45.0879 27.1422 45.0879 26.9338C45.0879 26.7255 44.919 26.5566 44.7107 26.5566C44.5024 26.5566 44.3335 26.7255 44.3335 26.9338C44.3335 27.1422 44.5024 27.311 44.7107 27.311Z" fill="url(#paint4_linear_968_3420)"/>
<path d="M36.0201 29.576H35.2815C34.6576 29.576 34.1499 29.0683 34.1499 28.4444V26.1812C34.1499 25.5573 34.6576 25.0496 35.2815 25.0496H36.0201C36.1201 25.0496 36.2161 25.0893 36.2868 25.16C36.3575 25.2308 36.3973 25.3267 36.3973 25.4268C36.3973 25.5268 36.3575 25.6227 36.2868 25.6935C36.2161 25.7642 36.1201 25.804 36.0201 25.804H35.2815C35.1815 25.804 35.0855 25.8437 35.0148 25.9144C34.944 25.9852 34.9043 26.0811 34.9043 26.1812V28.4444C34.9043 28.5444 34.944 28.6404 35.0148 28.7111C35.0855 28.7818 35.1815 28.8216 35.2815 28.8216H36.0201C36.1201 28.8216 36.2161 28.8613 36.2868 28.9321C36.3575 29.0028 36.3973 29.0987 36.3973 29.1988C36.3973 29.2988 36.3575 29.3948 36.2868 29.4655C36.2161 29.5362 36.1201 29.576 36.0201 29.576ZM48.8449 29.576H48.1064C48.0063 29.576 47.9104 29.5362 47.8397 29.4655C47.7689 29.3948 47.7292 29.2988 47.7292 29.1988C47.7292 29.0987 47.7689 29.0028 47.8397 28.9321C47.9104 28.8613 48.0063 28.8216 48.1064 28.8216H48.8449C48.945 28.8216 49.0409 28.7818 49.1117 28.7111C49.1824 28.6404 49.2221 28.5444 49.2221 28.4444V26.1812C49.2221 26.0811 49.1824 25.9852 49.1117 25.9144C49.0409 25.8437 48.945 25.804 48.8449 25.804H48.1064C48.0063 25.804 47.9104 25.7642 47.8397 25.6935C47.7689 25.6227 47.7292 25.5268 47.7292 25.4268C47.7292 25.3267 47.7689 25.2308 47.8397 25.16C47.9104 25.0893 48.0063 25.0496 48.1064 25.0496H48.8449C49.4688 25.0496 49.9765 25.5573 49.9765 26.1812V28.4444C49.9765 29.0683 49.4688 29.576 48.8449 29.576ZM39.0535 31.8384C38.9536 31.8384 38.8578 31.7988 38.7871 31.7282C38.7164 31.6577 38.6765 31.5619 38.6763 31.462V31.4597C38.6763 30.4194 39.5228 29.5737 40.5623 29.5737H41.3167C41.4168 29.5737 41.5127 29.6135 41.5835 29.6842C41.6542 29.7549 41.6939 29.8509 41.6939 29.9509C41.6939 30.051 41.6542 30.1469 41.5835 30.2176C41.5127 30.2884 41.4168 30.3281 41.3167 30.3281H40.5623C39.9384 30.3281 39.4307 30.8358 39.4307 31.4597C39.4307 31.5599 39.391 31.656 39.3203 31.727C39.2496 31.798 39.1537 31.838 39.0535 31.8384ZM45.0888 31.8384C44.9888 31.8384 44.893 31.7988 44.8223 31.7282C44.7516 31.6577 44.7118 31.5619 44.7116 31.462V31.4597C44.7116 30.8358 44.2038 30.3281 43.5799 30.3281H42.8255C42.7255 30.3281 42.6296 30.2884 42.5588 30.2176C42.4881 30.1469 42.4483 30.051 42.4483 29.9509C42.4483 29.8509 42.4881 29.7549 42.5588 29.6842C42.6296 29.6135 42.7255 29.5737 42.8255 29.5737H43.5799C44.6195 29.5737 45.466 30.4194 45.466 31.4597C45.4661 31.5094 45.4564 31.5585 45.4375 31.6044C45.4186 31.6503 45.3908 31.692 45.3558 31.7272C45.3208 31.7624 45.2792 31.7903 45.2333 31.8094C45.1875 31.8285 45.1384 31.8383 45.0888 31.8384ZM42.4483 34.1024H41.6939C41.5939 34.1024 41.498 34.0627 41.4272 33.9919C41.3565 33.9212 41.3167 33.8252 41.3167 33.7252C41.3167 33.6252 41.3565 33.5292 41.4272 33.4585C41.498 33.3877 41.5939 33.348 41.6939 33.348H42.4483C42.5484 33.348 42.6443 33.3877 42.7151 33.4585C42.7858 33.5292 42.8255 33.6252 42.8255 33.7252C42.8255 33.8252 42.7858 33.9212 42.7151 33.9919C42.6443 34.0627 42.5484 34.1024 42.4483 34.1024Z" fill="url(#paint5_linear_968_3420)"/>
<path d="M39.0535 31.0848H37.9219C36.6741 31.0848 35.6587 30.0693 35.6587 28.8216V26.9356C35.6587 26.8355 35.6984 26.7396 35.7692 26.6688C35.8399 26.5981 35.9359 26.5583 36.0359 26.5583C36.1359 26.5583 36.2319 26.5981 36.3026 26.6688C36.3734 26.7396 36.4131 26.8355 36.4131 26.9356V28.8216C36.4131 29.6537 37.0898 30.3304 37.9219 30.3304H39.0535C39.1535 30.3304 39.2495 30.3701 39.3202 30.4408C39.391 30.5116 39.4307 30.6075 39.4307 30.7076C39.4307 30.8076 39.391 30.9036 39.3202 30.9743C39.2495 31.045 39.1535 31.0848 39.0535 31.0848ZM46.2203 31.0848H45.0887C44.9887 31.0848 44.8928 31.045 44.822 30.9743C44.7513 30.9036 44.7115 30.8076 44.7115 30.7076C44.7115 30.6075 44.7513 30.5116 44.822 30.4408C44.8928 30.3701 44.9887 30.3304 45.0887 30.3304H46.2203C47.0525 30.3304 47.7292 29.6537 47.7292 28.8216V26.9356C47.7292 26.8355 47.7689 26.7396 47.8396 26.6688C47.9104 26.5981 48.0063 26.5583 48.1064 26.5583C48.2064 26.5583 48.3023 26.5981 48.3731 26.6688C48.4438 26.7396 48.4836 26.8355 48.4836 26.9356V28.8216C48.4836 30.0693 47.4681 31.0848 46.2203 31.0848ZM42.1345 32.6034C41.4668 32.6034 40.846 32.3922 40.3843 32.0089C40.3073 31.9449 40.259 31.8529 40.2499 31.7533C40.2407 31.6536 40.2716 31.5544 40.3356 31.4774C40.3996 31.4005 40.4916 31.3522 40.5913 31.343C40.6909 31.3339 40.7902 31.3648 40.8671 31.4288C41.5098 31.9637 42.7599 31.9637 43.4019 31.4288C43.4788 31.3648 43.578 31.3339 43.6777 31.343C43.7774 31.3522 43.8693 31.4005 43.9334 31.4774C43.9974 31.5544 44.0282 31.6536 44.0191 31.7533C44.01 31.8529 43.9616 31.9449 43.8847 32.0089C43.423 32.3922 42.8021 32.6034 42.1345 32.6034Z" fill="url(#paint6_linear_968_3420)"/>
<path d="M43.5955 37.12H40.5621C39.262 37.1184 38.0157 36.6013 37.0965 35.682C36.1772 34.7628 35.66 33.5164 35.6585 32.2164V30.7076C35.6585 30.6075 35.6982 30.5116 35.7689 30.4409C35.8397 30.3701 35.9356 30.3304 36.0357 30.3304C36.1357 30.3304 36.2316 30.3701 36.3024 30.4409C36.3731 30.5116 36.4129 30.6075 36.4129 30.7076V32.2164C36.4129 34.5037 38.274 36.3656 40.5621 36.3656H43.5955C45.8836 36.3656 47.7448 34.5037 47.7448 32.2164V30.7076C47.7448 30.6075 47.7845 30.5116 47.8552 30.4409C47.926 30.3701 48.0219 30.3304 48.122 30.3304C48.222 30.3304 48.3179 30.3701 48.3887 30.4409C48.4594 30.5116 48.4992 30.6075 48.4992 30.7076V32.2164C48.4992 34.9202 46.2993 37.12 43.5955 37.12ZM38.6761 25.804H35.6585C35.5584 25.804 35.4625 25.7642 35.3917 25.6935C35.321 25.6227 35.2812 25.5268 35.2812 25.4268C35.2812 25.3267 35.321 25.2308 35.3917 25.16C35.4625 25.0893 35.5584 25.0496 35.6585 25.0496H38.6761C38.7761 25.0496 38.8721 25.0893 38.9428 25.16C39.0135 25.2308 39.0533 25.3267 39.0533 25.4268C39.0533 25.5268 39.0135 25.6227 38.9428 25.6935C38.8721 25.7642 38.7761 25.804 38.6761 25.804ZM48.4833 25.804H45.4657C45.3657 25.804 45.2697 25.7642 45.199 25.6935C45.1282 25.6227 45.0885 25.5268 45.0885 25.4268C45.0885 25.3267 45.1282 25.2308 45.199 25.16C45.2697 25.0893 45.3657 25.0496 45.4657 25.0496H48.4833C48.5834 25.0496 48.6793 25.0893 48.75 25.16C48.8208 25.2308 48.8605 25.3267 48.8605 25.4268C48.8605 25.5268 48.8208 25.6227 48.75 25.6935C48.6793 25.7642 48.5834 25.804 48.4833 25.804ZM42.8253 27.1649C42.7423 27.165 42.6616 27.1376 42.5958 27.0869C42.53 27.0363 42.4828 26.9653 42.4617 26.885C42.2829 26.418 41.7804 26.5191 41.6816 26.885C41.6688 26.9329 41.6467 26.9779 41.6165 27.0172C41.5864 27.0565 41.5487 27.0895 41.5057 27.1143C41.4628 27.139 41.4153 27.155 41.3661 27.1614C41.317 27.1678 41.267 27.1643 41.2192 27.1513C41.1713 27.1386 41.1265 27.1165 41.0872 27.0863C41.0479 27.0562 41.015 27.0186 40.9902 26.9757C40.9655 26.9328 40.9495 26.8855 40.943 26.8364C40.9366 26.7873 40.94 26.7374 40.9529 26.6896C41.0932 26.1683 41.5534 25.8032 42.0716 25.8032C42.5424 25.8032 42.9633 26.0974 43.1436 26.5516C43.1618 26.5976 43.1776 26.6436 43.1904 26.6911C43.2052 26.747 43.207 26.8056 43.1956 26.8622C43.1841 26.9189 43.1598 26.9722 43.1246 27.018C43.0893 27.0638 43.0439 27.1008 42.992 27.1263C42.9401 27.1518 42.8831 27.165 42.8253 27.1649Z" fill="url(#paint7_linear_968_3420)"/>
<path d="M39.8077 28.8216H39.0533C38.5533 28.821 38.0739 28.6221 37.7204 28.2685C37.3668 27.915 37.1679 27.4356 37.1673 26.9356V26.1812C37.1673 25.5573 37.675 25.0496 38.2989 25.0496H40.5621C41.186 25.0496 41.6937 25.5573 41.6937 26.1812V26.9356C41.6937 27.9759 40.8473 28.8216 39.8077 28.8216ZM38.2989 25.804C38.1989 25.804 38.1029 25.8437 38.0322 25.9144C37.9614 25.9852 37.9217 26.0811 37.9217 26.1812V26.9356C37.9217 27.5595 38.4294 28.0672 39.0533 28.0672H39.8077C40.4316 28.0672 40.9393 27.5595 40.9393 26.9356V26.1812C40.9393 26.0811 40.8996 25.9852 40.8288 25.9144C40.7581 25.8437 40.6621 25.804 40.5621 25.804H38.2989ZM45.0885 28.8216H44.3341C43.8341 28.821 43.3547 28.6221 43.0012 28.2685C42.6476 27.915 42.4487 27.4356 42.4481 26.9356V26.1812C42.4481 25.5573 42.9558 25.0496 43.5797 25.0496H45.8429C46.4668 25.0496 46.9745 25.5573 46.9745 26.1812V26.9356C46.9745 27.9759 46.1281 28.8216 45.0885 28.8216ZM43.5797 25.804C43.4797 25.804 43.3837 25.8437 43.313 25.9144C43.2423 25.9852 43.2025 26.0811 43.2025 26.1812V26.9356C43.2025 27.5595 43.7102 28.0672 44.3341 28.0672H45.0885C45.7124 28.0672 46.2201 27.5595 46.2201 26.9356V26.1812C46.2201 26.0811 46.1804 25.9852 46.1097 25.9144C46.0389 25.8437 45.943 25.804 45.8429 25.804H43.5797ZM37.5445 43.9097C37.4445 43.9097 37.3485 43.8699 37.2778 43.7992C37.207 43.7284 37.1673 43.6325 37.1673 43.5325V39.7604C37.1673 39.6344 37.2299 39.5168 37.3355 39.4466L39.5987 37.9378C39.6555 37.8999 39.7215 37.8782 39.7897 37.875C39.8579 37.8718 39.9257 37.8873 39.9857 37.9197C40.0459 37.9517 40.0963 37.9996 40.1314 38.058C40.1665 38.1165 40.185 38.1834 40.1849 38.2516V42.0236C40.1849 42.0858 40.1696 42.147 40.1402 42.2017C40.1109 42.2565 40.0684 42.3031 40.0167 42.3375L37.7535 43.8463C37.6915 43.8874 37.6189 43.9095 37.5445 43.9097ZM37.9217 39.9619V42.8271L39.4305 41.8215V38.9562L37.9217 39.9619ZM39.8077 42.0236H39.8152H39.8077ZM46.5973 43.9097C46.5229 43.9098 46.4502 43.8878 46.3884 43.8463L44.1252 42.3375C44.0734 42.3031 44.0309 42.2565 44.0016 42.2017C43.9722 42.147 43.9569 42.0858 43.9569 42.0236V38.2516C43.957 38.1834 43.9755 38.1165 44.0106 38.0579C44.0456 37.9994 44.0959 37.9515 44.1561 37.9193C44.2162 37.8871 44.284 37.8718 44.3521 37.8751C44.4203 37.8783 44.4863 37.9 44.5431 37.9378L46.8063 39.4466C46.9119 39.5168 46.9745 39.6344 46.9745 39.7604V43.5325C46.9747 43.582 46.9651 43.6312 46.9462 43.677C46.9273 43.7229 46.8996 43.7646 46.8645 43.7996C46.8294 43.8347 46.7878 43.8625 46.7419 43.8813C46.6961 43.9002 46.6469 43.9099 46.5973 43.9097ZM44.7113 41.8215L46.2201 42.8271V39.9619L44.7113 38.9562V41.8215ZM12.6492 58.5896C12.5491 58.5896 12.4532 58.5499 12.3825 58.4791C12.3117 58.4084 12.272 58.3124 12.272 58.2124V48.0611C12.272 47.9611 12.3117 47.8652 12.3825 47.7944C12.4532 47.7237 12.5491 47.6839 12.6492 47.6839C12.7492 47.6839 12.8452 47.7237 12.9159 47.7944C12.9866 47.8652 13.0264 47.9611 13.0264 48.0611V58.2124C13.0264 58.3124 12.9866 58.4084 12.9159 58.4791C12.8452 58.5499 12.7492 58.5896 12.6492 58.5896ZM20.1932 58.5896C20.0932 58.5896 19.9972 58.5499 19.9265 58.4791C19.8557 58.4084 19.816 58.3124 19.816 58.2124L19.8107 39.0083C19.8107 38.9083 19.8505 38.8123 19.9212 38.7416C19.9919 38.6708 20.0879 38.6311 20.1879 38.6311C20.288 38.6311 20.3839 38.6708 20.4547 38.7416C20.5254 38.8123 20.5651 38.9083 20.5651 39.0083L20.5704 58.2124C20.5704 58.3124 20.5307 58.4084 20.4599 58.4791C20.3892 58.5499 20.2933 58.5896 20.1932 58.5896ZM31.5093 58.5896C31.4092 58.5896 31.3133 58.5499 31.2425 58.4791C31.1718 58.4084 31.1321 58.3124 31.1321 58.2124V48.0611C31.1321 47.9611 31.1718 47.8652 31.2425 47.7944C31.3133 47.7237 31.4092 47.6839 31.5093 47.6839C31.6093 47.6839 31.7052 47.7237 31.776 47.7944C31.8467 47.8652 31.8865 47.9611 31.8865 48.0611V58.2124C31.8865 58.3124 31.8467 58.4084 31.776 58.4791C31.7052 58.5499 31.6093 58.5896 31.5093 58.5896Z" fill="url(#paint8_linear_968_3420)"/>
<path d="M22.4551 41.8018C21.7565 41.801 21.0867 41.5231 20.5927 41.0291C20.0987 40.5351 19.8208 39.8653 19.82 39.1667L19.8102 36.8137C19.8094 36.6047 19.9686 36.4123 20.1874 36.435C20.2872 36.435 20.3829 36.4745 20.4536 36.5449C20.5243 36.6153 20.5642 36.7109 20.5646 36.8106L20.5744 39.1651C20.5744 40.204 21.4178 41.0474 22.4551 41.0474C23.4924 41.0474 24.3358 40.204 24.3358 39.1667L24.3449 36.785C24.3453 36.6852 24.3852 36.5897 24.4559 36.5193C24.5266 36.4488 24.6223 36.4093 24.7221 36.4093C24.9469 36.3761 25.0993 36.579 25.0993 36.788L25.0902 39.1682C25.0891 39.8665 24.811 40.5359 24.317 41.0296C23.8231 41.5233 23.1535 41.801 22.4551 41.8018ZM22.8338 35.6134H22.0794C21.9794 35.6134 21.8834 35.5737 21.8127 35.5029C21.742 35.4322 21.7022 35.3363 21.7022 35.2362C21.7022 35.1362 21.742 35.0402 21.8127 34.9695C21.8834 34.8987 21.9794 34.859 22.0794 34.859H22.8338C22.9339 34.859 23.0298 34.8987 23.1005 34.9695C23.1713 35.0402 23.211 35.1362 23.211 35.2362C23.211 35.3363 23.1713 35.4322 23.1005 35.5029C23.0298 35.5737 22.9339 35.6134 22.8338 35.6134ZM18.6529 58.9999C18.5656 58.9998 18.4811 58.9695 18.4137 58.9141C18.3463 58.8586 18.3002 58.7815 18.2833 58.6959L16.0457 47.3957C16.0359 47.3469 16.0359 47.2965 16.0457 47.2477C16.0556 47.1989 16.0751 47.1525 16.103 47.1113L17.4059 45.1875L15.3765 43.9511C15.2954 43.9016 15.2359 43.8232 15.21 43.7318C15.1842 43.6403 15.1938 43.5424 15.237 43.4577L17.5945 38.837C17.6417 38.751 17.7206 38.6868 17.8144 38.658C17.9082 38.6292 18.0095 38.638 18.0968 38.6827C18.1842 38.7273 18.2507 38.8043 18.2823 38.8972C18.3138 38.9901 18.308 39.0916 18.2659 39.1802L16.0676 43.4894L18.1369 44.7492C18.1805 44.7758 18.2182 44.8109 18.2478 44.8525C18.2774 44.8941 18.2983 44.9412 18.3092 44.9911C18.32 45.0409 18.3207 45.0925 18.311 45.1426C18.3014 45.1927 18.2817 45.2403 18.2531 45.2826L16.8167 47.404L19.0233 58.5503C19.0342 58.605 19.0327 58.6614 19.0191 58.7154C19.0055 58.7695 18.9801 58.8198 18.9446 58.8628C18.9092 58.9059 18.8646 58.9405 18.8142 58.9642C18.7637 58.9879 18.7087 59.0001 18.6529 58.9999Z" fill="url(#paint9_linear_968_3420)"/>
<path d="M24.7219 58.5894C24.6218 58.5894 24.5259 58.5497 24.4551 58.479C24.3844 58.4082 24.3447 58.3123 24.3447 58.2122L24.3499 39.0081C24.3499 38.9081 24.3897 38.8121 24.4604 38.7414C24.5311 38.6707 24.6271 38.6309 24.7271 38.6309C24.8272 38.6309 24.9231 38.6707 24.9939 38.7414C25.0646 38.8121 25.1043 38.9081 25.1043 39.0081L25.0991 58.2122C25.0991 58.3123 25.0593 58.4082 24.9886 58.479C24.9178 58.5497 24.8219 58.5894 24.7219 58.5894ZM26.2623 58.9998C26.2065 59 26.1514 58.9878 26.1009 58.9641C26.0504 58.9403 26.0058 58.9056 25.9703 58.8625C25.9348 58.8194 25.9094 58.7689 25.8959 58.7148C25.8823 58.6607 25.881 58.6042 25.8919 58.5494L28.0986 47.4031L26.6622 45.2817C26.6336 45.2395 26.6139 45.1918 26.6042 45.1417C26.5946 45.0916 26.5952 45.0401 26.6061 44.9902C26.617 44.9403 26.6378 44.8932 26.6674 44.8516C26.697 44.8101 26.7348 44.7749 26.7784 44.7484L28.8477 43.4885L26.6494 39.1794C26.6073 39.0907 26.6014 38.9892 26.633 38.8963C26.6646 38.8034 26.7311 38.7265 26.8184 38.6818C26.9058 38.6372 27.0071 38.6283 27.1009 38.6571C27.1947 38.6859 27.2736 38.7501 27.3208 38.8361L29.6783 43.4568C29.7215 43.5415 29.7311 43.6394 29.7052 43.7309C29.6793 43.8224 29.6199 43.9007 29.5387 43.9502L27.5094 45.1867L28.8122 47.1104C28.8688 47.1934 28.8899 47.296 28.8703 47.3948L26.6328 58.695C26.6157 58.7808 26.5695 58.858 26.502 58.9136C26.4344 58.9691 26.3498 58.9996 26.2623 58.9998ZM28.4916 32.5346C28.3916 32.5346 28.2956 32.4948 28.2249 32.4241C28.1541 32.3534 28.1144 32.2574 28.1144 32.1574V27.6777C28.1144 27.5777 28.1541 27.4818 28.2249 27.411C28.2956 27.3403 28.3916 27.3005 28.4916 27.3005C28.5916 27.3005 28.6876 27.3403 28.7583 27.411C28.8291 27.4818 28.8688 27.5777 28.8688 27.6777V32.1574C28.8688 32.2574 28.8291 32.3534 28.7583 32.4241C28.6876 32.4948 28.5916 32.5346 28.4916 32.5346ZM16.4211 32.5346C16.3211 32.5346 16.2252 32.4948 16.1544 32.4241C16.0837 32.3534 16.0439 32.2574 16.0439 32.1574V27.6777C16.0439 27.5777 16.0837 27.4818 16.1544 27.411C16.2252 27.3403 16.3211 27.3005 16.4211 27.3005C16.5212 27.3005 16.6171 27.3403 16.6879 27.411C16.7586 27.4818 16.7983 27.5777 16.7983 27.6777V32.1574C16.7983 32.2574 16.7586 32.3534 16.6879 32.4241C16.6171 32.4948 16.5212 32.5346 16.4211 32.5346ZM22.4564 31.8413C21.8325 31.8413 21.3248 31.3336 21.3248 30.7097C21.3248 30.6096 21.3645 30.5137 21.4353 30.443C21.506 30.3722 21.6019 30.3325 21.702 30.3325C21.802 30.3325 21.898 30.3722 21.9687 30.443C22.0394 30.5137 22.0792 30.6096 22.0792 30.7097C22.0792 30.8097 22.1189 30.9057 22.1897 30.9764C22.2604 31.0471 22.3563 31.0869 22.4564 31.0869C22.5564 31.0869 22.6524 31.0471 22.7231 30.9764C22.7938 30.9057 22.8336 30.8097 22.8336 30.7097C22.8336 30.6096 22.8733 30.5137 22.9441 30.443C23.0148 30.3722 23.1107 30.3325 23.2108 30.3325C23.3108 30.3325 23.4068 30.3722 23.4775 30.443C23.5482 30.5137 23.588 30.6096 23.588 30.7097C23.588 31.3336 23.0803 31.8413 22.4564 31.8413Z" fill="url(#paint10_linear_968_3420)"/>
<path d="M16.4053 31.0871H15.6668C15.0429 31.0871 14.5352 30.5794 14.5352 29.9555V27.6923C14.5352 27.0684 15.0429 26.5607 15.6668 26.5607H16.1088C16.2089 26.5607 16.3048 26.6004 16.3756 26.6711C16.4463 26.7419 16.486 26.8378 16.486 26.9379C16.486 27.0379 16.4463 27.1339 16.3756 27.2046C16.3048 27.2753 16.2089 27.3151 16.1088 27.3151H15.6668C15.5667 27.3151 15.4708 27.3548 15.4 27.4256C15.3293 27.4963 15.2896 27.5922 15.2896 27.6923V29.9555C15.2896 30.0555 15.3293 30.1515 15.4 30.2222C15.4708 30.2929 15.5667 30.3327 15.6668 30.3327H16.4053C16.5054 30.3327 16.6013 30.3724 16.672 30.4432C16.7428 30.5139 16.7825 30.6098 16.7825 30.7099C16.7825 30.8099 16.7428 30.9059 16.672 30.9766C16.6013 31.0474 16.5054 31.0871 16.4053 31.0871ZM29.2302 31.0871H28.4916C28.3916 31.0871 28.2956 31.0474 28.2249 30.9766C28.1542 30.9059 28.1144 30.8099 28.1144 30.7099C28.1144 30.6098 28.1542 30.5139 28.2249 30.4432C28.2956 30.3724 28.3916 30.3327 28.4916 30.3327H29.2302C29.3302 30.3327 29.4262 30.2929 29.4969 30.2222C29.5676 30.1515 29.6074 30.0555 29.6074 29.9555V27.6923C29.6074 27.5922 29.5676 27.4963 29.4969 27.4256C29.4262 27.3548 29.3302 27.3151 29.2302 27.3151H28.6425C28.5425 27.3151 28.4465 27.2753 28.3758 27.2046C28.305 27.1339 28.2653 27.0379 28.2653 26.9379C28.2653 26.8378 28.305 26.7419 28.3758 26.6711C28.4465 26.6004 28.5425 26.5607 28.6425 26.5607H29.2302C29.8541 26.5607 30.3618 27.0684 30.3618 27.6923V29.9555C30.3618 30.5794 29.8541 31.0871 29.2302 31.0871ZM22.47 37.8903C21.6942 37.8919 20.9336 37.6757 20.2747 37.2664L17.6433 35.6271C17.1528 35.3235 16.7482 34.8993 16.4682 34.3949C16.1883 33.8906 16.0422 33.3229 16.044 32.746V32.1576C16.044 32.0576 16.0837 31.9616 16.1544 31.8909C16.2252 31.8201 16.3211 31.7804 16.4212 31.7804C16.5212 31.7804 16.6171 31.8201 16.6879 31.8909C16.7586 31.9616 16.7984 32.0576 16.7984 32.1576V32.746C16.7984 33.6634 17.2631 34.5008 18.0416 34.9874L20.673 36.6267C21.2132 36.9608 21.8358 37.1377 22.4709 37.1374C23.1061 37.1371 23.7286 36.9597 24.2685 36.6252L26.8885 34.9874C27.2694 34.7511 27.5834 34.4213 27.8008 34.0294C28.0181 33.6375 28.1315 33.1964 28.1303 32.7483V32.1576C28.1303 32.0576 28.17 31.9616 28.2407 31.8909C28.3115 31.8201 28.4074 31.7804 28.5075 31.7804C28.6075 31.7804 28.7035 31.8201 28.7742 31.8909C28.8449 31.9616 28.8847 32.0576 28.8847 32.1576V32.7483C28.8866 33.3244 28.7409 33.8914 28.4615 34.3953C28.182 34.8991 27.7781 35.3229 27.2884 35.6263L24.6683 37.2642C24.0088 37.6749 23.247 37.8919 22.47 37.8903Z" fill="url(#paint11_linear_968_3420)"/>
<path d="M22.4722 34.0994C21.5149 34.0994 20.6254 33.7983 19.9676 33.2514C19.8907 33.1874 19.8423 33.0954 19.8332 32.9957C19.8241 32.8961 19.8549 32.7969 19.9189 32.7199C19.983 32.643 20.0749 32.5946 20.1746 32.5855C20.2743 32.5764 20.3735 32.6072 20.4504 32.6713C21.4802 33.529 23.4643 33.529 24.494 32.6713C24.571 32.6072 24.6702 32.5764 24.7698 32.5855C24.8695 32.5946 24.9615 32.643 25.0255 32.7199C25.0895 32.7969 25.1204 32.8961 25.1112 32.9957C25.1021 33.0954 25.0538 33.1874 24.9768 33.2514C24.319 33.7976 23.4296 34.0994 22.4722 34.0994ZM28.4916 29.9554C28.3916 29.9554 28.2956 29.9157 28.2249 29.8449C28.1541 29.7742 28.1144 29.6783 28.1144 29.5782V27.7601L27.1948 26.8903C27.0092 26.7135 26.8614 26.501 26.7601 26.2655C26.6589 26.0301 26.6063 25.7766 26.6056 25.5203V25.429C26.6056 25.329 26.5659 25.233 26.4951 25.1623C26.4244 25.0915 26.3284 25.0518 26.2284 25.0518H18.6844C18.5843 25.0518 18.4884 25.0915 18.4176 25.1623C18.3469 25.233 18.3072 25.329 18.3072 25.429V25.5437C18.3072 26.0484 18.111 26.5221 17.7542 26.8782L16.7983 27.8325V29.5775C16.7983 29.6775 16.7586 29.7734 16.6879 29.8442C16.6171 29.9149 16.5212 29.9547 16.4211 29.9547C16.3211 29.9547 16.2252 29.9149 16.1544 29.8442C16.0837 29.7734 16.0439 29.6775 16.0439 29.5775V27.6764C16.0439 27.576 16.0839 27.4802 16.1541 27.4093L17.2208 26.3441C17.4351 26.1306 17.5528 25.8462 17.5528 25.5429V25.4282C17.5528 24.8043 18.0605 24.2966 18.6844 24.2966H26.2284C26.8523 24.2966 27.36 24.8043 27.36 25.4282V25.5195C27.36 25.8288 27.489 26.1283 27.7138 26.3418L28.7511 27.3233C28.7883 27.3586 28.8179 27.401 28.8382 27.4481C28.8584 27.4952 28.8688 27.5459 28.8688 27.5971V29.5775C28.8689 29.6271 28.8592 29.6762 28.8403 29.722C28.8214 29.7679 28.7936 29.8096 28.7586 29.8447C28.7236 29.8798 28.6819 29.9076 28.6361 29.9266C28.5903 29.9456 28.5412 29.9554 28.4916 29.9554Z" fill="url(#paint12_linear_968_3420)"/>
<path d="M28.4918 28.0696C28.436 28.0696 28.3808 28.0573 28.3303 28.0335C28.2798 28.0096 28.2352 27.9749 28.1998 27.9317C28.1643 27.8885 28.1389 27.8381 28.1254 27.7839C28.1118 27.7297 28.1105 27.6732 28.1214 27.6184L28.7619 24.4152C28.8479 23.986 28.8894 23.35 28.6005 22.7601C28.3846 22.3148 28.0474 21.9397 27.6276 21.6778C27.2079 21.4159 26.7226 21.278 26.2279 21.2799H20.1926C20.0926 21.2799 19.9966 21.2402 19.9259 21.1694C19.8552 21.0987 19.8154 21.0028 19.8154 20.9027C19.8154 20.8027 19.8552 20.7067 19.9259 20.636C19.9966 20.5653 20.0926 20.5255 20.1926 20.5255H26.2279C27.5337 20.5255 28.7023 21.255 29.2779 22.4281C29.5804 23.0452 29.6574 23.7838 29.5012 24.5631L28.8607 27.7655C28.8442 27.8512 28.7984 27.9285 28.731 27.984C28.6637 28.0395 28.5791 28.0697 28.4918 28.0696Z" fill="url(#paint13_linear_968_3420)"/>
<path d="M16.3963 28.0693C16.3092 28.0693 16.2247 28.039 16.1573 27.9837C16.0899 27.9284 16.0438 27.8515 16.0267 27.766L15.3854 24.5628C15.2293 23.7835 15.307 23.045 15.6087 22.4286C15.8863 21.8564 16.3199 21.3742 16.8595 21.0376C17.3991 20.701 18.0228 20.5237 18.6588 20.526H24.694C24.7941 20.526 24.89 20.5658 24.9608 20.6365C25.0315 20.7072 25.0712 20.8032 25.0712 20.9032C25.0712 21.0033 25.0315 21.0992 24.9608 21.1699C24.89 21.2407 24.7941 21.2804 24.694 21.2804H18.6588C18.1639 21.2785 17.6786 21.4165 17.2587 21.6783C16.8388 21.9402 16.5015 22.3154 16.2854 22.7606C15.9965 23.3505 16.038 23.9865 16.124 24.4157L16.7652 27.6189C16.776 27.6735 16.7746 27.7298 16.7611 27.7838C16.7476 27.8378 16.7223 27.8881 16.687 27.9311C16.6518 27.9742 16.6074 28.0089 16.5572 28.0328C16.5069 28.0567 16.452 28.0691 16.3963 28.0693ZM35.2813 58.9999H8.8772C8.77716 58.9999 8.68122 58.9601 8.61048 58.8894C8.53974 58.8186 8.5 58.7227 8.5 58.6227V46.5522C8.5 42.1842 12.0532 38.631 16.4212 38.631H20.1774C20.2775 38.631 20.3734 38.6707 20.4441 38.7414C20.5149 38.8122 20.5546 38.9081 20.5546 39.0082C20.5546 39.1082 20.5149 39.2041 20.4441 39.2749C20.3734 39.3456 20.2775 39.3854 20.1774 39.3854H16.4212C12.4697 39.3854 9.2544 42.6006 9.2544 46.5522V58.2455H34.9041V46.5522C34.9041 42.6006 31.6889 39.3854 27.7373 39.3854H24.7272C24.6272 39.3854 24.5312 39.3456 24.4605 39.2749C24.3898 39.2041 24.35 39.1082 24.35 39.0082C24.35 38.9081 24.3898 38.8122 24.4605 38.7414C24.5312 38.6707 24.6272 38.631 24.7272 38.631H27.7373C32.1053 38.631 35.6585 42.1842 35.6585 46.5522V58.6227C35.6585 58.7227 35.6188 58.8186 35.5481 58.8894C35.4773 58.9601 35.3814 58.9999 35.2813 58.9999Z" fill="url(#paint14_linear_968_3420)"/>
<path d="M56.4049 58.9979H35.2815C35.1815 58.9979 35.0856 58.9582 35.0148 58.8874C34.9441 58.8167 34.9043 58.7208 34.9043 58.6207V46.5533C34.9043 44.3112 33.8776 42.2381 32.0866 40.8658C32.0346 40.8263 31.9937 40.774 31.9681 40.7139C31.9425 40.6538 31.933 40.588 31.9405 40.5231C31.948 40.4582 31.9724 40.3964 32.0111 40.3438C32.0498 40.2912 32.1016 40.2496 32.1613 40.2231C33.3783 39.6696 34.6998 39.3835 36.0367 39.3842H37.4671C37.5671 39.3842 37.663 39.4239 37.7338 39.4947C37.8045 39.5654 37.8443 39.6613 37.8443 39.7614C37.8443 39.8614 37.8045 39.9574 37.7338 40.0281C37.663 40.0988 37.5671 40.1386 37.4671 40.1386H36.036C35.0077 40.1386 34.0021 40.3196 33.0387 40.678C33.8656 41.4167 34.5266 42.3222 34.9782 43.3349C35.4298 44.3476 35.6618 45.4445 35.6588 46.5533V58.2435H56.0277V48.8135C56.0277 44.0298 52.1357 40.1378 47.352 40.1378H46.5991C46.4991 40.1378 46.4031 40.0981 46.3324 40.0273C46.2617 39.9566 46.2219 39.8607 46.2219 39.7606C46.2219 39.6606 46.2617 39.5646 46.3324 39.4939C46.4031 39.4232 46.4991 39.3834 46.5991 39.3834H47.352C52.5521 39.3834 56.7821 43.6134 56.7821 48.8135V58.6207C56.7821 58.6703 56.7723 58.7193 56.7533 58.7651C56.7344 58.8108 56.7066 58.8524 56.6716 58.8874C56.6366 58.9225 56.595 58.9503 56.5492 58.9692C56.5034 58.9882 56.4544 58.9979 56.4049 58.9979Z" fill="url(#paint15_linear_968_3420)"/>
<path d="M19.8311 29.569C20.2477 29.569 20.5855 29.2312 20.5855 28.8146C20.5855 28.3979 20.2477 28.0602 19.8311 28.0602C19.4144 28.0602 19.0767 28.3979 19.0767 28.8146C19.0767 29.2312 19.4144 29.569 19.8311 29.569Z" fill="url(#paint16_linear_968_3420)"/>
<path d="M21.3286 28.0641C21.2699 28.0643 21.2119 28.0506 21.1594 28.0243C21.1068 27.998 21.0612 27.9597 21.0261 27.9125C20.8891 27.7274 20.7112 27.5765 20.5063 27.4714C20.3014 27.3664 20.075 27.31 19.8447 27.3067C19.6146 27.31 19.3883 27.3663 19.1834 27.4713C18.9785 27.5762 18.8005 27.7269 18.6633 27.9117C18.6338 27.9514 18.5967 27.9849 18.5542 28.0102C18.5117 28.0356 18.4646 28.0523 18.4156 28.0594C18.3666 28.0666 18.3168 28.064 18.2688 28.0519C18.2208 28.0397 18.1757 28.0183 18.136 27.9887C18.0963 27.9591 18.0629 27.922 18.0375 27.8795C18.0122 27.837 17.9955 27.7899 17.9883 27.741C17.9812 27.692 17.9837 27.6421 17.9959 27.5941C18.008 27.5462 18.0295 27.501 18.0591 27.4614C18.2593 27.191 18.5178 26.9692 18.8154 26.8123C19.113 26.6555 19.4421 26.5676 19.7783 26.5553C19.7987 26.5516 19.8213 26.5523 19.844 26.5523C20.1914 26.5572 20.5331 26.6417 20.8428 26.7993C21.1525 26.9569 21.4219 27.1834 21.6304 27.4614C21.6725 27.5173 21.6982 27.5839 21.7045 27.6537C21.7108 27.7234 21.6976 27.7936 21.6662 27.8562C21.6349 27.9188 21.5867 27.9715 21.527 28.0082C21.4674 28.0449 21.3987 28.0643 21.3286 28.0641Z" fill="url(#paint17_linear_968_3420)"/>
<path d="M25.1123 29.569C25.529 29.569 25.8667 29.2312 25.8667 28.8146C25.8667 28.3979 25.529 28.0602 25.1123 28.0602C24.6957 28.0602 24.3579 28.3979 24.3579 28.8146C24.3579 29.2312 24.6957 29.569 25.1123 29.569Z" fill="url(#paint18_linear_968_3420)"/>
<path d="M26.6096 28.0641C26.5508 28.0643 26.4928 28.0506 26.4403 28.0243C26.3878 27.998 26.3421 27.9597 26.3071 27.9125C26.17 27.7274 25.9921 27.5765 25.7872 27.4714C25.5823 27.3664 25.3559 27.31 25.1257 27.3067C24.8955 27.31 24.6692 27.3663 24.4643 27.4713C24.2594 27.5762 24.0815 27.7269 23.9443 27.9117C23.9157 27.9539 23.8788 27.9899 23.836 28.0174C23.7931 28.0449 23.7451 28.0635 23.6949 28.072C23.6446 28.0805 23.5932 28.0787 23.5437 28.0667C23.4941 28.0548 23.4475 28.0329 23.4067 28.0025C23.3658 27.972 23.3316 27.9336 23.306 27.8896C23.2804 27.8455 23.2639 27.7967 23.2577 27.7462C23.2515 27.6956 23.2556 27.6443 23.2697 27.5953C23.2838 27.5464 23.3078 27.5008 23.34 27.4614C23.5402 27.191 23.7987 26.9692 24.0963 26.8123C24.394 26.6555 24.7231 26.5676 25.0593 26.5553C25.0804 26.5516 25.103 26.5523 25.1249 26.5523C25.4724 26.5572 25.8141 26.6417 26.1237 26.7993C26.4334 26.9569 26.7029 27.1834 26.9113 27.4614C26.9535 27.5173 26.9791 27.5839 26.9854 27.6537C26.9918 27.7234 26.9785 27.7936 26.9472 27.8562C26.9158 27.9188 26.8676 27.9715 26.808 28.0082C26.7483 28.0449 26.6796 28.0643 26.6096 28.0641Z" fill="url(#paint19_linear_968_3420)"/>
<path d="M40.979 8H35.979C35.8464 8 35.7192 8.05268 35.6255 8.14645C35.5317 8.24021 35.479 8.36739 35.479 8.5C35.479 8.63261 35.5317 8.75979 35.6255 8.85355C35.7192 8.94732 35.8464 9 35.979 9H40.979C41.1116 9 41.2388 8.94732 41.3326 8.85355C41.4263 8.75979 41.479 8.63261 41.479 8.5C41.479 8.36739 41.4263 8.24021 41.3326 8.14645C41.2388 8.05268 41.1116 8 40.979 8ZM38.979 10H35.979C35.8464 10 35.7192 10.0527 35.6255 10.1464C35.5317 10.2402 35.479 10.3674 35.479 10.5C35.479 10.6326 35.5317 10.7598 35.6255 10.8536C35.7192 10.9473 35.8464 11 35.979 11H38.979C39.1116 11 39.2388 10.9473 39.3326 10.8536C39.4263 10.7598 39.479 10.6326 39.479 10.5C39.479 10.3674 39.4263 10.2402 39.3326 10.1464C39.2388 10.0527 39.1116 10 38.979 10Z" fill="#0071BC"/>
<path d="M42 6H35C34.173 6 33.5 6.673 33.5 7.5V11.5C33.5 12.327 34.173 13 35 13H40.793L42.647 14.854C42.717 14.9238 42.8061 14.9712 42.903 14.9904C42.9999 15.0096 43.1004 14.9996 43.1917 14.9617C43.2829 14.9238 43.3609 14.8598 43.4158 14.7776C43.4707 14.6954 43.5 14.5988 43.5 14.5V7.5C43.5 6.673 42.827 6 42 6ZM42.5 13.293L41.354 12.147C41.3075 12.1006 41.2523 12.0638 41.1915 12.0388C41.1308 12.0137 41.0657 12.0009 41 12.001H35C34.8674 12.001 34.7402 11.9483 34.6464 11.8546C34.5527 11.7608 34.5 11.6336 34.5 11.501V7.501C34.5 7.36839 34.5527 7.24121 34.6464 7.14745C34.7402 7.05368 34.8674 7.001 35 7.001H42C42.1326 7.001 42.2598 7.05368 42.3535 7.14745C42.4473 7.24121 42.5 7.36839 42.5 7.501V13.293ZM27.021 9H22.021C21.8884 9 21.7612 9.05268 21.6674 9.14645C21.5737 9.24021 21.521 9.36739 21.521 9.5C21.521 9.63261 21.5737 9.75979 21.6674 9.85355C21.7612 9.94732 21.8884 10 22.021 10H27.021C27.1536 10 27.2808 9.94732 27.3745 9.85355C27.4683 9.75979 27.521 9.63261 27.521 9.5C27.521 9.36739 27.4683 9.24021 27.3745 9.14645C27.2808 9.05268 27.1536 9 27.021 9ZM27.021 11H24.021C23.8884 11 23.7612 11.0527 23.6674 11.1464C23.5737 11.2402 23.521 11.3674 23.521 11.5C23.521 11.6326 23.5737 11.7598 23.6674 11.8536C23.7612 11.9473 23.8884 12 24.021 12H27.021C27.1536 12 27.2808 11.9473 27.3745 11.8536C27.4683 11.7598 27.521 11.6326 27.521 11.5C27.521 11.3674 27.4683 11.2402 27.3745 11.1464C27.2808 11.0527 27.1536 11 27.021 11Z" fill="#0071BC"/>
<path d="M28 7H21C20.173 7 19.5 7.673 19.5 8.5V15.5C19.4998 15.599 19.5291 15.6959 19.584 15.7783C19.6389 15.8606 19.7171 15.9249 19.8085 15.9628C19.9 16.0007 20.0007 16.0106 20.0978 15.9912C20.1949 15.9719 20.2841 15.9241 20.354 15.854L22.208 14H28C28.827 14 29.5 13.327 29.5 12.5V8.5C29.5 7.673 28.827 7 28 7ZM28.5 12.5C28.5 12.6326 28.4473 12.7598 28.3536 12.8536C28.2598 12.9473 28.1326 13 28 13H22C21.8674 13.0002 21.7402 13.0527 21.646 13.146L20.5 14.293V8.5C20.5 8.36739 20.5527 8.24021 20.6464 8.14645C20.7402 8.05268 20.8674 8 21 8H28C28.1326 8 28.2598 8.05268 28.3536 8.14645C28.4473 8.24021 28.5 8.36739 28.5 8.5V12.5Z" fill="#0071BC"/>
<defs>
<linearGradient id="paint0_linear_968_3420" x1="39.4442" y1="39.1451" x2="58.3785" y2="46.7266" gradientUnits="userSpaceOnUse">
<stop stop-color="#07FFE1"/>
<stop offset="1" stop-color="#9DFF00"/>
</linearGradient>
<linearGradient id="paint1_linear_968_3420" x1="35.6669" y1="23.6032" x2="57.8114" y2="28.7803" gradientUnits="userSpaceOnUse">
<stop stop-color="#07FFE1"/>
<stop offset="1" stop-color="#9DFF00"/>
</linearGradient>
<linearGradient id="paint2_linear_968_3420" x1="40.9409" y1="29.4314" x2="43.2564" y2="31.4763" gradientUnits="userSpaceOnUse">
<stop stop-color="#07FFE1"/>
<stop offset="1" stop-color="#9DFF00"/>
</linearGradient>
<linearGradient id="paint3_linear_968_3420" x1="39.0532" y1="26.6435" x2="39.9501" y2="27.2975" gradientUnits="userSpaceOnUse">
<stop stop-color="#07FFE1"/>
<stop offset="1" stop-color="#9DFF00"/>
</linearGradient>
<linearGradient id="paint4_linear_968_3420" x1="44.334" y1="26.6435" x2="45.2309" y2="27.2975" gradientUnits="userSpaceOnUse">
<stop stop-color="#07FFE1"/>
<stop offset="1" stop-color="#9DFF00"/>
</linearGradient>
<linearGradient id="paint5_linear_968_3420" x1="34.16" y1="26.0914" x2="45.1394" y2="40.0876" gradientUnits="userSpaceOnUse">
<stop stop-color="#07FFE1"/>
<stop offset="1" stop-color="#9DFF00"/>
</linearGradient>
<linearGradient id="paint6_linear_968_3420" x1="35.6669" y1="27.254" x2="42.5499" y2="37.9018" gradientUnits="userSpaceOnUse">
<stop stop-color="#07FFE1"/>
<stop offset="1" stop-color="#9DFF00"/>
</linearGradient>
<linearGradient id="paint7_linear_968_3420" x1="35.2899" y1="26.4386" x2="50.0717" y2="38.5643" gradientUnits="userSpaceOnUse">
<stop stop-color="#07FFE1"/>
<stop offset="1" stop-color="#9DFF00"/>
</linearGradient>
<linearGradient id="paint8_linear_968_3420" x1="12.2941" y1="28.9093" x2="52.567" y2="59.2929" gradientUnits="userSpaceOnUse">
<stop stop-color="#07FFE1"/>
<stop offset="1" stop-color="#9DFF00"/>
</linearGradient>
<linearGradient id="paint9_linear_968_3420" x1="15.2021" y1="37.6371" x2="31.7558" y2="42.5889" gradientUnits="userSpaceOnUse">
<stop stop-color="#07FFE1"/>
<stop offset="1" stop-color="#9DFF00"/>
</linearGradient>
<linearGradient id="paint10_linear_968_3420" x1="16.0527" y1="30.9485" x2="38.7141" y2="38.0772" gradientUnits="userSpaceOnUse">
<stop stop-color="#07FFE1"/>
<stop offset="1" stop-color="#9DFF00"/>
</linearGradient>
<linearGradient id="paint11_linear_968_3420" x1="14.5452" y1="27.8645" x2="28.6905" y2="42.2727" gradientUnits="userSpaceOnUse">
<stop stop-color="#07FFE1"/>
<stop offset="1" stop-color="#9DFF00"/>
</linearGradient>
<linearGradient id="paint12_linear_968_3420" x1="16.0521" y1="25.4247" x2="28.2795" y2="37.0892" gradientUnits="userSpaceOnUse">
<stop stop-color="#07FFE1"/>
<stop offset="1" stop-color="#9DFF00"/>
</linearGradient>
<linearGradient id="paint13_linear_968_3420" x1="19.8216" y1="21.3937" x2="29.2264" y2="30.2697" gradientUnits="userSpaceOnUse">
<stop stop-color="#07FFE1"/>
<stop offset="1" stop-color="#9DFF00"/>
</linearGradient>
<linearGradient id="paint14_linear_968_3420" x1="8.51729" y1="24.9535" x2="47.6161" y2="45.0783" gradientUnits="userSpaceOnUse">
<stop stop-color="#07FFE1"/>
<stop offset="1" stop-color="#9DFF00"/>
</linearGradient>
<linearGradient id="paint15_linear_968_3420" x1="31.9538" y1="41.6406" x2="56.3698" y2="64.1906" gradientUnits="userSpaceOnUse">
<stop stop-color="#07FFE1"/>
<stop offset="1" stop-color="#9DFF00"/>
</linearGradient>
<linearGradient id="paint16_linear_968_3420" x1="19.0776" y1="28.2338" x2="20.8715" y2="29.5418" gradientUnits="userSpaceOnUse">
<stop stop-color="#07FFE1"/>
<stop offset="1" stop-color="#9DFF00"/>
</linearGradient>
<linearGradient id="paint17_linear_968_3420" x1="17.9867" y1="26.7262" x2="19.5921" y2="29.6077" gradientUnits="userSpaceOnUse">
<stop stop-color="#07FFE1"/>
<stop offset="1" stop-color="#9DFF00"/>
</linearGradient>
<linearGradient id="paint18_linear_968_3420" x1="24.3589" y1="28.2338" x2="26.1527" y2="29.5418" gradientUnits="userSpaceOnUse">
<stop stop-color="#07FFE1"/>
<stop offset="1" stop-color="#9DFF00"/>
</linearGradient>
<linearGradient id="paint19_linear_968_3420" x1="23.2573" y1="26.7277" x2="24.8815" y2="29.6262" gradientUnits="userSpaceOnUse">
<stop stop-color="#07FFE1"/>
<stop offset="1" stop-color="#9DFF00"/>
</linearGradient>
</defs>
</svg>
