<svg width="24" height="24" viewBox="0 0 24 24" fill="none" xmlns="http://www.w3.org/2000/svg">
<path d="M7.5 3C6.88324 3 6.375 3.50827 6.375 4.125V4.5H3.89941C3.18067 4.5 2.625 5.1303 2.625 5.85937V19.6406C2.625 20.3697 3.18067 21 3.89941 21H20.1006C20.8193 21 21.375 20.3697 21.375 19.6406V5.85937C21.375 5.1303 20.8193 4.5 20.1006 4.5H17.625V4.125C17.625 3.50827 17.1168 3 16.5 3C15.8832 3 15.375 3.50827 15.375 4.125V4.5H8.625V4.125C8.625 3.50827 8.11676 3 7.5 3ZM7.5 3.75C7.71424 3.75 7.875 3.9108 7.875 4.125V6.375C7.875 6.58928 7.71424 6.75 7.5 6.75C7.28576 6.75 7.125 6.58928 7.125 6.375V4.125C7.125 3.9108 7.28576 3.75 7.5 3.75ZM16.5 3.75C16.7142 3.75 16.875 3.9108 16.875 4.125V6.375C16.875 6.58928 16.7142 6.75 16.5 6.75C16.2858 6.75 16.125 6.58928 16.125 6.375V4.125C16.125 3.9108 16.2858 3.75 16.5 3.75ZM3.89941 5.25H6.375V6.375C6.375 6.9918 6.88324 7.5 7.5 7.5C8.11676 7.5 8.625 6.9918 8.625 6.375V5.25H15.375V6.375C15.375 6.9918 15.8832 7.5 16.5 7.5C17.1168 7.5 17.625 6.9918 17.625 6.375V5.25H20.1006C20.3791 5.25 20.625 5.4978 20.625 5.85937V19.6406C20.625 20.0022 20.3791 20.25 20.1006 20.25H3.89941C3.62094 20.25 3.375 20.0022 3.375 19.6406V5.85937C3.375 5.4978 3.62094 5.25 3.89941 5.25ZM12.75 9C12.6505 9.00001 12.5552 9.03952 12.4848 9.10985C12.4145 9.18017 12.375 9.27555 12.375 9.375V11.625C12.375 11.7245 12.4145 11.8198 12.4848 11.8902C12.5552 11.9605 12.6505 12 12.75 12H15C15.0995 12 15.1948 11.9605 15.2652 11.8902C15.3355 11.8198 15.375 11.7245 15.375 11.625V9.375C15.375 9.27555 15.3355 9.18017 15.2652 9.10985C15.1948 9.03952 15.0995 9.00001 15 9H12.75ZM16.5 9C16.4005 9.00001 16.3052 9.03952 16.2348 9.10985C16.1645 9.18017 16.125 9.27555 16.125 9.375V11.625C16.125 11.7245 16.1645 11.8198 16.2348 11.8902C16.3052 11.9605 16.4005 12 16.5 12H18.75C18.8495 12 18.9448 11.9605 19.0152 11.8902C19.0855 11.8198 19.125 11.7245 19.125 11.625V9.375C19.125 9.27555 19.0855 9.18017 19.0152 9.10985C18.9448 9.03952 18.8495 9.00001 18.75 9H16.5ZM13.125 9.75H14.625V11.25H13.125V9.75ZM16.875 9.75H18.375V11.25H16.875V9.75ZM5.25 12.75C5.15055 12.75 5.05517 12.7895 4.98485 12.8598C4.91452 12.9302 4.87501 13.0255 4.875 13.125V15.375C4.87501 15.4745 4.91452 15.5698 4.98485 15.6402C5.05517 15.7105 5.15055 15.75 5.25 15.75H7.5C7.59945 15.75 7.69483 15.7105 7.76515 15.6402C7.83548 15.5698 7.87499 15.4745 7.875 15.375V13.125C7.87499 13.0255 7.83548 12.9302 7.76515 12.8598C7.69483 12.7895 7.59945 12.75 7.5 12.75H5.25ZM9 12.75C8.90055 12.75 8.80517 12.7895 8.73485 12.8598C8.66452 12.9302 8.62501 13.0255 8.625 13.125V15.375C8.62501 15.4745 8.66452 15.5698 8.73485 15.6402C8.80517 15.7105 8.90055 15.75 9 15.75H11.25C11.3495 15.75 11.4448 15.7105 11.5152 15.6402C11.5855 15.5698 11.625 15.4745 11.625 15.375V13.125C11.625 13.0255 11.5855 12.9302 11.5152 12.8598C11.4448 12.7895 11.3495 12.75 11.25 12.75H9ZM12.75 12.75C12.6505 12.75 12.5552 12.7895 12.4848 12.8598C12.4145 12.9302 12.375 13.0255 12.375 13.125V15.375C12.375 15.4745 12.4145 15.5698 12.4848 15.6402C12.5552 15.7105 12.6505 15.75 12.75 15.75H15C15.0995 15.75 15.1948 15.7105 15.2652 15.6402C15.3355 15.5698 15.375 15.4745 15.375 15.375V13.125C15.375 13.0255 15.3355 12.9302 15.2652 12.8598C15.1948 12.7895 15.0995 12.75 15 12.75H12.75ZM16.5 12.75C16.4005 12.75 16.3052 12.7895 16.2348 12.8598C16.1645 12.9302 16.125 13.0255 16.125 13.125V15.375C16.125 15.4745 16.1645 15.5698 16.2348 15.6402C16.3052 15.7105 16.4005 15.75 16.5 15.75H18.75C18.8495 15.75 18.9448 15.7105 19.0152 15.6402C19.0855 15.5698 19.125 15.4745 19.125 15.375V13.125C19.125 13.0255 19.0855 12.9302 19.0152 12.8598C18.9448 12.7895 18.8495 12.75 18.75 12.75H16.5ZM5.625 13.5H7.125V15H5.625V13.5ZM9.375 13.5H10.875V15H9.375V13.5ZM13.125 13.5H14.625V15H13.125V13.5ZM16.875 13.5H18.375V15H16.875V13.5ZM5.25 16.5C5.15055 16.5 5.05517 16.5395 4.98485 16.6098C4.91452 16.6802 4.87501 16.7755 4.875 16.875V19.125C4.87501 19.2245 4.91452 19.3198 4.98485 19.3902C5.05517 19.4605 5.15055 19.5 5.25 19.5H7.5C7.59945 19.5 7.69483 19.4605 7.76515 19.3902C7.83548 19.3198 7.87499 19.2245 7.875 19.125V16.875C7.87499 16.7755 7.83548 16.6802 7.76515 16.6098C7.69483 16.5395 7.59945 16.5 7.5 16.5H5.25ZM9 16.5C8.90055 16.5 8.80517 16.5395 8.73485 16.6098C8.66452 16.6802 8.62501 16.7755 8.625 16.875V19.125C8.62501 19.2245 8.66452 19.3198 8.73485 19.3902C8.80517 19.4605 8.90055 19.5 9 19.5H11.25C11.3495 19.5 11.4448 19.4605 11.5152 19.3902C11.5855 19.3198 11.625 19.2245 11.625 19.125V16.875C11.625 16.7755 11.5855 16.6802 11.5152 16.6098C11.4448 16.5395 11.3495 16.5 11.25 16.5H9ZM12.75 16.5C12.6505 16.5 12.5552 16.5395 12.4848 16.6098C12.4145 16.6802 12.375 16.7755 12.375 16.875V19.125C12.375 19.2245 12.4145 19.3198 12.4848 19.3902C12.5552 19.4605 12.6505 19.5 12.75 19.5H15C15.0995 19.5 15.1948 19.4605 15.2652 19.3902C15.3355 19.3198 15.375 19.2245 15.375 19.125V16.875C15.375 16.7755 15.3355 16.6802 15.2652 16.6098C15.1948 16.5395 15.0995 16.5 15 16.5H12.75ZM5.625 17.25H7.125V18.75H5.625V17.25ZM9.375 17.25H10.875V18.75H9.375V17.25ZM13.125 17.25H14.625V18.75H13.125V17.25Z" fill="url(#paint0_linear_1199_3790)"/>
<defs>
<linearGradient id="paint0_linear_1199_3790" x1="2.63694" y1="5.07143" x2="24.2899" y2="21.5179" gradientUnits="userSpaceOnUse">
<stop stop-color="#07FFE1"/>
<stop offset="1" stop-color="#9DFF00"/>
</linearGradient>
</defs>
</svg>
