<svg width="24" height="24" viewBox="0 0 24 24" fill="none" xmlns="http://www.w3.org/2000/svg">
<path d="M12 0.750183C7.03779 0.750183 3 4.70662 3 9.58465C3 12.1512 5.2208 15.4547 7.39307 18.214C9.56534 20.9734 11.7349 23.1403 11.7349 23.1403C11.8052 23.2106 11.9006 23.2501 12 23.2501C12.0994 23.2501 12.1948 23.2106 12.2651 23.1403C12.2651 23.1403 14.4347 20.9734 16.6069 18.214C18.7792 15.4547 21 12.1512 21 9.58465C21 4.70662 16.9622 0.750176 12 0.750183ZM12 1.50018C16.5647 1.50018 20.25 5.11994 20.25 9.58465C20.25 11.6896 18.1583 15.0311 16.0181 17.7497C14.0102 20.3002 12.2409 22.0668 12 22.3097C11.7591 22.0668 9.98982 20.3002 7.98193 17.7497C5.8417 15.0311 3.75 11.6896 3.75 9.58465C3.75 5.11994 7.43529 1.50018 12 1.50018Z" fill="url(#paint0_linear_1199_3803)"/>
<path d="M12 4.50018C9.10495 4.50018 6.75 6.85512 6.75 9.75018C6.74999 12.6452 9.10494 15.0002 12 15.0002C14.8951 15.0002 17.25 12.6452 17.25 9.75018C17.25 6.85512 14.8951 4.50018 12 4.50018ZM12 5.25018C14.4897 5.25018 16.5 7.26045 16.5 9.75018C16.5 12.2399 14.4897 14.2502 12 14.2502C9.51027 14.2502 7.49999 12.2399 7.5 9.75018C7.5 7.26045 9.51028 5.25018 12 5.25018Z" fill="url(#paint1_linear_1199_3803)"/>
<path fill-rule="evenodd" clip-rule="evenodd" d="M13.7285 8.00555L11.335 10.4299L10.2729 9.35174L9.73828 9.87909L11.335 11.4963L14.2617 8.5329L13.7285 8.00555Z" fill="#0071BC"/>
<defs>
<linearGradient id="paint0_linear_1199_3803" x1="3.01146" y1="3.33946" x2="27.4684" y2="17.606" gradientUnits="userSpaceOnUse">
<stop stop-color="#07FFE1"/>
<stop offset="1" stop-color="#9DFF00"/>
</linearGradient>
<linearGradient id="paint1_linear_1199_3803" x1="6.75668" y1="5.70852" x2="19.2404" y2="14.8112" gradientUnits="userSpaceOnUse">
<stop stop-color="#07FFE1"/>
<stop offset="1" stop-color="#9DFF00"/>
</linearGradient>
</defs>
</svg>
