<svg width="24" height="24" viewBox="0 0 24 24" fill="none" xmlns="http://www.w3.org/2000/svg">
<path d="M10.3125 18.75H6.9375C6.88777 18.75 6.84008 18.7698 6.80492 18.8049C6.76975 18.8401 6.75 18.8878 6.75 18.9375V23.4375C6.75 23.4872 6.76975 23.5349 6.80492 23.5701C6.84008 23.6053 6.88777 23.625 6.9375 23.625H10.3125C10.3622 23.625 10.4099 23.6053 10.4451 23.5701C10.4802 23.5349 10.5 23.4872 10.5 23.4375V18.9375C10.5 18.8878 10.4802 18.8401 10.4451 18.8049C10.4099 18.7698 10.3622 18.75 10.3125 18.75ZM7.125 19.125H8.44537V23.25H7.125V19.125ZM10.125 23.25H8.82037V19.125H10.125V23.25ZM10.5938 1.29826L8.90625 0.323635C8.87778 0.307068 8.84544 0.29834 8.8125 0.29834C8.77956 0.29834 8.74722 0.307068 8.71875 0.323635L7.03125 1.29826C7.00275 1.31472 6.97908 1.33839 6.96262 1.36689C6.94616 1.39539 6.9375 1.42772 6.9375 1.46064V3.40913C6.9375 3.44205 6.94616 3.47438 6.96262 3.50288C6.97908 3.53139 7.00275 3.55505 7.03125 3.57151L7.50787 3.84639V5.43751C7.50787 5.48724 7.52763 5.53493 7.56279 5.57009C7.59796 5.60526 7.64565 5.62501 7.69537 5.62501H9.94537C9.9951 5.62501 10.0428 5.60526 10.078 5.57009C10.1131 5.53493 10.1329 5.48724 10.1329 5.43751V3.83738L10.5938 3.57114C10.6223 3.55468 10.6459 3.53101 10.6624 3.50251C10.6788 3.474 10.6875 3.44167 10.6875 3.40876V1.46064C10.6875 1.42772 10.6788 1.39539 10.6624 1.36689C10.6459 1.33839 10.6223 1.31472 10.5938 1.29826ZM9.75787 5.25001H7.88287V4.06276L8.71875 4.54538C8.724 4.54839 8.73075 4.54764 8.73638 4.55026C8.7435 4.55326 8.75138 4.55401 8.75888 4.55626C8.77688 4.56188 8.79412 4.57089 8.81287 4.57089C8.83162 4.57089 8.84888 4.56188 8.86688 4.55626C8.87438 4.55401 8.88225 4.55326 8.88937 4.55026C8.895 4.54764 8.90138 4.54876 8.907 4.54538L9.75863 4.05376V5.25001H9.75787ZM10.3125 3.30076L9 4.05863V3.86101C9 3.81128 8.98025 3.76359 8.94508 3.72843C8.90992 3.69326 8.86223 3.67351 8.8125 3.67351C8.76277 3.67351 8.71508 3.69326 8.67992 3.72843C8.64475 3.76359 8.625 3.81128 8.625 3.86101V4.05863L7.3125 3.30076V1.79401L7.59562 1.95751C7.63867 1.98198 7.68964 1.98844 7.73742 1.97546C7.78521 1.96249 7.82592 1.93114 7.85068 1.88827C7.87543 1.84539 7.88223 1.79446 7.86957 1.74659C7.85691 1.69872 7.82584 1.6578 7.78312 1.63276L7.49213 1.46476L8.8125 0.702385L10.1276 1.46214L9.83137 1.63314C9.80988 1.64536 9.79101 1.66171 9.77586 1.68125C9.76071 1.7008 9.74958 1.72314 9.7431 1.74701C9.73662 1.77087 9.73492 1.79578 9.73811 1.8203C9.7413 1.84482 9.74931 1.86847 9.76167 1.88988C9.77403 1.9113 9.79051 1.93006 9.81015 1.94508C9.8298 1.9601 9.85222 1.97108 9.87612 1.9774C9.90003 1.98372 9.92495 1.98525 9.94945 1.9819C9.97395 1.97855 9.99754 1.97039 10.0189 1.95789L10.3125 1.78801V3.30076Z" fill="#0071BC"/>
<path d="M13.6875 23.625H3.5625C3.51277 23.625 3.46508 23.6052 3.42992 23.5701C3.39475 23.5349 3.375 23.4872 3.375 23.4375V6.5625C3.375 6.51277 3.39475 6.46508 3.42992 6.42992C3.46508 6.39475 3.51277 6.375 3.5625 6.375H13.6875C13.7372 6.375 13.7849 6.39475 13.8201 6.42992C13.8552 6.46508 13.875 6.51277 13.875 6.5625V23.4375C13.875 23.4872 13.8552 23.5349 13.8201 23.5701C13.7849 23.6052 13.7372 23.625 13.6875 23.625ZM3.75 23.25H13.5V6.75H3.75V23.25Z" fill="url(#paint0_linear_1199_3796)"/>
<path d="M20.4375 23.625H13.6875C13.6378 23.625 13.5901 23.6052 13.5549 23.5701C13.5198 23.5349 13.5 23.4872 13.5 23.4375V11.0625C13.5 11.0128 13.5198 10.9651 13.5549 10.9299C13.5901 10.8948 13.6378 10.875 13.6875 10.875H20.4375C20.4872 10.875 20.5349 10.8948 20.5701 10.9299C20.6052 10.9651 20.625 11.0128 20.625 11.0625V23.4375C20.625 23.4872 20.6052 23.5349 20.5701 23.5701C20.5349 23.6052 20.4872 23.625 20.4375 23.625ZM13.875 23.25H20.25V11.25H13.875V23.25ZM12.5625 6.75H4.6875C4.63777 6.75 4.59008 6.73025 4.55492 6.69508C4.51975 6.65992 4.5 6.61223 4.5 6.5625V5.4375C4.5 5.38777 4.51975 5.34008 4.55492 5.30492C4.59008 5.26975 4.63777 5.25 4.6875 5.25H12.5625C12.6122 5.25 12.6599 5.26975 12.6951 5.30492C12.7302 5.34008 12.75 5.38777 12.75 5.4375V6.5625C12.75 6.61223 12.7302 6.65992 12.6951 6.69508C12.6599 6.73025 12.6122 6.75 12.5625 6.75ZM4.875 6.375H12.375V5.625H4.875V6.375Z" fill="url(#paint1_linear_1199_3796)"/>
<path d="M19.3124 11.25H14.8124C14.7627 11.25 14.715 11.2302 14.6799 11.1951C14.6447 11.1599 14.6249 11.1122 14.6249 11.0625V9.9375C14.6249 9.88777 14.6447 9.84008 14.6799 9.80492C14.715 9.76975 14.7627 9.75 14.8124 9.75H19.3124C19.3622 9.75 19.4099 9.76975 19.445 9.80492C19.4802 9.84008 19.4999 9.88777 19.4999 9.9375V11.0625C19.4999 11.1122 19.4802 11.1599 19.445 11.1951C19.4099 11.2302 19.3622 11.25 19.3124 11.25ZM14.9999 10.875H19.1249V10.125H14.9999V10.875ZM5.82031 9H4.69531C4.64558 9 4.59789 8.98025 4.56273 8.94508C4.52757 8.90992 4.50781 8.86223 4.50781 8.8125C4.50781 8.76277 4.52757 8.71508 4.56273 8.67992C4.59789 8.64475 4.64558 8.625 4.69531 8.625H5.63281V7.6875C5.63281 7.63777 5.65257 7.59008 5.68773 7.55492C5.72289 7.51975 5.77058 7.5 5.82031 7.5C5.87004 7.5 5.91773 7.51975 5.9529 7.55492C5.98806 7.59008 6.00781 7.63777 6.00781 7.6875V8.8125C6.00781 8.86223 5.98806 8.90992 5.9529 8.94508C5.91773 8.98025 5.87004 9 5.82031 9ZM8.07031 9H6.94531C6.89558 9 6.84789 8.98025 6.81273 8.94508C6.77757 8.90992 6.75781 8.86223 6.75781 8.8125C6.75781 8.76277 6.77757 8.71508 6.81273 8.67992C6.84789 8.64475 6.89558 8.625 6.94531 8.625H7.88281V7.6875C7.88281 7.63777 7.90257 7.59008 7.93773 7.55492C7.97289 7.51975 8.02058 7.5 8.07031 7.5C8.12004 7.5 8.16773 7.51975 8.2029 7.55492C8.23806 7.59008 8.25781 7.63777 8.25781 7.6875V8.8125C8.25781 8.86223 8.23806 8.90992 8.2029 8.94508C8.16773 8.98025 8.12004 9 8.07031 9ZM10.3203 9H9.19531C9.14558 9 9.09789 8.98025 9.06273 8.94508C9.02757 8.90992 9.00781 8.86223 9.00781 8.8125C9.00781 8.76277 9.02757 8.71508 9.06273 8.67992C9.09789 8.64475 9.14558 8.625 9.19531 8.625H10.1328V7.6875C10.1328 7.63777 10.1526 7.59008 10.1877 7.55492C10.2229 7.51975 10.2706 7.5 10.3203 7.5C10.37 7.5 10.4177 7.51975 10.4529 7.55492C10.4881 7.59008 10.5078 7.63777 10.5078 7.6875V8.8125C10.5078 8.86223 10.4881 8.90992 10.4529 8.94508C10.4177 8.98025 10.37 9 10.3203 9ZM15.5703 13.125H14.8203C14.7706 13.125 14.7229 13.1052 14.6877 13.0701C14.6526 13.0349 14.6328 12.9872 14.6328 12.9375C14.6328 12.8878 14.6526 12.8401 14.6877 12.8049C14.7229 12.7698 14.7706 12.75 14.8203 12.75H15.3828V12.1875C15.3828 12.1378 15.4026 12.0901 15.4377 12.0549C15.4729 12.0198 15.5206 12 15.5703 12C15.62 12 15.6677 12.0198 15.7029 12.0549C15.7381 12.0901 15.7578 12.1378 15.7578 12.1875V12.9375C15.7578 12.9872 15.7381 13.0349 15.7029 13.0701C15.6677 13.1052 15.62 13.125 15.5703 13.125ZM17.4453 13.125H16.6953C16.6456 13.125 16.5979 13.1052 16.5627 13.0701C16.5276 13.0349 16.5078 12.9872 16.5078 12.9375C16.5078 12.8878 16.5276 12.8401 16.5627 12.8049C16.5979 12.7698 16.6456 12.75 16.6953 12.75H17.2578V12.1875C17.2578 12.1378 17.2776 12.0901 17.3127 12.0549C17.3479 12.0198 17.3956 12 17.4453 12C17.495 12 17.5427 12.0198 17.5779 12.0549C17.6131 12.0901 17.6328 12.1378 17.6328 12.1875V12.9375C17.6328 12.9872 17.6131 13.0349 17.5779 13.0701C17.5427 13.1052 17.495 13.125 17.4453 13.125ZM19.3203 13.125H18.5703C18.5206 13.125 18.4729 13.1052 18.4377 13.0701C18.4026 13.0349 18.3828 12.9872 18.3828 12.9375C18.3828 12.8878 18.4026 12.8401 18.4377 12.8049C18.4729 12.7698 18.5206 12.75 18.5703 12.75H19.1328V12.1875C19.1328 12.1378 19.1526 12.0901 19.1877 12.0549C19.2229 12.0198 19.2706 12 19.3203 12C19.37 12 19.4177 12.0198 19.4529 12.0549C19.4881 12.0901 19.5078 12.1378 19.5078 12.1875V12.9375C19.5078 12.9872 19.4881 13.0349 19.4529 13.0701C19.4177 13.1052 19.37 13.125 19.3203 13.125ZM15.5703 15H14.8203C14.7706 15 14.7229 14.9802 14.6877 14.9451C14.6526 14.9099 14.6328 14.8622 14.6328 14.8125C14.6328 14.7628 14.6526 14.7151 14.6877 14.6799C14.7229 14.6448 14.7706 14.625 14.8203 14.625H15.3828V14.0625C15.3828 14.0128 15.4026 13.9651 15.4377 13.9299C15.4729 13.8948 15.5206 13.875 15.5703 13.875C15.62 13.875 15.6677 13.8948 15.7029 13.9299C15.7381 13.9651 15.7578 14.0128 15.7578 14.0625V14.8125C15.7578 14.8622 15.7381 14.9099 15.7029 14.9451C15.6677 14.9802 15.62 15 15.5703 15ZM17.4453 15H16.6953C16.6456 15 16.5979 14.9802 16.5627 14.9451C16.5276 14.9099 16.5078 14.8622 16.5078 14.8125C16.5078 14.7628 16.5276 14.7151 16.5627 14.6799C16.5979 14.6448 16.6456 14.625 16.6953 14.625H17.2578V14.0625C17.2578 14.0128 17.2776 13.9651 17.3127 13.9299C17.3479 13.8948 17.3956 13.875 17.4453 13.875C17.495 13.875 17.5427 13.8948 17.5779 13.9299C17.6131 13.9651 17.6328 14.0128 17.6328 14.0625V14.8125C17.6328 14.8622 17.6131 14.9099 17.5779 14.9451C17.5427 14.9802 17.495 15 17.4453 15ZM19.3203 15H18.5703C18.5206 15 18.4729 14.9802 18.4377 14.9451C18.4026 14.9099 18.3828 14.8622 18.3828 14.8125C18.3828 14.7628 18.4026 14.7151 18.4377 14.6799C18.4729 14.6448 18.5206 14.625 18.5703 14.625H19.1328V14.0625C19.1328 14.0128 19.1526 13.9651 19.1877 13.9299C19.2229 13.8948 19.2706 13.875 19.3203 13.875C19.37 13.875 19.4177 13.8948 19.4529 13.9299C19.4881 13.9651 19.5078 14.0128 19.5078 14.0625V14.8125C19.5078 14.8622 19.4881 14.9099 19.4529 14.9451C19.4177 14.9802 19.37 15 19.3203 15ZM15.5703 16.875H14.8203C14.7706 16.875 14.7229 16.8552 14.6877 16.8201C14.6526 16.7849 14.6328 16.7372 14.6328 16.6875C14.6328 16.6378 14.6526 16.5901 14.6877 16.5549C14.7229 16.5198 14.7706 16.5 14.8203 16.5H15.3828V15.9375C15.3828 15.8878 15.4026 15.8401 15.4377 15.8049C15.4729 15.7698 15.5206 15.75 15.5703 15.75C15.62 15.75 15.6677 15.7698 15.7029 15.8049C15.7381 15.8401 15.7578 15.8878 15.7578 15.9375V16.6875C15.7578 16.7372 15.7381 16.7849 15.7029 16.8201C15.6677 16.8552 15.62 16.875 15.5703 16.875ZM17.4453 16.875H16.6953C16.6456 16.875 16.5979 16.8552 16.5627 16.8201C16.5276 16.7849 16.5078 16.7372 16.5078 16.6875C16.5078 16.6378 16.5276 16.5901 16.5627 16.5549C16.5979 16.5198 16.6456 16.5 16.6953 16.5H17.2578V15.9375C17.2578 15.8878 17.2776 15.8401 17.3127 15.8049C17.3479 15.7698 17.3956 15.75 17.4453 15.75C17.495 15.75 17.5427 15.7698 17.5779 15.8049C17.6131 15.8401 17.6328 15.8878 17.6328 15.9375V16.6875C17.6328 16.7372 17.6131 16.7849 17.5779 16.8201C17.5427 16.8552 17.495 16.875 17.4453 16.875ZM19.3203 16.875H18.5703C18.5206 16.875 18.4729 16.8552 18.4377 16.8201C18.4026 16.7849 18.3828 16.7372 18.3828 16.6875C18.3828 16.6378 18.4026 16.5901 18.4377 16.5549C18.4729 16.5198 18.5206 16.5 18.5703 16.5H19.1328V15.9375C19.1328 15.8878 19.1526 15.8401 19.1877 15.8049C19.2229 15.7698 19.2706 15.75 19.3203 15.75C19.37 15.75 19.4177 15.7698 19.4529 15.8049C19.4881 15.8401 19.5078 15.8878 19.5078 15.9375V16.6875C19.5078 16.7372 19.4881 16.7849 19.4529 16.8201C19.4177 16.8552 19.37 16.875 19.3203 16.875ZM15.5703 18.75H14.8203C14.7706 18.75 14.7229 18.7302 14.6877 18.6951C14.6526 18.6599 14.6328 18.6122 14.6328 18.5625C14.6328 18.5128 14.6526 18.4651 14.6877 18.4299C14.7229 18.3948 14.7706 18.375 14.8203 18.375H15.3828V17.8125C15.3828 17.7628 15.4026 17.7151 15.4377 17.6799C15.4729 17.6448 15.5206 17.625 15.5703 17.625C15.62 17.625 15.6677 17.6448 15.7029 17.6799C15.7381 17.7151 15.7578 17.7628 15.7578 17.8125V18.5625C15.7578 18.6122 15.7381 18.6599 15.7029 18.6951C15.6677 18.7302 15.62 18.75 15.5703 18.75ZM17.4453 18.75H16.6953C16.6456 18.75 16.5979 18.7302 16.5627 18.6951C16.5276 18.6599 16.5078 18.6122 16.5078 18.5625C16.5078 18.5128 16.5276 18.4651 16.5627 18.4299C16.5979 18.3948 16.6456 18.375 16.6953 18.375H17.2578V17.8125C17.2578 17.7628 17.2776 17.7151 17.3127 17.6799C17.3479 17.6448 17.3956 17.625 17.4453 17.625C17.495 17.625 17.5427 17.6448 17.5779 17.6799C17.6131 17.7151 17.6328 17.7628 17.6328 17.8125V18.5625C17.6328 18.6122 17.6131 18.6599 17.5779 18.6951C17.5427 18.7302 17.495 18.75 17.4453 18.75ZM19.3203 18.75H18.5703C18.5206 18.75 18.4729 18.7302 18.4377 18.6951C18.4026 18.6599 18.3828 18.6122 18.3828 18.5625C18.3828 18.5128 18.4026 18.4651 18.4377 18.4299C18.4729 18.3948 18.5206 18.375 18.5703 18.375H19.1328V17.8125C19.1328 17.7628 19.1526 17.7151 19.1877 17.6799C19.2229 17.6448 19.2706 17.625 19.3203 17.625C19.37 17.625 19.4177 17.6448 19.4529 17.6799C19.4881 17.7151 19.5078 17.7628 19.5078 17.8125V18.5625C19.5078 18.6122 19.4881 18.6599 19.4529 18.6951C19.4177 18.7302 19.37 18.75 19.3203 18.75ZM15.5703 20.625H14.8203C14.7706 20.625 14.7229 20.6052 14.6877 20.5701C14.6526 20.5349 14.6328 20.4872 14.6328 20.4375C14.6328 20.3878 14.6526 20.3401 14.6877 20.3049C14.7229 20.2698 14.7706 20.25 14.8203 20.25H15.3828V19.6875C15.3828 19.6378 15.4026 19.5901 15.4377 19.5549C15.4729 19.5198 15.5206 19.5 15.5703 19.5C15.62 19.5 15.6677 19.5198 15.7029 19.5549C15.7381 19.5901 15.7578 19.6378 15.7578 19.6875V20.4375C15.7578 20.4872 15.7381 20.5349 15.7029 20.5701C15.6677 20.6052 15.62 20.625 15.5703 20.625ZM17.4453 20.625H16.6953C16.6456 20.625 16.5979 20.6052 16.5627 20.5701C16.5276 20.5349 16.5078 20.4872 16.5078 20.4375C16.5078 20.3878 16.5276 20.3401 16.5627 20.3049C16.5979 20.2698 16.6456 20.25 16.6953 20.25H17.2578V19.6875C17.2578 19.6378 17.2776 19.5901 17.3127 19.5549C17.3479 19.5198 17.3956 19.5 17.4453 19.5C17.495 19.5 17.5427 19.5198 17.5779 19.5549C17.6131 19.5901 17.6328 19.6378 17.6328 19.6875V20.4375C17.6328 20.4872 17.6131 20.5349 17.5779 20.5701C17.5427 20.6052 17.495 20.625 17.4453 20.625ZM19.3203 20.625H18.5703C18.5206 20.625 18.4729 20.6052 18.4377 20.5701C18.4026 20.5349 18.3828 20.4872 18.3828 20.4375C18.3828 20.3878 18.4026 20.3401 18.4377 20.3049C18.4729 20.2698 18.5206 20.25 18.5703 20.25H19.1328V19.6875C19.1328 19.6378 19.1526 19.5901 19.1877 19.5549C19.2229 19.5198 19.2706 19.5 19.3203 19.5C19.37 19.5 19.4177 19.5198 19.4529 19.5549C19.4881 19.5901 19.5078 19.6378 19.5078 19.6875V20.4375C19.5078 20.4872 19.4881 20.5349 19.4529 20.5701C19.4177 20.6052 19.37 20.625 19.3203 20.625ZM15.5703 22.5H14.8203C14.7706 22.5 14.7229 22.4802 14.6877 22.4451C14.6526 22.4099 14.6328 22.3622 14.6328 22.3125C14.6328 22.2628 14.6526 22.2151 14.6877 22.1799C14.7229 22.1448 14.7706 22.125 14.8203 22.125H15.3828V21.5625C15.3828 21.5128 15.4026 21.4651 15.4377 21.4299C15.4729 21.3948 15.5206 21.375 15.5703 21.375C15.62 21.375 15.6677 21.3948 15.7029 21.4299C15.7381 21.4651 15.7578 21.5128 15.7578 21.5625V22.3125C15.7578 22.3622 15.7381 22.4099 15.7029 22.4451C15.6677 22.4802 15.62 22.5 15.5703 22.5ZM17.4453 22.5H16.6953C16.6456 22.5 16.5979 22.4802 16.5627 22.4451C16.5276 22.4099 16.5078 22.3622 16.5078 22.3125C16.5078 22.2628 16.5276 22.2151 16.5627 22.1799C16.5979 22.1448 16.6456 22.125 16.6953 22.125H17.2578V21.5625C17.2578 21.5128 17.2776 21.4651 17.3127 21.4299C17.3479 21.3948 17.3956 21.375 17.4453 21.375C17.495 21.375 17.5427 21.3948 17.5779 21.4299C17.6131 21.4651 17.6328 21.5128 17.6328 21.5625V22.3125C17.6328 22.3622 17.6131 22.4099 17.5779 22.4451C17.5427 22.4802 17.495 22.5 17.4453 22.5ZM19.3203 22.5H18.5703C18.5206 22.5 18.4729 22.4802 18.4377 22.4451C18.4026 22.4099 18.3828 22.3622 18.3828 22.3125C18.3828 22.2628 18.4026 22.2151 18.4377 22.1799C18.4729 22.1448 18.5206 22.125 18.5703 22.125H19.1328V21.5625C19.1328 21.5128 19.1526 21.4651 19.1877 21.4299C19.2229 21.3948 19.2706 21.375 19.3203 21.375C19.37 21.375 19.4177 21.3948 19.4529 21.4299C19.4881 21.4651 19.5078 21.5128 19.5078 21.5625V22.3125C19.5078 22.3622 19.4881 22.4099 19.4529 22.4451C19.4177 22.4802 19.37 22.5 19.3203 22.5ZM12.5703 9H11.4453C11.3956 9 11.3479 8.98025 11.3127 8.94508C11.2776 8.90992 11.2578 8.86223 11.2578 8.8125C11.2578 8.76277 11.2776 8.71508 11.3127 8.67992C11.3479 8.64475 11.3956 8.625 11.4453 8.625H12.3828V7.6875C12.3828 7.63777 12.4026 7.59008 12.4377 7.55492C12.4729 7.51975 12.5206 7.5 12.5703 7.5C12.62 7.5 12.6677 7.51975 12.7029 7.55492C12.7381 7.59008 12.7578 7.63777 12.7578 7.6875V8.8125C12.7578 8.86223 12.7381 8.90992 12.7029 8.94508C12.6677 8.98025 12.62 9 12.5703 9ZM5.82031 11.25H4.69531C4.64558 11.25 4.59789 11.2302 4.56273 11.1951C4.52757 11.1599 4.50781 11.1122 4.50781 11.0625C4.50781 11.0128 4.52757 10.9651 4.56273 10.9299C4.59789 10.8948 4.64558 10.875 4.69531 10.875H5.63281V9.9375C5.63281 9.88777 5.65257 9.84008 5.68773 9.80492C5.72289 9.76975 5.77058 9.75 5.82031 9.75C5.87004 9.75 5.91773 9.76975 5.9529 9.80492C5.98806 9.84008 6.00781 9.88777 6.00781 9.9375V11.0625C6.00781 11.1122 5.98806 11.1599 5.9529 11.1951C5.91773 11.2302 5.87004 11.25 5.82031 11.25ZM8.07031 11.25H6.94531C6.89558 11.25 6.84789 11.2302 6.81273 11.1951C6.77757 11.1599 6.75781 11.1122 6.75781 11.0625C6.75781 11.0128 6.77757 10.9651 6.81273 10.9299C6.84789 10.8948 6.89558 10.875 6.94531 10.875H7.88281V9.9375C7.88281 9.88777 7.90257 9.84008 7.93773 9.80492C7.97289 9.76975 8.02058 9.75 8.07031 9.75C8.12004 9.75 8.16773 9.76975 8.2029 9.80492C8.23806 9.84008 8.25781 9.88777 8.25781 9.9375V11.0625C8.25781 11.1122 8.23806 11.1599 8.2029 11.1951C8.16773 11.2302 8.12004 11.25 8.07031 11.25ZM10.3203 11.25H9.19531C9.14558 11.25 9.09789 11.2302 9.06273 11.1951C9.02757 11.1599 9.00781 11.1122 9.00781 11.0625C9.00781 11.0128 9.02757 10.9651 9.06273 10.9299C9.09789 10.8948 9.14558 10.875 9.19531 10.875H10.1328V9.9375C10.1328 9.88777 10.1526 9.84008 10.1877 9.80492C10.2229 9.76975 10.2706 9.75 10.3203 9.75C10.37 9.75 10.4177 9.76975 10.4529 9.80492C10.4881 9.84008 10.5078 9.88777 10.5078 9.9375V11.0625C10.5078 11.1122 10.4881 11.1599 10.4529 11.1951C10.4177 11.2302 10.37 11.25 10.3203 11.25ZM12.5703 11.25H11.4453C11.3956 11.25 11.3479 11.2302 11.3127 11.1951C11.2776 11.1599 11.2578 11.1122 11.2578 11.0625C11.2578 11.0128 11.2776 10.9651 11.3127 10.9299C11.3479 10.8948 11.3956 10.875 11.4453 10.875H12.3828V9.9375C12.3828 9.88777 12.4026 9.84008 12.4377 9.80492C12.4729 9.76975 12.5206 9.75 12.5703 9.75C12.62 9.75 12.6677 9.76975 12.7029 9.80492C12.7381 9.84008 12.7578 9.88777 12.7578 9.9375V11.0625C12.7578 11.1122 12.7381 11.1599 12.7029 11.1951C12.6677 11.2302 12.62 11.25 12.5703 11.25ZM5.82031 13.5H4.69531C4.64558 13.5 4.59789 13.4802 4.56273 13.4451C4.52757 13.4099 4.50781 13.3622 4.50781 13.3125C4.50781 13.2628 4.52757 13.2151 4.56273 13.1799C4.59789 13.1448 4.64558 13.125 4.69531 13.125H5.63281V12.1875C5.63281 12.1378 5.65257 12.0901 5.68773 12.0549C5.72289 12.0198 5.77058 12 5.82031 12C5.87004 12 5.91773 12.0198 5.9529 12.0549C5.98806 12.0901 6.00781 12.1378 6.00781 12.1875V13.3125C6.00781 13.3622 5.98806 13.4099 5.9529 13.4451C5.91773 13.4802 5.87004 13.5 5.82031 13.5ZM8.07031 13.5H6.94531C6.89558 13.5 6.84789 13.4802 6.81273 13.4451C6.77757 13.4099 6.75781 13.3622 6.75781 13.3125C6.75781 13.2628 6.77757 13.2151 6.81273 13.1799C6.84789 13.1448 6.89558 13.125 6.94531 13.125H7.88281V12.1875C7.88281 12.1378 7.90257 12.0901 7.93773 12.0549C7.97289 12.0198 8.02058 12 8.07031 12C8.12004 12 8.16773 12.0198 8.2029 12.0549C8.23806 12.0901 8.25781 12.1378 8.25781 12.1875V13.3125C8.25781 13.3622 8.23806 13.4099 8.2029 13.4451C8.16773 13.4802 8.12004 13.5 8.07031 13.5ZM10.3203 13.5H9.19531C9.14558 13.5 9.09789 13.4802 9.06273 13.4451C9.02757 13.4099 9.00781 13.3622 9.00781 13.3125C9.00781 13.2628 9.02757 13.2151 9.06273 13.1799C9.09789 13.1448 9.14558 13.125 9.19531 13.125H10.1328V12.1875C10.1328 12.1378 10.1526 12.0901 10.1877 12.0549C10.2229 12.0198 10.2706 12 10.3203 12C10.37 12 10.4177 12.0198 10.4529 12.0549C10.4881 12.0901 10.5078 12.1378 10.5078 12.1875V13.3125C10.5078 13.3622 10.4881 13.4099 10.4529 13.4451C10.4177 13.4802 10.37 13.5 10.3203 13.5ZM12.5703 13.5H11.4453C11.3956 13.5 11.3479 13.4802 11.3127 13.4451C11.2776 13.4099 11.2578 13.3622 11.2578 13.3125C11.2578 13.2628 11.2776 13.2151 11.3127 13.1799C11.3479 13.1448 11.3956 13.125 11.4453 13.125H12.3828V12.1875C12.3828 12.1378 12.4026 12.0901 12.4377 12.0549C12.4729 12.0198 12.5206 12 12.5703 12C12.62 12 12.6677 12.0198 12.7029 12.0549C12.7381 12.0901 12.7578 12.1378 12.7578 12.1875V13.3125C12.7578 13.3622 12.7381 13.4099 12.7029 13.4451C12.6677 13.4802 12.62 13.5 12.5703 13.5ZM5.82031 15.75H4.69531C4.64558 15.75 4.59789 15.7302 4.56273 15.6951C4.52757 15.6599 4.50781 15.6122 4.50781 15.5625C4.50781 15.5128 4.52757 15.4651 4.56273 15.4299C4.59789 15.3948 4.64558 15.375 4.69531 15.375H5.63281V14.4375C5.63281 14.3878 5.65257 14.3401 5.68773 14.3049C5.72289 14.2698 5.77058 14.25 5.82031 14.25C5.87004 14.25 5.91773 14.2698 5.9529 14.3049C5.98806 14.3401 6.00781 14.3878 6.00781 14.4375V15.5625C6.00781 15.6122 5.98806 15.6599 5.9529 15.6951C5.91773 15.7302 5.87004 15.75 5.82031 15.75ZM8.07031 15.75H6.94531C6.89558 15.75 6.84789 15.7302 6.81273 15.6951C6.77757 15.6599 6.75781 15.6122 6.75781 15.5625C6.75781 15.5128 6.77757 15.4651 6.81273 15.4299C6.84789 15.3948 6.89558 15.375 6.94531 15.375H7.88281V14.4375C7.88281 14.3878 7.90257 14.3401 7.93773 14.3049C7.97289 14.2698 8.02058 14.25 8.07031 14.25C8.12004 14.25 8.16773 14.2698 8.2029 14.3049C8.23806 14.3401 8.25781 14.3878 8.25781 14.4375V15.5625C8.25781 15.6122 8.23806 15.6599 8.2029 15.6951C8.16773 15.7302 8.12004 15.75 8.07031 15.75ZM10.3203 15.75H9.19531C9.14558 15.75 9.09789 15.7302 9.06273 15.6951C9.02757 15.6599 9.00781 15.6122 9.00781 15.5625C9.00781 15.5128 9.02757 15.4651 9.06273 15.4299C9.09789 15.3948 9.14558 15.375 9.19531 15.375H10.1328V14.4375C10.1328 14.3878 10.1526 14.3401 10.1877 14.3049C10.2229 14.2698 10.2706 14.25 10.3203 14.25C10.37 14.25 10.4177 14.2698 10.4529 14.3049C10.4881 14.3401 10.5078 14.3878 10.5078 14.4375V15.5625C10.5078 15.6122 10.4881 15.6599 10.4529 15.6951C10.4177 15.7302 10.37 15.75 10.3203 15.75ZM12.5703 15.75H11.4453C11.3956 15.75 11.3479 15.7302 11.3127 15.6951C11.2776 15.6599 11.2578 15.6122 11.2578 15.5625C11.2578 15.5128 11.2776 15.4651 11.3127 15.4299C11.3479 15.3948 11.3956 15.375 11.4453 15.375H12.3828V14.4375C12.3828 14.3878 12.4026 14.3401 12.4377 14.3049C12.4729 14.2698 12.5206 14.25 12.5703 14.25C12.62 14.25 12.6677 14.2698 12.7029 14.3049C12.7381 14.3401 12.7578 14.3878 12.7578 14.4375V15.5625C12.7578 15.6122 12.7381 15.6599 12.7029 15.6951C12.6677 15.7302 12.62 15.75 12.5703 15.75ZM5.82031 18H4.69531C4.64558 18 4.59789 17.9802 4.56273 17.9451C4.52757 17.9099 4.50781 17.8622 4.50781 17.8125C4.50781 17.7628 4.52757 17.7151 4.56273 17.6799C4.59789 17.6448 4.64558 17.625 4.69531 17.625H5.63281V16.6875C5.63281 16.6378 5.65257 16.5901 5.68773 16.5549C5.72289 16.5198 5.77058 16.5 5.82031 16.5C5.87004 16.5 5.91773 16.5198 5.9529 16.5549C5.98806 16.5901 6.00781 16.6378 6.00781 16.6875V17.8125C6.00781 17.8622 5.98806 17.9099 5.9529 17.9451C5.91773 17.9802 5.87004 18 5.82031 18ZM8.07031 18H6.94531C6.89558 18 6.84789 17.9802 6.81273 17.9451C6.77757 17.9099 6.75781 17.8622 6.75781 17.8125C6.75781 17.7628 6.77757 17.7151 6.81273 17.6799C6.84789 17.6448 6.89558 17.625 6.94531 17.625H7.88281V16.6875C7.88281 16.6378 7.90257 16.5901 7.93773 16.5549C7.97289 16.5198 8.02058 16.5 8.07031 16.5C8.12004 16.5 8.16773 16.5198 8.2029 16.5549C8.23806 16.5901 8.25781 16.6378 8.25781 16.6875V17.8125C8.25781 17.8622 8.23806 17.9099 8.2029 17.9451C8.16773 17.9802 8.12004 18 8.07031 18ZM10.3203 18H9.19531C9.14558 18 9.09789 17.9802 9.06273 17.9451C9.02757 17.9099 9.00781 17.8622 9.00781 17.8125C9.00781 17.7628 9.02757 17.7151 9.06273 17.6799C9.09789 17.6448 9.14558 17.625 9.19531 17.625H10.1328V16.6875C10.1328 16.6378 10.1526 16.5901 10.1877 16.5549C10.2229 16.5198 10.2706 16.5 10.3203 16.5C10.37 16.5 10.4177 16.5198 10.4529 16.5549C10.4881 16.5901 10.5078 16.6378 10.5078 16.6875V17.8125C10.5078 17.8622 10.4881 17.9099 10.4529 17.9451C10.4177 17.9802 10.37 18 10.3203 18ZM12.5703 18H11.4453C11.3956 18 11.3479 17.9802 11.3127 17.9451C11.2776 17.9099 11.2578 17.8622 11.2578 17.8125C11.2578 17.7628 11.2776 17.7151 11.3127 17.6799C11.3479 17.6448 11.3956 17.625 11.4453 17.625H12.3828V16.6875C12.3828 16.6378 12.4026 16.5901 12.4377 16.5549C12.4729 16.5198 12.5206 16.5 12.5703 16.5C12.62 16.5 12.6677 16.5198 12.7029 16.5549C12.7381 16.5901 12.7578 16.6378 12.7578 16.6875V17.8125C12.7578 17.8622 12.7381 17.9099 12.7029 17.9451C12.6677 17.9802 12.62 18 12.5703 18ZM5.82031 20.25H4.69531C4.64558 20.25 4.59789 20.2302 4.56273 20.1951C4.52757 20.1599 4.50781 20.1122 4.50781 20.0625C4.50781 20.0128 4.52757 19.9651 4.56273 19.9299C4.59789 19.8948 4.64558 19.875 4.69531 19.875H5.63281V18.9375C5.63281 18.8878 5.65257 18.8401 5.68773 18.8049C5.72289 18.7698 5.77058 18.75 5.82031 18.75C5.87004 18.75 5.91773 18.7698 5.9529 18.8049C5.98806 18.8401 6.00781 18.8878 6.00781 18.9375V20.0625C6.00781 20.1122 5.98806 20.1599 5.9529 20.1951C5.91773 20.2302 5.87004 20.25 5.82031 20.25ZM12.5703 20.3265H11.4453C11.3956 20.3265 11.3479 20.3067 11.3127 20.2716C11.2776 20.2364 11.2578 20.1887 11.2578 20.139C11.2578 20.0893 11.2776 20.0416 11.3127 20.0064C11.3479 19.9713 11.3956 19.9515 11.4453 19.9515H12.3828V19.014C12.3828 18.9643 12.4026 18.9166 12.4377 18.8814C12.4729 18.8463 12.5206 18.8265 12.5703 18.8265C12.62 18.8265 12.6677 18.8463 12.7029 18.8814C12.7381 18.9166 12.7578 18.9643 12.7578 19.014V20.139C12.7578 20.1887 12.7381 20.2364 12.7029 20.2716C12.6677 20.3067 12.62 20.3265 12.5703 20.3265ZM5.82031 22.5H4.69531C4.64558 22.5 4.59789 22.4802 4.56273 22.4451C4.52757 22.4099 4.50781 22.3622 4.50781 22.3125C4.50781 22.2628 4.52757 22.2151 4.56273 22.1799C4.59789 22.1448 4.64558 22.125 4.69531 22.125H5.63281V21.1875C5.63281 21.1378 5.65257 21.0901 5.68773 21.0549C5.72289 21.0198 5.77058 21 5.82031 21C5.87004 21 5.91773 21.0198 5.9529 21.0549C5.98806 21.0901 6.00781 21.1378 6.00781 21.1875V22.3125C6.00781 22.3622 5.98806 22.4099 5.9529 22.4451C5.91773 22.4802 5.87004 22.5 5.82031 22.5ZM12.5703 22.5765H11.4453C11.3956 22.5765 11.3479 22.5567 11.3127 22.5216C11.2776 22.4864 11.2578 22.4387 11.2578 22.389C11.2578 22.3393 11.2776 22.2916 11.3127 22.2564C11.3479 22.2213 11.3956 22.2015 11.4453 22.2015H12.3828V21.264C12.3828 21.2143 12.4026 21.1666 12.4377 21.1314C12.4729 21.0963 12.5206 21.0765 12.5703 21.0765C12.62 21.0765 12.6677 21.0963 12.7029 21.1314C12.7381 21.1666 12.7578 21.2143 12.7578 21.264V22.389C12.7578 22.4387 12.7381 22.4864 12.7029 22.5216C12.6677 22.5567 12.62 22.5765 12.5703 22.5765Z" fill="url(#paint2_linear_1199_3796)"/>
<defs>
<linearGradient id="paint0_linear_1199_3796" x1="3.38168" y1="8.36012" x2="19.356" y2="15.4502" gradientUnits="userSpaceOnUse">
<stop stop-color="#07FFE1"/>
<stop offset="1" stop-color="#9DFF00"/>
</linearGradient>
<linearGradient id="paint1_linear_1199_3796" x1="4.51027" y1="7.36458" x2="25.3444" y2="20.696" gradientUnits="userSpaceOnUse">
<stop stop-color="#07FFE1"/>
<stop offset="1" stop-color="#9DFF00"/>
</linearGradient>
<linearGradient id="paint2_linear_1199_3796" x1="4.51736" y1="9.23499" x2="22.4142" y2="22.2185" gradientUnits="userSpaceOnUse">
<stop stop-color="#07FFE1"/>
<stop offset="1" stop-color="#9DFF00"/>
</linearGradient>
</defs>
</svg>
