<svg width="24" height="24" viewBox="0 0 24 24" fill="none" xmlns="http://www.w3.org/2000/svg">
<g clip-path="url(#clip0_1199_3792)">
<path d="M16.125 11.625H13.0559C13 11.4681 12.9099 11.3257 12.7921 11.2079C12.6743 11.0901 12.5319 11 12.375 10.9441V6.375C12.375 6.27554 12.3355 6.18016 12.2652 6.10983C12.1948 6.03951 12.0995 6 12 6C11.9005 6 11.8052 6.03951 11.7348 6.10983C11.6645 6.18016 11.625 6.27554 11.625 6.375V10.9441C11.446 11.007 11.2859 11.1143 11.1596 11.2559C11.0333 11.3975 10.945 11.5689 10.903 11.7539C10.8609 11.9389 10.8664 12.1315 10.919 12.3138C10.9716 12.4961 11.0695 12.6621 11.2037 12.7963C11.3379 12.9305 11.5039 13.0284 11.6862 13.081C11.8685 13.1336 12.0611 13.1391 12.2461 13.097C12.4311 13.055 12.6025 12.9667 12.7441 12.8404C12.8857 12.7141 12.993 12.554 13.0559 12.375H16.125C16.2245 12.375 16.3198 12.3355 16.3902 12.2652C16.4605 12.1948 16.5 12.0995 16.5 12C16.5 11.9005 16.4605 11.8052 16.3902 11.7348C16.3198 11.6645 16.2245 11.625 16.125 11.625ZM12 12.375C11.9258 12.375 11.8533 12.353 11.7917 12.3118C11.73 12.2706 11.6819 12.212 11.6536 12.1435C11.6252 12.075 11.6177 11.9996 11.6322 11.9268C11.6467 11.8541 11.6824 11.7873 11.7348 11.7348C11.7873 11.6824 11.8541 11.6467 11.9268 11.6322C11.9996 11.6177 12.075 11.6252 12.1435 11.6535C12.212 11.6819 12.2706 11.73 12.3118 11.7917C12.353 11.8533 12.375 11.9258 12.375 12C12.3749 12.0994 12.3354 12.1948 12.2651 12.2651C12.1948 12.3354 12.0994 12.3749 12 12.375ZM18.9106 5.13034C18.9041 5.12265 18.9016 5.11299 18.8943 5.10571C18.887 5.09842 18.8774 5.09591 18.8697 5.08937C17.0458 3.27105 14.5754 2.25 12 2.25C9.42458 2.25 6.95421 3.27105 5.13034 5.08937C5.12266 5.09591 5.113 5.09842 5.10571 5.10571C5.09843 5.11299 5.09592 5.12264 5.08937 5.13034C3.27105 6.95421 2.25 9.42458 2.25 12C2.25 14.5754 3.27105 17.0458 5.08937 18.8697C5.09592 18.8773 5.09843 18.887 5.10571 18.8943C5.113 18.9016 5.12265 18.9041 5.13034 18.9106C6.95421 20.7289 9.42458 21.75 12 21.75C14.5754 21.75 17.0458 20.7289 18.8697 18.9106C18.8773 18.9041 18.887 18.9016 18.8943 18.8943C18.9016 18.887 18.9041 18.8773 18.9106 18.8697C20.7289 17.0458 21.75 14.5754 21.75 12C21.75 9.42458 20.7289 6.95421 18.9106 5.13034ZM18.6135 18.0832L17.8337 17.3035C17.7632 17.2343 17.6682 17.1958 17.5694 17.1963C17.4706 17.1968 17.376 17.2363 17.3062 17.3061C17.2363 17.376 17.1968 17.4706 17.1963 17.5694C17.1958 17.6682 17.2344 17.7632 17.3035 17.8337L18.0832 18.6134C16.5218 20.0552 14.4984 20.8944 12.375 20.981V19.875C12.375 19.7755 12.3355 19.6802 12.2652 19.6098C12.1948 19.5395 12.0995 19.5 12 19.5C11.9005 19.5 11.8052 19.5395 11.7348 19.6098C11.6645 19.6802 11.625 19.7755 11.625 19.875V20.981C9.50157 20.8944 7.47821 20.0552 5.91683 18.6134L6.69654 17.8337C6.76568 17.7632 6.80419 17.6682 6.80369 17.5694C6.80319 17.4706 6.76373 17.376 6.69387 17.3062C6.62402 17.2363 6.52942 17.1968 6.43063 17.1963C6.33184 17.1958 6.23685 17.2343 6.16629 17.3035L5.38656 18.0832C3.94484 16.5218 3.10562 14.4984 3.019 12.375H4.12501C4.22446 12.375 4.31984 12.3355 4.39017 12.2652C4.4605 12.1948 4.50001 12.0995 4.50001 12C4.50001 11.9005 4.4605 11.8052 4.39017 11.7348C4.31984 11.6645 4.22446 11.625 4.12501 11.625H3.019C3.10562 9.50157 3.94484 7.47821 5.38656 5.91683L6.16627 6.69653C6.23682 6.76568 6.33182 6.80419 6.43061 6.80369C6.5294 6.80319 6.624 6.76372 6.69385 6.69387C6.76371 6.62401 6.80317 6.52941 6.80367 6.43062C6.80417 6.33183 6.76566 6.23684 6.69652 6.16628L5.91683 5.38655C7.47821 3.94483 9.50157 3.10561 11.625 3.019V4.125C11.625 4.22446 11.6645 4.31984 11.7348 4.39016C11.8052 4.46049 11.9005 4.5 12 4.5C12.0995 4.5 12.1948 4.46049 12.2652 4.39016C12.3355 4.31984 12.375 4.22446 12.375 4.125V3.019C14.4984 3.10561 16.5218 3.94483 18.0832 5.38655L17.3035 6.16626C17.2681 6.20095 17.2399 6.24231 17.2206 6.28795C17.2013 6.33359 17.1912 6.38261 17.191 6.43217C17.1907 6.48173 17.2003 6.53085 17.2191 6.57668C17.238 6.62251 17.2657 6.66416 17.3008 6.6992C17.3358 6.73425 17.3775 6.76199 17.4233 6.78084C17.4691 6.79969 17.5183 6.80927 17.5678 6.80902C17.6174 6.80877 17.6664 6.7987 17.712 6.77939C17.7577 6.76007 17.799 6.73191 17.8337 6.69651L18.6135 5.91683C20.0552 7.47821 20.8944 9.50157 20.981 11.625H19.875C19.7755 11.625 19.6802 11.6645 19.6098 11.7348C19.5395 11.8052 19.5 11.9005 19.5 12C19.5 12.0995 19.5395 12.1948 19.6098 12.2652C19.6802 12.3355 19.7755 12.375 19.875 12.375H20.981C20.8944 14.4984 20.0552 16.5218 18.6135 18.0832ZM12 0C9.62663 0 7.30655 0.703788 5.33316 2.02236C3.35977 3.34094 1.8217 5.21509 0.913451 7.4078C0.00519937 9.60051 -0.232441 12.0133 0.230582 14.3411C0.693605 16.6689 1.83649 18.8071 3.51472 20.4853C5.19295 22.1635 7.33115 23.3064 9.65892 23.7694C11.9867 24.2324 14.3995 23.9948 16.5922 23.0866C18.7849 22.1783 20.6591 20.6402 21.9776 18.6668C23.2962 16.6935 24 14.3734 24 12C23.9964 8.81852 22.7309 5.76839 20.4813 3.51874C18.2316 1.26909 15.1815 0.00363854 12 0V0ZM12 23.25C9.77497 23.25 7.59989 22.5902 5.74984 21.354C3.89979 20.1179 2.45785 18.3609 1.60636 16.3052C0.754875 14.2495 0.532087 11.9875 0.966171 9.80523C1.40025 7.62295 2.47171 5.61839 4.04505 4.04505C5.61839 2.47171 7.62295 1.40025 9.80524 0.966166C11.9875 0.532082 14.2495 0.754869 16.3052 1.60636C18.3609 2.45784 20.1179 3.89978 21.354 5.74984C22.5902 7.59989 23.25 9.77496 23.25 12C23.2466 14.9826 22.0603 17.8422 19.9512 19.9512C17.8422 22.0603 14.9827 23.2466 12 23.25Z" fill="url(#paint0_linear_1199_3792)"/>
</g>
<defs>
<linearGradient id="paint0_linear_1199_3792" x1="0.0152797" y1="2.76191" x2="28.5496" y2="23.5682" gradientUnits="userSpaceOnUse">
<stop stop-color="#07FFE1"/>
<stop offset="1" stop-color="#9DFF00"/>
</linearGradient>
<clipPath id="clip0_1199_3792">
<rect width="24" height="24" fill="white"/>
</clipPath>
</defs>
</svg>
