<svg width="230" height="246" viewBox="0 0 230 246" fill="none" xmlns="http://www.w3.org/2000/svg">
<path d="M98.4798 51.9225C51.2706 64.5823 23.2574 113.096 35.9106 160.28C48.5637 207.464 97.0917 235.452 144.301 222.792C191.51 210.132 219.523 161.619 206.87 114.435C194.217 67.2503 145.689 39.2627 98.4798 51.9225Z" stroke="#0071BC" stroke-width="2" stroke-miterlimit="10"/>
<path d="M100.315 60.7331C57.6176 72.1831 32.2816 116.06 43.7255 158.735C55.1694 201.41 99.0597 226.723 141.757 215.273C184.455 203.823 209.791 159.946 198.347 117.271C186.903 74.5961 143.013 49.2832 100.315 60.7331Z" stroke="#0071BC" stroke-miterlimit="10"/>
<path d="M51.5 83V59.5001V18.0001M51.5 18.0001H15M51.5 18.0001C51.5 18.0001 189.5 17.5001 229.5 18.0001" stroke="#0071BC" stroke-linecap="round" stroke-linejoin="round"/>
<g filter="url(#filter0_d_640_1436)">
<circle cx="18" cy="18" r="5" fill="#0071BC"/>
</g>
<defs>
<filter id="filter0_d_640_1436" x="0" y="0" width="40" height="40" filterUnits="userSpaceOnUse" color-interpolation-filters="sRGB">
<feFlood flood-opacity="0" result="BackgroundImageFix"/>
<feColorMatrix in="SourceAlpha" type="matrix" values="0 0 0 0 0 0 0 0 0 0 0 0 0 0 0 0 0 0 127 0" result="hardAlpha"/>
<feOffset dx="2" dy="2"/>
<feGaussianBlur stdDeviation="7.5"/>
<feComposite in2="hardAlpha" operator="out"/>
<feColorMatrix type="matrix" values="0 0 0 0 0 0 0 0 0 0.615686 0 0 0 0 1 0 0 0 0.25 0"/>
<feBlend mode="normal" in2="BackgroundImageFix" result="effect1_dropShadow_640_1436"/>
<feBlend mode="normal" in="SourceGraphic" in2="effect1_dropShadow_640_1436" result="shape"/>
</filter>
</defs>
</svg>
