<svg width="253" height="280" viewBox="0 0 253 280" fill="none" xmlns="http://www.w3.org/2000/svg">
<path d="M118.799 266.919C158.895 266.919 191.399 234.596 191.399 194.724C191.399 154.852 158.895 122.53 118.799 122.53C78.7037 122.53 46.1997 154.852 46.1997 194.724C46.1997 234.596 78.7037 266.919 118.799 266.919Z" stroke="#0071BC" stroke-miterlimit="10"/>
<path d="M118.8 110V129.623" stroke="#1C5DAB" stroke-miterlimit="10"/>
<path d="M118.8 259.759V279.382" stroke="#1C5DAB" stroke-miterlimit="10"/>
<path d="M111.4 110.332L113.133 129.888" stroke="#1C5DAB" stroke-miterlimit="10"/>
<path d="M124.533 259.494L126.266 279.05" stroke="#1C5DAB" stroke-miterlimit="10"/>
<path d="M104 111.26L107.467 130.617" stroke="#1C5DAB" stroke-miterlimit="10"/>
<path d="M130.201 258.764L133.601 278.122" stroke="#1C5DAB" stroke-miterlimit="10"/>
<path d="M96.7998 112.851L101.867 131.877" stroke="#1C5DAB" stroke-miterlimit="10"/>
<path d="M135.733 257.504L140.866 276.531" stroke="#1C5DAB" stroke-miterlimit="10"/>
<path d="M89.6665 115.104L96.4664 133.534" stroke="#1C5DAB" stroke-miterlimit="10"/>
<path d="M141.199 255.847L147.933 274.277" stroke="#1C5DAB" stroke-miterlimit="10"/>
<path d="M82.8003 117.955L91.2003 135.722" stroke="#1C5DAB" stroke-miterlimit="10"/>
<path d="M146.467 253.66L154.8 271.493" stroke="#1C5DAB" stroke-miterlimit="10"/>
<path d="M76.1997 121.336L86.1329 138.374" stroke="#1C5DAB" stroke-miterlimit="10"/>
<path d="M151.533 251.008L161.399 268.045" stroke="#1C5DAB" stroke-miterlimit="10"/>
<path d="M69.9331 125.314L81.3331 141.423" stroke="#1C5DAB" stroke-miterlimit="10"/>
<path d="M156.333 247.958L167.666 264.068" stroke="#1C5DAB" stroke-miterlimit="10"/>
<path d="M64.0669 129.822L76.8002 144.871" stroke="#1C5DAB" stroke-miterlimit="10"/>
<path d="M160.867 244.511L173.6 259.56" stroke="#1C5DAB" stroke-miterlimit="10"/>
<path d="M58.6001 134.794L72.5334 148.716" stroke="#1C5DAB" stroke-miterlimit="10"/>
<path d="M165.066 240.666L179.066 254.588" stroke="#1C5DAB" stroke-miterlimit="10"/>
<path d="M53.6001 140.23L68.7333 152.892" stroke="#1C5DAB" stroke-miterlimit="10"/>
<path d="M168.933 236.489L184.066 249.151" stroke="#1C5DAB" stroke-miterlimit="10"/>
<path d="M49.0669 146.13L65.2669 157.4" stroke="#1C5DAB" stroke-miterlimit="10"/>
<path d="M172.399 231.981L188.599 243.251" stroke="#1C5DAB" stroke-miterlimit="10"/>
<path d="M45.0664 152.362L62.1997 162.173" stroke="#1C5DAB" stroke-miterlimit="10"/>
<path d="M175.466 227.208L192.599 237.02" stroke="#1C5DAB" stroke-miterlimit="10"/>
<path d="M41.5996 158.925L59.5329 167.212" stroke="#1C5DAB" stroke-miterlimit="10"/>
<path d="M178.133 222.17L195.999 230.523" stroke="#1C5DAB" stroke-miterlimit="10"/>
<path d="M38.8003 165.753L57.3336 172.449" stroke="#1C5DAB" stroke-miterlimit="10"/>
<path d="M180.267 216.932L198.867 223.694" stroke="#1C5DAB" stroke-miterlimit="10"/>
<path d="M36.5342 172.781L55.6674 177.885" stroke="#1C5DAB" stroke-miterlimit="10"/>
<path d="M182 211.562L201.134 216.601" stroke="#1C5DAB" stroke-miterlimit="10"/>
<path d="M34.9341 180.007L54.4006 183.388" stroke="#1C5DAB" stroke-miterlimit="10"/>
<path d="M183.267 205.994L202.734 209.375" stroke="#1C5DAB" stroke-miterlimit="10"/>
<path d="M33.9336 187.299L53.6668 189.023" stroke="#1C5DAB" stroke-miterlimit="10"/>
<path d="M184 200.359L203.667 202.083" stroke="#1C5DAB" stroke-miterlimit="10"/>
<path d="M33.667 194.724H53.4002" stroke="#1C5DAB" stroke-miterlimit="10"/>
<path d="M184.267 194.724H204" stroke="#1C5DAB" stroke-miterlimit="10"/>
<path d="M33.9336 202.083L53.6668 200.359" stroke="#1C5DAB" stroke-miterlimit="10"/>
<path d="M184 189.023L203.667 187.299" stroke="#1C5DAB" stroke-miterlimit="10"/>
<path d="M34.9341 209.375L54.4006 205.994" stroke="#1C5DAB" stroke-miterlimit="10"/>
<path d="M183.267 183.388L202.734 180.007" stroke="#1C5DAB" stroke-miterlimit="10"/>
<path d="M36.5342 216.601L55.6674 211.562" stroke="#1C5DAB" stroke-miterlimit="10"/>
<path d="M182 177.885L201.134 172.781" stroke="#1C5DAB" stroke-miterlimit="10"/>
<path d="M38.8003 223.694L57.3336 216.932" stroke="#1C5DAB" stroke-miterlimit="10"/>
<path d="M180.267 172.449L198.867 165.753" stroke="#1C5DAB" stroke-miterlimit="10"/>
<path d="M41.5996 230.523L59.5329 222.17" stroke="#1C5DAB" stroke-miterlimit="10"/>
<path d="M178.133 167.212L195.999 158.925" stroke="#1C5DAB" stroke-miterlimit="10"/>
<path d="M45.0664 237.02L62.1997 227.208" stroke="#1C5DAB" stroke-miterlimit="10"/>
<path d="M175.466 162.173L192.599 152.362" stroke="#1C5DAB" stroke-miterlimit="10"/>
<path d="M49.0669 243.251L65.2669 231.981" stroke="#1C5DAB" stroke-miterlimit="10"/>
<path d="M172.399 157.4L188.599 146.13" stroke="#1C5DAB" stroke-miterlimit="10"/>
<path d="M53.6001 249.151L68.7333 236.489" stroke="#1C5DAB" stroke-miterlimit="10"/>
<path d="M168.933 152.892L184.066 140.23" stroke="#1C5DAB" stroke-miterlimit="10"/>
<path d="M58.6001 254.588L72.5334 240.666" stroke="#1C5DAB" stroke-miterlimit="10"/>
<path d="M165.066 148.716L179.066 134.794" stroke="#1C5DAB" stroke-miterlimit="10"/>
<path d="M64.0669 259.56L76.8002 244.511" stroke="#1C5DAB" stroke-miterlimit="10"/>
<path d="M160.867 144.871L173.6 129.822" stroke="#1C5DAB" stroke-miterlimit="10"/>
<path d="M69.9331 264.068L81.3331 247.958" stroke="#1C5DAB" stroke-miterlimit="10"/>
<path d="M156.333 141.423L167.666 125.314" stroke="#1C5DAB" stroke-miterlimit="10"/>
<path d="M76.1997 268.045L86.1329 251.008" stroke="#1C5DAB" stroke-miterlimit="10"/>
<path d="M151.533 138.374L161.399 121.336" stroke="#1C5DAB" stroke-miterlimit="10"/>
<path d="M82.8003 271.493L91.2003 253.66" stroke="#1C5DAB" stroke-miterlimit="10"/>
<path d="M146.467 135.722L154.8 117.955" stroke="#1C5DAB" stroke-miterlimit="10"/>
<path d="M89.6665 274.277L96.4664 255.847" stroke="#1C5DAB" stroke-miterlimit="10"/>
<path d="M141.199 133.534L147.933 115.104" stroke="#1C5DAB" stroke-miterlimit="10"/>
<path d="M96.7998 276.531L101.867 257.504" stroke="#1C5DAB" stroke-miterlimit="10"/>
<path d="M135.733 131.877L140.866 112.851" stroke="#1C5DAB" stroke-miterlimit="10"/>
<path d="M104 278.122L107.467 258.764" stroke="#1C5DAB" stroke-miterlimit="10"/>
<path d="M130.201 130.617L133.601 111.26" stroke="#1C5DAB" stroke-miterlimit="10"/>
<path d="M111.4 279.05L113.133 259.494" stroke="#1C5DAB" stroke-miterlimit="10"/>
<path d="M124.533 129.888L126.266 110.332" stroke="#1C5DAB" stroke-miterlimit="10"/>
<path d="M154.75 118.207V18.5M154.75 18.5L1 17M154.75 18.5H231" stroke="#1C5DAB"/>
<g filter="url(#filter0_d_640_1439)">
<circle cx="231" cy="18" r="5" fill="#1C5EAC"/>
</g>
<defs>
<filter id="filter0_d_640_1439" x="213" y="0" width="40" height="40" filterUnits="userSpaceOnUse" color-interpolation-filters="sRGB">
<feFlood flood-opacity="0" result="BackgroundImageFix"/>
<feColorMatrix in="SourceAlpha" type="matrix" values="0 0 0 0 0 0 0 0 0 0 0 0 0 0 0 0 0 0 127 0" result="hardAlpha"/>
<feOffset dx="2" dy="2"/>
<feGaussianBlur stdDeviation="7.5"/>
<feComposite in2="hardAlpha" operator="out"/>
<feColorMatrix type="matrix" values="0 0 0 0 0 0 0 0 0 0.615686 0 0 0 0 1 0 0 0 0.25 0"/>
<feBlend mode="normal" in2="BackgroundImageFix" result="effect1_dropShadow_640_1439"/>
<feBlend mode="normal" in="SourceGraphic" in2="effect1_dropShadow_640_1439" result="shape"/>
</filter>
</defs>
</svg>
