<svg width="282" height="304" viewBox="0 0 282 304" fill="none" xmlns="http://www.w3.org/2000/svg">
<path d="M151.789 135V18M151.789 18H0M151.789 18H263" stroke="#1C5DAB"/>
<path d="M137.539 254.673C161.941 254.673 181.722 234.892 181.722 210.49C181.722 186.089 161.941 166.307 137.539 166.307C113.138 166.307 93.3564 186.089 93.3564 210.49C93.3564 234.892 113.138 254.673 137.539 254.673Z" stroke="#0071BC" stroke-miterlimit="10"/>
<path d="M156.015 285.485C197.428 275.26 222.711 233.399 212.485 191.985C202.26 150.572 160.399 125.289 118.985 135.515C77.5721 145.74 52.2893 187.601 62.5146 229.015C72.74 270.428 114.601 295.711 156.015 285.485Z" stroke="#1C5DAB" stroke-width="3" stroke-miterlimit="10"/>
<g filter="url(#filter0_d_640_1440)">
<circle cx="260" cy="18" r="5" fill="#1C5EAC"/>
</g>
<defs>
<filter id="filter0_d_640_1440" x="242" y="0" width="40" height="40" filterUnits="userSpaceOnUse" color-interpolation-filters="sRGB">
<feFlood flood-opacity="0" result="BackgroundImageFix"/>
<feColorMatrix in="SourceAlpha" type="matrix" values="0 0 0 0 0 0 0 0 0 0 0 0 0 0 0 0 0 0 127 0" result="hardAlpha"/>
<feOffset dx="2" dy="2"/>
<feGaussianBlur stdDeviation="7.5"/>
<feComposite in2="hardAlpha" operator="out"/>
<feColorMatrix type="matrix" values="0 0 0 0 0 0 0 0 0 0.615686 0 0 0 0 1 0 0 0 0.25 0"/>
<feBlend mode="normal" in2="BackgroundImageFix" result="effect1_dropShadow_640_1440"/>
<feBlend mode="normal" in="SourceGraphic" in2="effect1_dropShadow_640_1440" result="shape"/>
</filter>
</defs>
</svg>
