<svg width="275" height="277" viewBox="0 0 275 277" fill="none" xmlns="http://www.w3.org/2000/svg">
<path d="M249.391 191.5C249.391 238.347 211.396 276.329 164.532 276.329" stroke="#1C5DAB" stroke-miterlimit="10"/>
<path d="M79.6089 191.5C79.6089 144.653 117.604 106.67 164.468 106.67" stroke="#1C5DAB" stroke-miterlimit="10"/>
<path d="M164.468 253.941C198.965 253.941 226.93 225.985 226.93 191.5C226.93 157.014 198.965 129.059 164.468 129.059C129.97 129.059 102.005 157.014 102.005 191.5C102.005 225.985 129.97 253.941 164.468 253.941Z" stroke="#1C5DAB" stroke-miterlimit="10"/>
<path d="M164.468 129.059V141.676" stroke="#1C5DAB" stroke-miterlimit="10"/>
<path d="M164.468 241.388V254.006" stroke="#1C5DAB" stroke-miterlimit="10"/>
<path d="M159.031 129.317L160.131 141.87" stroke="#1C5DAB" stroke-miterlimit="10"/>
<path d="M168.87 241.194L169.97 253.747" stroke="#1C5DAB" stroke-miterlimit="10"/>
<path d="M153.658 130.029L155.858 142.453" stroke="#1C5DAB" stroke-miterlimit="10"/>
<path d="M173.141 240.612L175.342 253.035" stroke="#1C5DAB" stroke-miterlimit="10"/>
<path d="M148.351 131.194L151.587 143.359" stroke="#1C5DAB" stroke-miterlimit="10"/>
<path d="M177.414 239.706L180.65 251.87" stroke="#1C5DAB" stroke-miterlimit="10"/>
<path d="M143.108 132.812L147.444 144.653" stroke="#1C5DAB" stroke-miterlimit="10"/>
<path d="M181.556 238.347L185.893 250.253" stroke="#1C5DAB" stroke-miterlimit="10"/>
<path d="M138.058 134.882L143.431 146.335" stroke="#1C5DAB" stroke-miterlimit="10"/>
<path d="M185.569 236.729L190.877 248.117" stroke="#1C5DAB" stroke-miterlimit="10"/>
<path d="M133.268 137.406L139.547 148.341" stroke="#1C5DAB" stroke-miterlimit="10"/>
<path d="M189.452 234.723L195.731 245.594" stroke="#1C5DAB" stroke-miterlimit="10"/>
<path d="M128.673 140.317L135.923 150.67" stroke="#1C5DAB" stroke-miterlimit="10"/>
<path d="M193.078 232.329L200.327 242.682" stroke="#1C5DAB" stroke-miterlimit="10"/>
<path d="M124.336 143.682L132.427 153.323" stroke="#1C5DAB" stroke-miterlimit="10"/>
<path d="M196.573 229.741L204.664 239.382" stroke="#1C5DAB" stroke-miterlimit="10"/>
<path d="M120.323 147.371L129.255 156.3" stroke="#1C5DAB" stroke-miterlimit="10"/>
<path d="M199.744 226.765L208.677 235.694" stroke="#1C5DAB" stroke-miterlimit="10"/>
<path d="M116.634 151.382L126.278 159.47" stroke="#1C5DAB" stroke-miterlimit="10"/>
<path d="M202.722 223.594L212.367 231.682" stroke="#1C5DAB" stroke-miterlimit="10"/>
<path d="M113.333 155.718L123.624 162.9" stroke="#1C5DAB" stroke-miterlimit="10"/>
<path d="M205.376 220.1L215.668 227.347" stroke="#1C5DAB" stroke-miterlimit="10"/>
<path d="M110.355 160.312L121.294 166.588" stroke="#1C5DAB" stroke-miterlimit="10"/>
<path d="M207.706 216.476L218.645 222.753" stroke="#1C5DAB" stroke-miterlimit="10"/>
<path d="M107.831 165.1L119.287 170.47" stroke="#1C5DAB" stroke-miterlimit="10"/>
<path d="M209.713 212.594L221.105 217.9" stroke="#1C5DAB" stroke-miterlimit="10"/>
<path d="M105.759 170.147L117.604 174.482" stroke="#1C5DAB" stroke-miterlimit="10"/>
<path d="M211.331 208.582L223.241 212.917" stroke="#1C5DAB" stroke-miterlimit="10"/>
<path d="M104.141 175.323L116.31 178.623" stroke="#1C5DAB" stroke-miterlimit="10"/>
<path d="M212.691 204.441L224.86 207.676" stroke="#1C5DAB" stroke-miterlimit="10"/>
<path d="M102.976 180.694L115.404 182.895" stroke="#1C5DAB" stroke-miterlimit="10"/>
<path d="M213.596 200.17L226.024 202.371" stroke="#1C5DAB" stroke-miterlimit="10"/>
<path d="M102.264 186.064L114.821 187.165" stroke="#1C5DAB" stroke-miterlimit="10"/>
<path d="M214.179 195.835L226.736 196.935" stroke="#1C5DAB" stroke-miterlimit="10"/>
<path d="M102.005 191.5H114.627" stroke="#1C5DAB" stroke-miterlimit="10"/>
<path d="M214.373 191.5H226.995" stroke="#1C5DAB" stroke-miterlimit="10"/>
<path d="M102.264 196.935L114.821 195.835" stroke="#1C5DAB" stroke-miterlimit="10"/>
<path d="M214.179 187.165L226.736 186.064" stroke="#1C5DAB" stroke-miterlimit="10"/>
<path d="M102.976 202.371L115.404 200.17" stroke="#1C5DAB" stroke-miterlimit="10"/>
<path d="M213.596 182.895L226.024 180.694" stroke="#1C5DAB" stroke-miterlimit="10"/>
<path d="M104.141 207.676L116.31 204.441" stroke="#1C5DAB" stroke-miterlimit="10"/>
<path d="M212.691 178.623L224.86 175.323" stroke="#1C5DAB" stroke-miterlimit="10"/>
<path d="M105.759 212.917L117.604 208.582" stroke="#1C5DAB" stroke-miterlimit="10"/>
<path d="M211.331 174.482L223.241 170.147" stroke="#1C5DAB" stroke-miterlimit="10"/>
<path d="M107.831 217.9L119.287 212.594" stroke="#1C5DAB" stroke-miterlimit="10"/>
<path d="M209.713 170.47L221.105 165.1" stroke="#1C5DAB" stroke-miterlimit="10"/>
<path d="M110.355 222.753L121.294 216.476" stroke="#1C5DAB" stroke-miterlimit="10"/>
<path d="M207.706 166.588L218.645 160.312" stroke="#1C5DAB" stroke-miterlimit="10"/>
<path d="M113.333 227.347L123.624 220.1" stroke="#1C5DAB" stroke-miterlimit="10"/>
<path d="M205.376 162.9L215.668 155.718" stroke="#1C5DAB" stroke-miterlimit="10"/>
<path d="M116.634 231.682L126.278 223.594" stroke="#1C5DAB" stroke-miterlimit="10"/>
<path d="M202.722 159.47L212.367 151.382" stroke="#1C5DAB" stroke-miterlimit="10"/>
<path d="M120.323 235.694L129.255 226.765" stroke="#1C5DAB" stroke-miterlimit="10"/>
<path d="M199.744 156.3L208.677 147.371" stroke="#1C5DAB" stroke-miterlimit="10"/>
<path d="M124.336 239.382L132.427 229.741" stroke="#1C5DAB" stroke-miterlimit="10"/>
<path d="M196.573 153.323L204.664 143.682" stroke="#1C5DAB" stroke-miterlimit="10"/>
<path d="M128.673 242.682L135.923 232.329" stroke="#1C5DAB" stroke-miterlimit="10"/>
<path d="M193.078 150.67L200.327 140.317" stroke="#1C5DAB" stroke-miterlimit="10"/>
<path d="M133.268 245.594L139.547 234.723" stroke="#1C5DAB" stroke-miterlimit="10"/>
<path d="M189.452 148.341L195.731 137.406" stroke="#1C5DAB" stroke-miterlimit="10"/>
<path d="M138.058 248.117L143.431 236.729" stroke="#1C5DAB" stroke-miterlimit="10"/>
<path d="M185.569 146.335L190.877 134.882" stroke="#1C5DAB" stroke-miterlimit="10"/>
<path d="M143.108 250.253L147.444 238.347" stroke="#1C5DAB" stroke-miterlimit="10"/>
<path d="M181.556 144.653L185.893 132.812" stroke="#1C5DAB" stroke-miterlimit="10"/>
<path d="M148.351 251.87L151.587 239.706" stroke="#1C5DAB" stroke-miterlimit="10"/>
<path d="M177.414 143.359L180.65 131.194" stroke="#1C5DAB" stroke-miterlimit="10"/>
<path d="M153.658 253.035L155.858 240.612" stroke="#1C5DAB" stroke-miterlimit="10"/>
<path d="M173.141 142.453L175.342 130.029" stroke="#1C5DAB" stroke-miterlimit="10"/>
<path d="M159.031 253.747L160.131 241.194" stroke="#1C5DAB" stroke-miterlimit="10"/>
<path d="M168.87 141.87L169.97 129.317" stroke="#1C5DAB" stroke-miterlimit="10"/>
<path d="M164.468 234.853C188.419 234.853 207.836 215.443 207.836 191.5C207.836 167.557 188.419 148.147 164.468 148.147C140.516 148.147 121.1 167.557 121.1 191.5C121.1 215.443 140.516 234.853 164.468 234.853Z" stroke="#009DFF" stroke-miterlimit="10"/>
<path d="M164 106.5V18M164 18H13.5M164 18H275" stroke="#1C5DAB"/>
<g filter="url(#filter0_d_640_1434)">
<circle cx="18" cy="18" r="5" fill="#1C5EAD"/>
</g>
<defs>
<filter id="filter0_d_640_1434" x="0" y="0" width="40" height="40" filterUnits="userSpaceOnUse" color-interpolation-filters="sRGB">
<feFlood flood-opacity="0" result="BackgroundImageFix"/>
<feColorMatrix in="SourceAlpha" type="matrix" values="0 0 0 0 0 0 0 0 0 0 0 0 0 0 0 0 0 0 127 0" result="hardAlpha"/>
<feOffset dx="2" dy="2"/>
<feGaussianBlur stdDeviation="7.5"/>
<feComposite in2="hardAlpha" operator="out"/>
<feColorMatrix type="matrix" values="0 0 0 0 0 0 0 0 0 0.615686 0 0 0 0 1 0 0 0 0.25 0"/>
<feBlend mode="normal" in2="BackgroundImageFix" result="effect1_dropShadow_640_1434"/>
<feBlend mode="normal" in="SourceGraphic" in2="effect1_dropShadow_640_1434" result="shape"/>
</filter>
</defs>
</svg>
