<svg width="230" height="283" viewBox="0 0 230 283" fill="none" xmlns="http://www.w3.org/2000/svg">
<path fill-rule="evenodd" clip-rule="evenodd" d="M80.3565 0.637692L80.3445 17.4962C93.2358 17.3247 106.428 19.3057 118.554 22.3133C137.172 26.9307 154.449 35.8696 168.995 48.4106C183.541 60.9516 194.95 76.7447 202.304 94.5193C209.658 112.294 212.751 131.554 211.336 150.749C209.92 169.945 204.035 188.54 194.154 205.04C184.272 221.539 170.671 235.482 154.443 245.746C138.215 256.01 119.815 262.309 100.722 264.136C81.6285 265.963 61.1754 262.678 43.312 255.676L31.6157 270.841C52.146 278.888 80.5097 284.513 102.453 282.413C124.397 280.314 145.545 273.074 164.195 261.278C182.845 249.481 198.477 233.457 209.834 214.495C221.19 195.532 227.954 174.161 229.581 152.099C231.208 130.038 227.653 107.903 219.201 87.4745C210.749 67.0463 197.637 48.8955 180.92 34.4822C164.202 20.0689 144.346 9.79556 122.948 4.48873C108.986 1.02601 94.6227 -0.259098 80.3565 0.637692Z" fill="#0071BC"/>
<path fill-rule="evenodd" clip-rule="evenodd" d="M3.66674 253.266L1.2635 251.293L12.8892 237.211L15.2322 239.134L3.66674 253.266Z" fill="#009DFF"/>
<path fill-rule="evenodd" clip-rule="evenodd" d="M28.1362 269.073L24.8119 267.333L37.0567 253.075L39.9473 254.472L28.1362 269.073Z" fill="#009DFF"/>
<path fill-rule="evenodd" clip-rule="evenodd" d="M9.89219 257.998L7.45478 256.219L19.0826 242.096L21.0576 243.522L9.89219 257.998Z" fill="#009DFF"/>
<path fill-rule="evenodd" clip-rule="evenodd" d="M15.7973 262.001L13.3862 260.425L25.012 246.211L26.9364 247.427L15.7973 262.001Z" fill="#009DFF"/>
<path fill-rule="evenodd" clip-rule="evenodd" d="M21.4271 265.432L18.8989 263.936L30.6116 249.625L32.6002 250.751L21.4271 265.432Z" fill="#009DFF"/>
</svg>
