<svg width="50" height="50" viewBox="0 0 50 50" fill="none" xmlns="http://www.w3.org/2000/svg">
<path d="M17.1875 4.6875V10.9375" stroke="url(#paint0_linear_999_2394)" stroke-width="3" stroke-linecap="round" stroke-linejoin="round"/>
<path d="M23.4375 4.6875V10.9375" stroke="url(#paint1_linear_999_2394)" stroke-width="3" stroke-linecap="round" stroke-linejoin="round"/>
<path d="M29.6875 4.6875V10.9375" stroke="url(#paint2_linear_999_2394)" stroke-width="3" stroke-linecap="round" stroke-linejoin="round"/>
<path d="M6.25 42.1875H40.625" stroke="url(#paint3_linear_999_2394)" stroke-width="3" stroke-linecap="round" stroke-linejoin="round"/>
<path d="M16.2695 42.1875C13.279 40.8153 10.7453 38.6136 8.96918 35.8438C7.19309 33.0741 6.24932 29.8528 6.25 26.5625V17.1875H40.625V26.5625C40.6257 29.8528 39.6819 33.0741 37.9058 35.8438C36.1297 38.6136 33.596 40.8153 30.6055 42.1875" stroke="url(#paint4_linear_999_2394)" stroke-width="3" stroke-linecap="round" stroke-linejoin="round"/>
<path d="M40.625 17.1875C42.2826 17.1875 43.8723 17.846 45.0444 19.0181C46.2165 20.1902 46.875 21.7799 46.875 23.4375V25C46.875 26.6576 46.2165 28.2473 45.0444 29.4194C43.8723 30.5915 42.2826 31.25 40.625 31.25H39.9609" stroke="url(#paint5_linear_999_2394)" stroke-width="3" stroke-linecap="round" stroke-linejoin="round"/>
<defs>
<linearGradient id="paint0_linear_999_2394" x1="17.1881" y1="5.40675" x2="18.9847" y2="5.61635" gradientUnits="userSpaceOnUse">
<stop stop-color="#07FFE1"/>
<stop offset="1" stop-color="#9DFF00"/>
</linearGradient>
<linearGradient id="paint1_linear_999_2394" x1="23.4381" y1="5.40675" x2="25.2347" y2="5.61635" gradientUnits="userSpaceOnUse">
<stop stop-color="#07FFE1"/>
<stop offset="1" stop-color="#9DFF00"/>
</linearGradient>
<linearGradient id="paint2_linear_999_2394" x1="29.6881" y1="5.40675" x2="31.4847" y2="5.61635" gradientUnits="userSpaceOnUse">
<stop stop-color="#07FFE1"/>
<stop offset="1" stop-color="#9DFF00"/>
</linearGradient>
<linearGradient id="paint3_linear_999_2394" x1="6.27189" y1="42.3026" x2="6.37137" y2="44.7961" gradientUnits="userSpaceOnUse">
<stop stop-color="#07FFE1"/>
<stop offset="1" stop-color="#9DFF00"/>
</linearGradient>
<linearGradient id="paint4_linear_999_2394" x1="6.27189" y1="20.0645" x2="37.49" y2="51.3639" gradientUnits="userSpaceOnUse">
<stop stop-color="#07FFE1"/>
<stop offset="1" stop-color="#9DFF00"/>
</linearGradient>
<linearGradient id="paint5_linear_999_2394" x1="39.9653" y1="18.8058" x2="51.1223" y2="22.8057" gradientUnits="userSpaceOnUse">
<stop stop-color="#07FFE1"/>
<stop offset="1" stop-color="#9DFF00"/>
</linearGradient>
</defs>
</svg>
