<svg width="50" height="50" viewBox="0 0 50 50" fill="none" xmlns="http://www.w3.org/2000/svg">
<path d="M26.1132 41.3866L41.9335 25.5663C45.8202 21.6601 46.3866 15.2733 42.7147 11.1913C41.7939 10.1626 40.6729 9.33248 39.4204 8.75163C38.1679 8.17077 36.8101 7.8514 35.43 7.81301C34.0498 7.77462 32.6764 8.01803 31.3935 8.52836C30.1106 9.0387 28.9453 9.80524 27.9687 10.7812L24.9999 13.7694L22.4413 11.1913C18.5351 7.30459 12.1483 6.73818 8.06631 10.4101C7.03762 11.3309 6.20748 12.4519 5.62663 13.7044C5.04577 14.9569 4.7264 16.3147 4.68801 17.6948C4.64962 19.075 4.89303 20.4484 5.40336 21.7313C5.9137 23.0142 6.68024 24.1795 7.65615 25.1562L23.8866 41.3866C24.1829 41.68 24.583 41.8446 24.9999 41.8446C25.4169 41.8446 25.8169 41.68 26.1132 41.3866V41.3866Z" stroke="url(#paint0_linear_997_2391)" stroke-width="3" stroke-linecap="round" stroke-linejoin="round"/>
<defs>
<linearGradient id="paint0_linear_997_2391" x1="4.70986" y1="11.7259" x2="46.7859" y2="48.2308" gradientUnits="userSpaceOnUse">
<stop stop-color="#07FFE1"/>
<stop offset="1" stop-color="#9DFF00"/>
</linearGradient>
</defs>
</svg>
