<svg width="50" height="50" viewBox="0 0 50 50" fill="none" xmlns="http://www.w3.org/2000/svg">
<path d="M18.3789 36.0547C16.1523 42.6758 7.32422 42.6758 7.32422 42.6758C7.32422 42.6758 7.32422 33.8477 13.9453 31.6211" stroke="black" stroke-width="3" stroke-linecap="round" stroke-linejoin="round"/>
<path d="M18.3789 36.0547C16.1523 42.6758 7.32422 42.6758 7.32422 42.6758C7.32422 42.6758 7.32422 33.8477 13.9453 31.6211" stroke="url(#paint0_linear_298_3018)" stroke-width="3" stroke-linecap="round" stroke-linejoin="round"/>
<path d="M38.2615 20.5862L24.9998 33.8479L16.1521 25.0002L29.4138 11.7385C34.4334 6.71898 39.4529 6.77757 41.6013 7.09007C41.9328 7.1343 42.2406 7.2864 42.4771 7.52289C42.7136 7.75939 42.8657 8.06714 42.9099 8.39866C43.2224 10.5471 43.281 15.5666 38.2615 20.5862Z" stroke="black" stroke-width="3" stroke-linecap="round" stroke-linejoin="round"/>
<path d="M38.2615 20.5862L24.9998 33.8479L16.1521 25.0002L29.4138 11.7385C34.4334 6.71898 39.4529 6.77757 41.6013 7.09007C41.9328 7.1343 42.2406 7.2864 42.4771 7.52289C42.7136 7.75939 42.8657 8.06714 42.9099 8.39866C43.2224 10.5471 43.281 15.5666 38.2615 20.5862Z" stroke="url(#paint1_linear_298_3018)" stroke-width="3" stroke-linecap="round" stroke-linejoin="round"/>
<path d="M36.0547 22.7927V35.4099C36.0488 35.8221 35.8803 36.2152 35.5859 36.5037L29.2773 42.8318C29.0772 43.0317 28.8265 43.1735 28.5521 43.2421C28.2777 43.3108 27.9897 43.3036 27.7191 43.2214C27.4484 43.1392 27.2051 42.985 27.0152 42.7754C26.8252 42.5657 26.6958 42.3085 26.6406 42.031L25 33.8474" stroke="black" stroke-width="3" stroke-linecap="round" stroke-linejoin="round"/>
<path d="M36.0547 22.7927V35.4099C36.0488 35.8221 35.8803 36.2152 35.5859 36.5037L29.2773 42.8318C29.0772 43.0317 28.8265 43.1735 28.5521 43.2421C28.2777 43.3108 27.9897 43.3036 27.7191 43.2214C27.4484 43.1392 27.2051 42.985 27.0152 42.7754C26.8252 42.5657 26.6958 42.3085 26.6406 42.031L25 33.8474" stroke="url(#paint2_linear_298_3018)" stroke-width="3" stroke-linecap="round" stroke-linejoin="round"/>
<path d="M27.207 13.9453H14.5898C14.1777 13.9512 13.7846 14.1197 13.4961 14.4141L7.16795 20.7227C6.96803 20.9228 6.8262 21.1735 6.75759 21.4479C6.68898 21.7223 6.69616 22.0103 6.77837 22.2809C6.86057 22.5516 7.01472 22.7949 7.22436 22.9848C7.434 23.1748 7.69127 23.3042 7.96873 23.3594L16.1523 25" stroke="black" stroke-width="3" stroke-linecap="round" stroke-linejoin="round"/>
<path d="M27.207 13.9453H14.5898C14.1777 13.9512 13.7846 14.1197 13.4961 14.4141L7.16795 20.7227C6.96803 20.9228 6.8262 21.1735 6.75759 21.4479C6.68898 21.7223 6.69616 22.0103 6.77837 22.2809C6.86057 22.5516 7.01472 22.7949 7.22436 22.9848C7.434 23.1748 7.69127 23.3042 7.96873 23.3594L16.1523 25" stroke="url(#paint3_linear_298_3018)" stroke-width="3" stroke-linecap="round" stroke-linejoin="round"/>
<defs>
<linearGradient id="paint0_linear_298_3018" x1="7.33126" y1="32.8933" x2="20.4745" y2="42.4769" gradientUnits="userSpaceOnUse">
<stop stop-color="#07FFE1"/>
<stop offset="1" stop-color="#9DFF00"/>
</linearGradient>
<linearGradient id="paint1_linear_298_3018" x1="16.1692" y1="10.0644" x2="48.1234" y2="33.3643" gradientUnits="userSpaceOnUse">
<stop stop-color="#07FFE1"/>
<stop offset="1" stop-color="#9DFF00"/>
</linearGradient>
<linearGradient id="paint2_linear_298_3018" x1="25.007" y1="25.1514" x2="42.4417" y2="32.0081" gradientUnits="userSpaceOnUse">
<stop stop-color="#07FFE1"/>
<stop offset="1" stop-color="#9DFF00"/>
</linearGradient>
<linearGradient id="paint3_linear_298_3018" x1="6.72399" y1="15.2175" x2="19.9237" y2="33.0624" gradientUnits="userSpaceOnUse">
<stop stop-color="#07FFE1"/>
<stop offset="1" stop-color="#9DFF00"/>
</linearGradient>
</defs>
</svg>
