<svg width="40" height="41" viewBox="0 0 40 41" fill="none" xmlns="http://www.w3.org/2000/svg">
<path d="M20.6875 30.2969L28.5625 35.2969C29.5781 35.9375 30.8281 34.9844 30.5312 33.8125L28.25 24.8438C28.1883 24.5952 28.1981 24.3342 28.2783 24.0909C28.3585 23.8477 28.5057 23.632 28.7031 23.4688L35.7656 17.5782C36.6875 16.8125 36.2187 15.2657 35.0156 15.1875L25.7969 14.5938C25.5453 14.5792 25.3035 14.4916 25.1009 14.3417C24.8984 14.1919 24.7439 13.9863 24.6562 13.75L21.2187 5.09379C21.1278 4.84364 20.962 4.62754 20.744 4.47484C20.5259 4.32214 20.2662 4.24023 20 4.24023C19.7338 4.24023 19.4741 4.32214 19.256 4.47484C19.038 4.62754 18.8722 4.84364 18.7812 5.09379L15.3437 13.75C15.2561 13.9863 15.1016 14.1919 14.899 14.3417C14.6965 14.4916 14.4547 14.5792 14.2031 14.5938L4.98437 15.1875C3.78124 15.2657 3.31249 16.8125 4.23437 17.5782L11.2969 23.4688C11.4943 23.632 11.6415 23.8477 11.7217 24.0909C11.8019 24.3342 11.8117 24.5952 11.75 24.8438L9.64062 33.1563C9.28124 34.5625 10.7812 35.7032 11.9844 34.9375L19.3125 30.2969C19.518 30.1662 19.7565 30.0968 20 30.0968C20.2435 30.0968 20.482 30.1662 20.6875 30.2969V30.2969Z" stroke="black" stroke-width="3.125" stroke-linecap="round" stroke-linejoin="round"/>
<path d="M20.6875 30.2969L28.5625 35.2969C29.5781 35.9375 30.8281 34.9844 30.5312 33.8125L28.25 24.8438C28.1883 24.5952 28.1981 24.3342 28.2783 24.0909C28.3585 23.8477 28.5057 23.632 28.7031 23.4688L35.7656 17.5782C36.6875 16.8125 36.2187 15.2657 35.0156 15.1875L25.7969 14.5938C25.5453 14.5792 25.3035 14.4916 25.1009 14.3417C24.8984 14.1919 24.7439 13.9863 24.6562 13.75L21.2187 5.09379C21.1278 4.84364 20.962 4.62754 20.744 4.47484C20.5259 4.32214 20.2662 4.24023 20 4.24023C19.7338 4.24023 19.4741 4.32214 19.256 4.47484C19.038 4.62754 18.8722 4.84364 18.7812 5.09379L15.3437 13.75C15.2561 13.9863 15.1016 14.1919 14.899 14.3417C14.6965 14.4916 14.4547 14.5792 14.2031 14.5938L4.98437 15.1875C3.78124 15.2657 3.31249 16.8125 4.23437 17.5782L11.2969 23.4688C11.4943 23.632 11.6415 23.8477 11.7217 24.0909C11.8019 24.3342 11.8117 24.5952 11.75 24.8438L9.64062 33.1563C9.28124 34.5625 10.7812 35.7032 11.9844 34.9375L19.3125 30.2969C19.518 30.1662 19.7565 30.0968 20 30.0968C20.2435 30.0968 20.482 30.1662 20.6875 30.2969V30.2969Z" stroke="url(#paint0_linear_298_3007)" stroke-width="3.125" stroke-linecap="round" stroke-linejoin="round"/>
<defs>
<linearGradient id="paint0_linear_298_3007" x1="3.76947" y1="7.83793" x2="41.3572" y2="36.3325" gradientUnits="userSpaceOnUse">
<stop stop-color="#07FFE1"/>
<stop offset="1" stop-color="#9DFF00"/>
</linearGradient>
</defs>
</svg>
