<svg width="50" height="50" viewBox="0 0 50 50" fill="none" xmlns="http://www.w3.org/2000/svg">
<path d="M25.8594 37.2461L35.7032 43.4961C36.9727 44.2969 38.5352 43.1055 38.1641 41.6407L35.3126 30.4297C35.2354 30.119 35.2477 29.7928 35.3479 29.4887C35.4481 29.1846 35.6322 28.915 35.879 28.711L44.7071 21.3477C45.8594 20.3907 45.2735 18.4571 43.7696 18.3594L32.2461 17.6172C31.9317 17.5989 31.6294 17.4895 31.3762 17.3022C31.123 17.1149 30.9299 16.8578 30.8204 16.5625L26.5235 5.74224C26.4097 5.42955 26.2025 5.15943 25.93 4.96855C25.6575 4.77768 25.3328 4.67529 25.0001 4.67529C24.6673 4.67529 24.3426 4.77768 24.0701 4.96855C23.7976 5.15943 23.5904 5.42955 23.4766 5.74224L19.1797 16.5625C19.0702 16.8578 18.8771 17.1149 18.6239 17.3022C18.3707 17.4895 18.0684 17.5989 17.754 17.6172L6.23052 18.3594C4.72662 18.4571 4.14068 20.3907 5.29302 21.3477L14.1211 28.711C14.3679 28.915 14.552 29.1846 14.6522 29.4887C14.7524 29.7928 14.7647 30.119 14.6876 30.4297L12.0508 40.8204C11.6016 42.5782 13.4766 44.004 14.9805 43.0469L24.1407 37.2461C24.3975 37.0828 24.6956 36.9961 25.0001 36.9961C25.3045 36.9961 25.6026 37.0828 25.8594 37.2461V37.2461Z" stroke="black" stroke-width="3" stroke-linecap="round" stroke-linejoin="round"/>
<path d="M25.8594 37.2461L35.7032 43.4961C36.9727 44.2969 38.5352 43.1055 38.1641 41.6407L35.3126 30.4297C35.2354 30.119 35.2477 29.7928 35.3479 29.4887C35.4481 29.1846 35.6322 28.915 35.879 28.711L44.7071 21.3477C45.8594 20.3907 45.2735 18.4571 43.7696 18.3594L32.2461 17.6172C31.9317 17.5989 31.6294 17.4895 31.3762 17.3022C31.123 17.1149 30.9299 16.8578 30.8204 16.5625L26.5235 5.74224C26.4097 5.42955 26.2025 5.15943 25.93 4.96855C25.6575 4.77768 25.3328 4.67529 25.0001 4.67529C24.6673 4.67529 24.3426 4.77768 24.0701 4.96855C23.7976 5.15943 23.5904 5.42955 23.4766 5.74224L19.1797 16.5625C19.0702 16.8578 18.8771 17.1149 18.6239 17.3022C18.3707 17.4895 18.0684 17.5989 17.754 17.6172L6.23052 18.3594C4.72662 18.4571 4.14068 20.3907 5.29302 21.3477L14.1211 28.711C14.3679 28.915 14.552 29.1846 14.6522 29.4887C14.7524 29.7928 14.7647 30.119 14.6876 30.4297L12.0508 40.8204C11.6016 42.5782 13.4766 44.004 14.9805 43.0469L24.1407 37.2461C24.3975 37.0828 24.6956 36.9961 25.0001 36.9961C25.3045 36.9961 25.6026 37.0828 25.8594 37.2461V37.2461Z" stroke="url(#paint0_linear_298_3007)" stroke-width="3" stroke-linecap="round" stroke-linejoin="round"/>
<defs>
<linearGradient id="paint0_linear_298_3007" x1="4.7119" y1="9.17241" x2="51.6966" y2="44.7906" gradientUnits="userSpaceOnUse">
<stop stop-color="#07FFE1"/>
<stop offset="1" stop-color="#9DFF00"/>
</linearGradient>
</defs>
</svg>
