<svg width="64" height="64" viewBox="0 0 64 64" fill="none" xmlns="http://www.w3.org/2000/svg">
<path d="M28.09 17.467C28.3661 17.467 28.59 17.2432 28.59 16.967C28.59 16.6909 28.3661 16.467 28.09 16.467C27.8139 16.467 27.59 16.6909 27.59 16.967C27.59 17.2432 27.8139 17.467 28.09 17.467Z" fill="#0071BC"/>
<path d="M35.09 17.467C35.3661 17.467 35.59 17.2432 35.59 16.967C35.59 16.6909 35.3661 16.467 35.09 16.467C34.8139 16.467 34.59 16.6909 34.59 16.967C34.59 17.2432 34.8139 17.467 35.09 17.467Z" fill="#0071BC"/>
<path d="M33.1052 37.6381C33.0799 37.5137 33.0083 37.4035 32.9049 37.3297C32.8016 37.256 32.6741 37.2241 32.5482 37.2406C32.4223 37.2571 32.3073 37.3207 32.2264 37.4186C32.1455 37.5164 32.1047 37.6413 32.1122 37.7681L32.3422 39.5271L30.5022 41.3671L30.9722 37.7681C30.9895 37.6364 30.9537 37.5033 30.8728 37.398C30.7919 37.2927 30.6724 37.2238 30.5407 37.2066C30.4091 37.1893 30.2759 37.2251 30.1706 37.306C30.0653 37.387 29.9965 37.5064 29.9792 37.6381L28.0452 52.4441C28.0285 52.5736 28.063 52.7045 28.1412 52.8091L31.1412 56.8091C31.1879 56.871 31.2484 56.9212 31.3178 56.9558C31.3872 56.9904 31.4637 57.0084 31.5412 57.0084C31.6188 57.0084 31.6953 56.9904 31.7647 56.9558C31.8341 56.9212 31.8945 56.871 31.9412 56.8091L34.9412 52.8091C35.0192 52.7044 35.0536 52.5736 35.0372 52.4441L33.1052 37.6381ZM30.2912 42.9931L32.5062 40.7781L32.7402 42.5681L29.9872 45.3211L30.2912 42.9931ZM29.7782 46.9231C29.7982 46.9081 29.8222 46.9001 29.8402 46.8821L32.9042 43.8181L33.1112 45.4051L29.5052 49.0101L29.7782 46.9231ZM29.0662 52.3721L29.2942 50.6261C29.3032 50.6181 29.3152 50.6151 29.3242 50.6061L33.2742 46.6561L33.4852 48.2691C33.4422 48.2921 33.3992 48.3141 33.3632 48.3501L29.1842 52.5301L29.0662 52.3721ZM29.7902 53.3371L33.6442 49.4831L33.8072 50.7311L30.4622 54.2331L29.7902 53.3371ZM31.5432 55.6761L31.0692 55.0431L33.9732 52.0031L34.0212 52.3721L31.5432 55.6761ZM31.5912 21.9691C32.4182 21.9691 33.0912 21.2961 33.0912 20.4691C33.0912 20.3365 33.0386 20.2093 32.9448 20.1155C32.851 20.0218 32.7238 19.9691 32.5912 19.9691C32.4586 19.9691 32.3315 20.0218 32.2377 20.1155C32.1439 20.2093 32.0912 20.3365 32.0912 20.4691C32.0912 20.6017 32.0386 20.7289 31.9448 20.8226C31.851 20.9164 31.7238 20.9691 31.5912 20.9691C31.4586 20.9691 31.3315 20.9164 31.2377 20.8226C31.1439 20.7289 31.0912 20.6017 31.0912 20.4691C31.0912 20.3365 31.0386 20.2093 30.9448 20.1155C30.851 20.0218 30.7238 19.9691 30.5912 19.9691C30.4586 19.9691 30.3315 20.0218 30.2377 20.1155C30.1439 20.2093 30.0912 20.3365 30.0912 20.4691C30.0912 21.2961 30.7642 21.9691 31.5912 21.9691ZM31.0832 26.9691H32.0832C32.2158 26.9691 32.343 26.9164 32.4368 26.8226C32.5306 26.7289 32.5832 26.6017 32.5832 26.4691C32.5832 26.3365 32.5306 26.2093 32.4368 26.1155C32.343 26.0218 32.2158 25.9691 32.0832 25.9691H31.0832C30.9506 25.9691 30.8234 26.0218 30.7297 26.1155C30.6359 26.2093 30.5832 26.3365 30.5832 26.4691C30.5832 26.6017 30.6359 26.7289 30.7297 26.8226C30.8234 26.9164 30.9506 26.9691 31.0832 26.9691ZM34.9112 23.8541C34.9618 23.8121 35.0036 23.7606 35.0343 23.7025C35.0649 23.6444 35.0838 23.5808 35.0899 23.5154C35.096 23.45 35.0891 23.384 35.0697 23.3212C35.0503 23.2585 35.0187 23.2001 34.9767 23.1496C34.9348 23.099 34.8833 23.0572 34.8252 23.0266C34.7671 22.9959 34.7035 22.977 34.6381 22.9709C34.5726 22.9648 34.5067 22.9717 34.4439 22.9911C34.3811 23.0105 34.3228 23.0421 34.2722 23.0841C32.9032 24.2211 30.2742 24.2191 28.9122 23.0841C28.81 22.9997 28.6786 22.9591 28.5466 22.9711C28.4146 22.9831 28.2926 23.0467 28.2072 23.1481C28.1229 23.2502 28.0823 23.3814 28.0943 23.5133C28.1063 23.6451 28.1699 23.7669 28.2712 23.8521C29.1432 24.5781 30.3222 24.9771 31.5912 24.9771C32.8592 24.9781 34.0392 24.5791 34.9112 23.8541Z" fill="url(#paint0_linear_717_1877)"/>
<path d="M39.499 34.031H37.719L35.442 31.754C35.3832 31.6992 35.312 31.6593 35.2346 31.6378C35.1572 31.6162 35.0757 31.6135 34.997 31.63V29.565C37.954 28.559 40.091 25.761 40.091 22.468V20.968H40.57C41.397 20.968 42.07 20.295 42.07 19.468V16.468C42.07 15.641 41.397 14.968 40.57 14.968H40.091V13.876C40.672 13.669 41.091 13.119 41.091 12.468V9.46799C41.091 8.08999 39.97 6.96799 38.591 6.96799H27.591C26.764 6.96799 26.091 6.29499 26.091 5.46799C26.091 5.33538 26.0383 5.2082 25.9446 5.11443C25.8508 5.02067 25.7236 4.96799 25.591 4.96799C23.661 4.96799 22.091 6.53799 22.091 8.46799V12.468C22.091 13.119 22.51 13.669 23.091 13.876V14.968H22.591C21.764 14.968 21.091 15.641 21.091 16.468V19.468C21.091 20.295 21.764 20.968 22.591 20.968H23.091V22.468C23.091 25.691 25.138 28.437 27.997 29.496V31.7C27.8881 31.711 27.786 31.7582 27.707 31.834L25.491 34.05C25.459 34.044 25.43 34.031 25.396 34.031H23.5C17.71 34.031 13 38.741 13 44.531V58.531C13 58.6636 13.0527 58.7908 13.1464 58.8845C13.2402 58.9783 13.3674 59.031 13.5 59.031H49.5C49.6326 59.031 49.7598 58.9783 49.8536 58.8845C49.9473 58.7908 50 58.6636 50 58.531V44.531C49.999 38.742 45.289 34.031 39.499 34.031ZM23.091 19.969H22.591C22.4584 19.969 22.3312 19.9163 22.2374 19.8225C22.1437 19.7288 22.091 19.6016 22.091 19.469V16.469C22.091 16.3364 22.1437 16.2092 22.2374 16.1154C22.3312 16.0217 22.4584 15.969 22.591 15.969H23.091V19.969ZM35.089 32.815L36.753 34.479L33.904 37.327L33.428 36.851C33.416 36.836 33.41 36.817 33.396 36.803L32.249 35.656L34.849 33.056L34.853 33.052L35.089 32.815ZM32.328 37.164L31.543 37.949L30.75 37.156L31.535 36.371L32.328 37.164ZM28.99 32.41C28.991 32.397 28.997 32.387 28.997 32.374V29.794C29.5206 29.9089 30.055 29.9673 30.591 29.968H32.591C33.072 29.968 33.541 29.918 33.997 29.831V32.492L31.535 34.954L28.99 32.41ZM39.091 14.969H36.403C36.366 14.969 36.333 14.982 36.299 14.99C36.23 14.983 36.162 14.969 36.091 14.969H34.091C33.287 14.969 32.596 15.449 32.279 16.136C32.0693 16.0222 31.8355 15.9602 31.597 15.955C31.349 15.955 31.121 16.034 30.909 16.146C30.751 15.7962 30.4956 15.4993 30.1734 15.2908C29.8512 15.0823 29.4758 14.9709 29.092 14.97H27.092L27.078 14.971L27.071 14.97H24.092V13.97H39.092V14.969H39.091ZM37.091 16.969C37.091 17.52 36.643 17.969 36.091 17.969H34.091C33.8335 17.9575 33.5904 17.8471 33.4123 17.6608C33.2341 17.4745 33.1347 17.2267 33.1347 16.969C33.1347 16.7112 33.2341 16.4634 33.4123 16.2772C33.5904 16.0909 33.8335 15.9805 34.091 15.969H36.091C36.3562 15.969 36.6106 16.0743 36.7981 16.2619C36.9856 16.4494 37.091 16.7038 37.091 16.969ZM30.091 16.969C30.091 17.52 29.643 17.969 29.091 17.969H27.091C26.8335 17.9575 26.5904 17.8471 26.4123 17.6608C26.2341 17.4745 26.1347 17.2267 26.1347 16.969C26.1347 16.7112 26.2341 16.4634 26.4123 16.2772C26.5904 16.0909 26.8335 15.9805 27.091 15.969H29.091C29.3562 15.969 29.6106 16.0743 29.7981 16.2619C29.9856 16.4494 30.091 16.7038 30.091 16.969ZM40.57 15.969C40.7026 15.969 40.8298 16.0217 40.9236 16.1154C41.0173 16.2092 41.07 16.3364 41.07 16.469V19.469C41.07 19.6016 41.0173 19.7288 40.9236 19.8225C40.8298 19.9163 40.7026 19.969 40.57 19.969H40.091V15.969H40.57ZM23.091 12.469V8.46899C23.091 7.24099 23.981 6.21699 25.15 6.00799C25.2734 6.56362 25.5825 7.06061 26.0262 7.41708C26.4699 7.77355 27.0218 7.96821 27.591 7.96899H38.591C39.418 7.96899 40.091 8.64199 40.091 9.46899V12.469C40.091 12.6016 40.0383 12.7288 39.9446 12.8225C39.8508 12.9163 39.7236 12.969 39.591 12.969H23.591C23.4584 12.969 23.3312 12.9163 23.2374 12.8225C23.1437 12.7288 23.091 12.6016 23.091 12.469ZM24.091 22.469V15.969H25.369C25.189 16.2716 25.093 16.6168 25.091 16.969C25.091 18.072 25.988 18.969 27.091 18.969H29.091C30.013 18.969 30.785 18.338 31.015 17.487C31.027 17.461 31.045 17.44 31.052 17.412C31.191 16.901 31.89 16.756 32.143 17.417C32.144 17.42 32.148 17.422 32.148 17.425C32.2509 17.8635 32.4986 18.2544 32.8512 18.5346C33.2038 18.8148 33.6406 18.9678 34.091 18.969H36.091C37.194 18.969 38.091 18.072 38.091 16.969C38.091 16.603 37.985 16.264 37.813 15.969H39.091V22.469C39.091 26.053 36.175 28.969 32.591 28.969H30.591C28.8677 28.9669 27.2157 28.2814 25.9971 27.0628C24.7786 25.8443 24.0931 24.1922 24.091 22.469ZM28.061 32.895L30.83 35.663L29.166 37.327L26.397 34.559L28.061 32.895ZM48.999 58.031H41.99C41.991 58.015 41.999 58.002 41.999 57.986V43.531C41.999 43.3984 41.9463 43.2712 41.8526 43.1774C41.7588 43.0837 41.6316 43.031 41.499 43.031C41.3664 43.031 41.2392 43.0837 41.1454 43.1774C41.0517 43.2712 40.999 43.3984 40.999 43.531V50.7585V57.986C40.999 58.002 41.007 58.015 41.008 58.031H20.99C20.991 58.015 20.999 58.002 20.999 57.986V43.531C20.999 43.3984 20.9463 43.2712 20.8526 43.1774C20.7588 43.0837 20.6316 43.031 20.499 43.031C20.3664 43.031 20.2392 43.0837 20.1454 43.1774C20.0517 43.2712 19.999 43.3984 19.999 43.531V57.986C19.999 58.002 20.007 58.015 20.008 58.031H13.999V44.531C13.999 39.293 18.261 35.031 23.499 35.031H25.395C25.413 35.031 25.427 35.023 25.445 35.021L28.811 38.387C28.8573 38.4338 28.9124 38.471 28.9732 38.4963C29.034 38.5217 29.0992 38.5347 29.165 38.5347C29.2308 38.5347 29.296 38.5217 29.3568 38.4963C29.4176 38.471 29.4727 38.4338 29.519 38.387L30.043 37.863L31.19 39.01C31.2363 39.0568 31.2914 39.0939 31.3522 39.1193C31.413 39.1447 31.4782 39.1577 31.544 39.1577C31.6098 39.1577 31.675 39.1447 31.7358 39.1193C31.7966 39.0939 31.8517 39.0568 31.898 39.01L33.036 37.872L33.552 38.388C33.5983 38.4348 33.6534 38.472 33.7142 38.4973C33.775 38.5227 33.8402 38.5357 33.906 38.5357C33.9718 38.5357 34.037 38.5227 34.0978 38.4973C34.1586 38.472 34.2137 38.4348 34.26 38.388L37.617 35.032H39.501C44.739 35.032 49.001 39.294 49.001 44.532V58.031H48.999Z" fill="url(#paint1_linear_717_1877)"/>
<defs>
<linearGradient id="paint0_linear_717_1877" x1="28.0456" y1="24.2315" x2="40.6431" y2="25.9802" gradientUnits="userSpaceOnUse">
<stop stop-color="#07FFE1"/>
<stop offset="1" stop-color="#9DFF00"/>
</linearGradient>
<linearGradient id="paint1_linear_717_1877" x1="13.0236" y1="11.1895" x2="66.9687" y2="38.1099" gradientUnits="userSpaceOnUse">
<stop stop-color="#07FFE1"/>
<stop offset="1" stop-color="#9DFF00"/>
</linearGradient>
</defs>
</svg>
