<svg width="64" height="64" viewBox="0 0 64 64" fill="none" xmlns="http://www.w3.org/2000/svg">
<path d="M18 47.5H3C2.86739 47.5 2.74021 47.4473 2.64645 47.3536C2.55268 47.2598 2.5 47.1326 2.5 47C2.5 46.8674 2.55268 46.7402 2.64645 46.6464C2.74021 46.5527 2.86739 46.5 3 46.5H18C18.1326 46.5 18.2598 46.5527 18.3536 46.6464C18.4473 46.7402 18.5 46.8674 18.5 47C18.5 47.1326 18.4473 47.2598 18.3536 47.3536C18.2598 47.4473 18.1326 47.5 18 47.5ZM53.979 48.5H45C44.8674 48.5 44.7402 48.4473 44.6464 48.3536C44.5527 48.2598 44.5 48.1326 44.5 48C44.5 47.8674 44.5527 47.7402 44.6464 47.6464C44.7402 47.5527 44.8674 47.5 45 47.5H53.979C54.1116 47.5 54.2388 47.5527 54.3326 47.6464C54.4263 47.7402 54.479 47.8674 54.479 48C54.479 48.1326 54.4263 48.2598 54.3326 48.3536C54.2388 48.4473 54.1116 48.5 53.979 48.5ZM53.479 38.5H45C44.8674 38.5 44.7402 38.4473 44.6464 38.3536C44.5527 38.2598 44.5 38.1326 44.5 38C44.5 37.8674 44.5527 37.7402 44.6464 37.6464C44.7402 37.5527 44.8674 37.5 45 37.5H53.479C53.6116 37.5 53.7388 37.5527 53.8326 37.6464C53.9263 37.7402 53.979 37.8674 53.979 38C53.979 38.1326 53.9263 38.2598 53.8326 38.3536C53.7388 38.4473 53.6116 38.5 53.479 38.5ZM42 51.5H21C20.8674 51.5 20.7402 51.4473 20.6464 51.3536C20.5527 51.2598 20.5 51.1326 20.5 51C20.5 50.8674 20.5527 50.7402 20.6464 50.6464C20.7402 50.5527 20.8674 50.5 21 50.5H42C42.1326 50.5 42.2598 50.5527 42.3536 50.6464C42.4473 50.7402 42.5 50.8674 42.5 51C42.5 51.1326 42.4473 51.2598 42.3536 51.3536C42.2598 51.4473 42.1326 51.5 42 51.5Z" fill="url(#paint0_linear_364_2024)"/>
<path d="M36 51.5H27C26.8674 51.5 26.7402 51.4473 26.6464 51.3536C26.5527 51.2598 26.5 51.1326 26.5 51V45C26.5 44.8674 26.5527 44.7402 26.6464 44.6464C26.7402 44.5527 26.8674 44.5 27 44.5H36C36.1326 44.5 36.2598 44.5527 36.3536 44.6464C36.4473 44.7402 36.5 44.8674 36.5 45V51C36.5 51.1326 36.4473 51.2598 36.3536 51.3536C36.2598 51.4473 36.1326 51.5 36 51.5ZM27.5 50.5H35.5V45.5H27.5V50.5Z" fill="url(#paint1_linear_364_2024)"/>
<path d="M29.0004 34.5003C28.8677 34.5003 28.7406 34.4476 28.6468 34.3539C28.553 34.2601 28.5004 34.1329 28.5004 34.0003V27.0003C28.5004 26.9089 28.5256 26.8192 28.5731 26.741C28.6206 26.6629 28.6886 26.5992 28.7698 26.5571C28.8509 26.5149 28.9421 26.4958 29.0334 26.5018C29.1246 26.5079 29.2125 26.5388 29.2874 26.5913L34.2874 30.0913C34.3534 30.1374 34.4073 30.1987 34.4445 30.2701C34.4817 30.3415 34.5012 30.4208 34.5012 30.5013C34.5012 30.5818 34.4817 30.6611 34.4445 30.7325C34.4073 30.8039 34.3534 30.8652 34.2874 30.9113L29.2874 34.4113C29.2029 34.4694 29.1028 34.5004 29.0004 34.5003ZM29.5004 27.9603V33.0403L33.1284 30.5003L29.5004 27.9603ZM47.0514 21.5003C46.9188 21.5003 46.7916 21.4476 46.6978 21.3539C46.604 21.2601 46.5514 21.1329 46.5514 21.0003V17.0003C46.5514 16.9088 46.5766 16.8192 46.6241 16.741C46.6716 16.6629 46.7396 16.5992 46.8208 16.5571C46.9019 16.5149 46.9931 16.4958 47.0844 16.5018C47.1756 16.5079 47.2635 16.5388 47.3384 16.5913L50.1954 18.5913C50.2614 18.6374 50.3153 18.6987 50.3525 18.7701C50.3897 18.8415 50.4092 18.9208 50.4092 19.0013C50.4092 19.0818 50.3897 19.1611 50.3525 19.2325C50.3153 19.3039 50.2614 19.3652 50.1954 19.4113L47.3384 21.4113C47.2538 21.4692 47.1538 21.5002 47.0514 21.5003ZM47.5514 17.9603V20.0393L49.0364 19.0003L47.5514 17.9603ZM8.71436 42.5003C8.58175 42.5003 8.45457 42.4476 8.3608 42.3539C8.26703 42.2601 8.21436 42.1329 8.21436 42.0003V37.0003C8.21443 36.9089 8.23959 36.8192 8.2871 36.741C8.3346 36.6629 8.40263 36.5992 8.48379 36.5571C8.56494 36.5149 8.6561 36.4958 8.74736 36.5018C8.83861 36.5079 8.92647 36.5388 9.00136 36.5913L12.5724 39.0913C12.6386 39.137 12.6927 39.1981 12.7301 39.2694C12.7675 39.3406 12.787 39.4199 12.787 39.5003C12.787 39.5808 12.7675 39.66 12.7301 39.7313C12.6927 39.8025 12.6386 39.8636 12.5724 39.9093L9.00136 42.4093C8.91755 42.4689 8.81718 42.5007 8.71436 42.5003ZM9.21436 37.9603V41.0403L11.4134 39.5003L9.21436 37.9603ZM48.6364 43.5203V41.4803C48.6364 41.4346 48.6489 41.3898 48.6726 41.3507C48.6963 41.3117 48.7302 41.2799 48.7707 41.2587C48.8112 41.2376 48.8568 41.228 48.9024 41.2309C48.948 41.2338 48.9919 41.2492 49.0294 41.2753L50.4864 42.2953C50.5194 42.3183 50.5463 42.349 50.5649 42.3847C50.5835 42.4204 50.5933 42.4601 50.5933 42.5003C50.5933 42.5406 50.5835 42.5802 50.5649 42.6159C50.5463 42.6516 50.5194 42.6823 50.4864 42.7053L49.0294 43.7253C48.9919 43.7514 48.948 43.7668 48.9024 43.7697C48.8568 43.7727 48.8112 43.763 48.7707 43.7419C48.7302 43.7208 48.6963 43.6889 48.6726 43.6499C48.6489 43.6108 48.6364 43.566 48.6364 43.5203Z" fill="#0071BC"/>
<path d="M53 51.5H46C45.173 51.5 44.5 50.827 44.5 50V36C44.5 35.173 45.173 34.5 46 34.5H53C53.827 34.5 54.5 35.173 54.5 36V50C54.5 50.827 53.827 51.5 53 51.5ZM46 35.5C45.8674 35.5 45.7402 35.5527 45.6464 35.6464C45.5527 35.7402 45.5 35.8674 45.5 36V50C45.5 50.1326 45.5527 50.2598 45.6464 50.3536C45.7402 50.4473 45.8674 50.5 46 50.5H53C53.1326 50.5 53.2598 50.4473 53.3536 50.3536C53.4473 50.2598 53.5 50.1326 53.5 50V36C53.5 35.8674 53.4473 35.7402 53.3536 35.6464C53.2598 35.5527 53.1326 35.5 53 35.5H46ZM17 51.5H4C3.173 51.5 2.5 50.827 2.5 50V32C2.5 31.173 3.173 30.5 4 30.5H17C17.827 30.5 18.5 31.173 18.5 32V50C18.5 50.827 17.827 51.5 17 51.5ZM4 31.5C3.86739 31.5 3.74021 31.5527 3.64645 31.6464C3.55268 31.7402 3.5 31.8674 3.5 32V50C3.5 50.1326 3.55268 50.2598 3.64645 50.3536C3.74021 50.4473 3.86739 50.5 4 50.5H17C17.1326 50.5 17.2598 50.4473 17.3536 50.3536C17.4473 50.2598 17.5 50.1326 17.5 50V32C17.5 31.8674 17.4473 31.7402 17.3536 31.6464C17.2598 31.5527 17.1326 31.5 17 31.5H4Z" fill="url(#paint2_linear_364_2024)"/>
<path d="M10.5 49.469C10.7761 49.469 11 49.2451 11 48.969C11 48.6929 10.7761 48.469 10.5 48.469C10.2239 48.469 10 48.6929 10 48.969C10 49.2451 10.2239 49.469 10.5 49.469Z" fill="url(#paint3_linear_364_2024)"/>
<path d="M31.5 43.5C32.0523 43.5 32.5 43.0523 32.5 42.5C32.5 41.9477 32.0523 41.5 31.5 41.5C30.9477 41.5 30.5 41.9477 30.5 42.5C30.5 43.0523 30.9477 43.5 31.5 43.5Z" fill="url(#paint4_linear_364_2024)"/>
<path d="M49.5 50C49.7761 50 50 49.7761 50 49.5C50 49.2239 49.7761 49 49.5 49C49.2239 49 49 49.2239 49 49.5C49 49.7761 49.2239 50 49.5 50Z" fill="url(#paint5_linear_364_2024)"/>
<path d="M38 24.5H16C15.8674 24.5 15.7402 24.4473 15.6464 24.3536C15.5527 24.2598 15.5 24.1326 15.5 24C15.5 23.8674 15.5527 23.7402 15.6464 23.6464C15.7402 23.5527 15.8674 23.5 16 23.5H38C38.1326 23.5 38.2598 23.5527 38.3536 23.6464C38.4473 23.7402 38.5 23.8674 38.5 24C38.5 24.1326 38.4473 24.2598 38.3536 24.3536C38.2598 24.4473 38.1326 24.5 38 24.5Z" fill="url(#paint6_linear_364_2024)"/>
<path d="M57.7929 13.7069C57.694 13.7069 57.5975 13.6776 57.5153 13.6227C57.4331 13.5678 57.369 13.4898 57.3312 13.3986C57.2933 13.3073 57.2833 13.2069 57.3025 13.1099C57.3216 13.013 57.3691 12.9239 57.4389 12.8539L58.8529 11.4399C58.9472 11.3488 59.0735 11.2984 59.2046 11.2996C59.3357 11.3007 59.4611 11.3533 59.5538 11.446C59.6465 11.5387 59.6991 11.6641 59.7002 11.7952C59.7013 11.9263 59.6509 12.0526 59.5599 12.1469L58.1459 13.5609C58.0995 13.6073 58.0445 13.6441 57.9839 13.6691C57.9233 13.6942 57.8584 13.707 57.7929 13.7069Z" fill="url(#paint7_linear_364_2024)"/>
<path d="M59.2072 13.7069C59.0745 13.7069 58.9473 13.6544 58.8532 13.5609L57.4392 12.1469C57.3481 12.0526 57.2977 11.9263 57.2988 11.7952C57.3 11.6641 57.3526 11.5387 57.4453 11.446C57.538 11.3533 57.6634 11.3007 57.7945 11.2996C57.9256 11.2984 58.0519 11.3488 58.1462 11.4399L59.5602 12.8539C59.6299 12.9238 59.6773 13.0128 59.6965 13.1097C59.7157 13.2065 59.7058 13.3069 59.6681 13.3981C59.6303 13.4893 59.5664 13.5673 59.4844 13.6223C59.4024 13.6773 59.3059 13.7067 59.2072 13.7069Z" fill="url(#paint8_linear_364_2024)"/>
<path d="M58.5 15.5C56.846 15.5 55.5 14.154 55.5 12.5C55.5 10.846 56.846 9.5 58.5 9.5C60.154 9.5 61.5 10.846 61.5 12.5C61.5 14.154 60.154 15.5 58.5 15.5ZM58.5 10.5C57.397 10.5 56.5 11.397 56.5 12.5C56.5 13.603 57.397 14.5 58.5 14.5C59.603 14.5 60.5 13.603 60.5 12.5C60.5 11.397 59.603 10.5 58.5 10.5Z" fill="url(#paint9_linear_364_2024)"/>
<path d="M37.979 30.5C37.8464 30.5 37.7192 30.4473 37.6255 30.3536C37.5317 30.2598 37.479 30.1326 37.479 30V14C37.479 12.622 38.601 11.5 39.979 11.5H56.03C56.1043 11.4996 56.1777 11.5159 56.2449 11.5475C56.3121 11.5792 56.3713 11.6255 56.4183 11.683C56.4653 11.7405 56.4988 11.8078 56.5164 11.88C56.534 11.9521 56.5352 12.0273 56.52 12.1C56.4503 12.4455 56.4714 12.8031 56.581 13.138C56.769 13.728 57.252 14.211 57.842 14.399C58.188 14.509 58.537 14.53 58.881 14.46C58.9536 14.4459 59.0284 14.448 59.1 14.466C59.1717 14.4841 59.2386 14.5177 59.2958 14.5644C59.3531 14.6112 59.3994 14.67 59.4314 14.7366C59.4634 14.8032 59.4803 14.8761 59.481 14.95V24C59.481 25.378 58.359 26.5 56.981 26.5H43.154L38.291 30.391C38.2024 30.4617 38.0924 30.5001 37.979 30.5ZM39.979 12.5C39.152 12.5 38.479 13.173 38.479 14V28.959L42.667 25.609C42.7559 25.5381 42.8663 25.4997 42.98 25.5H56.98C57.807 25.5 58.48 24.827 58.48 24V15.5H58.479C58.0848 15.5012 57.6942 15.4244 57.3297 15.274C56.9652 15.1237 56.6341 14.9027 56.3554 14.6239C56.0767 14.3451 55.8558 14.0139 55.7056 13.6494C55.5553 13.2849 55.4787 12.8943 55.48 12.5H39.979Z" fill="url(#paint10_linear_364_2024)"/>
<path d="M45 45.5H18C17.8674 45.5 17.7402 45.4473 17.6464 45.3536C17.5527 45.2598 17.5 45.1326 17.5 45V32C17.5 31.8674 17.4473 31.7402 17.3536 31.6464C17.2598 31.5527 17.1326 31.5 17 31.5H13C12.8674 31.5 12.7402 31.4473 12.6464 31.3536C12.5527 31.2598 12.5 31.1326 12.5 31V19C12.5 17.622 13.622 16.5 15 16.5H38C38.1326 16.5 38.2598 16.5527 38.3536 16.6464C38.4473 16.7402 38.5 16.8674 38.5 17C38.5 17.1326 38.4473 17.2598 38.3536 17.3536C38.2598 17.4473 38.1326 17.5 38 17.5H15C14.173 17.5 13.5 18.173 13.5 19V30.5H17C17.827 30.5 18.5 31.173 18.5 32V44.5H44.5V36C44.5 35.173 45.173 34.5 46 34.5H49.5V26C49.5 25.8674 49.5527 25.7402 49.6464 25.6464C49.7402 25.5527 49.8674 25.5 50 25.5C50.1326 25.5 50.2598 25.5527 50.3536 25.6464C50.4473 25.7402 50.5 25.8674 50.5 26V35C50.5 35.1326 50.4473 35.2598 50.3536 35.3536C50.2598 35.4473 50.1326 35.5 50 35.5H46C45.8674 35.5 45.7402 35.5527 45.6464 35.6464C45.5527 35.7402 45.5 35.8674 45.5 36V45C45.5 45.1326 45.4473 45.2598 45.3536 45.3536C45.2598 45.4473 45.1326 45.5 45 45.5Z" fill="url(#paint11_linear_364_2024)"/>
<path d="M45 40.5H18C17.8674 40.5 17.7402 40.4473 17.6464 40.3536C17.5527 40.2598 17.5 40.1326 17.5 40C17.5 39.8674 17.5527 39.7402 17.6464 39.6464C17.7402 39.5527 17.8674 39.5 18 39.5H45C45.1326 39.5 45.2598 39.5527 45.3536 39.6464C45.4473 39.7402 45.5 39.8674 45.5 40C45.5 40.1326 45.4473 40.2598 45.3536 40.3536C45.2598 40.4473 45.1326 40.5 45 40.5ZM45 37.5H18C17.8674 37.5 17.7402 37.4473 17.6464 37.3536C17.5527 37.2598 17.5 37.1326 17.5 37C17.5 36.8674 17.5527 36.7402 17.6464 36.6464C17.7402 36.5527 17.8674 36.5 18 36.5H45C45.1326 36.5 45.2598 36.5527 45.3536 36.6464C45.4473 36.7402 45.5 36.8674 45.5 37C45.5 37.1326 45.4473 37.2598 45.3536 37.3536C45.2598 37.4473 45.1326 37.5 45 37.5ZM16 31.5C15.8674 31.5 15.7402 31.4473 15.6464 31.3536C15.5527 31.2598 15.5 31.1326 15.5 31V20C15.5 19.8674 15.5527 19.7402 15.6464 19.6464C15.7402 19.5527 15.8674 19.5 16 19.5H38C38.1326 19.5 38.2598 19.5527 38.3536 19.6464C38.4473 19.7402 38.5 19.8674 38.5 20C38.5 20.1326 38.4473 20.2598 38.3536 20.3536C38.2598 20.4473 38.1326 20.5 38 20.5H16.5V31C16.5 31.1326 16.4473 31.2598 16.3536 31.3536C16.2598 31.4473 16.1326 31.5 16 31.5ZM47 35.5C46.8674 35.5 46.7402 35.4473 46.6464 35.3536C46.5527 35.2598 46.5 35.1326 46.5 35V26C46.5 25.8674 46.5527 25.7402 46.6464 25.6464C46.7402 25.5527 46.8674 25.5 47 25.5C47.1326 25.5 47.2598 25.5527 47.3536 25.6464C47.4473 25.7402 47.5 25.8674 47.5 26V35C47.5 35.1326 47.4473 35.2598 47.3536 35.3536C47.2598 35.4473 47.1326 35.5 47 35.5Z" fill="url(#paint12_linear_364_2024)"/>
<defs>
<linearGradient id="paint0_linear_364_2024" x1="2.53309" y1="39.1111" x2="13.8976" y2="69.8777" gradientUnits="userSpaceOnUse">
<stop stop-color="#07FFE1"/>
<stop offset="1" stop-color="#9DFF00"/>
</linearGradient>
<linearGradient id="paint1_linear_364_2024" x1="26.5064" y1="45.3056" x2="35.2402" y2="54.4033" gradientUnits="userSpaceOnUse">
<stop stop-color="#07FFE1"/>
<stop offset="1" stop-color="#9DFF00"/>
</linearGradient>
<linearGradient id="paint2_linear_364_2024" x1="2.53311" y1="32.9167" x2="24.7619" y2="73.0519" gradientUnits="userSpaceOnUse">
<stop stop-color="#07FFE1"/>
<stop offset="1" stop-color="#9DFF00"/>
</linearGradient>
<linearGradient id="paint3_linear_364_2024" x1="10.0006" y1="48.5841" x2="11.1896" y2="49.451" gradientUnits="userSpaceOnUse">
<stop stop-color="#07FFE1"/>
<stop offset="1" stop-color="#9DFF00"/>
</linearGradient>
<linearGradient id="paint4_linear_364_2024" x1="30.5013" y1="41.7302" x2="32.8791" y2="43.464" gradientUnits="userSpaceOnUse">
<stop stop-color="#07FFE1"/>
<stop offset="1" stop-color="#9DFF00"/>
</linearGradient>
<linearGradient id="paint5_linear_364_2024" x1="49.0006" y1="49.1151" x2="50.1896" y2="49.982" gradientUnits="userSpaceOnUse">
<stop stop-color="#07FFE1"/>
<stop offset="1" stop-color="#9DFF00"/>
</linearGradient>
<linearGradient id="paint6_linear_364_2024" x1="15.5146" y1="23.6151" x2="15.663" y2="26.1037" gradientUnits="userSpaceOnUse">
<stop stop-color="#07FFE1"/>
<stop offset="1" stop-color="#9DFF00"/>
</linearGradient>
<linearGradient id="paint7_linear_364_2024" x1="57.2945" y1="11.5766" x2="60.1566" y2="13.6635" gradientUnits="userSpaceOnUse">
<stop stop-color="#07FFE1"/>
<stop offset="1" stop-color="#9DFF00"/>
</linearGradient>
<linearGradient id="paint8_linear_364_2024" x1="57.3004" y1="11.5766" x2="60.1625" y2="13.6635" gradientUnits="userSpaceOnUse">
<stop stop-color="#07FFE1"/>
<stop offset="1" stop-color="#9DFF00"/>
</linearGradient>
<linearGradient id="paint9_linear_364_2024" x1="55.5038" y1="10.1905" x2="62.6374" y2="15.392" gradientUnits="userSpaceOnUse">
<stop stop-color="#07FFE1"/>
<stop offset="1" stop-color="#9DFF00"/>
</linearGradient>
<linearGradient id="paint10_linear_364_2024" x1="37.493" y1="13.6865" x2="60.8834" y2="33.4368" gradientUnits="userSpaceOnUse">
<stop stop-color="#07FFE1"/>
<stop offset="1" stop-color="#9DFF00"/>
</linearGradient>
<linearGradient id="paint11_linear_364_2024" x1="12.5242" y1="19.8373" x2="48.6998" y2="54.4016" gradientUnits="userSpaceOnUse">
<stop stop-color="#07FFE1"/>
<stop offset="1" stop-color="#9DFF00"/>
</linearGradient>
<linearGradient id="paint12_linear_364_2024" x1="15.5204" y1="21.9167" x2="41.5988" y2="50.8927" gradientUnits="userSpaceOnUse">
<stop stop-color="#07FFE1"/>
<stop offset="1" stop-color="#9DFF00"/>
</linearGradient>
</defs>
</svg>
