<svg width="64" height="64" viewBox="0 0 64 64" fill="none" xmlns="http://www.w3.org/2000/svg">
<path d="M26.0659 51.0343H37.6521C37.8716 51.0343 38.0821 50.9471 38.2373 50.7919C38.3925 50.6367 38.4797 50.4262 38.4797 50.2067C38.4797 49.9872 38.3925 49.7767 38.2373 49.6215C38.0821 49.4663 37.8716 49.3792 37.6521 49.3792H26.0659C25.8464 49.3792 25.6359 49.4663 25.4807 49.6215C25.3255 49.7767 25.2383 49.9872 25.2383 50.2067C25.2383 50.4262 25.3255 50.6367 25.4807 50.7919C25.6359 50.9471 25.8464 51.0343 26.0659 51.0343Z" fill="url(#paint0_linear_354_1086)"/>
<path d="M50.276 18.08C51.1998 17.1538 51.7186 15.899 51.7186 14.5909C51.7186 13.2827 51.1998 12.028 50.276 11.1018C48.4603 9.28441 45.3303 9.25296 43.4451 10.9843V8.82759C43.4451 8.6081 43.3579 8.3976 43.2027 8.24239C43.0475 8.08719 42.837 8 42.6175 8H21.1003C20.8808 8 20.6703 8.08719 20.5151 8.24239C20.3599 8.3976 20.2727 8.6081 20.2727 8.82759V10.981C19.3388 10.1151 18.1062 9.64407 16.8329 9.6666C15.5596 9.68912 14.3444 10.2034 13.4418 11.1018C12.5182 12.0282 11.9997 13.2831 12 14.5912C12.0003 15.8994 12.5194 17.154 13.4434 18.08L20.0128 24.6444C20.1022 24.7244 20.1702 24.8253 20.2106 24.9382C20.2511 25.0511 20.2627 25.1723 20.2444 25.2908C20.2261 25.4093 20.1785 25.5214 20.106 25.6168C20.0334 25.7123 19.9381 25.7881 19.8288 25.8374C19.7195 25.8867 19.5996 25.9079 19.4801 25.8991C19.3605 25.8903 19.245 25.8518 19.1441 25.7871C19.0431 25.7224 18.96 25.6334 18.9021 25.5284C18.8443 25.4234 18.8136 25.3056 18.8128 25.1857C18.8128 24.9662 18.7256 24.7557 18.5704 24.6005C18.4152 24.4453 18.2047 24.3581 17.9852 24.3581C17.7657 24.3581 17.5552 24.4453 17.4 24.6005C17.2448 24.7557 17.1576 24.9662 17.1576 25.1857C17.1576 26.4966 18.2236 27.5625 19.5345 27.5625C20.0575 27.5625 20.5358 27.3887 20.9281 27.1023C21.5522 28.6592 22.5936 30.0136 23.9378 31.0167C25.282 32.0198 26.8769 32.6327 28.5469 32.7879V41.1034H26.0641C24.6953 41.1034 23.5814 42.2174 23.5814 43.5862V44.4138H21.0986C20.8791 44.4138 20.6686 44.501 20.5134 44.6562C20.3582 44.8114 20.271 45.0219 20.271 45.2414V55.1724C20.271 55.3919 20.3582 55.6024 20.5134 55.7576C20.6686 55.9128 20.8791 56 21.0986 56H42.6158C42.8353 56 43.0458 55.9128 43.201 55.7576C43.3562 55.6024 43.4434 55.3919 43.4434 55.1724V45.2414C43.4434 45.0219 43.3562 44.8114 43.201 44.6562C43.0458 44.501 42.8353 44.4138 42.6158 44.4138H40.1331V43.5862C40.1331 42.2174 39.0192 41.1034 37.6503 41.1034H35.1676V32.7862C36.8378 32.631 38.4328 32.0181 39.7773 31.015C41.1217 30.012 42.1635 28.6575 42.788 27.1007C43.1803 27.387 43.6603 27.5625 44.1833 27.5625C45.4942 27.5625 46.5601 26.4966 46.5601 25.1857C46.5601 24.9662 46.4729 24.7557 46.3177 24.6005C46.1625 24.4453 45.952 24.3581 45.7325 24.3581C45.513 24.3581 45.3025 24.4453 45.1473 24.6005C44.9921 24.7557 44.9049 24.9662 44.9049 25.1857C44.9049 25.377 44.8289 25.5606 44.6936 25.6959C44.5582 25.8313 44.3747 25.9073 44.1833 25.9073C43.9919 25.9073 43.8083 25.8313 43.673 25.6959C43.5377 25.5606 43.4616 25.377 43.4616 25.1857C43.4616 24.9771 43.5477 24.7851 43.7414 24.6113L50.276 18.08ZM19.5527 15.9564C19.8059 15.9564 20.0443 15.9068 20.2743 15.8323V22.5688L14.6153 16.9098C13.3375 15.632 13.3359 13.5514 14.6136 12.272C15.8914 10.9926 17.9687 10.9926 19.2514 12.272L19.6106 12.6179C20.1403 13.1211 20.276 13.2817 20.2743 13.5796C20.2744 13.6744 20.2559 13.7682 20.2197 13.8558C20.1835 13.9434 20.1305 14.023 20.0635 14.0901C19.9284 14.2256 19.7449 14.3019 19.5535 14.3021C19.4587 14.3022 19.3649 14.2836 19.2773 14.2475C19.1897 14.2113 19.1101 14.1582 19.043 14.0913C18.9075 13.9561 18.8312 13.7726 18.831 13.5812C18.831 13.3618 18.7438 13.1513 18.5886 12.996C18.4334 12.8408 18.2229 12.7537 18.0034 12.7537C17.7839 12.7537 17.5734 12.8408 17.4182 12.996C17.263 13.1513 17.1758 13.3618 17.1758 13.5812C17.1758 14.8905 18.2418 15.9564 19.5527 15.9564ZM41.7899 46.069V54.3448H21.9278V46.069H41.7899ZM37.652 42.7586C37.8715 42.7586 38.082 42.8458 38.2372 43.001C38.3924 43.1562 38.4796 43.3667 38.4796 43.5862V44.4138H25.2382V43.5862C25.2382 43.3667 25.3254 43.1562 25.4806 43.001C25.6358 42.8458 25.8463 42.7586 26.0658 42.7586H37.652ZM30.2037 41.1034V32.8276H33.5141V41.1034H30.2037ZM41.7899 23.7241C41.7899 27.8306 38.4481 31.1724 34.3416 31.1724H29.3761C27.4014 31.1702 25.5082 30.3848 24.1118 28.9884C22.7155 27.5921 21.93 25.6989 21.9278 23.7241V9.65517H41.7899V23.7241ZM43.4451 22.5688V15.8323C43.6775 15.9116 43.9211 15.9535 44.1667 15.9564C45.4776 15.9564 46.5452 14.8905 46.5452 13.5796C46.5452 13.3601 46.458 13.1496 46.3028 12.9944C46.1476 12.8392 45.9371 12.752 45.7176 12.752C45.4981 12.752 45.2877 12.8392 45.1324 12.9944C44.9772 13.1496 44.8901 13.3601 44.8901 13.5796C44.881 13.7652 44.8008 13.9402 44.6661 14.0683C44.5314 14.1964 44.3526 14.2677 44.1668 14.2675C43.9809 14.2673 43.8023 14.1955 43.6679 14.0671C43.5336 13.9388 43.4538 13.7636 43.4451 13.5779C43.4451 13.2817 43.5792 13.1211 44.1105 12.6163L44.4696 12.2703C45.7077 11.0339 47.8677 11.0323 49.1058 12.2703C49.7189 12.8864 50.0631 13.7201 50.0631 14.5892C50.0631 15.4584 49.7189 16.2921 49.1058 16.9081L43.4451 22.5688Z" fill="url(#paint1_linear_354_1086)"/>
<path d="M28.5033 21.4084L27.9919 24.3762C27.9659 24.5283 27.983 24.6846 28.0411 24.8275C28.0993 24.9704 28.1963 25.0942 28.3211 25.1849C28.4458 25.2756 28.5935 25.3296 28.7474 25.3408C28.9013 25.3521 29.0552 25.3201 29.1919 25.2484L31.8567 23.8482L34.5232 25.2484C34.6597 25.3214 34.814 25.3545 34.9685 25.3439C35.1229 25.3332 35.2712 25.2793 35.3965 25.1883C35.5217 25.0973 35.6188 24.9728 35.6765 24.8292C35.7343 24.6856 35.7505 24.5286 35.7232 24.3762L35.2117 21.4084L37.3684 19.3064C37.4798 19.1992 37.5588 19.0628 37.5964 18.9129C37.634 18.763 37.6287 18.6055 37.581 18.4584C37.5334 18.3113 37.4454 18.1806 37.327 18.0812C37.2086 17.9818 37.0647 17.9177 36.9116 17.8962L33.9306 17.4625L32.5966 14.7629C32.3185 14.1969 31.3899 14.1969 31.1135 14.7629L29.7811 17.4625L26.8001 17.8962C26.6471 17.9177 26.5031 17.9818 26.3847 18.0812C26.2664 18.1806 26.1783 18.3113 26.1307 18.4584C26.0831 18.6055 26.0777 18.763 26.1153 18.9129C26.1529 19.0628 26.2319 19.1992 26.3433 19.3064L28.5033 21.4084ZM30.4548 19.0366C30.5874 19.0175 30.7134 18.9664 30.8219 18.8877C30.9303 18.8089 31.0179 18.705 31.0771 18.5847L31.86 16.9991L32.6446 18.5847C32.7637 18.8297 32.9988 18.9985 33.2669 19.0366L35.0181 19.2915L33.7519 20.5262C33.6558 20.6198 33.5838 20.7352 33.542 20.8626C33.5002 20.9899 33.4899 21.1256 33.5119 21.2578L33.8131 23.0024L32.2457 22.1798C32.1277 22.1159 31.9958 22.0824 31.8617 22.0824C31.7276 22.0824 31.5956 22.1159 31.4777 22.1798L29.9119 23.0024L30.2131 21.2578C30.2357 21.1256 30.2256 20.9898 30.1838 20.8623C30.142 20.7348 30.0696 20.6194 29.9731 20.5262L28.7069 19.2915L30.4548 19.0366Z" fill="#0071BC"/>
<defs>
<linearGradient id="paint0_linear_354_1086" x1="25.2467" y1="49.5696" x2="25.9351" y2="53.5853" gradientUnits="userSpaceOnUse">
<stop stop-color="#07FFE1"/>
<stop offset="1" stop-color="#9DFF00"/>
</linearGradient>
<linearGradient id="paint1_linear_354_1086" x1="12.0253" y1="13.5238" x2="65.0513" y2="45.5178" gradientUnits="userSpaceOnUse">
<stop stop-color="#07FFE1"/>
<stop offset="1" stop-color="#9DFF00"/>
</linearGradient>
</defs>
</svg>
