<svg width="64" height="64" viewBox="0 0 64 64" fill="none" xmlns="http://www.w3.org/2000/svg">
<path d="M32.03 6.51901C33.409 6.51901 34.53 5.39701 34.53 4.01901C34.53 2.64101 33.409 1.51901 32.03 1.51901C30.651 1.51901 29.53 2.64101 29.53 4.01901C29.53 5.39701 30.651 6.51901 32.03 6.51901ZM32.03 2.51901C32.857 2.51901 33.53 3.19201 33.53 4.01901C33.53 4.84601 32.857 5.51901 32.03 5.51901C31.203 5.51901 30.53 4.84601 30.53 4.01901C30.53 3.19201 31.203 2.51901 32.03 2.51901ZM29 15.49H35C35.1326 15.49 35.2598 15.4373 35.3536 15.3436C35.4473 15.2498 35.5 15.1226 35.5 14.99V9.99001C35.5 8.61201 34.379 7.49001 33 7.49001H31C30.3372 7.49081 29.7018 7.75445 29.2331 8.22312C28.7644 8.69179 28.5008 9.32721 28.5 9.99001V14.99C28.5 15.1226 28.5527 15.2498 28.6464 15.3436C28.7402 15.4373 28.8674 15.49 29 15.49ZM29.5 9.99001C29.5 9.16301 30.173 8.49001 31 8.49001H33C33.827 8.49001 34.5 9.16301 34.5 9.99001V14.49H29.5V9.99001ZM29.621 51.01C29.621 52.388 30.742 53.51 32.121 53.51C33.5 53.51 34.621 52.388 34.621 51.01C34.621 49.632 33.5 48.51 32.121 48.51C30.742 48.51 29.621 49.631 29.621 51.01ZM33.621 51.01C33.621 51.837 32.948 52.51 32.121 52.51C31.294 52.51 30.621 51.837 30.621 51.01C30.621 50.183 31.294 49.51 32.121 49.51C32.948 49.51 33.621 50.183 33.621 51.01ZM33.091 54.481H31.091C30.4282 54.4818 29.7928 54.7455 29.3241 55.2141C28.8554 55.6828 28.5918 56.3182 28.591 56.981V61.981C28.591 62.1136 28.6437 62.2408 28.7374 62.3346C28.8312 62.4283 28.9584 62.481 29.091 62.481H35.091C35.2236 62.481 35.3508 62.4283 35.4446 62.3346C35.5383 62.2408 35.591 62.1136 35.591 61.981V56.981C35.591 55.603 34.47 54.481 33.091 54.481ZM34.591 61.481H29.591V56.981C29.591 56.154 30.264 55.481 31.091 55.481H33.091C33.918 55.481 34.591 56.154 34.591 56.981V61.481ZM11.03 18.519C12.409 18.519 13.53 17.397 13.53 16.019C13.53 14.641 12.409 13.519 11.03 13.519C9.651 13.519 8.53 14.641 8.53 16.019C8.53 17.397 9.651 18.519 11.03 18.519ZM11.03 14.519C11.857 14.519 12.53 15.192 12.53 16.019C12.53 16.846 11.857 17.519 11.03 17.519C10.203 17.519 9.53 16.846 9.53 16.019C9.53 15.192 10.203 14.519 11.03 14.519ZM12 19.49H10C9.3372 19.4908 8.70178 19.7545 8.23311 20.2231C7.76444 20.6918 7.50079 21.3272 7.5 21.99V26.99C7.5 27.1226 7.55268 27.2498 7.64645 27.3436C7.74021 27.4373 7.86739 27.49 8 27.49H14C14.1326 27.49 14.2598 27.4373 14.3536 27.3436C14.4473 27.2498 14.5 27.1226 14.5 26.99V21.99C14.5 20.612 13.379 19.49 12 19.49ZM13.5 26.49H8.5V21.99C8.5 21.163 9.173 20.49 10 20.49H12C12.827 20.49 13.5 21.163 13.5 21.99V26.49ZM53.03 18.519C54.409 18.519 55.53 17.397 55.53 16.019C55.53 14.641 54.409 13.519 53.03 13.519C51.651 13.519 50.53 14.641 50.53 16.019C50.53 17.397 51.651 18.519 53.03 18.519ZM53.03 14.519C53.857 14.519 54.53 15.192 54.53 16.019C54.53 16.846 53.857 17.519 53.03 17.519C52.203 17.519 51.53 16.846 51.53 16.019C51.53 15.192 52.203 14.519 53.03 14.519ZM54 19.49H52C51.3372 19.4908 50.7018 19.7545 50.2331 20.2231C49.7644 20.6918 49.5008 21.3272 49.5 21.99V26.99C49.5 27.1226 49.5527 27.2498 49.6464 27.3436C49.7402 27.4373 49.8674 27.49 50 27.49H56C56.1326 27.49 56.2598 27.4373 56.3536 27.3436C56.4473 27.2498 56.5 27.1226 56.5 26.99V21.99C56.5 20.612 55.379 19.49 54 19.49ZM55.5 26.49H50.5V21.99C50.5 21.163 51.173 20.49 52 20.49H54C54.827 20.49 55.5 21.163 55.5 21.99V26.49ZM13.53 40.019C13.53 38.641 12.409 37.519 11.03 37.519C9.651 37.519 8.53 38.641 8.53 40.019C8.53 41.397 9.651 42.519 11.03 42.519C12.409 42.519 13.53 41.397 13.53 40.019ZM9.53 40.019C9.53 39.192 10.203 38.519 11.03 38.519C11.857 38.519 12.53 39.192 12.53 40.019C12.53 40.846 11.857 41.519 11.03 41.519C10.203 41.519 9.53 40.846 9.53 40.019ZM12 43.49H10C9.3372 43.4908 8.70178 43.7545 8.23311 44.2231C7.76444 44.6918 7.50079 45.3272 7.5 45.99V50.99C7.5 51.1226 7.55268 51.2498 7.64645 51.3436C7.74021 51.4373 7.86739 51.49 8 51.49H14C14.1326 51.49 14.2598 51.4373 14.3536 51.3436C14.4473 51.2498 14.5 51.1226 14.5 50.99V45.99C14.5 44.612 13.379 43.49 12 43.49ZM13.5 50.49H8.5V45.99C8.5 45.163 9.173 44.49 10 44.49H12C12.827 44.49 13.5 45.163 13.5 45.99V50.49ZM55.53 40.019C55.53 38.641 54.409 37.519 53.03 37.519C51.651 37.519 50.53 38.641 50.53 40.019C50.53 41.397 51.651 42.519 53.03 42.519C54.409 42.519 55.53 41.397 55.53 40.019ZM51.53 40.019C51.53 39.192 52.203 38.519 53.03 38.519C53.857 38.519 54.53 39.192 54.53 40.019C54.53 40.846 53.857 41.519 53.03 41.519C52.203 41.519 51.53 40.846 51.53 40.019ZM54 43.49H52C51.3372 43.4908 50.7018 43.7545 50.2331 44.2231C49.7644 44.6918 49.5008 45.3272 49.5 45.99V50.99C49.5 51.1226 49.5527 51.2498 49.6464 51.3436C49.7402 51.4373 49.8674 51.49 50 51.49H56C56.1326 51.49 56.2598 51.4373 56.3536 51.3436C56.4473 51.2498 56.5 51.1226 56.5 50.99V45.99C56.5 44.612 55.379 43.49 54 43.49ZM55.5 50.49H50.5V45.99C50.5 45.163 51.173 44.49 52 44.49H54C54.827 44.49 55.5 45.163 55.5 45.99V50.49Z" fill="url(#paint0_linear_717_1897)"/>
<path d="M53.03 28.49C52.8974 28.49 52.7702 28.5427 52.6764 28.6364C52.5827 28.7302 52.53 28.8574 52.53 28.99V35.99C52.53 36.1226 52.5827 36.2498 52.6764 36.3435C52.7702 36.4373 52.8974 36.49 53.03 36.49C53.1626 36.49 53.2898 36.4373 53.3836 36.3435C53.4773 36.2498 53.53 36.1226 53.53 35.99V28.99C53.53 28.8574 53.4773 28.7302 53.3836 28.6364C53.2898 28.5427 53.1626 28.49 53.03 28.49ZM47.75 46.333L36.75 52.684C36.6361 52.7508 36.5532 52.8599 36.5195 52.9875C36.4857 53.1152 36.5038 53.251 36.5699 53.3653C36.6359 53.4797 36.7444 53.5633 36.8719 53.5979C36.9993 53.6325 37.1352 53.6152 37.25 53.55L48.25 47.199C48.3639 47.1322 48.4468 47.0231 48.4805 46.8955C48.5143 46.7678 48.4962 46.632 48.4301 46.5176C48.3641 46.4033 48.2556 46.3197 48.1281 46.2851C48.0007 46.2505 47.8648 46.2677 47.75 46.333ZM27.25 52.648L16.25 46.297C16.135 46.2312 15.9987 46.2136 15.8708 46.2478C15.7429 46.2821 15.6337 46.3656 15.567 46.48C15.5339 46.5368 15.5124 46.5996 15.5037 46.6647C15.495 46.7299 15.4992 46.7961 15.5162 46.8596C15.5333 46.9231 15.5627 46.9826 15.6028 47.0347C15.6429 47.0867 15.6929 47.1304 15.75 47.163L26.75 53.514C26.8648 53.5793 27.0007 53.5965 27.1281 53.5619C27.2556 53.5273 27.3641 53.4437 27.4301 53.3293C27.4962 53.215 27.5143 53.0792 27.4805 52.9515C27.4468 52.8239 27.3639 52.7148 27.25 52.648ZM11.03 28.49C10.8974 28.49 10.7702 28.5427 10.6764 28.6364C10.5827 28.7302 10.53 28.8574 10.53 28.99V35.99C10.53 36.1226 10.5827 36.2498 10.6764 36.3435C10.7702 36.4373 10.8974 36.49 11.03 36.49C11.1626 36.49 11.2898 36.4373 11.3836 36.3435C11.4773 36.2498 11.53 36.1226 11.53 35.99V28.99C11.53 28.8574 11.4773 28.7302 11.3836 28.6364C11.2898 28.5427 11.1626 28.49 11.03 28.49ZM27.433 10.143C27.4004 10.0859 27.3567 10.0359 27.3047 9.99579C27.2526 9.95567 27.1931 9.92625 27.1296 9.90924C27.0661 9.89223 26.9999 9.88795 26.9347 9.89666C26.8696 9.90538 26.8068 9.9269 26.75 9.95999L14.75 16.888C14.6361 16.9548 14.5532 17.0639 14.5195 17.1915C14.4857 17.3192 14.5038 17.455 14.5699 17.5693C14.6359 17.6837 14.7444 17.7673 14.8719 17.8019C14.9993 17.8365 15.1352 17.8193 15.25 17.754L27.25 10.826C27.3648 10.7597 27.4486 10.6505 27.4829 10.5224C27.5173 10.3943 27.4993 10.2578 27.433 10.143ZM49.25 16.853L37.25 9.92499C37.135 9.85923 36.9987 9.84156 36.8708 9.87584C36.7429 9.91012 36.6337 9.99356 36.567 10.108C36.5339 10.1648 36.5124 10.2276 36.5037 10.2927C36.495 10.3579 36.4992 10.4241 36.5162 10.4876C36.5333 10.5511 36.5627 10.6106 36.6028 10.6627C36.6429 10.7147 36.6929 10.7584 36.75 10.791L48.75 17.719C48.8648 17.7843 49.0007 17.8015 49.1281 17.7669C49.2556 17.7323 49.3641 17.6487 49.4301 17.5343C49.4962 17.42 49.5143 17.2842 49.4805 17.1565C49.4468 17.0289 49.3639 16.9198 49.25 16.853Z" fill="url(#paint1_linear_717_1897)"/>
<path d="M36.9453 33.6545C36.8826 33.6545 36.8225 33.6296 36.7782 33.5853C36.7339 33.541 36.709 33.4809 36.709 33.4182V26.8435C36.709 26.7808 36.7339 26.7207 36.7782 26.6764C36.8225 26.632 36.8826 26.6071 36.9453 26.6071C37.008 26.6071 37.0681 26.632 37.1125 26.6764C37.1568 26.7207 37.1817 26.7808 37.1817 26.8435V33.4182C37.1817 33.4809 37.1568 33.541 37.1125 33.5853C37.0681 33.6296 37.008 33.6545 36.9453 33.6545ZM26.5453 33.6545C26.4827 33.6545 26.4225 33.6296 26.3782 33.5853C26.3339 33.541 26.309 33.4809 26.309 33.4182V24.4359C26.309 24.3732 26.3339 24.3131 26.3782 24.2688C26.4225 24.2244 26.4827 24.1995 26.5453 24.1995C26.608 24.1995 26.6681 24.2244 26.7125 24.2688C26.7568 24.3131 26.7817 24.3732 26.7817 24.4359V33.4182C26.7817 33.4809 26.7568 33.541 26.7125 33.5853C26.6681 33.6296 26.608 33.6545 26.5453 33.6545Z" fill="#0071BC" stroke="#0071BC" stroke-width="0.3"/>
<path d="M31.7617 31.4043C31.0004 31.4057 30.259 31.1619 29.6472 30.7089L28.5859 29.9199C28.3199 29.7217 28.1039 29.4642 27.9549 29.1679C27.8058 28.8715 27.728 28.5446 27.7274 28.2129V23.6648C27.7274 23.6021 27.7523 23.542 27.7966 23.4976C27.841 23.4533 27.9011 23.4284 27.9638 23.4284C28.0265 23.4284 28.0866 23.4533 28.1309 23.4976C28.1752 23.542 28.2001 23.6021 28.2001 23.6648V28.2129C28.2001 28.7343 28.4497 29.2302 28.8676 29.5408L29.9289 30.3297C30.4637 30.7236 31.1112 30.9348 31.7754 30.9319C32.4397 30.929 33.0853 30.7122 33.6167 30.3137L34.6349 29.5427C34.8383 29.3879 35.0033 29.1884 35.1171 28.9596C35.2309 28.7308 35.2904 28.4788 35.291 28.2233V24.4363C35.291 24.3736 35.316 24.3135 35.3603 24.2691C35.4046 24.2248 35.4647 24.1999 35.5274 24.1999C35.5901 24.1999 35.6502 24.2248 35.6945 24.2691C35.7389 24.3135 35.7638 24.3736 35.7638 24.4363V28.2233C35.763 28.5518 35.6864 28.8757 35.5402 29.1698C35.3939 29.464 35.1819 29.7205 34.9204 29.9194L33.9022 30.6904C33.2854 31.155 32.5339 31.4057 31.7617 31.4043Z" fill="#0071BC" stroke="#0071BC" stroke-width="0.3"/>
<path d="M30.0907 26.09C30.3518 26.09 30.5634 25.8783 30.5634 25.6173C30.5634 25.3562 30.3518 25.1445 30.0907 25.1445C29.8296 25.1445 29.618 25.3562 29.618 25.6173C29.618 25.8783 29.8296 26.09 30.0907 26.09Z" fill="#0071BC" stroke="#0071BC" stroke-width="0.3"/>
<path d="M33.3994 26.09C33.6605 26.09 33.8721 25.8783 33.8721 25.6173C33.8721 25.3562 33.6605 25.1445 33.3994 25.1445C33.1383 25.1445 32.9267 25.3562 32.9267 25.6173C32.9267 25.8783 33.1383 26.09 33.3994 26.09Z" fill="#0071BC" stroke="#0071BC" stroke-width="0.3"/>
<path d="M30.9263 25.0177C30.8636 25.0177 30.8035 24.9929 30.759 24.9487C30.5815 24.7718 30.3411 24.6725 30.0905 24.6725C29.84 24.6725 29.5996 24.7718 29.4221 24.9487C29.3775 24.9918 29.3178 25.0156 29.2558 25.015C29.1939 25.0145 29.1346 24.9896 29.0908 24.9458C29.0469 24.902 29.0221 24.8427 29.0215 24.7807C29.021 24.7188 29.0448 24.6591 29.0879 24.6145C29.354 24.3488 29.7146 24.1996 30.0905 24.1996C30.4665 24.1996 30.8271 24.3488 31.0932 24.6145C31.1261 24.6475 31.1486 24.6896 31.1577 24.7354C31.1667 24.7812 31.162 24.8286 31.1442 24.8717C31.1264 24.9149 31.0961 24.9517 31.0574 24.9777C31.0186 25.0037 30.973 25.0176 30.9263 25.0177ZM34.2354 25.0177C34.1727 25.0177 34.1125 24.9929 34.0681 24.9487C33.8906 24.7718 33.6502 24.6725 33.3996 24.6725C33.149 24.6725 32.9087 24.7718 32.7312 24.9487C32.6866 24.9918 32.6269 25.0156 32.5649 25.015C32.503 25.0145 32.4437 24.9896 32.3999 24.9458C32.356 24.902 32.3312 24.8427 32.3306 24.7807C32.3301 24.7188 32.3539 24.6591 32.397 24.6145C32.663 24.3488 33.0237 24.1996 33.3996 24.1996C33.7756 24.1996 34.1362 24.3488 34.4023 24.6145C34.4352 24.6475 34.4577 24.6896 34.4667 24.7354C34.4758 24.7812 34.4711 24.8286 34.4533 24.8717C34.4354 24.9149 34.4052 24.9517 34.3665 24.9777C34.3277 25.0037 34.2821 25.0176 34.2354 25.0177ZM26.5385 44.7569C26.4758 44.7569 26.4157 44.732 26.3713 44.6877C26.327 44.6433 26.3021 44.5832 26.3021 44.5205V39.1055C26.3021 39.0428 26.327 38.9826 26.3713 38.9383C26.4157 38.894 26.4758 38.8691 26.5385 38.8691C26.6012 38.8691 26.6613 38.894 26.7056 38.9383C26.7499 38.9826 26.7748 39.0428 26.7748 39.1055V44.5205C26.7748 44.6515 26.6694 44.7569 26.5385 44.7569ZM36.4657 44.7569C36.4031 44.7569 36.3429 44.732 36.2986 44.6877C36.2543 44.6433 36.2294 44.5832 36.2294 44.5205V39.1055C36.2294 39.0428 36.2543 38.9826 36.2986 38.9383C36.3429 38.894 36.4031 38.8691 36.4657 38.8691C36.5284 38.8691 36.5885 38.894 36.6329 38.9383C36.6772 38.9826 36.7021 39.0428 36.7021 39.1055V44.5205C36.7021 44.6515 36.5967 44.7569 36.4657 44.7569Z" fill="#0071BC" stroke="#0071BC" stroke-width="0.3"/>
<path d="M40.2545 45H23.2364C23.1737 45 23.1136 44.9751 23.0692 44.9308C23.0249 44.8865 23 44.8263 23 44.7637V37.2C23 34.9844 24.8025 33.1818 27.0182 33.1818H28.8599C28.9226 33.1818 28.9827 33.2067 29.0271 33.2511C29.0714 33.2954 29.0963 33.3555 29.0963 33.4182C29.0963 33.4809 29.0714 33.541 29.0271 33.5853C28.9827 33.6297 28.9226 33.6546 28.8599 33.6546H27.0182C25.063 33.6546 23.4727 35.2448 23.4727 37.2V44.5273H40.0182V37.2C40.0182 35.2448 38.4279 33.6546 36.4727 33.6546H34.5832C34.5205 33.6546 34.4604 33.6297 34.4161 33.5853C34.3718 33.541 34.3469 33.4809 34.3469 33.4182C34.3469 33.3555 34.3718 33.2954 34.4161 33.2511C34.4604 33.2067 34.5205 33.1818 34.5832 33.1818H36.4727C38.6884 33.1818 40.4909 34.9844 40.4909 37.2V44.7637C40.4909 44.8263 40.466 44.8865 40.4217 44.9308C40.3773 44.9751 40.3172 45 40.2545 45ZM31.78 27.528C31.5984 27.528 31.4164 27.459 31.2784 27.321C31.2353 27.2764 31.2115 27.2167 31.2121 27.1547C31.2126 27.0927 31.2375 27.0335 31.2813 26.9896C31.3251 26.9458 31.3844 26.921 31.4464 26.9204C31.5083 26.9199 31.568 26.9437 31.6126 26.9868C31.7048 27.0789 31.8546 27.0789 31.9468 26.9868C31.9914 26.9437 32.0511 26.9199 32.1131 26.9204C32.1751 26.921 32.2343 26.9458 32.2782 26.9896C32.322 27.0335 32.3469 27.0927 32.3474 27.1547C32.3479 27.2167 32.3241 27.2764 32.281 27.321C32.2152 27.3867 32.1371 27.4389 32.0511 27.4744C31.9651 27.5099 31.873 27.5282 31.78 27.528ZM31.78 29.6288C30.9981 29.6288 30.3618 28.9925 30.3618 28.2106C30.3618 28.148 30.3867 28.0878 30.431 28.0435C30.4753 27.9992 30.5355 27.9743 30.5981 27.9743H32.9618C33.0245 27.9743 33.0846 27.9992 33.1289 28.0435C33.1732 28.0878 33.1981 28.148 33.1981 28.2106C33.1981 28.993 32.5623 29.6288 31.78 29.6288ZM30.8648 28.447C30.9702 28.854 31.3403 29.1561 31.7804 29.1561C32.2205 29.1561 32.5907 28.854 32.6961 28.447H30.8648Z" fill="#0071BC" stroke="#0071BC" stroke-width="0.3"/>
<path d="M30.3285 34.1272C30.2659 34.1272 30.2057 34.1023 30.1614 34.058C30.1171 34.0137 30.0922 33.9536 30.0922 33.8909L30.0927 30.9146C30.0927 30.8519 30.1176 30.7918 30.1619 30.7475C30.2062 30.7031 30.2663 30.6782 30.329 30.6782C30.3917 30.6782 30.4518 30.7031 30.4961 30.7475C30.5405 30.7918 30.5654 30.8519 30.5654 30.9146L30.5649 33.8909C30.5649 33.9536 30.54 34.0137 30.4957 34.058C30.4513 34.1023 30.3912 34.1272 30.3285 34.1272Z" fill="#0071BC" stroke="#0071BC" stroke-width="0.3"/>
<path d="M31.7458 37.909C29.7906 37.909 28.2003 36.3187 28.2003 34.3635V33.4181C28.2003 33.3554 28.2252 33.2953 28.2695 33.251C28.3139 33.2066 28.374 33.1817 28.4367 33.1817H30.329C30.3917 33.1817 30.4518 33.2066 30.4961 33.251C30.5405 33.2953 30.5654 33.3554 30.5654 33.4181C30.5654 33.4808 30.5405 33.5409 30.4961 33.5852C30.4518 33.6296 30.3917 33.6545 30.329 33.6545H28.673V34.3635C28.673 36.0578 30.0515 37.4363 31.7458 37.4363C33.44 37.4363 34.8185 36.0578 34.8185 34.3635V33.6545H33.1583C33.0956 33.6545 33.0355 33.6296 32.9911 33.5852C32.9468 33.5409 32.9219 33.4808 32.9219 33.4181C32.9219 33.3554 32.9468 33.2953 32.9911 33.251C33.0355 33.2066 33.0956 33.1817 33.1583 33.1817H35.0549C35.1175 33.1817 35.1777 33.2066 35.222 33.251C35.2663 33.2953 35.2912 33.3554 35.2912 33.4181V34.3635C35.2912 36.3187 33.701 37.909 31.7458 37.909Z" fill="#0071BC" stroke="#0071BC" stroke-width="0.3"/>
<path d="M31.7454 38.8374C29.2693 38.8374 27.2545 36.8227 27.2545 34.3465V33.4181C27.2545 33.3554 27.2794 33.2953 27.3237 33.251C27.3681 33.2066 27.4282 33.1817 27.4909 33.1817C27.5536 33.1817 27.6137 33.2066 27.658 33.251C27.7023 33.2953 27.7272 33.3554 27.7272 33.4181V34.3465C27.7272 36.5622 29.5298 38.3647 31.7454 38.3647C33.9611 38.3647 35.7636 36.5622 35.7636 34.3465V33.4181C35.7636 33.3554 35.7885 33.2953 35.8328 33.251C35.8772 33.2066 35.9373 33.1817 36 33.1817C36.0627 33.1817 36.1228 33.2066 36.1671 33.251C36.2114 33.2953 36.2363 33.3554 36.2363 33.4181V34.3465C36.2363 36.8227 34.2216 38.8374 31.7454 38.8374Z" fill="#0071BC" stroke="#0071BC" stroke-width="0.3"/>
<path d="M33.1579 34.1273C33.0952 34.1273 33.0351 34.1024 32.9908 34.0581C32.9465 34.0137 32.9216 33.9536 32.9216 33.8909L32.9211 32.9554L32.9216 30.9662C32.9216 30.9035 32.9465 30.8434 32.9908 30.799C33.0351 30.7547 33.0952 30.7298 33.1579 30.7298C33.2206 30.7298 33.2807 30.7547 33.3251 30.799C33.3694 30.8434 33.3943 30.9035 33.3943 30.9662L33.3938 32.9554L33.3943 33.8909C33.3943 33.9536 33.3694 34.0137 33.3251 34.0581C33.2807 34.1024 33.2206 34.1273 33.1579 34.1273ZM31.7454 37.9091C31.6827 37.9091 31.6226 37.8842 31.5783 37.8399C31.534 37.7955 31.5091 37.7354 31.5091 37.6727V37.2C31.5086 36.9927 31.4539 36.7891 31.3503 36.6096C31.2467 36.43 31.0979 36.2807 30.9186 36.1766C30.8648 36.145 30.8256 36.0934 30.8097 36.0331C30.7937 35.9727 30.8023 35.9085 30.8335 35.8545C30.8647 35.8004 30.916 35.7609 30.9762 35.7445C31.0365 35.7282 31.1007 35.7363 31.155 35.7672C31.406 35.9128 31.6145 36.1217 31.7596 36.373C31.9046 36.6243 31.9813 36.9093 31.9818 37.1995V37.6723C31.9819 37.7033 31.9758 37.7341 31.9639 37.7629C31.9521 37.7916 31.9347 37.8177 31.9127 37.8397C31.8908 37.8617 31.8647 37.8792 31.836 37.8911C31.8073 37.903 31.7765 37.9091 31.7454 37.9091Z" fill="#0071BC" stroke="#0071BC" stroke-width="0.3"/>
<path d="M31.7457 37.909C31.683 37.909 31.6228 37.8841 31.5785 37.8398C31.5342 37.7955 31.5093 37.7354 31.5093 37.6727V37.1999C31.5093 36.6114 31.826 36.0626 32.3356 35.7671C32.3899 35.7356 32.4545 35.727 32.5151 35.7432C32.5451 35.7511 32.5733 35.765 32.598 35.7838C32.6227 35.8027 32.6434 35.8263 32.659 35.8531C32.6745 35.88 32.6847 35.9097 32.6888 35.9405C32.6929 35.9713 32.6909 36.0026 32.6829 36.0326C32.6749 36.0627 32.6611 36.0908 32.6422 36.1155C32.6234 36.1402 32.5998 36.1609 32.5729 36.1765C32.3935 36.2806 32.2446 36.43 32.1409 36.6096C32.0372 36.7893 31.9824 36.993 31.982 37.2004V37.6731C31.9819 37.7357 31.9569 37.7957 31.9126 37.84C31.8683 37.8842 31.8083 37.909 31.7457 37.909Z" fill="#0071BC" stroke="#0071BC" stroke-width="0.3"/>
<path d="M34.5717 23.7272C33.6593 23.7272 32.9172 22.9851 32.9172 22.0727C32.9172 22.01 32.9421 21.9499 32.9864 21.9056C33.0307 21.8612 33.0908 21.8363 33.1535 21.8363C33.2162 21.8363 33.2763 21.8612 33.3207 21.9056C33.365 21.9499 33.3899 22.01 33.3899 22.0727C33.3899 22.7246 33.9198 23.2545 34.5717 23.2545C34.6344 23.2545 34.6945 23.2794 34.7388 23.3237C34.7832 23.3681 34.8081 23.4282 34.8081 23.4909C34.8081 23.5536 34.7832 23.6137 34.7388 23.658C34.6945 23.7023 34.6344 23.7272 34.5717 23.7272Z" fill="#0071BC" stroke="#0071BC" stroke-width="0.3"/>
<path d="M35.5173 24.6727C35.4546 24.6727 35.3945 24.6478 35.3502 24.6034C35.3058 24.5591 35.2809 24.499 35.2809 24.4363C35.2809 24.0454 34.9628 23.7272 34.5718 23.7272C34.5092 23.7272 34.449 23.7023 34.4047 23.658C34.3604 23.6137 34.3355 23.5535 34.3355 23.4908C34.3355 23.4282 34.3604 23.368 34.4047 23.3237C34.449 23.2794 34.5092 23.2545 34.5718 23.2545C35.2237 23.2545 35.7537 23.7844 35.7537 24.4363C35.7537 24.499 35.7288 24.5591 35.6844 24.6034C35.6401 24.6478 35.58 24.6727 35.5173 24.6727ZM26.0632 25.1577C26.0005 25.1577 25.9404 25.1328 25.8961 25.0885C25.8518 25.0441 25.8269 24.984 25.8269 24.9213C25.8246 24.3614 25.9329 23.8066 26.1457 23.2887C26.3586 22.7708 26.6716 22.3001 27.0669 21.9036C27.4623 21.5071 27.932 21.1926 28.4493 20.9782C28.9665 20.7639 29.521 20.6539 30.0809 20.6545C30.1436 20.6545 30.2037 20.6794 30.2481 20.7237C30.2924 20.768 30.3173 20.8282 30.3173 20.8908C30.3173 20.9535 30.2924 21.0137 30.2481 21.058C30.2037 21.1023 30.1436 21.1272 30.0809 21.1272C29.1838 21.126 28.3156 21.4442 27.6316 22.0248C26.9477 22.6054 26.4928 23.4105 26.3483 24.2959C27.1213 23.6239 28.1112 23.254 29.1355 23.2545H31.7355C32.3874 23.2545 32.9173 22.7246 32.9173 22.0727C32.9173 22.01 32.9422 21.9499 32.9865 21.9055C33.0309 21.8612 33.091 21.8363 33.1537 21.8363C33.2163 21.8363 33.2765 21.8612 33.3208 21.9055C33.3651 21.9499 33.39 22.01 33.39 22.0727C33.39 22.985 32.6478 23.7272 31.7355 23.7272H29.1355C28.5844 23.7271 28.04 23.8476 27.5404 24.0803C27.0409 24.3129 26.5983 24.6521 26.2438 25.074C26.2217 25.1003 26.194 25.1215 26.1628 25.136C26.1316 25.1504 26.0976 25.1578 26.0632 25.1577Z" fill="#0071BC" stroke="#0071BC" stroke-width="0.3"/>
<path d="M37.6691 27.2514L37.6478 27.2505C36.2987 27.1285 35.2809 26.02 35.2809 24.6727C35.2809 24.61 35.3058 24.5499 35.3501 24.5056C35.3944 24.4613 35.4546 24.4364 35.5172 24.4364C35.5799 24.4364 35.64 24.4613 35.6844 24.5056C35.7287 24.5499 35.7536 24.61 35.7536 24.6727C35.7524 25.0782 35.8684 25.4754 36.0876 25.8165C36.3068 26.1576 36.62 26.428 36.9893 26.5953C36.7991 26.2723 36.6988 25.9042 36.6991 25.5293L36.709 24.1995C36.709 21.5489 34.6649 19.4723 32.055 19.4723H31.509C30.5406 19.4744 29.5961 19.7729 28.8023 20.3275C28.0085 20.882 27.4034 21.6663 27.0682 22.5748C27.0447 22.631 27.0004 22.676 26.9445 22.7004C26.8887 22.7248 26.8256 22.7267 26.7683 22.7058C26.7111 22.6848 26.6641 22.6426 26.6372 22.5879C26.6103 22.5332 26.6055 22.4703 26.6238 22.4121C26.9928 21.4129 27.6585 20.5505 28.5317 19.9406C29.405 19.3307 30.4439 19.0025 31.509 19H32.055C34.9296 19 37.1817 21.2842 37.1817 24.2L37.1718 25.5326C37.1727 25.7833 37.2311 26.0305 37.3425 26.2551C37.4539 26.4797 37.6152 26.6758 37.8142 26.8284C37.8532 26.8586 37.8817 26.9002 37.8958 26.9475C37.9099 26.9947 37.9089 27.0451 37.8929 27.0918C37.8769 27.1384 37.8467 27.1789 37.8066 27.2075C37.7665 27.2361 37.7184 27.2515 37.6691 27.2514Z" fill="#0071BC" stroke="#0071BC" stroke-width="0.3"/>
<defs>
<linearGradient id="paint0_linear_717_1897" x1="7.5312" y1="8.53448" x2="73.9488" y2="47.4611" gradientUnits="userSpaceOnUse">
<stop stop-color="#07FFE1"/>
<stop offset="1" stop-color="#9DFF00"/>
</linearGradient>
<linearGradient id="paint1_linear_717_1897" x1="10.5574" y1="14.8942" x2="62.297" y2="51.9687" gradientUnits="userSpaceOnUse">
<stop stop-color="#07FFE1"/>
<stop offset="1" stop-color="#9DFF00"/>
</linearGradient>
</defs>
</svg>
