<svg width="65" height="64" viewBox="0 0 65 64" fill="none" xmlns="http://www.w3.org/2000/svg">
<path d="M22.583 36.5C19.826 36.5 17.583 38.743 17.583 41.5C17.583 44.257 19.826 46.5 22.583 46.5C25.34 46.5 27.583 44.257 27.583 41.5C27.583 38.743 25.34 36.5 22.583 36.5ZM22.583 45.5C20.377 45.5 18.583 43.706 18.583 41.5C18.583 39.294 20.377 37.5 22.583 37.5C24.789 37.5 26.583 39.294 26.583 41.5C26.583 43.706 24.789 45.5 22.583 45.5Z" fill="url(#paint0_linear_364_1992)"/>
<path d="M37.152 39.505L33.29 38.972C33.0195 37.8219 32.5636 36.7235 31.94 35.72L34.296 32.61C34.369 32.5139 34.4047 32.3945 34.3964 32.2741C34.3881 32.1536 34.3365 32.0403 34.251 31.955L32.129 29.834C32.0436 29.7487 31.9303 29.6972 31.8099 29.6889C31.6895 29.6807 31.5702 29.7162 31.474 29.789L28.364 32.144C27.3604 31.5205 26.2621 31.0646 25.112 30.794L24.579 26.932C24.5626 26.8124 24.5034 26.7027 24.4124 26.6233C24.3214 26.5439 24.2048 26.5001 24.084 26.5H21.084C20.9632 26.5001 20.8466 26.5439 20.7556 26.6233C20.6646 26.7027 20.6054 26.8124 20.589 26.932L20.056 30.794C18.906 31.064 17.814 31.517 16.803 32.144L13.693 29.789C13.5968 29.7162 13.4775 29.6807 13.3571 29.6889C13.2367 29.6972 13.1234 29.7487 13.038 29.834L10.917 31.955C10.8315 32.0403 10.7799 32.1536 10.7716 32.2741C10.7633 32.3945 10.799 32.5139 10.872 32.61L13.227 35.72C12.6036 36.7236 12.1477 37.822 11.877 38.972L8.01501 39.505C7.89536 39.5214 7.7857 39.5806 7.7063 39.6716C7.62689 39.7626 7.58309 39.8792 7.58301 40V43C7.58309 43.1208 7.62689 43.2374 7.7063 43.3284C7.7857 43.4194 7.89536 43.4786 8.01501 43.495L11.877 44.028C12.1475 45.1781 12.6034 46.2765 13.227 47.28L10.872 50.39C10.799 50.4861 10.7633 50.6055 10.7716 50.7259C10.7799 50.8464 10.8315 50.9597 10.917 51.045L13.038 53.166C13.1232 53.2517 13.2365 53.3034 13.357 53.3117C13.4775 53.32 13.5969 53.2842 13.693 53.211L16.803 50.856C17.8069 51.4795 18.9056 51.9354 20.056 52.206L20.589 56.068C20.6054 56.1876 20.6646 56.2973 20.7556 56.3767C20.8466 56.4561 20.9632 56.4999 21.084 56.5H24.084C24.2048 56.4999 24.3214 56.4561 24.4124 56.3767C24.5034 56.2973 24.5626 56.1876 24.579 56.068L25.112 52.206C26.262 51.936 27.354 51.483 28.364 50.856L31.474 53.211C31.5701 53.2842 31.6895 53.32 31.81 53.3117C31.9305 53.3034 32.0439 53.2517 32.129 53.166L34.251 51.045C34.3365 50.9597 34.3881 50.8464 34.3964 50.7259C34.4047 50.6055 34.369 50.4861 34.296 50.39L31.94 47.28C32.5635 46.2764 33.0194 45.1781 33.29 44.028L37.152 43.495C37.2717 43.4786 37.3813 43.4194 37.4607 43.3284C37.5401 43.2374 37.5839 43.1208 37.584 43V40C37.5839 39.8792 37.5401 39.7626 37.4607 39.6716C37.3813 39.5806 37.2717 39.5214 37.152 39.505ZM36.583 42.564L32.807 43.085C32.7043 43.0991 32.6085 43.1448 32.5329 43.2157C32.4573 43.2867 32.4056 43.3794 32.385 43.481C32.1308 44.7475 31.6307 45.9519 30.913 47.026C30.8555 47.1124 30.8264 47.2146 30.8296 47.3184C30.8328 47.4221 30.8683 47.5223 30.931 47.605L33.235 50.646L31.73 52.151L28.69 49.849C28.6074 49.7861 28.5072 49.7506 28.4034 49.7474C28.2996 49.7442 28.1974 49.7734 28.111 49.831C27.0366 50.5486 25.8319 51.0484 24.565 51.302C24.4633 51.3223 24.3704 51.3739 24.2994 51.4496C24.2284 51.5252 24.1828 51.6212 24.169 51.724L23.648 55.5H21.52L20.999 51.724C20.9849 51.6213 20.9392 51.5255 20.8683 51.4499C20.7973 51.3743 20.7046 51.3226 20.603 51.302C19.3364 51.0476 18.1318 50.5479 17.057 49.831C16.9706 49.7734 16.8684 49.7442 16.7646 49.7474C16.6608 49.7506 16.5606 49.7861 16.478 49.849L13.437 52.152L11.932 50.647L14.235 47.606C14.2977 47.5233 14.3332 47.4231 14.3364 47.3194C14.3396 47.2156 14.3105 47.1134 14.253 47.027C13.536 45.9527 13.0363 44.7483 12.782 43.482C12.7617 43.3803 12.7101 43.2874 12.6344 43.2164C12.5588 43.1454 12.4628 43.0998 12.36 43.086L8.58401 42.565V40.436L12.36 39.915C12.4627 39.9009 12.5585 39.8552 12.6341 39.7843C12.7097 39.7133 12.7614 39.6206 12.782 39.519C13.0361 38.2526 13.5359 37.0483 14.253 35.974C14.3105 35.8876 14.3396 35.7854 14.3364 35.6816C14.3332 35.5779 14.2977 35.4777 14.235 35.395L11.932 32.354L13.437 30.849L16.478 33.152C16.5608 33.2145 16.661 33.2497 16.7647 33.2529C16.8683 33.2562 16.9705 33.2272 17.057 33.17C18.1315 32.4525 19.3362 31.9528 20.603 31.699C20.7047 31.6787 20.7976 31.6271 20.8686 31.5514C20.9396 31.4758 20.9852 31.3798 20.999 31.277L21.52 27.501H23.648L24.169 31.277C24.1831 31.3797 24.2288 31.4755 24.2998 31.5511C24.3707 31.6267 24.4634 31.6784 24.565 31.699C25.833 31.953 27.025 32.449 28.111 33.17C28.288 33.287 28.52 33.28 28.69 33.152L31.731 30.849L33.236 32.354L30.932 35.395C30.8693 35.4777 30.8338 35.5779 30.8306 35.6816C30.8274 35.7854 30.8565 35.8876 30.914 35.974C31.6313 37.0482 32.1311 38.2525 32.385 39.519C32.4053 39.6207 32.4569 39.7136 32.5326 39.7846C32.6082 39.8556 32.7042 39.9012 32.807 39.915L36.583 40.436V42.564ZM36.583 16.5C34.929 16.5 33.583 17.846 33.583 19.5C33.583 21.154 34.929 22.5 36.583 22.5C38.237 22.5 39.583 21.154 39.583 19.5C39.583 17.846 38.237 16.5 36.583 16.5ZM36.583 21.5C35.48 21.5 34.583 20.603 34.583 19.5C34.583 18.397 35.48 17.5 36.583 17.5C37.686 17.5 38.583 18.397 38.583 19.5C38.583 20.603 37.686 21.5 36.583 21.5Z" fill="url(#paint1_linear_364_1992)"/>
<path d="M48.1525 17.815L45.1595 17.402C44.9465 16.5267 44.599 15.6898 44.1295 14.921L45.9555 12.511C46.0285 12.4149 46.0641 12.2955 46.0559 12.1751C46.0476 12.0546 45.9959 11.9413 45.9105 11.856L44.2275 10.173C44.1421 10.0877 44.0288 10.0362 43.9084 10.0279C43.788 10.0197 43.6687 10.0552 43.5725 10.128L41.1625 11.954C40.3937 11.4848 39.5567 11.1377 38.6815 10.925L38.2685 7.932C38.2525 7.81218 38.1934 7.70228 38.1023 7.62279C38.0112 7.54331 37.8944 7.49966 37.7735 7.5H35.3945C35.2737 7.50009 35.157 7.54388 35.0661 7.62329C34.9751 7.7027 34.9159 7.81236 34.8995 7.932L34.4865 10.925C33.6113 11.1378 32.7744 11.4849 32.0055 11.954L29.5955 10.128C29.4992 10.0554 29.3799 10.02 29.2596 10.0283C29.1393 10.0365 29.026 10.0879 28.9405 10.173L27.2585 11.856C27.173 11.9413 27.1214 12.0546 27.1131 12.1751C27.1048 12.2955 27.1405 12.4149 27.2135 12.511L29.0395 14.921C28.5703 15.69 28.2229 16.5269 28.0095 17.402L25.0165 17.815C24.8968 17.8314 24.7872 17.8906 24.7078 17.9816C24.6284 18.0726 24.5846 18.1892 24.5845 18.31V20.689C24.5846 20.8098 24.6284 20.9264 24.7078 21.0174C24.7872 21.1084 24.8968 21.1676 25.0165 21.184L28.0095 21.597C28.2228 22.4722 28.5703 23.3091 29.0395 24.078L27.2135 26.488C27.1405 26.5842 27.1048 26.7035 27.1131 26.8239C27.1214 26.9444 27.173 27.0577 27.2585 27.143L28.9405 28.826C29.0256 28.9117 29.139 28.9634 29.2595 28.9717C29.38 28.98 29.4994 28.9442 29.5955 28.871L32.0055 27.045C32.7743 27.5142 33.6112 27.8613 34.4865 28.074L34.8995 31.067C34.9159 31.1866 34.9751 31.2963 35.0661 31.3757C35.157 31.4551 35.2737 31.4989 35.3945 31.499H37.7735C37.8942 31.4989 38.0109 31.4551 38.1019 31.3757C38.1929 31.2963 38.2521 31.1866 38.2685 31.067L38.6815 28.074C39.5566 27.8612 40.3936 27.5141 41.1625 27.045L43.5725 28.871C43.6685 28.9442 43.7879 28.98 43.9084 28.9717C44.0289 28.9634 44.1423 28.9117 44.2275 28.826L45.9105 27.143C45.9959 27.0577 46.0476 26.9444 46.0559 26.8239C46.0641 26.7035 46.0285 26.5842 45.9555 26.488L44.1295 24.078C44.5986 23.309 44.946 22.4721 45.1595 21.597L48.1525 21.184C48.2721 21.1676 48.3818 21.1084 48.4612 21.0174C48.5406 20.9264 48.5844 20.8098 48.5845 20.689V18.31C48.584 18.1894 48.54 18.0729 48.4607 17.982C48.3814 17.8911 48.2719 17.8318 48.1525 17.815ZM47.5835 20.254L44.6785 20.655C44.5758 20.6691 44.48 20.7148 44.4044 20.7857C44.3288 20.8567 44.2771 20.9494 44.2565 21.051C44.0575 22.0424 43.6661 22.9852 43.1045 23.826C43.047 23.9124 43.0179 24.0146 43.0211 24.1184C43.0243 24.2221 43.0597 24.3223 43.1225 24.405L44.8945 26.745L43.8285 27.811L41.4885 26.039C41.4058 25.9761 41.3056 25.9406 41.2019 25.9374C41.0981 25.9342 40.9959 25.9634 40.9095 26.021C40.0684 26.582 39.1257 26.973 38.1345 27.172C38.0327 27.1923 37.9399 27.2439 37.8689 27.3196C37.7979 27.3952 37.7523 27.4912 37.7385 27.594L37.3375 30.5H35.8295L35.4285 27.594C35.4144 27.4913 35.3687 27.3955 35.2977 27.3199C35.2268 27.2443 35.1341 27.1926 35.0325 27.172C34.0413 26.9728 33.0987 26.5818 32.2575 26.021C32.1711 25.9634 32.0689 25.9342 31.9651 25.9374C31.8613 25.9406 31.7611 25.9761 31.6785 26.039L29.3385 27.811L28.2725 26.745L30.0445 24.405C30.1072 24.3223 30.1426 24.2221 30.1459 24.1184C30.1491 24.0146 30.1199 23.9124 30.0625 23.826C29.5011 22.985 29.1097 22.0423 28.9105 21.051C28.8901 20.9493 28.8386 20.8564 28.7629 20.7854C28.6872 20.7144 28.5913 20.6688 28.4885 20.655L25.5825 20.254V18.746L28.4885 18.345C28.5912 18.3309 28.687 18.2852 28.7626 18.2143C28.8382 18.1433 28.8899 18.0506 28.9105 17.949C29.1092 16.9575 29.5006 16.0147 30.0625 15.174C30.1199 15.0876 30.1491 14.9854 30.1459 14.8816C30.1426 14.7779 30.1072 14.6777 30.0445 14.595L28.2725 12.255L29.3385 11.189L31.6785 12.961C31.7613 13.0235 31.8614 13.0587 31.9651 13.0619C32.0688 13.0652 32.1709 13.0362 32.2575 12.979C33.0985 12.418 34.0413 12.027 35.0325 11.828C35.1342 11.8077 35.2271 11.7561 35.2981 11.6804C35.3691 11.6048 35.4147 11.5088 35.4285 11.406L35.8295 8.5H37.3375L37.7385 11.406C37.7526 11.5087 37.7983 11.6045 37.8692 11.6801C37.9402 11.7557 38.0329 11.8074 38.1345 11.828C39.1258 12.0268 40.0685 12.4178 40.9095 12.979C41.0865 13.096 41.3195 13.089 41.4885 12.961L43.8285 11.189L44.8945 12.255L43.1225 14.595C43.0597 14.6777 43.0243 14.7779 43.0211 14.8816C43.0179 14.9854 43.047 15.0876 43.1045 15.174C43.6654 16.0152 44.0567 16.9579 44.2565 17.949C44.2768 18.0507 44.3284 18.1436 44.404 18.2146C44.4797 18.2856 44.5756 18.3312 44.6785 18.345L47.5835 18.746V20.254Z" fill="url(#paint2_linear_364_1992)"/>
<path d="M47.6152 34.991C46.5112 34.988 45.6022 35.857 45.5832 36.959C45.5755 37.4892 45.7783 38.0009 46.1472 38.3818C46.5161 38.7627 47.021 38.9818 47.5512 38.991H47.5832C48.1078 38.9898 48.6109 38.783 48.9848 38.4151C49.3587 38.0472 49.5735 37.5474 49.5832 37.023C49.5912 36.4927 49.3885 35.9809 49.0195 35.5999C48.6506 35.2189 48.1455 34.9999 47.6152 34.991ZM47.5682 37.991C47.3107 37.9776 47.0683 37.8653 46.8915 37.6776C46.7147 37.4899 46.6172 37.2412 46.6193 36.9833C46.6213 36.7255 46.7228 36.4784 46.9026 36.2935C47.0824 36.1086 47.3265 36.0003 47.5842 35.991H47.6002C48.1522 36 48.5932 36.456 48.5842 37.007C48.5742 37.558 48.1162 38 47.5682 37.991Z" fill="#0071BC"/>
<path d="M56.1733 35.7763L54.0533 35.4493C53.9085 34.8467 53.6793 34.2677 53.3723 33.7293L54.6963 32.0403C54.7707 31.9452 54.8081 31.8263 54.8017 31.7058C54.7952 31.5852 54.7454 31.471 54.6613 31.3843L53.4383 30.1213C53.3546 30.034 53.2419 29.9802 53.1214 29.9699C53.0008 29.9596 52.8807 29.9935 52.7833 30.0653L51.0523 31.3333C50.524 31.0096 49.9527 30.7618 49.3553 30.5973L49.0973 28.4683C49.0829 28.3484 49.0255 28.2378 48.9358 28.1569C48.846 28.076 48.7301 28.0303 48.6093 28.0283L46.8503 28.0003C46.5663 27.9913 46.3863 28.1773 46.3483 28.4243L46.0213 30.5443C45.4188 30.6891 44.8397 30.9184 44.3013 31.2253L42.6123 29.9013C42.5175 29.8261 42.3985 29.7882 42.2777 29.7946C42.1569 29.8011 42.0426 29.8515 41.9563 29.9363L40.6933 31.1593C40.6064 31.2433 40.5528 31.3559 40.5426 31.4763C40.5323 31.5967 40.5659 31.7168 40.6373 31.8143L41.9053 33.5453C41.5816 34.0736 41.3338 34.6449 41.1693 35.2423L39.0403 35.5003C38.9204 35.5148 38.8098 35.5722 38.7289 35.6619C38.648 35.7516 38.6024 35.8675 38.6003 35.9883L38.5723 37.7473C38.5704 37.8681 38.6123 37.9855 38.6903 38.0777C38.7682 38.17 38.8769 38.231 38.9963 38.2493L41.1163 38.5763C41.2613 39.1783 41.4893 39.7543 41.7973 40.2963L40.4733 41.9853C40.399 42.0805 40.3615 42.1993 40.368 42.3199C40.3744 42.4404 40.4243 42.5546 40.5083 42.6413L41.7313 43.9043C41.8153 43.9912 41.9279 44.0448 42.0483 44.0551C42.1687 44.0654 42.2888 44.0317 42.3863 43.9603L44.1173 42.6923C44.6455 43.0164 45.2168 43.2642 45.8143 43.4283L46.0723 45.5573C46.0868 45.6772 46.1442 45.7878 46.2339 45.8687C46.3236 45.9496 46.4396 45.9953 46.5603 45.9973L48.3193 46.0253H48.3273C48.4467 46.0253 48.5622 45.9825 48.6528 45.9047C48.7434 45.827 48.8032 45.7193 48.8213 45.6013L49.1483 43.4813C49.7508 43.3362 50.3298 43.1069 50.8683 42.8003L52.5573 44.1243C52.7543 44.2783 53.0343 44.2643 53.2133 44.0893L54.4763 42.8663C54.5632 42.7823 54.6168 42.6697 54.6271 42.5493C54.6374 42.4289 54.6037 42.3088 54.5323 42.2113L53.2643 40.4803C53.588 39.952 53.8358 39.3807 54.0003 38.7833L56.1293 38.5253C56.2492 38.5108 56.3599 38.4534 56.4407 38.3637C56.5216 38.274 56.5673 38.1581 56.5693 38.0373L56.5973 36.2783C56.5992 36.1575 56.5573 36.0402 56.4794 35.9479C56.4014 35.8556 56.2927 35.7947 56.1733 35.7763ZM55.5763 37.5853L53.5363 37.8333C53.4333 37.846 53.3367 37.8903 53.2598 37.9601C53.183 38.03 53.1297 38.1219 53.1073 38.2233C52.9523 38.9374 52.6588 39.6142 52.2433 40.2153C52.1846 40.3008 52.1539 40.4025 52.1555 40.5063C52.1571 40.61 52.1909 40.7107 52.2523 40.7943L53.4673 42.4523L52.8303 43.0693L51.2123 41.8013C51.1306 41.7372 51.0309 41.7002 50.9271 41.6954C50.8234 41.6905 50.7207 41.7181 50.6333 41.7743C50.0123 42.1723 49.3333 42.4413 48.6143 42.5743C48.5123 42.5933 48.4187 42.6435 48.3465 42.718C48.2742 42.7926 48.227 42.8877 48.2113 42.9903L47.8983 45.0203L47.0113 45.0063L46.7633 42.9663C46.7507 42.8633 46.7064 42.7667 46.6365 42.6898C46.5667 42.613 46.4747 42.5597 46.3733 42.5373C45.6593 42.3821 44.9826 42.0886 44.3813 41.6733C44.2958 41.6146 44.1941 41.5838 44.0904 41.5855C43.9866 41.5871 43.886 41.6209 43.8023 41.6823L42.1443 42.8973L41.5273 42.2603L42.7953 40.6423C42.8594 40.5606 42.8964 40.4609 42.9013 40.3571C42.9061 40.2534 42.8785 40.1507 42.8223 40.0633C42.4269 39.4487 42.1552 38.7629 42.0223 38.0443C42.0034 37.9423 41.9532 37.8487 41.8786 37.7764C41.8041 37.7042 41.7089 37.657 41.6063 37.6413L39.5763 37.3283L39.5903 36.4413L41.6303 36.1933C41.7335 36.1805 41.8301 36.136 41.9069 36.0659C41.9837 35.9959 42.037 35.9038 42.0593 35.8023C42.2143 35.0885 42.5078 34.4121 42.9233 33.8113C42.9821 33.7258 43.0128 33.6241 43.0112 33.5204C43.0096 33.4166 42.9757 33.316 42.9143 33.2323L41.6993 31.5743L42.3363 30.9573L43.9543 32.2253C44.0362 32.2891 44.1358 32.326 44.2395 32.3308C44.3432 32.3357 44.4459 32.3082 44.5333 32.2523C45.1477 31.8565 45.8336 31.5848 46.5523 31.4523C46.6544 31.4334 46.748 31.3831 46.8202 31.3086C46.8924 31.2341 46.9396 31.1389 46.9553 31.0363L47.2683 29.0063L48.1553 29.0203L48.4033 31.0603C48.4162 31.1635 48.4607 31.2601 48.5307 31.3369C48.6007 31.4137 48.6928 31.467 48.7943 31.4893C49.5081 31.6443 50.1846 31.9378 50.7853 32.3533C50.8707 32.4125 50.9724 32.4435 51.0763 32.4418C51.1801 32.4402 51.2809 32.4061 51.3643 32.3443L53.0223 31.1293L53.6393 31.7663L52.3713 33.3843C52.3072 33.4661 52.2702 33.5657 52.2654 33.6695C52.2605 33.7733 52.2881 33.876 52.3443 33.9633C52.7423 34.5833 53.0113 35.2623 53.1443 35.9823C53.1633 36.0844 53.2135 36.178 53.288 36.2502C53.3626 36.3224 53.4577 36.3696 53.5603 36.3853L55.5903 36.6983L55.5763 37.5853Z" fill="#0071BC"/>
<defs>
<linearGradient id="paint0_linear_364_1992" x1="17.5894" y1="37.6508" x2="29.4787" y2="46.3201" gradientUnits="userSpaceOnUse">
<stop stop-color="#07FFE1"/>
<stop offset="1" stop-color="#9DFF00"/>
</linearGradient>
<linearGradient id="paint1_linear_364_1992" x1="7.60338" y1="21.1032" x2="51.0824" y2="46.4659" gradientUnits="userSpaceOnUse">
<stop stop-color="#07FFE1"/>
<stop offset="1" stop-color="#9DFF00"/>
</linearGradient>
<linearGradient id="paint2_linear_364_1992" x1="24.5998" y1="10.2618" x2="53.1332" y2="31.0683" gradientUnits="userSpaceOnUse">
<stop stop-color="#07FFE1"/>
<stop offset="1" stop-color="#9DFF00"/>
</linearGradient>
</defs>
</svg>
