<svg width="52" height="33" viewBox="0 0 52 33" fill="none" xmlns="http://www.w3.org/2000/svg">
<path d="M9.8716 23.7377C9.86649 23.7673 9.8678 23.7949 9.87553 23.8206C9.8794 23.8335 9.87878 23.8547 9.87366 23.8842L9.89294 23.8784C9.86724 23.8862 9.86019 23.9093 9.87179 23.9478C9.89113 24.0121 9.92974 24.0705 9.98762 24.1232C10.0416 24.163 10.0783 24.215 10.0976 24.2792C10.1131 24.3306 10.1138 24.3795 10.0997 24.4257C10.0985 24.4682 10.1036 24.5086 10.1152 24.5472C10.1346 24.6114 10.1751 24.6763 10.2369 24.7418C10.2947 24.7944 10.3372 24.8657 10.3643 24.9557C10.3836 25.0199 10.455 25.1175 10.5785 25.2485C10.7149 25.3756 10.8043 25.5098 10.8469 25.6512C10.9242 25.9081 10.8698 26.0997 10.6835 26.2258C10.4973 26.3519 10.2982 26.4819 10.0862 26.6158C9.95252 26.5439 9.80401 26.4695 9.64072 26.3925C9.49028 26.3117 9.39379 26.2006 9.35125 26.0593C9.33965 26.0207 9.3351 25.959 9.33759 25.8742C9.26549 25.7278 9.16638 25.5614 9.04026 25.3752C8.91027 25.1761 8.82208 24.9995 8.77567 24.8453C8.7602 24.7939 8.76594 24.7431 8.79289 24.693L8.76594 24.7431L8.74087 24.7296C8.737 24.7168 8.73507 24.7104 8.73507 24.7104C8.74792 24.7065 8.75241 24.6981 8.74854 24.6853L8.80449 24.7315C8.65405 24.6507 8.52799 24.5345 8.42632 24.3829C8.33364 24.2146 8.24737 24.0444 8.16754 23.8723C8.09668 23.6834 8.03225 23.4926 7.97424 23.2999C7.91623 23.1072 7.85374 22.9228 7.78675 22.7468C7.74421 22.6054 7.71839 22.4731 7.70928 22.3497C7.6963 22.2135 7.66855 22.0747 7.62601 21.9334C7.59894 21.8434 7.55709 21.7509 7.50045 21.6559C7.45667 21.557 7.4193 21.4561 7.38837 21.3533C7.29942 21.0578 7.24846 20.8419 7.23549 20.7057C7.21865 20.5566 7.23262 20.3703 7.2774 20.1466C7.25033 20.0567 7.17635 19.9738 7.05548 19.8981C6.94745 19.8185 6.87603 19.7209 6.84123 19.6053C6.77162 19.374 6.71935 19.1305 6.68442 18.8748C6.64949 18.6191 6.59528 18.3691 6.52181 18.125C6.50247 18.0608 6.47864 18.0049 6.45033 17.9574C6.43486 17.906 6.41746 17.8481 6.39812 17.7839C6.36718 17.6811 6.36837 17.5686 6.40167 17.4465C6.44396 17.3077 6.44963 17.1869 6.4187 17.0841C6.38776 16.9813 6.33306 16.8927 6.25459 16.8182C6.18511 16.727 6.13683 16.6364 6.10976 16.5465C6.08656 16.4694 6.07814 16.3949 6.0845 16.3229C6.10371 16.247 6.10172 16.1706 6.07851 16.0935C6.00117 15.8365 5.91235 15.6811 5.81206 15.6272C5.72074 15.5566 5.65581 15.5271 5.61727 15.5387C5.45023 15.589 5.26717 15.6791 5.06808 15.8091C4.88184 15.9352 4.67826 16.0735 4.45734 16.2241C4.24927 16.3708 4.03284 16.513 3.80805 16.6507C3.58326 16.7885 3.36165 16.8902 3.14323 16.9559C2.9248 17.0217 2.71985 17.0623 2.52836 17.0779C2.34586 17.0768 2.15114 17.0584 1.94419 17.0226C1.92747 17.0136 1.85998 16.9989 1.74173 16.9784C1.63632 16.9541 1.51868 16.9124 1.38882 16.8534C1.25897 16.7944 1.12973 16.7142 1.00112 16.6128C0.872506 16.5114 0.784997 16.3836 0.738591 16.2294C0.711521 16.1394 0.731354 16.0424 0.798092 15.9382C0.85198 15.8379 0.930319 15.7723 1.03311 15.7414C1.1359 15.7104 1.24449 15.6988 1.35888 15.7064C1.47327 15.714 1.58186 15.7023 1.68465 15.6714C1.81313 15.6327 1.93326 15.5896 2.04503 15.5419C2.15293 15.4814 2.26726 15.419 2.38801 15.3546C2.46124 15.3185 2.64879 15.2201 2.95067 15.0591C3.26153 14.8815 3.58331 14.6936 3.916 14.4953C4.26154 14.2933 4.56853 14.1028 4.83698 13.9239C5.10543 13.745 5.22998 13.6234 5.21065 13.5592C5.19905 13.5206 5.18295 13.4905 5.16237 13.4686C5.13792 13.434 5.11796 13.3909 5.10249 13.3395C5.07542 13.2496 5.1396 13.1602 5.29503 13.0714C5.45945 12.9658 5.59305 12.8976 5.69583 12.8667C5.86287 12.8164 6.02865 12.8085 6.19319 12.8431C6.37058 12.8738 6.54279 12.864 6.70982 12.8137C6.82545 12.7789 6.9308 12.7332 7.02586 12.6766C7.12989 12.6032 7.23137 12.5446 7.33029 12.5008C7.88914 12.2626 8.41906 11.998 8.92003 11.7071C9.421 11.4162 9.96057 11.1837 10.5388 11.0097C10.603 10.9904 10.7142 10.9639 10.8722 10.9304C11.0392 10.8801 11.2121 10.8491 11.3907 10.8374C11.5693 10.8256 11.7364 10.8454 11.892 10.8967C12.0437 10.9351 12.1427 11.0314 12.1891 11.1856C12.2549 11.404 12.2004 11.5955 12.0258 11.7602C11.8511 11.9249 11.6322 12.0819 11.3688 12.2312C11.1145 12.3638 10.8434 12.4874 10.5556 12.6021C10.264 12.7038 10.034 12.8011 9.86572 12.8938C9.77578 12.9208 9.7212 12.9723 9.70199 13.0481C9.67892 13.1111 9.63526 13.1523 9.57101 13.1716C9.51962 13.1871 9.46436 13.1897 9.40523 13.1795C9.35895 13.1654 9.30818 13.1597 9.25292 13.1623C9.12456 13.341 8.93258 13.5179 8.67698 13.693C8.43036 13.8513 8.19272 13.9928 7.96407 14.1177C7.85616 14.1782 7.79847 14.3357 7.79099 14.5902C7.79249 14.8279 7.82037 15.1068 7.87464 15.4268C7.92503 15.7339 7.98379 16.0455 8.05091 16.3616C8.13087 16.6738 8.19986 16.9263 8.25786 17.1191C8.2772 17.1833 8.30296 17.2456 8.33514 17.306C8.36346 17.3535 8.38729 17.4094 8.40662 17.4736C8.48783 17.7435 8.55813 18.0236 8.61751 18.314C8.67302 18.5915 8.74332 18.8716 8.8284 19.1543C8.88254 19.3342 8.9431 19.5121 9.01009 19.6882C9.07321 19.8513 9.13184 20.0228 9.18598 20.2027C9.21967 20.5009 9.28547 20.7893 9.3834 21.0681C9.47746 21.3341 9.54582 21.6078 9.58848 21.8892C9.62853 22.1154 9.64032 22.364 9.62385 22.6352C9.62024 22.9026 9.64743 23.1326 9.70544 23.3253C9.72091 23.3767 9.74923 23.4242 9.79039 23.4679C9.82769 23.4987 9.85214 23.5334 9.86374 23.5719C9.87148 23.5976 9.87472 23.6317 9.87347 23.6741C9.86836 23.7037 9.86325 23.7332 9.85813 23.7628L9.8716 23.7377ZM9.87366 23.8842C9.89811 23.9189 9.92194 23.9748 9.94514 24.0519C9.92194 23.9748 9.89811 23.9189 9.87366 23.8842ZM9.85813 23.7628L9.8716 23.7377L9.85813 23.7628ZM21.422 12.4002C21.5505 12.3616 21.6636 12.3415 21.7613 12.3402C21.8551 12.3259 21.9405 12.3072 22.0176 12.284C22.1268 12.1811 22.2327 12.1142 22.3355 12.0833C22.5154 12.0291 22.7217 12.0161 22.9543 12.0441C23.1831 12.0594 23.4023 12.1125 23.6119 12.2036C23.8343 12.2908 24.0342 12.4197 24.2118 12.5905C24.3893 12.7613 24.5148 12.9687 24.5882 13.2129C24.6965 13.5726 24.6904 13.9248 24.5699 14.2693C24.4455 14.601 24.2909 14.8788 24.1061 15.1025C23.9187 15.4112 23.7294 15.7134 23.5382 16.0091C23.3431 16.2921 23.2315 16.6199 23.2036 16.9926C23.2461 17.1339 23.2945 17.2946 23.3486 17.4744C23.4117 17.6376 23.4704 17.8091 23.5245 17.989C23.5516 18.0789 23.5787 18.1689 23.6057 18.2588C23.6289 18.3359 23.6457 18.4149 23.6561 18.4959C23.6793 18.573 23.752 18.6982 23.8742 18.8716C24.0055 19.0283 24.1643 19.1837 24.3508 19.3377C24.5463 19.4751 24.7488 19.5893 24.9584 19.6803C25.1808 19.7675 25.4012 19.7783 25.6197 19.7125C25.8509 19.6429 26.0269 19.5059 26.1475 19.3014C26.2643 19.0841 26.354 18.8469 26.4168 18.5898C26.4924 18.3288 26.5468 18.0673 26.5799 17.805C26.6221 17.5261 26.6778 17.2922 26.747 17.1032C26.7803 16.981 26.8169 16.893 26.8567 16.839C26.9093 16.7811 26.9581 16.7104 27.003 16.6268C26.999 16.4738 26.9976 16.3061 26.9987 16.1236C27.0127 15.9373 27.0286 15.7573 27.0464 15.5838C27.0732 15.3936 27.1123 15.2207 27.1635 15.0651C27.2238 14.8928 27.3021 14.7572 27.3984 14.6581C27.4253 14.608 27.4375 14.5553 27.4348 14.5C27.4322 14.4447 27.438 14.394 27.4521 14.3477C27.484 14.1279 27.5191 13.8721 27.5574 13.5803C27.5918 13.2757 27.6365 12.982 27.6916 12.6992C27.7427 12.4036 27.808 12.1317 27.8875 11.8836C27.9669 11.6354 28.0741 11.4561 28.2089 11.3454C28.2732 11.3261 28.3413 11.3196 28.4133 11.3259C28.4852 11.3323 28.5572 11.3387 28.6292 11.345C28.6832 11.3848 28.698 11.4574 28.6737 11.5628C28.6584 11.6515 28.6231 11.7672 28.568 11.9099C28.5218 12.0359 28.4712 12.1703 28.4161 12.313C28.3609 12.4557 28.3251 12.5926 28.3085 12.7237C28.3021 12.7957 28.3035 12.8934 28.3126 13.0167C28.3217 13.1401 28.3244 13.2654 28.3206 13.3926C28.3298 13.516 28.3286 13.6285 28.3171 13.73C28.3017 13.8187 28.2684 13.8708 28.217 13.8863C28.1784 13.8979 28.1444 13.9011 28.1148 13.896L28.0918 14.029L28.1324 14.1639C28.1633 14.2667 28.1686 14.3773 28.1481 14.4955C28.1277 14.6138 28.0989 14.7275 28.0617 14.8368C28.0335 14.9294 28.0053 15.0219 27.9771 15.1145C27.9489 15.2071 27.9445 15.2855 27.9638 15.3497C27.9551 15.6466 27.931 15.9621 27.8914 16.2963C27.8519 16.6305 27.8766 16.9454 27.9655 17.2409C28.0119 17.3951 28.0628 17.5409 28.1182 17.6784C28.1736 17.8158 28.2226 17.9552 28.2651 18.0966C28.1803 18.0941 28.1128 18.0793 28.0626 18.0524C28.0253 18.0216 27.9707 18.003 27.8987 17.9966C27.8012 18.1381 27.7653 18.275 27.7911 18.4074C27.817 18.5397 27.8409 18.6656 27.8628 18.7852C27.8848 18.9047 27.8772 19.019 27.84 19.1283C27.7989 19.2248 27.6628 19.3078 27.4315 19.3774C27.4431 19.4159 27.4714 19.4635 27.5165 19.52C27.5576 19.5636 27.5821 19.5983 27.5898 19.624C27.4525 19.8195 27.3126 20.0297 27.1701 20.2548C27.0238 20.467 26.88 20.5943 26.7386 20.6369C26.6744 20.6562 26.6166 20.6736 26.5652 20.6891C26.5228 20.6878 26.4759 20.6949 26.4245 20.7104C26.3602 20.7297 26.287 20.7658 26.2048 20.8186C26.1226 20.8713 26.0301 20.9132 25.9273 20.9441C25.6446 21.0292 25.3202 21.0918 24.9539 21.132C24.5877 21.1722 24.2548 21.1602 23.9553 21.0963C23.8794 21.077 23.819 21.0392 23.774 20.9827C23.7251 20.9133 23.6781 20.8504 23.6331 20.7939C23.588 20.7374 23.5321 20.6912 23.4652 20.6552C23.3984 20.6193 23.3071 20.6187 23.1915 20.6535C23.1529 20.6651 23.1298 20.6581 23.1221 20.6324L23.1046 20.5746C23.0325 20.4281 22.9361 20.317 22.8152 20.2413C22.6943 20.1656 22.567 20.0918 22.4333 20.02C22.3124 19.9443 22.196 19.8602 22.0841 19.7677C21.9722 19.6753 21.8828 19.5411 21.8158 19.3651C21.7608 19.6479 21.7154 19.8927 21.6796 20.0997C21.6399 20.2938 21.5977 20.5027 21.5529 20.7263C21.5467 20.9384 21.5513 21.1402 21.5669 21.3317C21.5787 21.5103 21.573 21.7012 21.5501 21.9042L21.2803 21.9855C21.4156 22.4352 21.4005 22.804 21.235 23.0921C21.0785 23.3634 20.6918 23.5918 20.0751 23.7775C19.8438 23.8471 19.5919 23.8949 19.3195 23.9208C19.0471 23.9468 18.7714 23.9387 18.4924 23.8965C18.2135 23.8543 17.9461 23.7807 17.6903 23.6755C17.4434 23.5536 17.2318 23.3861 17.0556 23.1729C17.1841 23.1343 17.2933 23.1014 17.3832 23.0743C17.4693 23.0344 17.5637 22.999 17.6665 22.968C17.6035 22.9449 17.5617 22.9225 17.5411 22.9007C17.5334 22.875 17.5167 22.866 17.491 22.8737C17.1749 22.9408 16.9082 22.916 16.6909 22.7993C16.4864 22.6786 16.3076 22.4802 16.1544 22.204C16.058 22.163 15.9789 22.1097 15.9172 22.0442C15.8683 21.9749 15.8258 21.9036 15.7897 21.8304C15.7537 21.7571 15.7176 21.6839 15.6816 21.6107C15.6584 21.5336 15.6178 21.4687 15.5599 21.4161C15.4544 21.2517 15.3534 21.0789 15.2568 20.8978C15.1692 20.6999 15.0797 20.4957 14.9883 20.285C15.0063 20.2516 15.048 20.204 15.1135 20.1422C15.1918 20.0766 15.2862 19.9711 15.3966 19.8258L14.8377 19.994C14.7976 19.7679 14.7434 19.5179 14.6751 19.2442C14.6157 18.9538 14.5711 18.666 14.5413 18.3807C14.5037 18.0697 14.4803 17.7825 14.4711 17.519C14.4618 17.2556 14.4629 17.003 14.4743 16.7614C14.4817 16.5069 14.5059 16.2614 14.5469 16.0249C14.5967 15.7717 14.664 15.5062 14.7486 15.2285C14.7743 15.2208 14.7961 15.2002 14.814 15.1668C14.841 15.1167 14.8802 15.0838 14.9316 15.0684C15.1306 14.9384 15.3426 14.8045 15.5674 14.6668C15.7922 14.5291 16.033 14.4216 16.29 14.3442C16.7654 14.2011 17.2217 14.2039 17.6588 14.3526C18.0959 14.5013 18.3898 14.8262 18.5407 15.3273C18.618 15.5843 18.635 15.8734 18.5916 16.1948C18.561 16.5123 18.4816 16.8304 18.3534 17.1493C18.238 17.4642 18.0847 17.7696 17.8934 18.0654C17.7112 18.3444 17.5045 18.5888 17.2733 18.7985C17.1334 18.9387 17.0204 19.0988 16.9345 19.2788C16.8575 19.4421 16.8403 19.5945 16.8828 19.7358C16.9022 19.8 16.9299 19.8688 16.9659 19.942C17.011 19.9985 17.0431 20.0589 17.0625 20.1231C17.0973 20.2388 17.0852 20.3615 17.0262 20.4914C17.1073 20.6211 17.171 20.7631 17.2174 20.9172C17.26 21.0586 17.3089 21.198 17.3643 21.3354C17.4197 21.4729 17.4944 21.6046 17.5883 21.7304C17.6912 21.8396 17.8352 21.9224 18.0203 21.9787C18.1875 22.0686 18.3495 22.1879 18.5065 22.3369C18.6595 22.473 18.8376 22.5525 19.0407 22.5754C19.1667 22.6216 19.276 22.6588 19.3685 22.687C19.4572 22.7023 19.569 22.7247 19.704 22.7541C19.7347 22.5768 19.7615 22.3865 19.7845 22.1834C19.8164 21.9636 19.8503 21.7503 19.8861 21.5433C19.9347 21.3325 19.9937 21.1326 20.0629 20.9436C20.1321 20.7546 20.2284 20.5855 20.3516 20.4363C20.4247 20.2602 20.4824 20.1027 20.5247 19.9639C20.5631 19.8122 20.5951 19.6624 20.6207 19.5146C20.6591 19.3629 20.6994 19.2176 20.7417 19.0788C20.793 18.9232 20.868 18.7535 20.9668 18.5696C21.0579 18.3601 21.1168 18.1602 21.1436 17.9699C21.1833 17.7758 21.1703 17.5696 21.1045 17.3511C21.0775 17.2612 21.0356 17.1687 20.979 17.0737C20.9352 16.9747 20.8978 16.8739 20.8669 16.7711C20.805 16.5655 20.7688 16.3522 20.7584 16.1312C20.7479 15.9101 20.7188 15.6737 20.671 15.4218C20.6323 15.2933 20.6367 15.1449 20.6841 14.9765C20.7315 14.8081 20.7436 14.6853 20.7204 14.6082C20.6959 14.5735 20.674 14.5241 20.6547 14.4598C20.6199 14.3442 20.6262 14.2022 20.6736 14.0338C20.7338 13.8615 20.8069 13.6854 20.8929 13.5053C20.9878 13.3086 21.0847 13.1183 21.1835 12.9345C21.2823 12.7506 21.3618 12.5725 21.422 12.4002ZM16.5209 18.1842C16.729 18.0375 16.9165 17.869 17.0834 17.6786C17.2465 17.4754 17.378 17.2607 17.478 17.0344C17.5742 16.7953 17.6344 16.5529 17.6586 16.3074C17.6789 16.0491 17.6524 15.7979 17.5789 15.5537C17.5247 15.3739 17.4321 15.2056 17.3008 15.0489C17.1657 14.8794 17.0147 14.8197 16.8476 14.87C16.7834 14.8894 16.7198 14.9575 16.657 15.0745C16.5902 15.1787 16.5248 15.3105 16.4607 15.4699C16.4055 15.6126 16.3543 15.7682 16.3069 15.9366C16.2684 16.0883 16.2435 16.2149 16.232 16.3164C16.2078 16.5619 16.1965 16.8036 16.198 17.0413C16.2085 17.2624 16.2569 17.493 16.3432 17.7333C16.3664 17.8104 16.3896 17.8875 16.4128 17.9645C16.4488 18.0378 16.4849 18.111 16.5209 18.1842ZM22.8436 15.3774C22.9156 15.3838 22.9638 15.4043 22.9882 15.439C23.2168 15.174 23.3938 14.8545 23.5194 14.4804C23.6451 14.1063 23.6634 13.7715 23.5744 13.4759C23.5126 13.2704 23.4193 13.1233 23.2945 13.0347C23.1698 12.9462 23.056 12.9173 22.9532 12.9483C22.8376 12.9831 22.7721 13.0448 22.7567 13.1335C22.7414 13.2222 22.7133 13.3848 22.6724 13.6213C22.5788 13.9157 22.5765 14.2107 22.6654 14.5062C22.7505 14.7889 22.8099 15.0793 22.8436 15.3774ZM16.6246 22.0205C16.64 21.9318 16.6399 21.8617 16.6244 21.8103C16.6051 21.7461 16.562 21.696 16.4952 21.6601C16.4283 21.6242 16.355 21.5902 16.2753 21.5581C16.2702 21.5877 16.2567 21.6128 16.2349 21.6333C16.1912 21.6745 16.1565 21.699 16.1308 21.7067C16.2221 21.7773 16.2929 21.8261 16.343 21.853C16.406 21.8761 16.4999 21.9319 16.6246 22.0205ZM16.637 20.7346C16.5508 20.6344 16.4742 20.5664 16.4074 20.5305C16.3495 20.4778 16.2556 20.422 16.1258 20.363C16.1078 20.3964 16.0854 20.4382 16.0584 20.4884C16.0443 20.5347 16.0148 20.5996 15.9699 20.6832C16.2038 20.6688 16.4262 20.686 16.637 20.7346ZM22.7143 19.557C22.7092 19.5866 22.7022 19.6098 22.6932 19.6265C22.6803 19.6303 22.6649 19.649 22.647 19.6824C22.629 19.7158 22.6091 19.7429 22.5873 19.7634C22.6207 19.7814 22.6496 19.8077 22.6741 19.8424C22.6947 19.8642 22.7307 19.8674 22.7821 19.8519C22.7782 19.8391 22.7827 19.8307 22.7955 19.8269C22.8084 19.823 22.8193 19.8127 22.8283 19.796C22.8373 19.7793 22.8443 19.7561 22.8494 19.7266C22.8417 19.7009 22.8192 19.6726 22.7819 19.6418C22.7446 19.611 22.722 19.5827 22.7143 19.557ZM16.8168 21.3321C16.8245 21.3578 16.8303 21.377 16.8342 21.3899C16.8509 21.3989 16.8863 21.4233 16.9403 21.4631C16.9505 21.4039 16.973 21.3621 17.0077 21.3377C17.0423 21.3132 17.0879 21.2785 17.1444 21.2335L17.1194 21.22C17.0859 21.202 17.0564 21.1969 17.0307 21.2046L16.8168 21.3321ZM37.5885 20.2719C37.5203 20.2784 37.4587 20.2829 37.4034 20.2855C37.352 20.301 37.3135 20.3126 37.2878 20.3204C37.2107 20.3436 37.115 20.4214 37.0007 20.5539C36.7438 20.6312 36.5002 20.6134 36.27 20.5006C36.0566 20.3966 35.8553 20.24 35.6662 20.0307C35.4938 19.8304 35.3374 19.5902 35.1971 19.3101C35.0606 19.0429 34.9473 18.7828 34.8571 18.5297C34.8262 18.4269 34.7972 18.3305 34.7701 18.2406C34.7559 18.1468 34.7352 18.0549 34.7082 17.965C34.6656 17.8236 34.6141 17.699 34.5536 17.5911C34.4931 17.4832 34.4435 17.365 34.4048 17.2365C34.3816 17.1594 34.3758 17.0701 34.3872 16.9686C34.3949 16.8542 34.4044 16.7462 34.4159 16.6447C34.4235 16.5303 34.4369 16.4352 34.4561 16.3593C34.4753 16.2835 34.4811 16.2327 34.4733 16.207C34.4617 16.1685 34.4456 16.1383 34.425 16.1164C34.4134 16.0779 34.4018 16.0393 34.3902 16.0008C34.3825 15.9751 34.3793 15.941 34.3805 15.8986C34.3818 15.8562 34.3785 15.8222 34.3708 15.7965C34.3514 15.7322 34.3038 15.6905 34.228 15.6713C34.1483 15.6392 34.0968 15.5847 34.0736 15.5076C34.0427 15.4048 34.0291 15.2898 34.0328 15.1625C34.0327 15.0224 34.0281 14.8907 34.019 14.7673C33.9997 14.7031 33.9668 14.6639 33.9206 14.6498C33.8704 14.6229 33.8376 14.5837 33.8221 14.5323C33.8144 14.5066 33.8285 14.4603 33.8644 14.3935C33.9569 14.2816 33.9889 14.1318 33.9604 13.9442C33.932 13.7566 33.9061 13.6242 33.8829 13.5471C33.8365 13.393 33.7773 13.2426 33.7052 13.0962C33.6331 12.9498 33.5738 12.7994 33.5274 12.6453C33.5003 12.5553 33.4861 12.4615 33.4848 12.3638C33.4795 12.2533 33.4634 12.1531 33.4363 12.0631C33.4286 12.0374 33.4125 12.0072 33.388 11.9726C33.3764 11.934 33.3578 11.9186 33.3321 11.9264C33.2935 11.938 33.221 12.0228 33.1144 12.181C33.0079 12.3392 32.9027 12.525 32.7988 12.7384C32.691 12.939 32.5999 13.1486 32.5256 13.3672C32.4602 13.569 32.4385 13.7297 32.4605 13.8492C32.4708 13.9301 32.4652 14.0509 32.4435 14.2116C32.4218 14.3723 32.3847 14.5516 32.3321 14.7496C32.2886 14.9308 32.2386 15.114 32.1823 15.2991C32.1349 15.4675 32.0945 15.6128 32.0612 15.7349C31.9856 15.9959 31.91 16.2569 31.8344 16.5178C31.755 16.7659 31.6569 16.9986 31.5401 17.216C31.4195 17.4204 31.2718 17.605 31.0972 17.7696C30.9187 17.9214 30.6881 18.0399 30.4054 18.125C30.2127 18.183 30.0411 18.1716 29.8907 18.0907C29.7492 17.9932 29.6193 17.8641 29.5009 17.7036C29.3954 17.5392 29.3033 17.3497 29.2247 17.1351C29.1423 16.9077 29.0682 16.6848 29.0024 16.4664C28.9212 16.1966 28.8561 15.9569 28.8071 15.7475C28.758 15.538 28.6987 15.3177 28.6291 15.0864C28.6059 15.0093 28.5699 14.9361 28.521 14.8667C28.4721 14.7974 28.436 14.7242 28.4128 14.6471C28.3935 14.5828 28.3889 14.5211 28.3991 14.462C28.4222 14.399 28.4241 14.3354 28.4047 14.2711C28.3893 14.2197 28.3693 14.1767 28.3449 14.142C28.3294 14.0906 28.312 14.0328 28.2927 13.9686C28.1921 13.6345 28.1346 13.2805 28.1201 12.9065C28.1018 12.5197 28.0424 12.1592 27.9418 11.8252C27.9225 11.7609 27.9353 11.687 27.9802 11.6034C28.0251 11.5199 28.0867 11.4453 28.165 11.3796C28.2524 11.2973 28.3435 11.2278 28.4386 11.1712C28.5465 11.1107 28.6454 11.0669 28.7354 11.0398C28.8767 10.9973 28.9956 10.9965 29.092 11.0376C29.1974 11.0619 29.2829 11.1132 29.3485 11.1916C29.4103 11.2571 29.4586 11.3476 29.4934 11.4633C29.5372 11.5622 29.5765 11.6695 29.6113 11.7851C29.7389 12.2091 29.8601 12.635 29.9748 13.0629C30.0896 13.4908 30.1979 13.9206 30.2999 14.3523C30.3283 14.54 30.3156 14.7539 30.2619 14.9943C30.221 15.2308 30.2295 15.4455 30.2875 15.6382C30.2953 15.6639 30.3364 15.7076 30.411 15.7692C30.5267 15.7344 30.6319 15.6186 30.7269 15.4219C30.8179 15.2123 30.9077 14.9751 30.9961 14.7103C31.0974 14.4416 31.1987 14.1729 31.3 13.9042C31.4103 13.6188 31.5405 13.3764 31.6907 13.177C31.7587 13.0305 31.8209 12.8646 31.8772 12.6795C31.9298 12.4815 31.9926 12.2945 32.0657 12.1183C32.1157 12.0052 32.1869 11.8927 32.2793 11.7808C32.3808 11.6522 32.4796 11.5383 32.5759 11.4393C32.6684 11.3274 32.7518 11.2322 32.8263 11.1538C32.8969 11.0624 32.9392 10.9936 32.9533 10.9474C33.0097 10.7622 33.122 10.6233 33.2903 10.5307C33.4547 10.4251 33.6205 10.3472 33.7875 10.2969C34.0059 10.2312 34.1865 10.2259 34.3292 10.281C34.4719 10.3362 34.5935 10.4607 34.6939 10.6547C34.8072 10.8448 34.9121 11.1005 35.0088 11.4217C35.1055 11.7429 35.2254 12.1412 35.3685 12.6166C35.3994 12.7194 35.3988 12.8106 35.3668 12.8904C35.3476 12.9662 35.3219 13.044 35.2899 13.1237C35.2707 13.1995 35.245 13.2773 35.213 13.357C35.1938 13.4329 35.1958 13.5093 35.219 13.5864C35.2267 13.6121 35.2428 13.6423 35.2672 13.677C35.2917 13.7117 35.3097 13.7483 35.3213 13.7868C35.3329 13.8254 35.3336 13.8742 35.3234 13.9333C35.326 13.9886 35.3331 14.0355 35.3447 14.0741C35.364 14.1383 35.4174 14.1993 35.5049 14.2571C35.6013 14.2981 35.6573 14.3443 35.6727 14.3957C35.6921 14.4599 35.669 14.5229 35.6035 14.5847C35.5341 14.6336 35.4796 14.6851 35.4398 14.7391C35.4591 14.8033 35.4913 14.8637 35.5363 14.9202C35.5775 14.9639 35.6019 14.9985 35.6097 15.0242L35.6155 15.0435C35.5809 15.208 35.5914 15.4291 35.6469 15.7066C35.7114 15.9675 35.7901 16.2521 35.8829 16.5605C35.9254 16.7018 35.9776 16.8752 36.0395 17.0808C36.0975 17.2736 36.1536 17.4599 36.2077 17.6397C36.2708 17.8029 36.3282 17.9468 36.3797 18.0714C36.4402 18.1793 36.4961 18.2255 36.5475 18.2101C36.6118 18.1907 36.6663 18.0692 36.7111 17.8456C36.7687 17.618 36.8231 17.3564 36.8742 17.0608C36.9215 16.7523 36.9623 16.4457 36.9968 16.1411C37.0273 15.8236 37.0579 15.5762 37.0886 15.3988C37.0873 15.3012 37.1296 15.2324 37.2157 15.1924C37.2979 15.1397 37.3293 15.0812 37.31 15.0169C37.2803 14.8717 37.2648 14.7503 37.2634 14.6526C37.262 14.5549 37.2973 14.4392 37.3691 14.3055C37.432 14.1885 37.4743 14.0497 37.496 13.889C37.5267 13.7116 37.5593 13.5406 37.5938 13.3761C37.6412 13.2077 37.7092 13.0611 37.7978 12.9364C37.8825 12.7988 38.0212 12.701 38.2139 12.643C38.3681 12.5966 38.4665 12.644 38.509 12.7854C38.5361 12.8753 38.5343 13.009 38.5036 13.1864C38.4819 13.347 38.4428 13.5199 38.3865 13.705C38.3391 13.8734 38.2833 14.0374 38.2192 14.1968C38.164 14.3395 38.1102 14.4398 38.0575 14.4977C38.0203 14.6069 38.0339 14.722 38.0983 14.8427C38.1588 14.9506 38.1538 15.0502 38.0832 15.1415C37.9754 15.3421 37.9357 15.5362 37.9642 15.7238C37.9887 15.8986 37.9625 16.0676 37.8856 16.2309C37.8856 16.2309 37.8837 16.2945 37.88 16.4218C37.8852 16.5323 37.8879 16.6576 37.888 16.7977C37.901 16.9339 37.9101 17.0573 37.9153 17.1678C37.9206 17.2783 37.9232 17.3336 37.9232 17.3336C37.9425 17.3978 37.9683 17.4602 38.0005 17.5205C38.0288 17.5681 38.0526 17.6239 38.0719 17.6882C38.13 17.8809 38.1141 18.0609 38.0242 18.228C37.9344 18.3952 37.9089 18.543 37.9475 18.6715C37.9785 18.7743 37.9972 18.8597 38.0037 18.9278C38.014 19.0088 37.9755 19.0904 37.8882 19.1728C37.8792 19.1895 37.8651 19.2358 37.8459 19.3116C37.8306 19.4003 37.8107 19.4974 37.7864 19.6028C37.7788 19.7172 37.7584 19.8354 37.7251 19.9575C37.6917 20.0797 37.6462 20.1844 37.5885 20.2719ZM34.4297 14.8749C34.4258 14.8621 34.4072 14.8467 34.3738 14.8287C34.3738 14.8287 34.3648 14.8454 34.3468 14.8789C34.3623 14.9302 34.3867 14.9649 34.4202 14.9829C34.4163 14.97 34.4195 14.934 34.4297 14.8749ZM36.0092 17.6785L36.0477 17.6669L36.011 17.6149L36.0092 17.6785ZM44.9254 13.5866C45.072 13.6546 45.1666 13.7592 45.2091 13.9006C45.2826 14.1447 45.2654 14.3671 45.1577 14.5676C45.0589 14.7515 44.8746 14.8841 44.6047 14.9653C44.5405 14.9846 44.4749 14.9763 44.4081 14.9404C44.3373 14.8916 44.2775 14.8325 44.2286 14.7632C44.1759 14.681 44.1231 14.5988 44.0703 14.5166C44.0304 14.4305 43.9988 14.3489 43.9756 14.2718C43.7829 14.3298 43.6403 14.4148 43.5479 14.5267C43.4555 14.6386 43.3753 14.7678 43.3073 14.9144C43.2354 15.0481 43.1591 15.1902 43.0782 15.3406C43.0103 15.4872 42.9108 15.6223 42.7798 15.7458C42.5268 15.976 42.3323 16.2377 42.1964 16.5309C42.0694 16.8073 41.9205 17.0343 41.7497 17.2118C41.6457 17.2852 41.5642 17.3868 41.5052 17.5166C41.45 17.6593 41.3968 17.8085 41.3456 17.964C41.2982 18.1324 41.2591 18.3053 41.2284 18.4827C41.1977 18.6601 41.1613 18.8182 41.119 18.9571C41.0806 19.1087 41.0826 19.2553 41.1252 19.3966C41.1677 19.5379 41.1974 19.6831 41.2142 19.8322C41.2452 19.935 41.3159 19.9838 41.4264 19.9785C41.5408 19.9861 41.6301 19.9803 41.6944 19.9609C41.7715 19.9377 41.8447 19.9017 41.914 19.8528C41.9873 19.8167 42.056 19.789 42.1202 19.7697C42.1588 19.7581 42.1909 19.7484 42.2166 19.7407C42.259 19.7419 42.2995 19.7368 42.338 19.7252C42.4408 19.6942 42.5018 19.6408 42.521 19.565C42.557 19.4981 42.5807 19.4139 42.5921 19.3124C42.6165 19.207 42.6427 19.108 42.6709 19.0154C42.712 18.919 42.7845 18.8341 42.8885 18.7608C43.139 18.6153 43.277 18.3986 43.3024 18.1107C43.3317 17.8356 43.3553 17.5413 43.373 17.2277C43.4012 17.1351 43.4364 17.0194 43.4787 16.8806C43.5248 16.7546 43.5691 16.6222 43.6113 16.4834C43.6498 16.3317 43.6773 16.1903 43.6939 16.0592C43.7194 15.9113 43.7187 15.7925 43.6916 15.7025L43.6974 15.7218C43.7103 15.7179 43.7263 15.6781 43.7455 15.6022C43.7776 15.5225 43.8077 15.4364 43.8359 15.3438C43.8641 15.2513 43.8878 15.1671 43.907 15.0912C43.939 15.0115 43.9615 14.9697 43.9743 14.9658C44.0514 14.9426 44.1106 14.9529 44.1517 14.9965C44.1929 15.0402 44.2296 15.0922 44.2617 15.1526C44.2901 15.2001 44.312 15.2496 44.3274 15.301C44.3557 15.3485 44.3892 15.3665 44.4277 15.3549C44.4534 15.3471 44.4791 15.3394 44.5048 15.3316C44.5395 15.3072 44.589 15.2853 44.6532 15.266C44.7431 15.2389 44.7997 15.2639 44.8229 15.341C44.8693 15.4952 44.8386 15.6726 44.7309 15.8732C44.6192 16.0609 44.4626 16.2622 44.261 16.477C44.2225 16.4886 44.182 16.4938 44.1396 16.4925C44.1139 16.5003 44.0798 16.5035 44.0374 16.5023L44.0876 16.5292L44.0509 16.4772C44.0933 16.4784 44.1698 16.4764 44.2803 16.4712C44.3422 16.6768 44.3854 16.8669 44.41 17.0417C44.4513 17.2255 44.3916 17.3765 44.2311 17.4949C44.1707 17.5271 44.1354 17.5727 44.1252 17.6319C44.1278 17.6871 44.124 17.7443 44.1138 17.8035C44.1202 17.8716 44.1184 17.9352 44.1081 17.9943C44.1018 18.0663 44.0704 18.1248 44.0138 18.1698C43.9355 18.2354 43.8951 18.3107 43.8926 18.3955C43.8901 18.4803 43.8876 18.5651 43.8851 18.65C43.8993 18.7438 43.8949 18.8222 43.8718 18.8852C43.8526 18.961 43.7788 19.0183 43.6503 19.057C43.5218 19.0956 43.4512 19.1869 43.4385 19.3309C43.4257 19.4748 43.3783 19.5732 43.2961 19.626C43.192 19.6993 43.0912 19.8067 42.9937 19.9482C42.8166 20.1977 42.6503 20.3668 42.4949 20.4557C42.3394 20.5445 42.1461 20.6237 41.9148 20.6933C41.812 20.7242 41.7343 20.7686 41.6816 20.8265C41.629 20.8844 41.5828 20.9404 41.543 20.9944C41.516 21.0445 41.4891 21.0947 41.4622 21.1448C41.4352 21.195 41.396 21.2278 41.3447 21.2432C41.229 21.278 41.0896 21.257 40.9263 21.18C40.7668 21.1159 40.6125 21.0222 40.4633 20.8989C40.318 20.7886 40.19 20.6659 40.0794 20.5311C39.9726 20.4091 39.9057 20.3031 39.8786 20.2132C39.8709 20.1875 39.8804 20.0795 39.9072 19.8893C39.9469 19.6952 39.9711 19.5197 39.98 19.3629C39.9684 19.3244 39.9593 19.201 39.9527 18.9928C39.9461 18.7846 39.9574 18.543 39.9867 18.2679C40.016 17.9929 40.0775 17.7081 40.171 17.4137C40.2646 17.1193 40.4122 16.8647 40.6137 16.6499C40.6754 16.5753 40.7222 16.4982 40.7543 16.4184C40.7953 16.322 40.8319 16.234 40.8639 16.1542C40.896 16.0745 40.9345 15.9929 40.9794 15.9093C41.0243 15.8257 41.1007 15.7537 41.2086 15.6932C41.3383 15.6121 41.441 15.5111 41.5168 15.3902C41.6053 15.2655 41.6746 15.1466 41.7246 15.0334C41.7708 14.9074 41.8099 14.8046 41.842 14.7249C41.883 14.6284 41.9292 14.5725 41.9806 14.557C42.0667 14.5171 42.1341 14.4618 42.1829 14.391C42.2317 14.3203 42.2676 14.2534 42.2907 14.1904C42.3266 14.1236 42.3644 14.0631 42.4042 14.0091C42.453 13.9384 42.5288 13.8876 42.6316 13.8566C42.7344 13.8257 42.8146 13.7665 42.8724 13.6791C42.9263 13.5788 42.9718 13.474 43.009 13.3647C43.059 13.2516 43.109 13.1384 43.1591 13.0253C43.2219 12.9083 43.3137 12.8176 43.4345 12.7532C43.6117 12.6438 43.7279 12.5177 43.7831 12.375C43.8511 12.2285 43.8856 12.0639 43.8867 11.8814C43.884 11.6861 43.8562 11.4772 43.8033 11.255C43.7632 11.0288 43.7258 10.7878 43.6908 10.5321C43.6521 10.4036 43.5704 10.2951 43.4457 10.2065C43.3338 10.1141 43.2072 10.0892 43.0658 10.1317C43.0145 10.1472 42.965 10.1691 42.9175 10.1974C42.8828 10.2218 42.8462 10.2399 42.8076 10.2515C42.7434 10.2708 42.6753 10.2773 42.6033 10.2709C42.5403 10.2478 42.4767 10.246 42.4124 10.2653C42.284 10.304 42.1363 10.4185 41.9694 10.6089C41.8153 10.7953 41.604 10.978 41.3356 11.1569C41.1365 11.2869 40.9952 11.3995 40.9118 11.4947C40.8412 11.586 40.7244 11.7332 40.5613 11.9365C40.4893 11.9301 40.4238 11.9218 40.3647 11.9116C40.3017 11.8885 40.2509 11.8828 40.2123 11.8944C40.1148 12.0358 40.007 12.1664 39.8888 12.286C39.7797 12.3889 39.6448 12.4996 39.4843 12.6179C39.3327 12.7196 39.1606 12.7994 38.9678 12.8575C38.9036 12.8768 38.8451 12.8454 38.7923 12.7631C38.7357 12.6681 38.6694 12.611 38.5936 12.5918C38.2504 12.5689 37.9509 12.5049 37.6951 12.3998C37.4354 12.2818 37.263 12.0814 37.1779 11.7988C37.1701 11.7731 37.1688 11.7454 37.1739 11.7159C37.1752 11.6735 37.1719 11.6394 37.1642 11.6137C37.1449 11.5495 37.1127 11.4891 37.0677 11.4326C37.0355 11.3722 37.0097 11.3099 36.9904 11.2456C36.9594 11.1429 36.9561 11.0388 36.9805 10.9334C37.0009 10.8151 36.9957 10.7046 36.9647 10.6018C36.9118 10.3795 36.9136 10.1758 36.97 9.99066C37.0264 9.80554 37.1059 9.62747 37.2085 9.45644C37.2445 9.38958 37.2939 9.29764 37.3567 9.18063C37.4157 9.05077 37.4767 8.92734 37.5395 8.81033C37.5986 8.68047 37.6486 8.56733 37.6896 8.4709C37.7435 8.3706 37.7704 8.32046 37.7704 8.32046C37.7703 8.18037 37.8011 8.07303 37.8627 7.99843C37.9204 7.91098 37.9885 7.83445 38.0668 7.76884C38.158 7.69935 38.2409 7.62538 38.3153 7.54691C38.3859 7.4556 38.4212 7.3399 38.421 7.19981C38.4184 7.14455 38.4415 7.08155 38.4903 7.01082C38.5519 6.93623 38.6199 6.8597 38.6944 6.78123C38.7689 6.70277 38.835 6.61981 38.8928 6.53236C38.9634 6.44105 39.0108 6.34269 39.0351 6.23728C39.1069 5.96347 39.2024 5.74554 39.3218 5.5835C39.4502 5.40474 39.5772 5.19835 39.703 4.96433C39.8135 4.95908 39.9561 4.94418 40.1309 4.9196C40.3146 4.87831 40.4978 4.85822 40.6803 4.85935C40.8589 4.84762 41.0279 4.87381 41.1874 4.93793C41.3429 4.9892 41.4587 5.09448 41.5346 5.25378C41.5501 5.30517 41.5527 5.36044 41.5425 5.41956C41.5323 5.47869 41.5098 5.52048 41.4751 5.54493C41.2169 5.66469 41.0031 5.86216 40.8337 6.13735C40.6733 6.39582 40.5534 6.64911 40.4739 6.89723C40.4149 7.02709 40.3392 7.14797 40.2467 7.25986C40.1504 7.35891 40.0535 7.47916 39.956 7.62062C39.8674 7.74537 39.7866 7.89581 39.7135 8.07195C39.6493 8.23137 39.62 8.43639 39.6253 8.687C39.6228 8.77183 39.5991 8.85603 39.5542 8.93961C39.5055 9.01034 39.4522 9.08943 39.3944 9.17687C39.3367 9.26432 39.2828 9.36462 39.2328 9.47776C39.1917 9.57419 39.1693 9.68602 39.1656 9.81326C39.1541 9.9148 39.1163 10.0453 39.0522 10.2047C39.0009 10.3603 38.9869 10.4766 39.0101 10.5537C39.0372 10.6436 39.1085 10.6712 39.2242 10.6364C39.2756 10.6209 39.3122 10.6029 39.334 10.5823C39.7707 10.3107 40.2852 9.99475 40.8773 9.63436C41.4656 9.26112 42.1324 8.96236 42.8776 8.73806C43.2502 8.62591 43.5483 8.59223 43.772 8.63701C43.9918 8.66894 44.2354 8.75676 44.5029 8.90046C44.593 9.01348 44.6528 9.14259 44.6825 9.28779C44.7084 9.42015 44.7881 9.52225 44.9219 9.5941C44.9527 9.5568 44.988 9.51115 45.0278 9.45713C45.0676 9.40312 45.1003 9.37224 45.126 9.36451C45.2031 9.34131 45.2751 9.41771 45.3421 9.59372C45.4052 9.75689 45.4651 9.886 45.5217 9.98105C45.6027 9.9707 45.6638 9.98735 45.7049 10.031C45.7461 10.0747 45.7873 10.1183 45.8284 10.162C45.8696 10.2057 45.9153 10.241 45.9654 10.2679C46.0284 10.291 46.1306 10.2812 46.2719 10.2387C46.4132 10.1962 46.5276 10.1337 46.6149 10.0514C46.7677 9.90732 46.9295 9.81657 47.1004 9.77914C47.2842 9.73785 47.4563 9.65801 47.6169 9.53963C47.6889 9.54599 47.7782 9.54013 47.8848 9.52204C48.0043 9.50008 48.1129 9.48842 48.2106 9.48705C48.3211 9.48181 48.4162 9.49521 48.496 9.52727C48.5847 9.54262 48.6425 9.59526 48.6696 9.6852C48.7121 9.82653 48.6737 9.97822 48.5543 10.1403C48.4439 10.2856 48.3309 10.3757 48.2153 10.4105C48.151 10.4298 48.0913 10.4408 48.036 10.4434C47.9936 10.4422 47.9467 10.4493 47.8953 10.4647C47.7925 10.4957 47.6506 10.5594 47.4694 10.656C47.2845 10.7397 47.1008 10.851 46.9184 10.99C46.745 11.1122 46.5838 11.2518 46.4349 11.4087C46.2988 11.5618 46.2263 11.7167 46.2175 11.8735C46.2021 11.9622 46.1431 12.022 46.0403 12.053C46.0146 12.0607 45.9824 12.0704 45.9439 12.082C45.9015 12.0807 45.8674 12.084 45.8417 12.0917C45.7903 12.1072 45.7274 12.1542 45.6529 12.2326C45.5913 12.3072 45.5271 12.3966 45.4604 12.5008C45.4065 12.6011 45.3629 12.7123 45.3296 12.8344C45.3053 12.9398 45.3047 13.031 45.3279 13.1081C45.3357 13.1338 45.3453 13.166 45.3569 13.2045C45.3775 13.2263 45.3917 13.2501 45.3994 13.2758C45.4187 13.34 45.3899 13.3838 45.3128 13.407C45.2742 13.4186 45.2357 13.4302 45.1971 13.4418C45.1547 13.4405 45.1207 13.4438 45.095 13.4515C44.8894 13.5134 44.8233 13.6664 44.8968 13.9105C44.9471 14.0775 45.0217 14.2092 45.1208 14.3055C45.0784 14.3043 45.036 14.303 44.9936 14.3018C44.9601 14.2838 44.9306 14.2787 44.9049 14.2864C44.8535 14.3019 44.8252 14.3244 44.8201 14.354C44.8278 14.3797 44.8246 14.4157 44.8106 14.4619C44.9904 14.4078 45.0752 14.3402 45.0648 14.2593C45.0635 14.1616 45.0505 14.0254 45.0259 13.8506C45.0105 13.7992 44.9905 13.7562 44.966 13.7215C44.9544 13.683 44.9409 13.638 44.9254 13.5866Z" fill="#FF7B00"/>
</svg>
