<svg width="32" height="32" viewBox="0 0 32 32" fill="none" xmlns="http://www.w3.org/2000/svg">
<path fill-rule="evenodd" clip-rule="evenodd" d="M16.75 4.5C16.3387 4.5 16 4.83874 16 5.25C16 5.57342 16.2105 5.84889 16.5 5.95312V6.88379L14.9932 8.13379L14.998 12.5H13.5V9.62988L11 7.62988V6.45312C11.2895 6.34888 11.5 6.07341 11.5 5.75C11.5 5.33874 11.1613 5 10.75 5C10.3387 5 10 5.33874 10 5.75C10 6.07341 10.2105 6.34888 10.5 6.45312V7.87012L13 9.87012V12.5H11.75V10.3252L9.95898 8.98145C9.98344 8.90782 10 8.83137 10 8.75C10 8.33875 9.66125 8 9.25 8C8.83875 8 8.5 8.33875 8.5 8.75C8.5 9.16125 8.83875 9.5 9.25 9.5C9.39862 9.5 9.53718 9.45483 9.6543 9.37891L11.25 10.5752V12.5H7.25C6.56182 12.5 6 13.0618 6 13.75V25H4.25C4.1837 25 4.12011 25.0263 4.07323 25.0732C4.02635 25.1201 4.00001 25.1837 4 25.25V26.25C4 27.2152 4.78482 28 5.75 28H26.25C27.2152 28 28 27.2152 28 26.25V25.25C28 25.1837 27.9737 25.1201 27.9268 25.0732C27.8799 25.0263 27.8163 25 27.75 25H26V13.75C26 13.0618 25.4382 12.5 24.75 12.5H20.5V10.5752L22.2246 9.28223C22.3604 9.41606 22.5463 9.5 22.75 9.5C23.1613 9.5 23.5 9.16125 23.5 8.75C23.5 8.33875 23.1613 8 22.75 8C22.3387 8 22 8.33875 22 8.75C22 8.77384 22.0046 8.79603 22.0068 8.81934L20 10.3252V12.5H19V9.87012L21.5 7.87012V6.45312C21.7895 6.34888 22 6.07341 22 5.75C22 5.33874 21.6613 5 21.25 5C20.8387 5 20.5 5.33874 20.5 5.75C20.5 6.07341 20.7105 6.34888 21 6.45312V7.62988L18.5 9.62988V12.5H17.001L17.0137 9.12305L18.7627 7.8125C18.8945 7.92691 19.0636 8 19.25 8C19.6613 8 20 7.66125 20 7.25C20 6.83875 19.6613 6.5 19.25 6.5C18.8387 6.5 18.5 6.83875 18.5 7.25C18.5 7.29299 18.5056 7.3339 18.5127 7.375L16.5137 8.87207L16.501 12.5H15.498L15.4932 8.36816L17 7.11816V5.95312C17.2895 5.84889 17.5 5.57342 17.5 5.25C17.5 4.83874 17.1613 4.5 16.75 4.5ZM16.75 5C16.891 5 17 5.10896 17 5.25C17 5.39103 16.891 5.5 16.75 5.5C16.609 5.5 16.5 5.39103 16.5 5.25C16.5 5.10896 16.609 5 16.75 5ZM10.75 5.5C10.891 5.5 11 5.60897 11 5.75C11 5.89103 10.891 6 10.75 6C10.609 6 10.5 5.89103 10.5 5.75C10.5 5.60897 10.609 5.5 10.75 5.5ZM21.25 5.5C21.391 5.5 21.5 5.60897 21.5 5.75C21.5 5.89103 21.391 6 21.25 6C21.109 6 21 5.89103 21 5.75C21 5.60897 21.109 5.5 21.25 5.5ZM19.25 7C19.391 7 19.5 7.109 19.5 7.25C19.5 7.39105 19.391 7.5 19.25 7.5C19.109 7.5 19 7.39105 19 7.25C19 7.109 19.109 7 19.25 7ZM9.25 8.5C9.39103 8.5 9.5 8.609 9.5 8.75C9.5 8.89105 9.39103 9 9.25 9C9.10897 9 9 8.89105 9 8.75C9 8.609 9.10897 8.5 9.25 8.5ZM22.75 8.5C22.891 8.5 23 8.609 23 8.75C23 8.89105 22.891 9 22.75 9C22.609 9 22.5 8.89105 22.5 8.75C22.5 8.609 22.609 8.5 22.75 8.5ZM7.25 13H24.75C25.1698 13 25.5 13.3302 25.5 13.75V25H6.5V13.75C6.5 13.3302 6.83018 13 7.25 13ZM7.75 14C7.6837 14 7.62011 14.0263 7.57323 14.0732C7.52635 14.1201 7.50001 14.1837 7.5 14.25V23.75C7.50001 23.8163 7.52635 23.8799 7.57323 23.9268C7.62011 23.9737 7.6837 24 7.75 24H24.25C24.3163 24 24.3799 23.9737 24.4268 23.9268C24.4737 23.8799 24.5 23.8163 24.5 23.75V14.25C24.5 14.1837 24.4737 14.1201 24.4268 14.0732C24.3799 14.0263 24.3163 14 24.25 14H7.75ZM8 14.5H11.25V15.9258L9.65527 17.1221C9.53792 17.0457 9.39911 17 9.25 17C8.83875 17 8.5 17.3387 8.5 17.75C8.5 18.1613 8.83875 18.5 9.25 18.5C9.66125 18.5 10 18.1613 10 17.75C10 17.669 9.98326 17.5919 9.95898 17.5186L11.75 16.1758V14.5H13V16.6299L10.5 18.6299V20.0459C10.2105 20.1501 10 20.4266 10 20.75C10 21.1612 10.3387 21.5 10.75 21.5C11.1613 21.5 11.5 21.1612 11.5 20.75C11.5 20.4266 11.2895 20.1501 11 20.0459V18.8701L13.5 16.8701V14.5H14.9951L15 18.1289L13.6641 19.127C13.545 19.0472 13.4027 19 13.25 19C12.8387 19 12.5 19.3387 12.5 19.75C12.5 20.1613 12.8387 20.5 13.25 20.5C13.6613 20.5 14 20.1613 14 19.75C14 19.6722 13.9844 19.5982 13.9619 19.5273L15.5 18.3799L15.4951 14.5H16.5127L16.5 18.8672L18.0068 20.1172V21.0439C17.7139 21.1463 17.5 21.4241 17.5 21.75C17.5 22.1612 17.8387 22.5 18.25 22.5C18.6613 22.5 19 22.1612 19 21.75C19 21.4291 18.7929 21.1539 18.5068 21.0479V19.8818L17.001 18.6328L17.0127 14.5H18.5V17.0801L21 18.8301V20.0459C20.7105 20.1501 20.5 20.4266 20.5 20.75C20.5 21.1612 20.8387 21.5 21.25 21.5C21.6613 21.5 22 21.1612 22 20.75C22 20.4266 21.7895 20.1501 21.5 20.0459V18.5703L19 16.8203V14.5H20V16.125L22.0215 17.5801C22.0085 17.6349 22 17.6915 22 17.75C22 18.1613 22.3387 18.5 22.75 18.5C23.1613 18.5 23.5 18.1613 23.5 17.75C23.5 17.3387 23.1613 17 22.75 17C22.5809 17 22.4259 17.0593 22.2998 17.1553L20.5205 15.875V14.5H24V23.5H8V14.5ZM9.25 17.5C9.39103 17.5 9.5 17.609 9.5 17.75C9.5 17.8911 9.39103 18 9.25 18C9.10897 18 9 17.8911 9 17.75C9 17.609 9.10897 17.5 9.25 17.5ZM22.75 17.5C22.891 17.5 23 17.609 23 17.75C23 17.8911 22.891 18 22.75 18C22.609 18 22.5 17.8911 22.5 17.75C22.5 17.609 22.609 17.5 22.75 17.5ZM13.25 19.5C13.391 19.5 13.5 19.609 13.5 19.75C13.5 19.8911 13.391 20 13.25 20C13.109 20 13 19.8911 13 19.75C13 19.609 13.109 19.5 13.25 19.5ZM10.75 20.5C10.891 20.5 11 20.609 11 20.75C11 20.8911 10.891 21 10.75 21C10.609 21 10.5 20.8911 10.5 20.75C10.5 20.609 10.609 20.5 10.75 20.5ZM21.25 20.5C21.391 20.5 21.5 20.609 21.5 20.75C21.5 20.8911 21.391 21 21.25 21C21.109 21 21 20.8911 21 20.75C21 20.609 21.109 20.5 21.25 20.5ZM18.25 21.5C18.391 21.5 18.5 21.609 18.5 21.75C18.5 21.8911 18.391 22 18.25 22C18.109 22 18 21.8911 18 21.75C18 21.609 18.109 21.5 18.25 21.5ZM4.5 25.5H13.0254V25.501C13.1423 26.0695 13.6478 26.5 14.25 26.5H18.25C18.8522 26.5 19.3577 26.0686 19.4746 25.5H27.5V26.25C27.5 26.9468 26.9468 27.5 26.25 27.5H5.75C5.05318 27.5 4.5 26.9468 4.5 26.25V25.5ZM13.6025 25.5H18.8975C18.789 25.7791 18.5713 26 18.25 26H16.25H14.25C13.9287 26 13.711 25.7791 13.6025 25.5Z" fill="url(#paint0_linear_818_3056)"/>
<defs>
<linearGradient id="paint0_linear_818_3056" x1="4.01528" y1="7.20437" x2="32.1299" y2="28.1407" gradientUnits="userSpaceOnUse">
<stop stop-color="#07FFE1"/>
<stop offset="1" stop-color="#9DFF00"/>
</linearGradient>
</defs>
</svg>
