<svg width="32" height="32" viewBox="0 0 32 32" fill="none" xmlns="http://www.w3.org/2000/svg">
<path d="M25.3234 18.979C25.2571 18.9789 25.1935 18.9526 25.1464 18.906L24.6099 18.369C24.5631 18.3221 24.5367 18.2585 24.5367 18.1922C24.5367 18.1259 24.5631 18.0623 24.6099 18.0155L25.1464 17.479C25.1933 17.4321 25.2569 17.4058 25.3232 17.4058C25.3895 17.4058 25.453 17.4321 25.4999 17.479L26.0369 18.0155C26.0602 18.0387 26.0787 18.0663 26.0913 18.0966C26.1039 18.127 26.1104 18.1596 26.1104 18.1925C26.1104 18.2253 26.1039 18.2579 26.0913 18.2883C26.0787 18.3186 26.0602 18.3462 26.0369 18.3695L25.4999 18.906C25.4531 18.9527 25.3896 18.9789 25.3234 18.979ZM25.1404 18.192L25.3234 18.3755L25.5069 18.192L25.3234 18.009L25.1404 18.192ZM24.6219 21.0475C24.5725 21.0474 24.5242 21.0328 24.4831 21.0054C24.442 20.9779 24.41 20.9389 24.3911 20.8933C24.3721 20.8477 24.3671 20.7974 24.3767 20.749C24.3863 20.7005 24.41 20.6559 24.4449 20.621L25.6814 19.3845C25.7286 19.3389 25.7917 19.3137 25.8573 19.3143C25.9228 19.3149 25.9855 19.3412 26.0319 19.3875C26.0782 19.4339 26.1045 19.4966 26.1051 19.5621C26.1057 19.6277 26.0805 19.6908 26.0349 19.738L24.7984 20.9745C24.7753 20.9976 24.7477 21.016 24.7174 21.0286C24.6872 21.0411 24.6547 21.0475 24.6219 21.0475ZM24.4644 22.6795C24.415 22.6794 24.3667 22.6648 24.3256 22.6374C24.2845 22.6099 24.2525 22.5709 24.2336 22.5253C24.2146 22.4797 24.2096 22.4294 24.2192 22.381C24.2288 22.3325 24.2525 22.2879 24.2874 22.253L25.8519 20.6885C25.8991 20.6429 25.9622 20.6177 26.0278 20.6183C26.0933 20.6189 26.156 20.6452 26.2024 20.6915C26.2487 20.7379 26.275 20.8006 26.2756 20.8661C26.2762 20.9317 26.251 20.9948 26.2054 21.042L24.6409 22.6065C24.6178 22.6297 24.5903 22.6482 24.56 22.6607C24.5297 22.6732 24.4972 22.6796 24.4644 22.6795ZM24.4594 24.2165C24.41 24.2164 24.3617 24.2018 24.3206 24.1744C24.2795 24.1469 24.2475 24.1079 24.2286 24.0623C24.2096 24.0167 24.2046 23.9664 24.2142 23.918C24.2238 23.8695 24.2475 23.8249 24.2824 23.79L25.9239 22.1485C25.9711 22.1029 26.0342 22.0777 26.0998 22.0783C26.1653 22.0789 26.228 22.1052 26.2744 22.1515C26.3207 22.1979 26.347 22.2606 26.3476 22.3261C26.3482 22.3917 26.323 22.4548 26.2774 22.502L24.6359 24.1435C24.6128 24.1666 24.5852 24.185 24.5549 24.1976C24.5247 24.2101 24.4922 24.2165 24.4594 24.2165Z" fill="url(#paint0_linear_818_3060)"/>
<path d="M25.3235 25.3679C25.2847 25.3679 25.2464 25.3588 25.2117 25.3415C25.177 25.3241 25.1468 25.2989 25.1235 25.2679L24.05 23.8364C24.0107 23.7844 23.9934 23.719 24.002 23.6544L24.694 18.3554C24.7026 18.2896 24.7369 18.2299 24.7895 18.1895C24.842 18.149 24.9085 18.1311 24.9743 18.1396C25.0401 18.1482 25.0997 18.1825 25.1402 18.2351C25.1807 18.2876 25.1986 18.3541 25.19 18.4199L24.511 23.6179L25.3235 24.7014L26.136 23.6179L25.4575 18.4199C25.4529 18.3561 25.4729 18.293 25.5134 18.2434C25.5538 18.1939 25.6117 18.1617 25.6751 18.1535C25.7385 18.1452 25.8027 18.1615 25.8544 18.1991C25.9062 18.2366 25.9417 18.2925 25.9535 18.3554L26.6455 23.6544C26.6541 23.719 26.6369 23.7844 26.5975 23.8364L25.524 25.2679C25.5006 25.2989 25.4703 25.3241 25.4355 25.3414C25.4008 25.3588 25.3624 25.3678 25.3235 25.3679ZM25.341 15.6909C24.5156 15.6899 23.7242 15.3616 23.1405 14.7779C22.5568 14.1942 22.2285 13.4028 22.2275 12.5774V9.71387C22.2275 9.64756 22.2539 9.58397 22.3008 9.53709C22.3476 9.49021 22.4112 9.46387 22.4775 9.46387H28.204C28.2703 9.46387 28.3339 9.49021 28.3808 9.53709C28.4277 9.58397 28.454 9.64756 28.454 9.71387V12.5774C28.4532 13.4028 28.125 14.1942 27.5414 14.7779C26.9578 15.3616 26.1665 15.6899 25.341 15.6909ZM22.7275 9.96437V12.5779C22.7275 14.0189 23.9 15.1914 25.341 15.1914C26.782 15.1914 27.954 14.0189 27.954 12.5779V9.96437H22.7275Z" fill="url(#paint1_linear_818_3060)"/>
<path d="M25.3412 13.1734C25.0062 13.1734 24.7332 12.9004 24.7332 12.5654C24.7332 12.4991 24.7595 12.4355 24.8064 12.3887C24.8533 12.3418 24.9169 12.3154 24.9832 12.3154C25.0495 12.3154 25.1131 12.3418 25.16 12.3887C25.2069 12.4355 25.2332 12.4991 25.2332 12.5654C25.2332 12.6844 25.4492 12.6844 25.4492 12.5654C25.4492 12.4991 25.4755 12.4355 25.5224 12.3887C25.5693 12.3418 25.6329 12.3154 25.6992 12.3154C25.7655 12.3154 25.8291 12.3418 25.876 12.3887C25.9229 12.4355 25.9492 12.4991 25.9492 12.5654C25.9488 12.7266 25.8846 12.881 25.7707 12.9949C25.6567 13.1088 25.5023 13.173 25.3412 13.1734ZM25.3412 14.1749C24.8702 14.1749 24.4322 14.0259 24.1077 13.7564C24.0567 13.714 24.0247 13.653 24.0186 13.587C24.0126 13.5209 24.033 13.4552 24.0754 13.4042C24.1179 13.3532 24.1788 13.3211 24.2449 13.3151C24.311 13.3091 24.3767 13.3295 24.4277 13.3719C24.8902 13.7574 25.7917 13.7579 26.2552 13.3719C26.3062 13.3295 26.3719 13.3091 26.438 13.3151C26.5041 13.3211 26.565 13.3532 26.6074 13.4042C26.6499 13.4552 26.6703 13.5209 26.6643 13.587C26.6582 13.653 26.6262 13.714 26.5752 13.7564C26.2502 14.0264 25.8117 14.1749 25.3412 14.1749Z" fill="url(#paint2_linear_818_3060)"/>
<path d="M24.0872 11.1456C24.1861 11.1456 24.2662 11.0655 24.2662 10.9666C24.2662 10.8677 24.1861 10.7876 24.0872 10.7876C23.9883 10.7876 23.9082 10.8677 23.9082 10.9666C23.9082 11.0655 23.9883 11.1456 24.0872 11.1456Z" fill="#0071BC"/>
<path d="M26.5931 11.1456C26.6919 11.1456 26.7721 11.0655 26.7721 10.9666C26.7721 10.8677 26.6919 10.7876 26.5931 10.7876C26.4942 10.7876 26.4141 10.8677 26.4141 10.9666C26.4141 11.0655 26.4942 11.1456 26.5931 11.1456Z" fill="#0071BC"/>
<path d="M28.2037 9.96455H22.4772C22.1422 9.96455 21.8697 9.69155 21.8697 9.35655V7.92555C21.8701 7.57466 22.0097 7.23825 22.2578 6.99013C22.5059 6.74201 22.8423 6.60245 23.1932 6.60205C23.2595 6.60205 23.3231 6.62839 23.37 6.67527C23.4169 6.72216 23.4432 6.78575 23.4432 6.85205C23.4432 7.10905 23.6522 7.31805 23.9092 7.31805H27.8462C28.3787 7.31805 28.8122 7.75105 28.8122 8.28405V9.35705C28.8116 9.51814 28.7472 9.67243 28.6332 9.78624C28.5192 9.90006 28.3648 9.96416 28.2037 9.96455ZM22.9837 7.12855C22.8079 7.17524 22.6524 7.27867 22.5414 7.42278C22.4304 7.5669 22.37 7.74363 22.3697 7.92555V9.35655C22.3697 9.41605 22.4182 9.46455 22.4772 9.46455H28.2037C28.2324 9.46455 28.2598 9.45317 28.2801 9.43292C28.3003 9.41266 28.3117 9.38519 28.3117 9.35655V8.28355C28.3116 8.16 28.2624 8.04155 28.1751 7.95419C28.0877 7.86682 27.9693 7.81768 27.8457 7.81755H23.9087C23.701 7.81722 23.4989 7.75004 23.3323 7.62596C23.1657 7.50188 23.0435 7.32748 22.9837 7.12855ZM22.4697 12.4696H22.1197C21.7847 12.4696 21.5117 12.1966 21.5117 11.8616V10.7881C21.5117 10.4531 21.7842 10.1801 22.1197 10.1801H22.4702C22.5365 10.1801 22.6001 10.2064 22.647 10.2533C22.6939 10.3002 22.7202 10.3637 22.7202 10.4301C22.7202 10.4964 22.6939 10.5599 22.647 10.6068C22.6001 10.6537 22.5365 10.6801 22.4702 10.6801H22.1197C22.1055 10.6801 22.0915 10.6828 22.0784 10.6883C22.0653 10.6937 22.0534 10.7017 22.0434 10.7117C22.0333 10.7217 22.0254 10.7336 22.0199 10.7467C22.0145 10.7598 22.0117 10.7739 22.0117 10.7881V11.8616C22.0117 11.9211 22.0602 11.9696 22.1197 11.9696H22.4702C22.5031 11.9696 22.5356 11.9761 22.5659 11.9887C22.5962 12.0013 22.6237 12.0197 22.6469 12.043C22.6701 12.0662 22.6885 12.0938 22.701 12.1241C22.7136 12.1545 22.72 12.187 22.72 12.2198C22.7199 12.2526 22.7134 12.2851 22.7008 12.3155C22.6882 12.3458 22.6698 12.3733 22.6466 12.3965C22.6233 12.4197 22.5958 12.4381 22.5654 12.4506C22.5351 12.4631 22.5025 12.4696 22.4697 12.4696ZM28.5537 12.4696H28.2032C28.1369 12.4696 28.0733 12.4432 28.0264 12.3963C27.9796 12.3494 27.9532 12.2859 27.9532 12.2196C27.9532 12.1532 27.9796 12.0897 28.0264 12.0428C28.0733 11.9959 28.1369 11.9696 28.2032 11.9696H28.5537C28.5679 11.9696 28.5819 11.9668 28.595 11.9613C28.6082 11.9559 28.6201 11.9479 28.6301 11.9379C28.6401 11.9279 28.6481 11.916 28.6535 11.9029C28.6589 11.8898 28.6617 11.8757 28.6617 11.8616V10.7881C28.6617 10.7739 28.6589 10.7598 28.6535 10.7467C28.6481 10.7336 28.6401 10.7217 28.6301 10.7117C28.6201 10.7017 28.6082 10.6937 28.595 10.6883C28.5819 10.6828 28.5679 10.6801 28.5537 10.6801H28.2032C28.1369 10.6801 28.0733 10.6537 28.0264 10.6068C27.9796 10.5599 27.9532 10.4964 27.9532 10.4301C27.9532 10.3637 27.9796 10.3002 28.0264 10.2533C28.0733 10.2064 28.1369 10.1801 28.2032 10.1801H28.5537C28.8887 10.1801 29.1617 10.4531 29.1617 10.7881V11.8616C29.1617 12.1971 28.8892 12.4696 28.5537 12.4696ZM28.8867 25.897C28.8204 25.897 28.7568 25.8707 28.7099 25.8238C28.6631 25.7769 28.6367 25.7134 28.6367 25.647V20.4735C28.6367 20.4072 28.6631 20.3437 28.7099 20.2968C28.7568 20.2499 28.8204 20.2235 28.8867 20.2235C28.953 20.2235 29.0166 20.2499 29.0635 20.2968C29.1104 20.3437 29.1367 20.4072 29.1367 20.4735V25.647C29.1367 25.7134 29.1104 25.7769 29.0635 25.8238C29.0166 25.8707 28.953 25.897 28.8867 25.897ZM24.2332 16.7305C24.1669 16.7305 24.1033 16.7042 24.0564 16.6573C24.0096 16.6104 23.9832 16.5469 23.9832 16.4805V15.3266C23.9832 15.2602 24.0096 15.1967 24.0564 15.1498C24.1033 15.1029 24.1669 15.0766 24.2332 15.0766C24.2995 15.0766 24.3631 15.1029 24.41 15.1498C24.4569 15.1967 24.4832 15.2602 24.4832 15.3266V16.4805C24.4832 16.5469 24.4569 16.6104 24.41 16.6573C24.3631 16.7042 24.2995 16.7305 24.2332 16.7305ZM26.3807 16.8471C26.3144 16.8471 26.2508 16.8207 26.2039 16.7738C26.1571 16.7269 26.1307 16.6634 26.1307 16.5971V15.3466C26.1307 15.2802 26.1571 15.2167 26.2039 15.1698C26.2508 15.1229 26.3144 15.0966 26.3807 15.0966C26.447 15.0966 26.5106 15.1229 26.5575 15.1698C26.6044 15.2167 26.6307 15.2802 26.6307 15.3466V16.5971C26.6307 16.6634 26.6044 16.7269 26.5575 16.7738C26.5106 16.8207 26.447 16.8471 26.3807 16.8471Z" fill="url(#paint3_linear_818_3060)"/>
<path d="M24.4725 18.7563C24.4062 18.7562 24.3426 18.7299 24.2955 18.6833L23.0515 17.4393C23.0282 17.416 23.0097 17.3884 22.9971 17.3581C22.9845 17.3277 22.978 17.2951 22.978 17.2623C22.978 17.2294 22.9845 17.1968 22.9971 17.1664C23.0097 17.1361 23.0282 17.1085 23.0515 17.0853L23.9 16.2373C23.9469 16.1904 24.0104 16.1641 24.0767 16.1641C24.143 16.1641 24.2066 16.1904 24.2535 16.2373L25.497 17.4808C25.5438 17.5276 25.5702 17.5912 25.5702 17.6575C25.5702 17.7238 25.5438 17.7874 25.497 17.8343L24.6485 18.6828C24.6255 18.7061 24.5981 18.7246 24.5679 18.7373C24.5377 18.7499 24.5052 18.7563 24.4725 18.7563ZM23.5825 17.2618L24.473 18.1523L24.968 17.6573L24.078 16.7673L23.5825 17.2618Z" fill="url(#paint4_linear_818_3060)"/>
<path d="M26.1694 18.7567C26.1031 18.7566 26.0395 18.7303 25.9924 18.6837L25.1439 17.8352C25.097 17.7883 25.0707 17.7247 25.0707 17.6584C25.0707 17.5921 25.097 17.5285 25.1439 17.4817L26.4164 16.2092C26.4635 16.1626 26.5271 16.1365 26.5934 16.1365C26.6596 16.1365 26.7232 16.1626 26.7704 16.2092L27.6189 17.0577C27.6657 17.1045 27.6921 17.1681 27.6921 17.2344C27.6921 17.3007 27.6657 17.3643 27.6189 17.4112L26.3469 18.6837C26.2995 18.7303 26.2358 18.7565 26.1694 18.7567ZM25.6744 17.6577L26.1694 18.1527L27.0879 17.2337L26.5929 16.7387L25.6744 17.6577ZM24.4464 11.7542H23.7304C23.5218 11.754 23.3217 11.6711 23.1742 11.5237C23.0266 11.3762 22.9436 11.1763 22.9434 10.9677C22.9434 10.5337 23.2964 10.1807 23.7304 10.1807H24.4464C24.8804 10.1807 25.2334 10.5337 25.2334 10.9677C25.2334 11.4012 24.8804 11.7542 24.4464 11.7542ZM23.7304 10.6802C23.6564 10.6833 23.5865 10.7148 23.5352 10.7683C23.484 10.8217 23.4553 10.8929 23.4553 10.9669C23.4553 11.041 23.484 11.1121 23.5352 11.1656C23.5865 11.219 23.6564 11.2506 23.7304 11.2537H24.4464C24.5203 11.2506 24.5903 11.219 24.6415 11.1656C24.6928 11.1121 24.7214 11.041 24.7214 10.9669C24.7214 10.8929 24.6928 10.8217 24.6415 10.7683C24.5903 10.7148 24.5203 10.6833 24.4464 10.6802H23.7304ZM26.9514 11.7542H26.2359C26.0273 11.754 25.8272 11.6711 25.6797 11.5237C25.5321 11.3762 25.4491 11.1763 25.4489 10.9677C25.4489 10.5337 25.8019 10.1807 26.2359 10.1807H26.9514C27.3854 10.1807 27.7384 10.5337 27.7384 10.9677C27.7384 11.4012 27.3854 11.7542 26.9514 11.7542ZM26.2359 10.6802C26.1619 10.6833 26.092 10.7148 26.0407 10.7683C25.9895 10.8217 25.9608 10.8929 25.9608 10.9669C25.9608 11.041 25.9895 11.1121 26.0407 11.1656C26.092 11.219 26.1619 11.2506 26.2359 11.2537H26.9514C27.0253 11.2506 27.0953 11.219 27.1465 11.1656C27.1978 11.1121 27.2264 11.041 27.2264 10.9669C27.2264 10.8929 27.1978 10.8217 27.1465 10.7683C27.0953 10.7148 27.0253 10.6833 26.9514 10.6802H26.2359Z" fill="url(#paint5_linear_818_3060)"/>
<path d="M23.7229 10.6797H22.4104C22.3441 10.6797 22.2805 10.6533 22.2336 10.6065C22.1867 10.5596 22.1604 10.496 22.1604 10.4297C22.1604 10.3634 22.1867 10.2998 22.2336 10.2529C22.2805 10.206 22.3441 10.1797 22.4104 10.1797H23.7229C23.7892 10.1797 23.8528 10.206 23.8997 10.2529C23.9465 10.2998 23.9729 10.3634 23.9729 10.4297C23.9729 10.496 23.9465 10.5596 23.8997 10.6065C23.8528 10.6533 23.7892 10.6797 23.7229 10.6797ZM28.2034 10.6797H27.0634C26.9971 10.6797 26.9335 10.6533 26.8866 10.6065C26.8397 10.5596 26.8134 10.496 26.8134 10.4297C26.8134 10.3634 26.8397 10.2998 26.8866 10.2529C26.9335 10.206 26.9971 10.1797 27.0634 10.1797H28.2034C28.2697 10.1797 28.3333 10.206 28.3802 10.2529C28.427 10.2998 28.4534 10.3634 28.4534 10.4297C28.4534 10.496 28.427 10.5596 28.3802 10.6065C28.3333 10.6533 28.2697 10.6797 28.2034 10.6797ZM25.7099 11.3287C25.6551 11.3287 25.6018 11.3106 25.5583 11.2774C25.5148 11.2441 25.4833 11.1975 25.4689 11.1447C25.4079 10.9832 25.2499 11.0207 25.2164 11.1432C25.1989 11.2071 25.1569 11.2615 25.0995 11.2946C25.0421 11.3277 24.9739 11.3367 24.9099 11.3197C24.8782 11.3112 24.8485 11.2966 24.8224 11.2766C24.7964 11.2566 24.7745 11.2317 24.7582 11.2033C24.7418 11.1749 24.7311 11.1435 24.7269 11.111C24.7226 11.0784 24.7248 11.0454 24.7334 11.0137C24.8094 10.7312 25.0599 10.5332 25.3424 10.5332C25.5989 10.5332 25.8284 10.6922 25.9264 10.9397C25.9299 10.9482 25.9484 11.0047 25.9509 11.0132C25.961 11.0502 25.9625 11.0892 25.9552 11.1269C25.9478 11.1646 25.9319 11.2001 25.9085 11.2306C25.8852 11.2612 25.8551 11.2859 25.8207 11.3029C25.7862 11.3199 25.7483 11.3287 25.7099 11.3287ZM6.12088 11.0447C6.08193 11.0448 6.0435 11.0357 6.00867 11.0183C5.97385 11.0008 5.94361 10.9755 5.92038 10.9442C5.86189 10.8653 5.78607 10.801 5.69878 10.7561C5.61148 10.7112 5.51503 10.6869 5.41688 10.6852C5.31873 10.6867 5.22225 10.7108 5.13492 10.7556C5.0476 10.8004 4.97179 10.8648 4.91338 10.9437C4.89378 10.97 4.86919 10.9922 4.84102 11.009C4.81285 11.0258 4.78165 11.0368 4.74919 11.0416C4.71674 11.0463 4.68367 11.0446 4.65187 11.0366C4.62008 11.0285 4.59018 11.0143 4.56388 10.9947C4.53758 10.9751 4.5154 10.9505 4.49861 10.9223C4.48181 10.8942 4.47073 10.863 4.466 10.8305C4.46126 10.798 4.46296 10.765 4.47101 10.7332C4.47905 10.7014 4.49328 10.6715 4.51288 10.6452C4.61456 10.5096 4.74497 10.3982 4.89478 10.3189C5.04458 10.2396 5.21007 10.1945 5.37938 10.1867L5.41688 10.1857C5.59268 10.1883 5.76556 10.2311 5.92226 10.3108C6.07896 10.3905 6.21532 10.5051 6.32088 10.6457C6.34864 10.6828 6.36553 10.7269 6.36964 10.773C6.37376 10.8192 6.36494 10.8656 6.34418 10.907C6.32341 10.9484 6.29153 10.9832 6.25209 11.0076C6.21265 11.0319 6.16722 11.0447 6.12088 11.0447ZM8.62638 11.0447C8.58743 11.0448 8.549 11.0357 8.51417 11.0183C8.47935 11.0008 8.44911 10.9755 8.42588 10.9442C8.36726 10.8654 8.29135 10.801 8.20398 10.7561C8.1166 10.7112 8.0201 10.687 7.92188 10.6852C7.82375 10.6868 7.72731 10.7109 7.64 10.7558C7.5527 10.8006 7.47687 10.8649 7.41838 10.9437C7.39878 10.97 7.37419 10.9922 7.34602 11.009C7.31785 11.0258 7.28665 11.0368 7.25419 11.0416C7.22174 11.0463 7.18867 11.0446 7.15687 11.0366C7.12508 11.0285 7.09518 11.0143 7.06888 10.9947C7.04258 10.9751 7.0204 10.9505 7.00361 10.9223C6.98681 10.8942 6.97573 10.863 6.971 10.8305C6.96626 10.798 6.96796 10.765 6.97601 10.7332C6.98405 10.7014 6.99828 10.6715 7.01788 10.6452C7.12238 10.5036 7.25846 10.3884 7.4153 10.3086C7.57214 10.2288 7.74542 10.1868 7.92138 10.1857L7.95938 10.1867C8.12864 10.1946 8.29404 10.2399 8.44375 10.3193C8.59347 10.3986 8.72378 10.5101 8.82538 10.6457C8.85309 10.6827 8.86997 10.7267 8.87412 10.7728C8.87828 10.8188 8.86954 10.8652 8.8489 10.9065C8.82826 10.9479 8.79652 10.9828 8.75723 11.0072C8.71793 11.0316 8.67263 11.0445 8.62638 11.0447ZM6.70738 18.9787C6.64107 18.9786 6.57748 18.9524 6.53038 18.9057L5.99388 18.3687C5.94701 18.3218 5.92068 18.2582 5.92068 18.1919C5.92068 18.1256 5.94701 18.0621 5.99388 18.0152L6.53038 17.4787C6.57726 17.4318 6.64084 17.4055 6.70713 17.4055C6.77342 17.4055 6.837 17.4318 6.88388 17.4787L7.42088 18.0152C7.44416 18.0384 7.46263 18.066 7.47524 18.0964C7.48784 18.1267 7.49433 18.1593 7.49433 18.1922C7.49433 18.2251 7.48784 18.2576 7.47524 18.288C7.46263 18.3184 7.44416 18.346 7.42088 18.3692L6.88388 18.9062C6.83685 18.9526 6.77345 18.9786 6.70738 18.9787ZM6.52438 18.1917L6.70738 18.3752L6.89088 18.1917L6.70738 18.0087L6.52438 18.1917ZM6.01288 21.0332C5.96347 21.0332 5.91518 21.0185 5.87409 20.9911C5.833 20.9636 5.80097 20.9246 5.78203 20.879C5.76309 20.8334 5.7581 20.7832 5.76768 20.7347C5.77727 20.6862 5.801 20.6417 5.83588 20.6067L7.01388 19.4287C7.06103 19.3831 7.12418 19.3579 7.18973 19.3585C7.25528 19.3591 7.31798 19.3854 7.36434 19.4317C7.41069 19.4781 7.43698 19.5408 7.43755 19.6063C7.43812 19.6719 7.41292 19.735 7.36738 19.7822L6.18938 20.9602C6.16628 20.9835 6.13878 21.0019 6.10847 21.0144C6.07817 21.027 6.04567 21.0333 6.01288 21.0332ZM5.80138 22.6557C5.75197 22.6557 5.70368 22.641 5.66259 22.6136C5.6215 22.5861 5.58947 22.5471 5.57053 22.5015C5.55159 22.4559 5.5466 22.4057 5.55618 22.3572C5.56577 22.3087 5.5895 22.2642 5.62438 22.2292L7.20238 20.6517C7.24953 20.6061 7.31268 20.5809 7.37823 20.5815C7.44378 20.5821 7.50648 20.6084 7.55283 20.6547C7.59919 20.7011 7.62548 20.7638 7.62605 20.8293C7.62662 20.8949 7.60142 20.958 7.55588 21.0052L5.97788 22.5827C5.93097 22.6293 5.86753 22.6556 5.80138 22.6557ZM5.84338 24.2162C5.79397 24.2162 5.74568 24.2015 5.70459 24.1741C5.6635 24.1466 5.63147 24.1076 5.61253 24.062C5.59359 24.0164 5.5886 23.9662 5.59818 23.9177C5.60777 23.8692 5.6315 23.8247 5.66638 23.7897L7.30788 22.1482C7.35503 22.1026 7.41818 22.0774 7.48373 22.078C7.54928 22.0786 7.61198 22.1049 7.65833 22.1512C7.70469 22.1976 7.73098 22.2603 7.73155 22.3258C7.73212 22.3914 7.70692 22.4545 7.66138 22.5017L6.01988 24.1432C5.99671 24.1664 5.9692 24.1848 5.93891 24.1973C5.90862 24.2098 5.87616 24.2162 5.84338 24.2162Z" fill="url(#paint6_linear_818_3060)"/>
<path d="M6.70764 25.3677C6.66883 25.3677 6.63055 25.3586 6.59584 25.3413C6.56113 25.3239 6.53093 25.2987 6.50764 25.2677L5.43414 23.8362C5.3948 23.7842 5.37755 23.7188 5.38614 23.6542L6.07814 18.3552C6.0867 18.2894 6.12103 18.2297 6.17359 18.1893C6.22614 18.1488 6.29262 18.1309 6.35839 18.1394C6.42417 18.148 6.48385 18.1823 6.52431 18.2349C6.56477 18.2874 6.5827 18.3539 6.57414 18.4197L5.89514 23.6177L6.70764 24.7012L7.52014 23.6177L6.84164 18.4197C6.83705 18.3559 6.85702 18.2928 6.89747 18.2432C6.93791 18.1937 6.99578 18.1615 7.05919 18.1533C7.12261 18.145 7.18678 18.1613 7.23855 18.1989C7.29032 18.2364 7.32578 18.2923 7.33764 18.3552L8.02964 23.6542C8.03824 23.7188 8.02099 23.7842 7.98164 23.8362L6.90814 25.2677C6.88473 25.2987 6.85443 25.3239 6.81965 25.3412C6.78486 25.3586 6.74652 25.3676 6.70764 25.3677ZM6.69764 13.1842C6.36264 13.1842 6.08964 12.9112 6.08964 12.5762C6.08964 12.5099 6.11598 12.4463 6.16287 12.3994C6.20975 12.3525 6.27334 12.3262 6.33964 12.3262C6.40595 12.3262 6.46954 12.3525 6.51642 12.3994C6.56331 12.4463 6.58964 12.5099 6.58964 12.5762C6.58964 12.6952 6.80564 12.6952 6.80564 12.5762C6.80564 12.5099 6.83198 12.4463 6.87887 12.3994C6.92575 12.3525 6.98934 12.3262 7.05564 12.3262C7.12195 12.3262 7.18554 12.3525 7.23242 12.3994C7.27931 12.4463 7.30564 12.5099 7.30564 12.5762C7.30525 12.7373 7.24106 12.8917 7.12713 13.0057C7.01319 13.1196 6.85877 13.1838 6.69764 13.1842ZM6.69764 14.1857C6.22714 14.1857 5.78864 14.0372 5.46414 13.7672C5.41316 13.7247 5.38111 13.6638 5.37507 13.5977C5.36902 13.5317 5.38946 13.4659 5.43189 13.4149C5.47433 13.3639 5.53528 13.3319 5.60134 13.3258C5.6674 13.3198 5.73316 13.3402 5.78414 13.3827C6.24764 13.7682 7.14864 13.7682 7.61164 13.3827C7.63689 13.3617 7.66603 13.3458 7.69739 13.3361C7.72876 13.3263 7.76174 13.3228 7.79445 13.3258C7.82716 13.3288 7.85896 13.3382 7.88803 13.3535C7.9171 13.3688 7.94288 13.3897 7.96389 13.4149C7.98491 13.4402 8.00074 13.4693 8.01049 13.5007C8.02024 13.532 8.02372 13.565 8.02072 13.5977C8.01773 13.6304 8.00832 13.6622 7.99304 13.6913C7.97775 13.7204 7.95689 13.7462 7.93164 13.7672C7.60614 14.0372 7.16814 14.1857 6.69764 14.1857Z" fill="url(#paint7_linear_818_3060)"/>
<path d="M5.44394 11.6935C5.64166 11.6935 5.80194 11.5333 5.80194 11.3355C5.80194 11.1378 5.64166 10.9775 5.44394 10.9775C5.24622 10.9775 5.08594 11.1378 5.08594 11.3355C5.08594 11.5333 5.24622 11.6935 5.44394 11.6935Z" fill="#0071BC"/>
<path d="M7.9498 11.6935C8.14752 11.6935 8.3078 11.5333 8.3078 11.3355C8.3078 11.1378 8.14752 10.9775 7.9498 10.9775C7.75208 10.9775 7.5918 11.1378 7.5918 11.3355C7.5918 11.5333 7.75208 11.6935 7.9498 11.6935Z" fill="#0071BC"/>
<path d="M3.82616 12.4809H3.47616C3.14116 12.4809 2.86816 12.2079 2.86816 11.8729V10.7994C2.86816 10.4644 3.14066 10.1914 3.47616 10.1914H3.64916C3.71547 10.1914 3.77906 10.2177 3.82594 10.2646C3.87282 10.3115 3.89916 10.3751 3.89916 10.4414C3.89916 10.5077 3.87282 10.5713 3.82594 10.6182C3.77906 10.6651 3.71547 10.6914 3.64916 10.6914H3.47616C3.44752 10.6914 3.42005 10.7028 3.3998 10.723C3.37954 10.7433 3.36816 10.7708 3.36816 10.7994V11.8729C3.36816 11.9324 3.41666 11.9809 3.47616 11.9809H3.82666C3.85949 11.9809 3.892 11.9874 3.92232 12C3.95263 12.0126 3.98018 12.0311 4.00337 12.0543C4.02656 12.0775 4.04495 12.1051 4.05748 12.1355C4.07001 12.1658 4.07645 12.1983 4.07641 12.2312C4.07638 12.264 4.06988 12.2965 4.05729 12.3268C4.04469 12.3571 4.02625 12.3847 4.00301 12.4079C3.97978 12.4311 3.9522 12.4494 3.92185 12.462C3.89151 12.4745 3.85899 12.4809 3.82616 12.4809ZM9.91066 12.4809H9.56016C9.49386 12.4809 9.43027 12.4546 9.38339 12.4077C9.3365 12.3608 9.31016 12.2972 9.31016 12.2309C9.31016 12.1646 9.3365 12.101 9.38339 12.0541C9.43027 12.0072 9.49386 11.9809 9.56016 11.9809H9.91066C9.92485 11.9809 9.93889 11.9781 9.95199 11.9727C9.9651 11.9673 9.977 11.9593 9.98703 11.9493C9.99706 11.9392 10.005 11.9273 10.0104 11.9142C10.0159 11.9011 10.0187 11.8871 10.0187 11.8729V10.7994C10.0187 10.7708 10.0073 10.7433 9.98703 10.723C9.96678 10.7028 9.93931 10.6914 9.91066 10.6914H9.69516C9.62886 10.6914 9.56527 10.6651 9.51839 10.6182C9.4715 10.5713 9.44516 10.5077 9.44516 10.4414C9.44516 10.3751 9.4715 10.3115 9.51839 10.2646C9.56527 10.2177 9.62886 10.1914 9.69516 10.1914H9.91066C10.2457 10.1914 10.5187 10.4644 10.5187 10.7994V11.8729C10.5187 12.2079 10.2457 12.4809 9.91066 12.4809ZM5.62416 16.7829C5.55786 16.7829 5.49427 16.7566 5.44739 16.7097C5.4005 16.6628 5.37416 16.5992 5.37416 16.5329V15.3484C5.37416 15.2821 5.4005 15.2185 5.44739 15.1716C5.49427 15.1247 5.55786 15.0984 5.62416 15.0984C5.69047 15.0984 5.75406 15.1247 5.80094 15.1716C5.84782 15.2185 5.87416 15.2821 5.87416 15.3484V16.5329C5.87416 16.5992 5.84782 16.6628 5.80094 16.7097C5.75406 16.7566 5.69047 16.7829 5.62416 16.7829ZM7.76616 16.7829C7.69986 16.7829 7.63627 16.7566 7.58939 16.7097C7.5425 16.6628 7.51616 16.5992 7.51616 16.5329V15.3844C7.51616 15.3181 7.5425 15.2545 7.58939 15.2076C7.63627 15.1607 7.69986 15.1344 7.76616 15.1344C7.83247 15.1344 7.89606 15.1607 7.94294 15.2076C7.98982 15.2545 8.01616 15.3181 8.01616 15.3844V16.5329C8.01616 16.5992 7.98982 16.6628 7.94294 16.7097C7.89606 16.7566 7.83247 16.7829 7.76616 16.7829Z" fill="url(#paint8_linear_818_3060)"/>
<path d="M5.85626 18.7563C5.78996 18.7562 5.72636 18.7299 5.67926 18.6833L4.43526 17.4393C4.41198 17.416 4.39351 17.3884 4.38091 17.3581C4.3683 17.3277 4.36182 17.2951 4.36182 17.2623C4.36182 17.2294 4.3683 17.1968 4.38091 17.1664C4.39351 17.1361 4.41198 17.1085 4.43526 17.0853L5.28376 16.2373C5.33065 16.1904 5.39422 16.1641 5.46051 16.1641C5.5268 16.1641 5.59038 16.1904 5.63726 16.2373L6.88076 17.4808C6.92763 17.5276 6.95396 17.5912 6.95396 17.6575C6.95396 17.7238 6.92763 17.7874 6.88076 17.8343L6.03226 18.6828C6.0093 18.7061 5.9819 18.7246 5.95168 18.7373C5.92145 18.7499 5.88902 18.7563 5.85626 18.7563ZM4.96626 17.2618L5.85676 18.1523L6.35176 17.6573L5.46176 16.7673L4.96626 17.2618Z" fill="url(#paint9_linear_818_3060)"/>
<path d="M7.57998 18.7563C7.51368 18.7562 7.45008 18.7299 7.40298 18.6833L6.55448 17.8348C6.50762 17.7879 6.48129 17.7243 6.48129 17.658C6.48129 17.5917 6.50762 17.5282 6.55448 17.4813L7.82648 16.2088C7.87422 16.1636 7.93748 16.1383 8.00323 16.1383C8.06899 16.1383 8.13225 16.1636 8.17998 16.2088L9.02848 17.0573C9.07535 17.1042 9.10168 17.1677 9.10168 17.234C9.10168 17.3003 9.07535 17.3639 9.02848 17.4108L7.75598 18.6833C7.73293 18.7065 7.7055 18.7249 7.67529 18.7374C7.64508 18.7499 7.61269 18.7563 7.57998 18.7563ZM7.08498 17.6573L7.57998 18.1523L8.49898 17.2333L8.00398 16.7383L7.08498 17.6573ZM7.05498 15.7018H6.33898C5.60847 15.701 4.90811 15.4104 4.39161 14.8938C3.8751 14.3772 3.58465 13.6768 3.58398 12.9463V10.8078C3.58398 10.7413 3.61048 10.6778 3.65698 10.6308L4.16298 10.1253C4.2503 10.038 4.29955 9.91973 4.29998 9.79628V9.74228C4.29998 9.40728 4.57248 9.13428 4.90798 9.13428H8.48698C8.82198 9.13428 9.09498 9.40728 9.09498 9.74228C9.09498 9.91278 9.14798 10.0358 9.23998 10.1233L9.73248 10.5898C9.75713 10.6131 9.77676 10.6413 9.79017 10.6725C9.80358 10.7037 9.81049 10.7373 9.81048 10.7713V12.9473C9.80956 13.6777 9.51892 14.3779 9.00233 14.8943C8.48575 15.4107 7.78541 15.7011 7.05498 15.7018ZM4.08398 10.9113V12.9463C4.08465 13.5442 4.32242 14.1174 4.74516 14.5402C5.1679 14.9631 5.74108 15.201 6.33898 15.2018H7.05498C7.65293 15.2011 8.22619 14.9633 8.64896 14.5404C9.07172 14.1175 9.30946 13.5442 9.30998 12.9463V10.8778L8.89598 10.4858C8.80088 10.3954 8.72511 10.2867 8.67329 10.1662C8.62146 10.0457 8.59465 9.91595 8.59448 9.78478C8.59448 9.68228 8.54598 9.63378 8.48648 9.63378H4.90798C4.87934 9.63378 4.85187 9.64516 4.83162 9.66541C4.81136 9.68566 4.79998 9.71313 4.79998 9.74178V9.79578C4.79998 10.0538 4.69948 10.2963 4.51698 10.4788L4.08398 10.9113Z" fill="url(#paint10_linear_818_3060)"/>
<path d="M3.83409 11.058C3.80096 11.0582 3.76813 11.0518 3.73752 11.0392C3.70691 11.0266 3.67912 11.0079 3.65579 10.9844C3.63247 10.9609 3.61406 10.933 3.60166 10.9023C3.58927 10.8715 3.58312 10.8387 3.58359 10.8055V8.68905C3.47232 8.59893 3.38248 8.4852 3.32056 8.35609C3.25864 8.22699 3.2262 8.08573 3.22559 7.94255V7.22705C3.22559 6.81705 3.37959 6.41905 3.65959 6.10755C3.69089 6.07237 3.73151 6.04678 3.77675 6.03372C3.82199 6.02066 3.87 6.02066 3.91523 6.03374C3.96047 6.04681 4.00108 6.07242 4.03237 6.1076C4.06367 6.14278 4.08437 6.1861 4.09209 6.23255C4.1102 6.34077 4.16611 6.43906 4.24989 6.50992C4.33366 6.58079 4.43986 6.61963 4.54959 6.61955H8.12859C8.57459 6.61955 8.95109 6.92305 9.06159 7.33505H9.20259C9.53759 7.33505 9.81059 7.60805 9.81059 7.94305V10.771C9.8106 10.8199 9.79628 10.8677 9.7694 10.9086C9.74253 10.9494 9.70427 10.9815 9.65936 11.0008C9.61445 11.0201 9.56487 11.0258 9.51674 11.0172C9.46862 11.0087 9.42406 10.9862 9.38859 10.9525L8.89659 10.4865C8.80148 10.3962 8.72571 10.2875 8.67389 10.167C8.62206 10.0465 8.59525 9.91672 8.59509 9.78555C8.59509 9.68305 8.54659 9.63455 8.48709 9.63455H4.90809C4.87944 9.63455 4.85197 9.64593 4.83172 9.66618C4.81146 9.68643 4.80009 9.7139 4.80009 9.74255V9.79655C4.80009 10.0545 4.69959 10.297 4.51709 10.4795L4.01109 10.985C3.96399 11.0317 3.90039 11.0579 3.83409 11.058ZM3.81609 6.78105C3.7567 6.92243 3.72594 7.07419 3.72559 7.22755V7.94305C3.72559 8.10855 3.81309 8.25855 3.95909 8.34405C3.99692 8.36601 4.02833 8.39752 4.05018 8.43542C4.07203 8.47332 4.08355 8.5163 4.08359 8.56005V10.2065L4.16309 10.127C4.25022 10.039 4.2994 9.92039 4.30009 9.79655V9.74255C4.30009 9.40755 4.57259 9.13455 4.90809 9.13455H8.48709C8.82209 9.13455 9.09509 9.40755 9.09509 9.74255C9.09509 9.91305 9.14809 10.036 9.24009 10.1235L9.31059 10.19V7.94305C9.31059 7.9144 9.29921 7.88693 9.27895 7.86668C9.2587 7.84643 9.23123 7.83505 9.20259 7.83505H8.84459C8.77828 7.83505 8.71469 7.80871 8.66781 7.76182C8.62093 7.71494 8.59459 7.65135 8.59459 7.58505C8.59432 7.46158 8.54512 7.34326 8.45778 7.256C8.37043 7.16875 8.25205 7.11968 8.12859 7.11955H4.54959C4.41013 7.11948 4.27234 7.08918 4.14571 7.03075C4.01908 6.97231 3.90663 6.88712 3.81609 6.78105Z" fill="url(#paint11_linear_818_3060)"/>
<path d="M4.5495 8.90789H4.1915C3.93538 8.90763 3.68983 8.80577 3.50873 8.62467C3.32762 8.44356 3.22576 8.19801 3.2255 7.94189C3.2255 7.87559 3.25184 7.812 3.29872 7.76512C3.34561 7.71823 3.4092 7.69189 3.4755 7.69189C3.5418 7.69189 3.60539 7.71823 3.65228 7.76512C3.69916 7.812 3.7255 7.87559 3.7255 7.94189C3.7255 8.19889 3.9345 8.40789 4.1915 8.40789H4.5495C4.6158 8.40789 4.67939 8.43423 4.72628 8.48112C4.77316 8.528 4.7995 8.59159 4.7995 8.65789C4.7995 8.7242 4.77316 8.78779 4.72628 8.83467C4.67939 8.88156 4.6158 8.90789 4.5495 8.90789ZM31.75 26.0919H22.4365C22.3702 26.0919 22.3066 26.0656 22.2597 26.0187C22.2128 25.9718 22.1865 25.9082 22.1865 25.8419V20.1154C22.1867 19.6431 22.0588 19.1796 21.8164 18.7742C21.574 18.3688 21.2262 18.0368 20.81 17.8134C20.7693 17.7914 20.7356 17.7585 20.7125 17.7185C20.6894 17.6784 20.6778 17.6328 20.6791 17.5866C20.6804 17.5403 20.6945 17.4954 20.7198 17.4567C20.7451 17.418 20.7807 17.3871 20.8225 17.3674C21.3299 17.1273 21.8842 17.0028 22.4455 17.0029H23.124C23.1903 17.0029 23.2539 17.0292 23.3008 17.0761C23.3477 17.123 23.374 17.1866 23.374 17.2529C23.374 17.3192 23.3477 17.3828 23.3008 17.4297C23.2539 17.4766 23.1903 17.5029 23.124 17.5029H22.445C22.1135 17.5029 21.7885 17.5524 21.4735 17.6499C21.8512 17.9405 22.1571 18.3141 22.3675 18.7418C22.578 19.1695 22.6873 19.6398 22.687 20.1164V25.5924H31.5V20.8319C31.4989 19.9493 31.1479 19.1032 30.5238 18.4791C29.8997 17.855 29.0536 17.504 28.171 17.5029H27.456C27.3897 17.5029 27.3261 17.4766 27.2792 17.4297C27.2323 17.3828 27.206 17.3192 27.206 17.2529C27.206 17.1866 27.2323 17.123 27.2792 17.0761C27.3261 17.0292 27.3897 17.0029 27.456 17.0029H28.171C30.2825 17.0029 32 18.7209 32 20.8319V25.8424C31.9999 25.9086 31.9735 25.9721 31.9266 26.0188C31.8797 26.0656 31.8162 26.0919 31.75 26.0919ZM9.5525 26.0919H0.25C0.183696 26.0919 0.120107 26.0656 0.0732233 26.0187C0.0263392 25.9718 0 25.9082 0 25.8419V20.8314C0 18.7199 1.7175 17.0024 3.829 17.0024H4.5075C4.5738 17.0024 4.63739 17.0287 4.68428 17.0756C4.73116 17.1225 4.7575 17.1861 4.7575 17.2524C4.7575 17.3187 4.73116 17.3823 4.68428 17.4292C4.63739 17.4761 4.5738 17.5024 4.5075 17.5024H3.829C2.94642 17.5035 2.10029 17.8545 1.47621 18.4786C0.852131 19.1027 0.501059 19.9488 0.5 20.8314V25.5919H9.3025V20.1154C9.3025 19.1379 9.7585 18.2304 10.5195 17.6464C10.207 17.5504 9.88191 17.5017 9.555 17.5019H8.84C8.7737 17.5019 8.71011 17.4756 8.66322 17.4287C8.61634 17.3818 8.59 17.3182 8.59 17.2519C8.59 17.1856 8.61634 17.122 8.66322 17.0751C8.71011 17.0282 8.7737 17.0019 8.84 17.0019H9.555C10.114 17.0019 10.6585 17.1234 11.172 17.3639C11.2139 17.3836 11.2496 17.4146 11.2749 17.4533C11.3003 17.4921 11.3144 17.5371 11.3156 17.5834C11.3168 17.6298 11.3052 17.6755 11.282 17.7156C11.2587 17.7556 11.2248 17.7885 11.184 17.8104C10.7664 18.0332 10.4173 18.3653 10.1739 18.7713C9.93044 19.1772 9.8019 19.6416 9.802 20.1149V25.8409C9.80213 25.8738 9.79578 25.9063 9.78331 25.9368C9.77083 25.9672 9.75248 25.9948 9.72931 26.0181C9.70613 26.0415 9.67859 26.06 9.64825 26.0726C9.61791 26.0853 9.58537 26.0918 9.5525 26.0919Z" fill="url(#paint12_linear_818_3060)"/>
<path d="M14.7418 11.3469C14.9395 11.3469 15.0998 11.1866 15.0998 10.9889C15.0998 10.7911 14.9395 10.6309 14.7418 10.6309C14.5441 10.6309 14.3838 10.7911 14.3838 10.9889C14.3838 11.1866 14.5441 11.3469 14.7418 11.3469Z" fill="#0071BC"/>
<path d="M17.2467 11.3469C17.4444 11.3469 17.6047 11.1866 17.6047 10.9889C17.6047 10.7911 17.4444 10.6309 17.2467 10.6309C17.049 10.6309 16.8887 10.7911 16.8887 10.9889C16.8887 11.1866 17.049 11.3469 17.2467 11.3469Z" fill="#0071BC"/>
<path d="M15.1975 10.533C15.2447 10.5786 15.3078 10.6038 15.3734 10.6032C15.4389 10.6026 15.5016 10.5763 15.548 10.53C15.5943 10.4836 15.6206 10.4209 15.6212 10.3554C15.6218 10.2898 15.5966 10.2267 15.551 10.1795C15.1185 9.74704 14.364 9.74704 13.932 10.1795C13.8851 10.2265 13.8588 10.2901 13.8589 10.3565C13.8589 10.4228 13.8853 10.4864 13.9323 10.5333C13.9792 10.5802 14.0429 10.6065 14.1092 10.6064C14.1755 10.6064 14.2391 10.58 14.286 10.533C14.5295 10.289 14.954 10.289 15.1975 10.533ZM16.791 10.533C17.035 10.289 17.4595 10.2895 17.703 10.533C17.7262 10.5564 17.7537 10.575 17.7841 10.5877C17.8145 10.6004 17.8471 10.6069 17.88 10.6069C17.9129 10.6069 17.9455 10.6004 17.9759 10.5877C18.0063 10.575 18.0339 10.5564 18.057 10.533C18.1039 10.4862 18.1302 10.4226 18.1302 10.3563C18.1302 10.29 18.1039 10.2264 18.057 10.1795C17.6245 9.74704 16.87 9.74654 16.438 10.1795C16.3943 10.227 16.3706 10.2895 16.3719 10.354C16.3732 10.4185 16.3994 10.48 16.4449 10.5256C16.4905 10.5713 16.552 10.5975 16.6165 10.5989C16.681 10.6003 16.7435 10.5767 16.791 10.533Z" fill="url(#paint13_linear_818_3060)"/>
<path d="M19.5733 17.0027H18.0188L17.3253 16.3092V15.7132H19.9313C19.9976 15.7132 20.0611 15.6869 20.108 15.64C20.1549 15.5931 20.1813 15.5295 20.1813 15.4632V9.9162C20.1813 7.6687 18.4453 5.9082 16.2288 5.9082H15.8153C14.9943 5.90993 14.1935 6.16284 13.5205 6.63298C12.8474 7.10312 12.3344 7.76796 12.0503 8.5382C12.0473 8.5462 12.0488 8.5547 12.0463 8.5627C11.6535 9.11844 11.4425 9.78218 11.4423 10.4627C11.4423 10.529 11.4686 10.5926 11.5155 10.6395C11.5624 10.6864 11.626 10.7127 11.6923 10.7127C11.7326 10.7119 11.772 10.7013 11.8073 10.6817V15.4637C11.8073 15.53 11.8336 15.5936 11.8805 15.6405C11.9274 15.6874 11.991 15.7137 12.0573 15.7137H14.6713V16.3222L13.9913 17.0027H12.4153C11.5898 17.0036 10.7984 17.332 10.2147 17.9156C9.63101 18.4993 9.30268 19.2907 9.30176 20.1162V25.8422C9.30176 25.9085 9.3281 25.9721 9.37498 26.019C9.42187 26.0659 9.48545 26.0922 9.55176 26.0922H22.4358C22.5021 26.0922 22.5656 26.0659 22.6125 26.019C22.6594 25.9721 22.6858 25.9085 22.6858 25.8422V20.1157C22.685 19.2904 22.3568 18.4991 21.7733 17.9155C21.1898 17.3319 20.3985 17.0036 19.5733 17.0027ZM17.6328 17.3242L16.7898 18.2682L16.6798 18.1582C16.6753 18.1527 16.6733 18.1462 16.6683 18.1412L16.2978 17.7712L17.1378 16.8297L17.6328 17.3242ZM16.5558 22.2737L15.1508 23.6792L15.2918 22.6007L16.4653 21.4277L16.5743 22.2617C16.5683 22.2662 16.5613 22.2682 16.5558 22.2737ZM16.6548 22.8817L16.7673 23.7442L15.9548 24.8277L15.4208 24.1157L16.6548 22.8817ZM15.8183 18.2717L15.9523 18.1377L16.1353 18.3207L15.9548 18.5007L15.7713 18.3177L15.8183 18.2717ZM15.9613 17.3977L15.1718 16.4262V15.3112C15.4419 15.3967 15.7234 15.4404 16.0068 15.4407C16.2844 15.4396 16.5603 15.3969 16.8253 15.3142V16.4297L15.9613 17.3977ZM15.5393 20.7052L16.2743 19.9702L16.3833 20.8027L15.3978 21.7877L15.5393 20.7052ZM16.1928 19.3447L15.6458 19.8917L15.7603 19.0132L15.7783 19.0312C15.8014 19.0546 15.829 19.0732 15.8594 19.0859C15.8897 19.0985 15.9223 19.1051 15.9553 19.1051C15.9882 19.1051 16.0208 19.0985 16.0512 19.0859C16.0815 19.0732 16.1091 19.0546 16.1323 19.0312L16.1503 19.0132L16.1928 19.3447ZM14.6618 14.4997L13.8583 13.9027C13.7106 13.7926 13.5906 13.6496 13.5078 13.4851C13.425 13.3205 13.3816 13.1389 13.3813 12.9547V9.7047C13.5883 9.6562 13.8018 9.6297 14.0188 9.6297H15.9873C16.4303 9.6297 16.8208 9.4092 17.0608 9.0742C17.1825 9.2456 17.3435 9.38542 17.5302 9.48205C17.7169 9.57867 17.924 9.62929 18.1343 9.6297C18.3913 9.6297 18.5998 9.8387 18.5998 10.0957C18.5998 10.1092 18.6053 10.1207 18.6073 10.1332V12.9627C18.6073 13.3302 18.4318 13.6827 18.1388 13.9052L17.3678 14.4887C16.9777 14.7809 16.5039 14.9398 16.0166 14.9417C15.5292 14.9437 15.0542 14.7887 14.6618 14.4997ZM12.0168 9.8087C12.1085 9.41968 12.2829 9.05496 12.5281 8.73929C12.7733 8.42362 13.0835 8.16439 13.4378 7.9792C13.838 7.77013 14.2827 7.66086 14.7343 7.6607C14.8006 7.6607 14.8642 7.63436 14.911 7.58748C14.9579 7.5406 14.9843 7.47701 14.9843 7.4107C14.9843 7.3444 14.9579 7.28081 14.911 7.23393C14.8642 7.18704 14.8006 7.1607 14.7343 7.1607C14.2313 7.1607 13.7333 7.2807 13.2848 7.5007C13.9348 6.8227 14.8403 6.4082 15.8153 6.4082H16.2288C18.1648 6.4082 19.6813 7.9492 19.6813 9.9162V15.2137H17.3248V15.1047C17.4433 15.0402 17.5598 14.9697 17.6693 14.8867L18.4403 14.3032C18.6468 14.1458 18.8144 13.943 18.93 13.7105C19.0456 13.4779 19.1061 13.2219 19.1068 12.9622V10.0952C19.1068 10.0687 19.0993 10.0442 19.0918 10.0197C19.0734 9.77797 18.9646 9.55205 18.787 9.38699C18.6094 9.22194 18.3762 9.12989 18.1338 9.1292C17.9155 9.12881 17.7062 9.04192 17.5519 8.88757C17.3975 8.73322 17.3107 8.52399 17.3103 8.3057C17.3103 8.2394 17.2839 8.17581 17.237 8.12893C17.1901 8.08204 17.1266 8.0557 17.0603 8.0557C16.994 8.0557 16.9304 8.08204 16.8835 8.12893C16.8366 8.17581 16.8103 8.2394 16.8103 8.3057C16.8099 8.52399 16.723 8.73322 16.5686 8.88757C16.4143 9.04192 16.205 9.12881 15.9868 9.1292H14.0183C13.7178 9.13234 13.4191 9.17676 13.1308 9.2612C13.0928 9.26171 13.0554 9.27113 13.0218 9.2887C12.6591 9.40234 12.319 9.5783 12.0168 9.8087ZM12.3078 15.2137V10.2177C12.4853 10.0797 12.6778 9.9647 12.8813 9.8737V12.9542C12.8813 13.4837 13.1348 13.9877 13.5598 14.3037L14.3633 14.9007C14.4618 14.9737 14.5663 15.0347 14.6718 15.0927V15.2132H12.3078V15.2137ZM14.8623 16.8387L15.6163 17.7662L15.1233 18.2592L14.3693 17.3317L14.8623 16.8387ZM22.1863 25.5922H21.6208V20.4737C21.6208 20.4074 21.5944 20.3438 21.5475 20.2969C21.5007 20.25 21.4371 20.2237 21.3708 20.2237C21.3045 20.2237 21.2409 20.25 21.194 20.2969C21.1471 20.3438 21.1208 20.4074 21.1208 20.4737V25.5917H19.8178V21.2007C19.8178 21.1344 19.7914 21.0708 19.7445 21.0239C19.6976 20.977 19.6341 20.9507 19.5678 20.9507C19.5015 20.9507 19.4379 20.977 19.391 21.0239C19.3441 21.0708 19.3178 21.1344 19.3178 21.2007V25.5917H12.3023V21.2007C12.3023 21.1344 12.2759 21.0708 12.229 21.0239C12.1822 20.977 12.1186 20.9507 12.0523 20.9507C11.986 20.9507 11.9224 20.977 11.8755 21.0239C11.8286 21.0708 11.8023 21.1344 11.8023 21.2007V25.5917H9.80226V20.1157C9.80305 19.4228 10.0787 18.7585 10.5686 18.2686C11.0586 17.7786 11.7229 17.503 12.4158 17.5022H13.8638L14.9103 18.7892C14.9324 18.8163 14.9599 18.8385 14.991 18.8543C15.0222 18.8702 15.0563 18.8793 15.0913 18.8812L15.1043 18.8817C15.1705 18.8814 15.2341 18.8552 15.2813 18.8087L15.2843 18.8057L14.6343 23.7802C14.6257 23.8448 14.6429 23.9102 14.6823 23.9622L15.7558 25.3937C15.779 25.4248 15.8092 25.45 15.844 25.4673C15.8787 25.4847 15.9169 25.4937 15.9558 25.4937C15.9946 25.4937 16.0328 25.4847 16.0676 25.4673C16.1023 25.45 16.1325 25.4248 16.1558 25.3937L17.2293 23.9622C17.2686 23.9102 17.2859 23.8448 17.2773 23.7802L16.6283 18.8112C16.6748 18.8562 16.7368 18.8817 16.8013 18.8817H16.8083C16.8423 18.8807 16.8758 18.8728 16.9066 18.8585C16.9375 18.8441 16.9651 18.8236 16.9878 18.7982L18.1448 17.5022H19.5743C20.2671 17.503 20.9314 17.7786 21.4212 18.2686C21.9111 18.7586 22.1866 19.4228 22.1873 20.1157V25.5922H22.1863Z" fill="url(#paint14_linear_818_3060)"/>
<path d="M15.591 12.3284C15.6472 12.3851 15.7141 12.4301 15.7879 12.4609C15.8616 12.4917 15.9407 12.5075 16.0206 12.5076C16.1005 12.5076 16.1796 12.4918 16.2534 12.4612C16.3272 12.4305 16.3942 12.3855 16.4505 12.3289C16.4737 12.3056 16.4921 12.278 16.5046 12.2477C16.5172 12.2173 16.5236 12.1848 16.5236 12.1519C16.5236 12.1191 16.5171 12.0866 16.5045 12.0562C16.4919 12.0259 16.4735 11.9983 16.4502 11.9751C16.427 11.9519 16.3994 11.9335 16.369 11.9209C16.3387 11.9084 16.3061 11.9019 16.2733 11.902C16.2404 11.902 16.2079 11.9085 16.1776 11.9211C16.1472 11.9337 16.1197 11.9521 16.0965 11.9754C16.0865 11.9854 16.0747 11.9934 16.0616 11.9988C16.0486 12.0042 16.0346 12.007 16.0205 12.007C16.0063 12.007 15.9924 12.0042 15.9793 11.9988C15.9663 11.9934 15.9544 11.9854 15.9445 11.9754C15.9217 11.9505 15.8941 11.9306 15.8634 11.9167C15.8327 11.9028 15.7995 11.8953 15.7658 11.8946C15.7321 11.8939 15.6986 11.9 15.6673 11.9125C15.636 11.9251 15.6076 11.9438 15.5838 11.9676C15.5599 11.9914 15.5411 12.0198 15.5285 12.0511C15.5159 12.0824 15.5098 12.1158 15.5105 12.1495C15.5111 12.1832 15.5186 12.2164 15.5325 12.2472C15.5463 12.2779 15.5662 12.3055 15.591 12.3284ZM16.9155 12.7024H15.126C15.0597 12.7024 14.9961 12.7287 14.9492 12.7756C14.9023 12.8225 14.876 12.8861 14.876 12.9524C14.876 13.5839 15.3895 14.0974 16.021 14.0974C16.6525 14.0974 17.166 13.5839 17.166 12.9524C17.1657 12.886 17.1392 12.8225 17.0923 12.7757C17.0453 12.7289 16.9818 12.7025 16.9155 12.7024ZM16.021 13.5974C15.754 13.5974 15.5245 13.4344 15.4265 13.2024H16.6155C16.5175 13.4344 16.288 13.5974 16.021 13.5974Z" fill="url(#paint15_linear_818_3060)"/>
<defs>
<linearGradient id="paint0_linear_818_3060" x1="24.2108" y1="18.1895" x2="27.9106" y2="19.0365" gradientUnits="userSpaceOnUse">
<stop stop-color="#07FFE1"/>
<stop offset="1" stop-color="#9DFF00"/>
</linearGradient>
<linearGradient id="paint1_linear_818_3060" x1="22.2315" y1="11.2941" x2="32.7159" y2="14.2871" gradientUnits="userSpaceOnUse">
<stop stop-color="#07FFE1"/>
<stop offset="1" stop-color="#9DFF00"/>
</linearGradient>
<linearGradient id="paint2_linear_818_3060" x1="24.0193" y1="12.5294" x2="26.3396" y2="14.9386" gradientUnits="userSpaceOnUse">
<stop stop-color="#07FFE1"/>
<stop offset="1" stop-color="#9DFF00"/>
</linearGradient>
<linearGradient id="paint3_linear_818_3060" x1="21.5166" y1="8.82251" x2="34.3732" y2="12.5393" gradientUnits="userSpaceOnUse">
<stop stop-color="#07FFE1"/>
<stop offset="1" stop-color="#9DFF00"/>
</linearGradient>
<linearGradient id="paint4_linear_818_3060" x1="22.9797" y1="16.4624" x2="26.0616" y2="18.7096" gradientUnits="userSpaceOnUse">
<stop stop-color="#07FFE1"/>
<stop offset="1" stop-color="#9DFF00"/>
</linearGradient>
<linearGradient id="paint5_linear_818_3060" x1="22.9464" y1="11.1676" x2="30.4339" y2="14.2202" gradientUnits="userSpaceOnUse">
<stop stop-color="#07FFE1"/>
<stop offset="1" stop-color="#9DFF00"/>
</linearGradient>
<linearGradient id="paint6_linear_818_3060" x1="4.47865" y1="11.795" x2="21.5902" y2="33.1199" gradientUnits="userSpaceOnUse">
<stop stop-color="#07FFE1"/>
<stop offset="1" stop-color="#9DFF00"/>
</linearGradient>
<linearGradient id="paint7_linear_818_3060" x1="5.37572" y1="13.827" x2="10.1111" y2="14.5307" gradientUnits="userSpaceOnUse">
<stop stop-color="#07FFE1"/>
<stop offset="1" stop-color="#9DFF00"/>
</linearGradient>
<linearGradient id="paint8_linear_818_3060" x1="2.87303" y1="10.95" x2="10.9908" y2="17.8201" gradientUnits="userSpaceOnUse">
<stop stop-color="#07FFE1"/>
<stop offset="1" stop-color="#9DFF00"/>
</linearGradient>
<linearGradient id="paint9_linear_818_3060" x1="4.36347" y1="16.4624" x2="7.44539" y2="18.7096" gradientUnits="userSpaceOnUse">
<stop stop-color="#07FFE1"/>
<stop offset="1" stop-color="#9DFF00"/>
</linearGradient>
<linearGradient id="paint10_linear_818_3060" x1="3.58795" y1="10.2416" x2="12.862" y2="14.6175" gradientUnits="userSpaceOnUse">
<stop stop-color="#07FFE1"/>
<stop offset="1" stop-color="#9DFF00"/>
</linearGradient>
<linearGradient id="paint11_linear_818_3060" x1="3.22978" y1="6.60325" x2="9.50901" y2="12.5924" gradientUnits="userSpaceOnUse">
<stop stop-color="#07FFE1"/>
<stop offset="1" stop-color="#9DFF00"/>
</linearGradient>
<linearGradient id="paint12_linear_818_3060" x1="0.020373" y1="9.80936" x2="22.3637" y2="38.1433" gradientUnits="userSpaceOnUse">
<stop stop-color="#07FFE1"/>
<stop offset="1" stop-color="#9DFF00"/>
</linearGradient>
<linearGradient id="paint13_linear_818_3060" x1="13.8616" y1="9.94151" x2="14.29" y2="11.716" gradientUnits="userSpaceOnUse">
<stop stop-color="#07FFE1"/>
<stop offset="1" stop-color="#9DFF00"/>
</linearGradient>
<linearGradient id="paint14_linear_818_3060" x1="9.31028" y1="8.23097" x2="29.0651" y2="17.7826" gradientUnits="userSpaceOnUse">
<stop stop-color="#07FFE1"/>
<stop offset="1" stop-color="#9DFF00"/>
</linearGradient>
<linearGradient id="paint15_linear_818_3060" x1="14.8774" y1="12.148" x2="17.5259" y2="14.1556" gradientUnits="userSpaceOnUse">
<stop stop-color="#07FFE1"/>
<stop offset="1" stop-color="#9DFF00"/>
</linearGradient>
</defs>
</svg>
