<svg width="64" height="64" viewBox="0 0 64 64" fill="none" xmlns="http://www.w3.org/2000/svg">
<path d="M16 10C14.7444 10 13.7143 11.0301 13.7143 12.2857C13.7143 13.5413 14.7444 14.5714 16 14.5714C17.2556 14.5714 18.2857 13.5413 18.2857 12.2857C18.2857 11.0301 17.2556 10 16 10ZM16 11.1429C16.638 11.1429 17.1429 11.6478 17.1429 12.2857C17.1429 12.9237 16.638 13.4286 16 13.4286C15.3621 13.4286 14.8571 12.9237 14.8571 12.2857C14.8571 11.6478 15.3621 11.1429 16 11.1429ZM18.3304 14.0558L17.4442 14.7768L18.1652 15.6652L19.0513 14.942L18.3304 14.0558ZM19.7746 15.8281L18.8884 16.5513L19.6094 17.4375L20.4955 16.7143L19.7746 15.8281ZM21.2165 17.6004L20.7277 18H12C10.427 18 9.14286 19.2842 9.14286 20.8571V33.1719L5.53348 33.6049C5.13392 32.5075 4.08811 31.7143 2.85714 31.7143C1.28595 31.7143 -1.18856e-05 33.0002 0 34.5714C-1.18856e-05 36.1426 1.28595 37.4286 2.85714 37.4286C4.37182 37.4286 5.61074 36.2303 5.69866 34.7366L9.14286 34.3237V46.5714H5.14286C4.99131 46.5714 4.84597 46.6317 4.73881 46.7388C4.63165 46.846 4.57144 46.9913 4.57143 47.1429V49.4286C4.57143 51.6347 6.36531 53.4286 8.57143 53.4286H55.4286C57.6347 53.4286 59.4286 51.6347 59.4286 49.4286V47.1429C59.4286 46.9913 59.3684 46.846 59.2612 46.7388C59.154 46.6317 59.0087 46.5714 58.8571 46.5714H54.8571V38.8482L55.8973 39.1563L56.2232 38.0625L55.1272 37.7366L54.8571 38.6473V20.8571C54.8571 19.2842 53.573 18 52 18H21.5424L21.2165 17.6004ZM12 19.1429H20.9978L21.0513 19.2098L21.1339 19.1429H52C52.9596 19.1429 53.7143 19.8976 53.7143 20.8571V37.3192L52.9353 37.0893L52.6094 38.1853L53.7054 38.5089L53.7143 38.4799V46.5714H10.2857V34.1875L12.5714 33.9129V43.7143C12.5714 43.8658 12.6317 44.0112 12.7388 44.1183C12.846 44.2255 12.9913 44.2857 13.1429 44.2857H35.9777L36.8036 45.7165C37.2735 46.5305 38.3312 46.8137 39.1451 46.3438C39.8673 45.927 40.1684 45.0473 39.8996 44.2857H50.8571C51.0087 44.2857 51.154 44.2255 51.2612 44.1183C51.3684 44.0112 51.4286 43.8658 51.4286 43.7143V37.8371L51.5134 37.8594L51.8393 36.7634L51.4286 36.6429V22C51.4286 21.8485 51.3684 21.7031 51.2612 21.596C51.154 21.4888 51.0087 21.4286 50.8571 21.4286H24.3348L24.1027 21.1429L23.7545 21.4286H13.1429C12.9913 21.4286 12.846 21.4888 12.7388 21.596C12.6317 21.7031 12.5714 21.8485 12.5714 22V32.7612L10.2857 33.0379V20.8571C10.2857 19.8976 11.0404 19.1429 12 19.1429ZM22.6607 19.3705L21.7746 20.0938L22.4955 20.9799L23.3817 20.2567L22.6607 19.3705ZM13.7143 22.5714H23.7902L23.9397 22.7522L24.1629 22.5714H50.2857V43.1429H39.2768L36.058 37.567C36.1676 37.5064 36.2543 37.4115 36.3048 37.2969C36.3552 37.1823 36.3666 37.0542 36.3372 36.9325C36.3077 36.8108 36.2391 36.7021 36.1419 36.6231C36.0447 36.5442 35.9243 36.4994 35.7991 36.4955C35.6898 36.4904 35.5814 36.5167 35.4866 36.5714L34.4955 37.1429L34.0804 36.4196C36.5208 34.752 37.3098 31.4514 35.808 28.8504C34.6267 26.8044 32.3579 25.7655 30.1473 26.0379C29.4105 26.1282 28.682 26.3651 28 26.7589C25.272 28.334 24.3312 31.839 25.9063 34.567C27.361 37.0866 30.4612 38.0749 33.0759 36.971L33.5067 37.7143L32.5179 38.2857C32.3872 38.3619 32.292 38.4867 32.2531 38.6328C32.2142 38.779 32.2347 38.9346 32.3103 39.0657C32.3858 39.1967 32.5102 39.2925 32.6562 39.332C32.8022 39.3716 32.9579 39.3517 33.0893 39.2768L35.317 43.1384H13.7143V33.7723L24.0536 32.5313C24.009 32.1493 24.0007 31.7647 24.0201 31.3839L13.7143 32.6228V22.5714ZM25.5469 22.9174L24.6607 23.6384L25.3817 24.5246L26.2679 23.8036L25.5469 22.9174ZM46.8571 23.7143C45.6015 23.7143 44.5714 24.7445 44.5714 26C44.5714 26.124 44.59 26.2426 44.6094 26.3616L37.2902 29.3571C37.4231 29.7218 37.5235 30.0921 37.5915 30.4665L45.0692 27.404C45.4889 27.9362 46.1319 28.2857 46.8571 28.2857C48.1127 28.2857 49.1429 27.2557 49.1429 26C49.1429 24.7445 48.1127 23.7143 46.8571 23.7143ZM26.9911 24.6897L26.1049 25.4129L26.7589 26.2143C26.9715 26.0555 27.1935 25.9059 27.4286 25.7701C27.4663 25.7484 27.5062 25.7338 27.5446 25.7121L27.7121 25.5737L26.9911 24.6897ZM46.8571 24.8571C47.4951 24.8571 48 25.3621 48 26C48 26.6379 47.4951 27.1429 46.8571 27.1429C46.2192 27.1429 45.7143 26.6379 45.7143 26C45.7143 25.3621 46.2192 24.8571 46.8571 24.8571ZM30.9576 27.1339C32.5007 27.1671 33.986 27.9848 34.817 29.4241C36.0833 31.6174 35.3362 34.4056 33.1429 35.6719C30.9497 36.938 28.1636 36.1933 26.8973 34C25.6311 31.8069 26.3783 29.0185 28.5714 27.7522C29.1197 27.4357 29.7051 27.2457 30.2946 27.1719C30.5157 27.1444 30.7371 27.1304 30.9576 27.1362V27.1339ZM30.8571 28.2857C28.9704 28.2857 27.4286 29.8275 27.4286 31.7143C27.4286 33.6011 28.9704 35.1429 30.8571 35.1429C32.7439 35.1429 34.2857 33.6011 34.2857 31.7143C34.2857 29.8275 32.7439 28.2857 30.8571 28.2857ZM30.8571 29.4286C32.1263 29.4286 33.1429 30.4451 33.1429 31.7143C33.1429 32.9834 32.1263 34 30.8571 34C29.588 34 28.5714 32.9834 28.5714 31.7143C28.5714 30.4451 29.588 29.4286 30.8571 29.4286ZM37.6451 32.5603C37.5971 32.9405 37.5184 33.3142 37.4085 33.6808L38.3661 33.9621L38.6897 32.8661L37.6451 32.5603ZM2.85714 32.8571C3.81069 32.8571 4.57144 33.6178 4.57143 34.5714C4.57144 35.5249 3.81069 36.2857 2.85714 36.2857C1.9036 36.2857 1.14285 35.5249 1.14286 34.5714C1.14285 33.6178 1.9036 32.8571 2.85714 32.8571ZM39.7857 33.1942L39.4621 34.2902L40.5558 34.6138L40.8817 33.5179L39.7857 33.1942ZM41.9777 33.8415L41.6518 34.9375L42.7478 35.2612L43.0737 34.1652L41.9777 33.8415ZM44.1696 34.4911L43.8438 35.5848L44.9397 35.9129L45.2634 34.8147L44.1696 34.4911ZM46.3594 35.1384L46.0357 36.2366L47.1317 36.5625L47.4554 35.4665L46.3594 35.1384ZM48.5513 35.7902L48.2277 36.8862L49.3237 37.2098L49.6473 36.1138L48.5513 35.7902ZM25.3728 35.8192L23.9888 37.2031L24.7969 38.0112L26.1317 36.6763C25.8573 36.4166 25.6048 36.1285 25.3728 35.8192ZM61.1429 37.4286C59.5717 37.4286 58.2857 38.7145 58.2857 40.2857C58.2857 41.8569 59.5717 43.1429 61.1429 43.1429C62.7141 43.1429 64 41.8569 64 40.2857C64 38.7145 62.7141 37.4286 61.1429 37.4286ZM23.1808 38.0134L22.4487 38.7433C22.225 38.6359 21.9772 38.5714 21.7143 38.5714C20.7743 38.5714 20 39.3457 20 40.2857C20 41.2257 20.7743 42 21.7143 42C22.6543 42 23.4286 41.2257 23.4286 40.2857C23.4286 40.0234 23.3619 39.7791 23.2545 39.5558L23.9888 38.8192L23.1808 38.0134ZM35.0692 38.1384L38.7835 44.5714C38.9467 44.8542 38.8564 45.1895 38.5737 45.3527C38.2909 45.516 37.9557 45.4259 37.7924 45.1429L34.0781 38.7098L35.0692 38.1384ZM57.317 38.3862L56.9933 39.4844L58.0893 39.808L58.4129 38.7098L57.317 38.3862ZM61.1429 38.5714C62.0964 38.5714 62.8572 39.3321 62.8571 40.2857C62.8572 41.2392 62.0964 42 61.1429 42C60.1893 42 59.4286 41.2392 59.4286 40.2857C59.4286 39.3321 60.1893 38.5714 61.1429 38.5714ZM21.7143 39.7143C22.0366 39.7143 22.2857 39.9633 22.2857 40.2857C22.2857 40.608 22.0366 40.8571 21.7143 40.8571C21.3919 40.8571 21.1429 40.608 21.1429 40.2857C21.1429 39.9633 21.3919 39.7143 21.7143 39.7143ZM39.942 47.7121H58.2857V49.4263C58.2857 51.0191 57.0213 52.2835 55.4286 52.2835H8.57143C6.97869 52.2835 5.71429 51.0191 5.71429 49.4263V47.7143H25.2009C25.4682 49.0139 26.6236 49.9978 28 49.9978H37.1429C38.5192 49.9978 39.6747 49.0116 39.942 47.7121ZM26.5201 47.7143H38.6228C38.3747 48.3515 37.877 48.8571 37.1429 48.8571H28C27.2659 48.8571 26.7682 48.3515 26.5201 47.7143Z" fill="url(#paint0_linear_838_5149)"/>
<defs>
<linearGradient id="paint0_linear_838_5149" x1="0.0407459" y1="14.9977" x2="54.1313" y2="73.1214" gradientUnits="userSpaceOnUse">
<stop stop-color="#07FFE1"/>
<stop offset="1" stop-color="#9DFF00"/>
</linearGradient>
</defs>
</svg>
