<svg width="64" height="64" viewBox="0 0 64 64" fill="none" xmlns="http://www.w3.org/2000/svg">
<path d="M56.6429 52.1033H7.35714C5.93669 52.1021 4.57474 51.5292 3.57032 50.5102C2.56591 49.4912 2.00114 48.1095 2 46.6684V44.4944C2 44.2062 2.11288 43.9297 2.31381 43.7258C2.51475 43.522 2.78727 43.4075 3.07143 43.4075H60.9286C61.2127 43.4075 61.4853 43.522 61.6862 43.7258C61.8871 43.9297 62 44.2062 62 44.4944V46.6684C62 49.6663 59.5979 52.1033 56.6429 52.1033ZM3.53838 45.0878V46.6684C3.53838 48.4663 5.12239 50.5102 6.89454 50.5102H56.742C58.5142 50.5102 60.6364 48.4663 60.6364 46.6684V45.0878H3.53838Z" fill="url(#paint0_linear_838_5150)"/>
<path d="M6.12207 44.1034H5.52207V44.7034H6.12207V44.1034ZM57.8237 44.1034V44.7034H58.4237V44.1034H57.8237ZM6.72207 44.1034V14.5H5.52207V44.1034H6.72207ZM8.62207 12.6H55.3237V11.4H8.62207V12.6ZM57.2237 14.5V44.1034H58.4237V14.5H57.2237ZM57.8237 43.5034H6.12207V44.7034H57.8237V43.5034ZM55.3237 12.6C56.373 12.6 57.2237 13.4507 57.2237 14.5H58.4237C58.4237 12.7879 57.0357 11.4 55.3237 11.4V12.6ZM6.72207 14.5C6.72207 13.4507 7.57273 12.6 8.62207 12.6V11.4C6.90999 11.4 5.52207 12.7879 5.52207 14.5H6.72207Z" fill="url(#paint1_linear_838_5150)"/>
<path d="M8.83555 15.5513V41.0295H10.0355V15.5513H8.83555ZM9.53555 41.7295H54.3414V40.5295H9.53555V41.7295ZM55.0414 41.0295V15.5513H53.8414V41.0295H55.0414ZM54.3414 14.8513H9.53554V16.0513H54.3414V14.8513ZM55.0414 15.5513C55.0414 15.1647 54.728 14.8513 54.3414 14.8513V16.0513C54.0653 16.0513 53.8414 15.8274 53.8414 15.5513H55.0414ZM54.3414 41.7295C54.728 41.7295 55.0414 41.4161 55.0414 41.0295H53.8414C53.8414 40.7534 54.0653 40.5295 54.3414 40.5295V41.7295ZM8.83555 41.0295C8.83555 41.4161 9.14894 41.7295 9.53555 41.7295V40.5295C9.8117 40.5295 10.0355 40.7534 10.0355 41.0295H8.83555ZM10.0355 15.5513C10.0355 15.8274 9.8117 16.0513 9.53554 16.0513V14.8513C9.14893 14.8513 8.83555 15.1647 8.83555 15.5513H10.0355Z" fill="url(#paint2_linear_838_5150)"/>
<path d="M25.5738 44.1033V47.6554H26.7738V44.1033H25.5738ZM26.2738 48.3554H37.7261V47.1554H26.2738V48.3554ZM38.4261 47.6554V44.1033H37.2261V47.6554H38.4261ZM37.7261 48.3554C38.1127 48.3554 38.4261 48.042 38.4261 47.6554H37.2261C37.2261 47.3792 37.45 47.1554 37.7261 47.1554V48.3554ZM25.5738 47.6554C25.5738 48.042 25.8872 48.3554 26.2738 48.3554V47.1554C26.55 47.1554 26.7738 47.3792 26.7738 47.6554H25.5738Z" fill="url(#paint3_linear_838_5150)"/>
<path d="M30.4375 33.0417C30.2733 33.0419 30.1107 33.0096 29.9591 32.9467C29.8074 32.8839 29.6696 32.7917 29.5537 32.6754L26.4287 29.5504C26.3127 29.4344 26.2206 29.2966 26.1578 29.145C26.095 28.9933 26.0627 28.8308 26.0627 28.6667C26.0627 28.5026 26.095 28.34 26.1578 28.1884C26.2206 28.0368 26.3127 27.899 26.4287 27.7829C26.5448 27.6669 26.6825 27.5748 26.8342 27.512C26.9858 27.4492 27.1483 27.4169 27.3125 27.4169C27.4766 27.4169 27.6391 27.4492 27.7907 27.512C27.9424 27.5748 28.0802 27.6669 28.1962 27.7829L30.4375 30.0242L35.8037 24.6579C35.9198 24.5419 36.0575 24.4498 36.2092 24.387C36.3608 24.3242 36.5233 24.2919 36.6875 24.2919C36.8516 24.2919 37.0141 24.3242 37.1657 24.387C37.3174 24.4498 37.4552 24.5419 37.5712 24.6579C37.6873 24.774 37.7793 24.9118 37.8421 25.0634C37.905 25.215 37.9373 25.3776 37.9373 25.5417C37.9373 25.7058 37.905 25.8683 37.8421 26.02C37.7793 26.1716 37.6873 26.3094 37.5712 26.4254L31.3212 32.6754C31.2053 32.7917 31.0675 32.8839 30.9159 32.9467C30.7642 33.0096 30.6016 33.0419 30.4375 33.0417Z" fill="#0071BC"/>
<path d="M21.85 28.6666C21.85 34.2632 26.4034 38.8166 32 38.8166C37.5966 38.8166 42.15 34.2632 42.15 28.6666C42.15 23.07 37.5966 18.5166 32 18.5166C26.4034 18.5166 21.85 23.07 21.85 28.6666ZM23.4 28.6666C23.4 23.9257 27.2591 20.0666 32 20.0666C36.7409 20.0666 40.6 23.9257 40.6 28.6666C40.6 33.4075 36.7409 37.2666 32 37.2666C27.2591 37.2666 23.4 33.4075 23.4 28.6666Z" fill="#0071BC" stroke="#0071BC" stroke-width="0.3"/>
<defs>
<linearGradient id="paint0_linear_838_5150" x1="2.0382" y1="44.4082" x2="6.19073" y2="65.3002" gradientUnits="userSpaceOnUse">
<stop stop-color="#07FFE1"/>
<stop offset="1" stop-color="#9DFF00"/>
</linearGradient>
<linearGradient id="paint1_linear_838_5150" x1="6.15499" y1="15.6944" x2="45.7314" y2="62.1691" gradientUnits="userSpaceOnUse">
<stop stop-color="#07FFE1"/>
<stop offset="1" stop-color="#9DFF00"/>
</linearGradient>
<linearGradient id="paint2_linear_838_5150" x1="9.4642" y1="18.4063" x2="40.5883" y2="58.1829" gradientUnits="userSpaceOnUse">
<stop stop-color="#07FFE1"/>
<stop offset="1" stop-color="#9DFF00"/>
</linearGradient>
<linearGradient id="paint3_linear_838_5150" x1="26.1812" y1="44.5236" x2="29.4904" y2="52.2221" gradientUnits="userSpaceOnUse">
<stop stop-color="#07FFE1"/>
<stop offset="1" stop-color="#9DFF00"/>
</linearGradient>
</defs>
</svg>
