<svg width="64" height="64" viewBox="0 0 64 64" fill="none" xmlns="http://www.w3.org/2000/svg">
<path d="M40.7068 57.6H21.6511C20.2478 57.5983 18.9024 57.0359 17.9101 56.036C16.9178 55.0362 16.3596 53.6806 16.3579 52.2667V11.7333C16.3579 8.7936 18.7335 6.4 21.6511 6.4H40.7068C43.6244 6.4 46 8.7936 46 11.7333V52.2667C46 55.2064 43.6244 57.6 40.7068 57.6ZM21.6511 7.98097C19.9001 7.98097 18.0242 9.96907 18.0242 11.7333V52.2667C18.0242 54.0309 19.9001 56.036 21.6511 56.036H40.7068C42.4578 56.036 44.5 54.0309 44.5 52.2667C44.5 50.5024 44.5 11.7333 44.5 11.7333C44.5 9.96907 42.4578 7.98097 40.7068 7.98097H21.6511Z" fill="url(#paint0_linear_510_3251)"/>
<path d="M46 44H16.3579V15L46 15V44ZM17.7153 42.5421H44.6646V16.4382H17.7153V29.5V42.5421Z" fill="url(#paint1_linear_510_3251)"/>
<path d="M26.72 51.4C27.2723 51.4 27.72 50.9523 27.72 50.4C27.72 49.8477 27.2723 49.4 26.72 49.4C26.1677 49.4 25.72 49.8477 25.72 50.4C25.72 50.9523 26.1677 51.4 26.72 51.4Z" fill="url(#paint2_linear_510_3251)"/>
<path d="M26.47 11.9C26.8842 11.9 27.22 11.5642 27.22 11.15C27.22 10.7358 26.8842 10.4 26.47 10.4C26.0558 10.4 25.72 10.7358 25.72 11.15C25.72 11.5642 26.0558 11.9 26.47 11.9Z" fill="url(#paint3_linear_510_3251)"/>
<path d="M33.47 10.4H30.47C30.2711 10.4 30.0803 10.479 29.9397 10.6197C29.799 10.7603 29.72 10.9511 29.72 11.15C29.72 11.3489 29.799 11.5397 29.9397 11.6803C30.0803 11.821 30.2711 11.9 30.47 11.9H33.47C33.6689 11.9 33.8597 11.821 34.0003 11.6803C34.141 11.5397 34.22 11.3489 34.22 11.15C34.22 10.9511 34.141 10.7603 34.0003 10.6197C33.8597 10.479 33.6689 10.4 33.47 10.4Z" fill="url(#paint4_linear_510_3251)"/>
<path d="M25.0926 26.7131C25.5562 26.7131 25.8653 27.0247 25.8653 27.4922V32.167C25.8653 32.6345 25.5562 32.9461 25.0926 32.9461C24.6291 32.9461 24.32 32.6345 24.32 32.167V27.4922C24.32 27.0247 24.6291 26.7131 25.0926 26.7131ZM38.2274 26.7131C38.6909 26.7131 39 27.0247 39 27.4922V32.167C39 32.6345 38.6909 32.9461 38.2274 32.9461C37.7638 32.9461 37.4547 32.6345 37.4547 32.167V27.4922C37.4547 27.0247 37.7638 26.7131 38.2274 26.7131ZM31.66 21.2592C29.4966 21.2592 27.6423 22.9733 27.4105 25.1548H35.8322C35.6777 22.9733 33.8234 21.2592 31.66 21.2592ZM27.4105 26.7131V33.3357C27.4105 33.959 27.9514 34.5044 28.5695 34.5044H28.9558V37.6209C28.9558 38.0884 29.2648 38.4 29.7284 38.4C30.192 38.4 30.5011 38.0884 30.5011 37.6209V34.5044H32.819V37.6209C32.819 38.0884 33.128 38.4 33.5916 38.4C34.0552 38.4 34.3642 38.0884 34.3642 37.6209V34.5044H34.7505C35.3686 34.5044 35.9095 33.959 35.9095 33.3357V26.7131H27.4105Z" stroke="#0071BC" stroke-linecap="round" stroke-linejoin="round"/>
<path d="M28.5695 20.48L29.4194 21.8824" stroke="#0071BC" stroke-linecap="round" stroke-linejoin="round"/>
<path d="M34.7507 20.48L33.9008 21.8824" stroke="#0071BC" stroke-linecap="round" stroke-linejoin="round"/>
<path d="M29.7283 23.9859C29.9417 23.9859 30.1146 23.8115 30.1146 23.5964C30.1146 23.3812 29.9417 23.2068 29.7283 23.2068C29.515 23.2068 29.342 23.3812 29.342 23.5964C29.342 23.8115 29.515 23.9859 29.7283 23.9859Z" fill="#0071BC"/>
<path d="M33.5916 23.9859C33.8049 23.9859 33.9779 23.8115 33.9779 23.5964C33.9779 23.3812 33.8049 23.2068 33.5916 23.2068C33.3782 23.2068 33.2053 23.3812 33.2053 23.5964C33.2053 23.8115 33.3782 23.9859 33.5916 23.9859Z" fill="#0071BC"/>
<defs>
<linearGradient id="paint0_linear_510_3251" x1="16.3768" y1="12.2921" x2="62.1921" y2="31.633" gradientUnits="userSpaceOnUse">
<stop stop-color="#07FFE1"/>
<stop offset="1" stop-color="#9DFF00"/>
</linearGradient>
<linearGradient id="paint1_linear_510_3251" x1="16.3768" y1="18.3373" x2="51.0798" y2="44.2018" gradientUnits="userSpaceOnUse">
<stop stop-color="#07FFE1"/>
<stop offset="1" stop-color="#9DFF00"/>
</linearGradient>
<linearGradient id="paint2_linear_510_3251" x1="25.7213" y1="49.6302" x2="28.0991" y2="51.364" gradientUnits="userSpaceOnUse">
<stop stop-color="#07FFE1"/>
<stop offset="1" stop-color="#9DFF00"/>
</linearGradient>
<linearGradient id="paint3_linear_510_3251" x1="25.721" y1="10.5726" x2="27.5043" y2="11.873" gradientUnits="userSpaceOnUse">
<stop stop-color="#07FFE1"/>
<stop offset="1" stop-color="#9DFF00"/>
</linearGradient>
<linearGradient id="paint4_linear_510_3251" x1="29.7229" y1="10.5726" x2="31.1394" y2="13.6713" gradientUnits="userSpaceOnUse">
<stop stop-color="#07FFE1"/>
<stop offset="1" stop-color="#9DFF00"/>
</linearGradient>
</defs>
</svg>
