<svg width="64" height="64" viewBox="0 0 64 64" fill="none" xmlns="http://www.w3.org/2000/svg">
<path d="M50.493 13.45C50.3971 13.3562 50.2682 13.3037 50.134 13.304C46.729 13.344 43.412 13.929 40.276 15.002L40.26 15.007C35.728 16.5601 31.612 19.1308 28.228 22.522C27.4001 23.3512 26.6182 24.2252 25.886 25.14C22.3922 25.192 19.0569 26.6065 16.591 29.082C15.1439 30.5281 14.0484 32.2874 13.389 34.224C13.3566 34.318 13.3529 34.4195 13.3784 34.5156C13.4039 34.6117 13.4575 34.698 13.5323 34.7634C13.6071 34.8289 13.6998 34.8706 13.7984 34.8832C13.897 34.8957 13.9972 34.8786 14.086 34.834C16.1965 33.7812 18.612 33.5108 20.903 34.071C20.826 34.285 20.74 34.494 20.667 34.71C20.6254 34.8334 20.6335 34.9682 20.6898 35.0856C20.746 35.2031 20.8458 35.294 20.968 35.339C21.451 35.517 21.916 35.725 22.367 35.954L21.609 37.317C21.5451 37.4323 21.5292 37.5681 21.5648 37.695C21.6004 37.8219 21.6845 37.9297 21.799 37.995C22.685 38.497 23.481 39.098 24.165 39.782C24.849 40.466 25.45 41.262 25.952 42.148C26.0171 42.2627 26.1249 42.347 26.2519 42.3826C26.3789 42.4182 26.5148 42.4021 26.63 42.338L27.992 41.581C28.22 42.032 28.427 42.495 28.605 42.977C28.6498 43.0994 28.7407 43.1994 28.8582 43.2556C28.9757 43.3118 29.1106 43.3199 29.234 43.278C29.477 43.196 29.712 43.101 29.952 43.014C30.558 45.3454 30.2994 47.8175 29.224 49.973C29.1797 50.0618 29.1628 50.1618 29.1756 50.2602C29.1883 50.3587 29.23 50.4511 29.2954 50.5257C29.3608 50.6004 29.447 50.6538 29.5429 50.6794C29.6388 50.7049 29.7401 50.7013 29.834 50.669C31.7706 50.0091 33.5298 48.9133 34.976 47.466C36.2294 46.2191 37.2239 44.7368 37.9023 43.1042C38.5807 41.4716 38.9296 39.7209 38.929 37.953C43.5463 34.2384 47.0164 29.2912 48.937 23.685L48.944 23.665C50.0297 20.4907 50.6026 17.1636 50.641 13.809C50.641 13.6745 50.5878 13.5454 50.493 13.45ZM14.77 33.45C15.3829 32.086 16.2396 30.8453 17.298 29.789C19.3836 27.6916 22.1498 26.4082 25.098 26.17C25.066 26.213 25.039 26.259 25.007 26.302C24.671 26.764 24.349 27.236 24.04 27.715L23.96 27.836C22.8913 29.506 21.9848 31.2744 21.253 33.117C19.108 32.5703 16.8477 32.6864 14.77 33.45ZM26.568 41.227C26.076 40.433 25.506 39.71 24.871 39.074C24.236 38.438 23.513 37.869 22.718 37.377L23.201 36.507C24.083 37.047 24.881 37.671 25.577 38.367C26.2875 39.0839 26.9095 39.8832 27.43 40.748L26.568 41.227ZM34.268 46.759C33.2114 47.8171 31.9708 48.6738 30.607 49.287C31.369 47.213 31.487 44.961 30.939 42.796C33.4082 41.8168 35.7429 40.5278 37.887 38.96C37.6489 41.9079 36.3654 44.6738 34.268 46.759ZM40.715 35.008C37.5184 38.2189 33.6393 40.6683 29.366 42.174C28.6744 40.4628 27.6455 38.9083 26.3405 37.6031C25.0355 36.298 23.4811 35.2688 21.77 34.577C21.854 34.339 21.951 34.109 22.041 33.874C23.1194 31.0516 24.6118 28.4052 26.469 26.022C30.0383 21.4399 34.8461 17.9768 40.323 16.043L47.901 23.621C46.3875 27.9063 43.9318 31.7976 40.715 35.008ZM48.254 22.562L41.381 15.689C44.0543 14.8549 46.8297 14.3922 49.629 14.314C49.5508 17.1134 49.0881 19.8887 48.254 22.562Z" fill="url(#paint0_linear_510_3258)" stroke="url(#paint1_linear_510_3258)" stroke-width="0.5"/>
<path d="M40.575 23.368C39.064 21.856 36.429 21.857 34.918 23.368C34.1688 24.1187 33.748 25.1359 33.748 26.1965C33.748 27.2571 34.1688 28.2743 34.918 29.025C35.698 29.805 36.722 30.195 37.746 30.195C38.2714 30.1958 38.7917 30.0929 39.2772 29.8921C39.7627 29.6913 40.2037 29.3967 40.575 29.025C41.3242 28.2743 41.745 27.2571 41.745 26.1965C41.745 25.1359 41.3242 24.1187 40.575 23.368ZM39.868 28.318C39.3047 28.8795 38.5418 29.1948 37.7465 29.1948C36.9512 29.1948 36.1883 28.8795 35.625 28.318C35.0635 27.7547 34.7482 26.9918 34.7482 26.1965C34.7482 25.4012 35.0635 24.6383 35.625 24.075C35.903 23.7954 36.2337 23.5737 36.5979 23.4228C36.9622 23.272 37.3527 23.1949 37.747 23.196C38.1411 23.195 38.5315 23.2722 38.8955 23.423C39.2596 23.5739 39.5901 23.7955 39.868 24.075C40.43 24.638 40.7456 25.401 40.7456 26.1965C40.7456 26.992 40.43 27.755 39.868 28.318ZM21.587 39.092L21.581 39.091C20.6174 38.8924 19.6147 39.0369 18.7464 39.4994C17.8781 39.962 17.1988 40.7135 16.826 41.624L13.494 49.799C13.457 49.8901 13.4478 49.9901 13.4673 50.0865C13.4869 50.1829 13.5345 50.2713 13.604 50.3408C13.6736 50.4103 13.7622 50.4577 13.8586 50.4771C13.955 50.4965 14.0549 50.4871 14.146 50.45L22.32 47.117C23.2284 46.7459 23.9788 46.0695 24.442 45.2044C24.9051 44.3393 25.0519 43.3397 24.857 42.378C24.6954 41.5694 24.299 40.8265 23.7174 40.242C23.1358 39.6575 22.3948 39.2575 21.587 39.092ZM21.89 40.552C21.989 40.552 22.088 40.561 22.187 40.582H22.19C22.5049 40.6465 22.7908 40.8105 23.0055 41.0497C23.2202 41.289 23.3523 41.5908 23.3824 41.9109C23.4126 42.2309 23.3391 42.5522 23.1728 42.8273C23.0066 43.1024 22.7563 43.3169 22.459 43.439L19.159 44.784L20.504 41.483C20.6168 41.2079 20.8087 40.9726 21.0555 40.8068C21.3023 40.6411 21.5927 40.5524 21.89 40.552ZM21.942 46.191L14.868 49.075L17.751 42C17.9749 41.4546 18.3448 40.9814 18.8201 40.6325C19.2953 40.2835 19.8575 40.0723 20.445 40.022C20.0585 40.2932 19.7576 40.6693 19.578 41.106L17.784 45.507C17.747 45.5981 17.7378 45.6981 17.7573 45.7945C17.7769 45.8909 17.8245 45.9793 17.894 46.0488C17.9636 46.1183 18.0522 46.1657 18.1486 46.1851C18.245 46.2045 18.3449 46.1951 18.436 46.158L22.837 44.364C23.2712 44.185 23.6458 43.8864 23.917 43.503C23.8668 44.0893 23.6559 44.6505 23.3074 45.1247C22.959 45.5989 22.4865 45.9679 21.942 46.191Z" fill="#0071BC"/>
<defs>
<linearGradient id="paint0_linear_510_3258" x1="13.3854" y1="17.6071" x2="57.8007" y2="49.8956" gradientUnits="userSpaceOnUse">
<stop stop-color="#07FFE1"/>
<stop offset="1" stop-color="#9DFF00"/>
</linearGradient>
<linearGradient id="paint1_linear_510_3258" x1="13.3854" y1="17.6071" x2="57.8007" y2="49.8956" gradientUnits="userSpaceOnUse">
<stop stop-color="#07FFE1"/>
<stop offset="1" stop-color="#9DFF00"/>
</linearGradient>
</defs>
</svg>
