<svg width="32" height="32" viewBox="0 0 32 32" fill="none" xmlns="http://www.w3.org/2000/svg">
<path d="M10.9746 20.3401L11.1111 20.2036C11.158 20.1567 11.1843 20.0931 11.1843 20.0268C11.1843 19.9605 11.158 19.8969 11.1111 19.8501L10.3611 19.1001C10.3142 19.0532 10.2507 19.0269 10.1844 19.0269C10.1181 19.0269 10.0545 19.0532 10.0076 19.1001L9.25763 19.8501C9.21076 19.8969 9.18443 19.9605 9.18443 20.0268C9.18443 20.0931 9.21076 20.1567 9.25763 20.2036L9.39413 20.3401L8.43613 27.6711C8.42781 27.7357 8.44503 27.801 8.48413 27.8531L9.98413 29.8531C10.0075 29.884 10.0377 29.9091 10.0724 29.9264C10.1071 29.9437 10.1454 29.9527 10.1841 29.9527C10.2229 29.9527 10.2612 29.9437 10.2959 29.9264C10.3306 29.9091 10.3608 29.884 10.3841 29.8531L11.8841 27.8531C11.923 27.8009 11.9402 27.7356 11.9321 27.6711L10.9746 20.3401ZM9.30763 28.1171L11.2346 26.1906L11.3161 26.8136L9.64363 28.5646L9.30763 28.1171ZM9.55863 22.9451L10.6661 21.8376L10.7831 22.7326L9.40663 24.1091L9.55863 22.9451ZM9.30213 24.9101C9.31213 24.9026 9.32413 24.8986 9.33313 24.8896L10.8646 23.3581L10.9681 24.1516L9.16563 25.9541L9.30213 24.9101ZM8.94613 27.6351L9.06013 26.7616C9.06463 26.7576 9.07063 26.7561 9.07513 26.7516L11.0501 24.7766L11.1556 25.5836C11.1346 25.5951 11.1131 25.6061 11.0951 25.6236L9.00513 27.7131L8.94613 27.6351ZM10.1846 19.6301L10.5811 20.0266L10.1846 20.4231L9.78813 20.0266L10.1846 19.6301ZM10.0081 20.9531C10.0313 20.9765 10.0589 20.995 10.0892 21.0077C10.1196 21.0204 10.1522 21.0269 10.1851 21.0269C10.2181 21.0269 10.2506 21.0204 10.281 21.0077C10.3114 20.995 10.339 20.9765 10.3621 20.9531L10.5291 20.7861L10.5846 21.2121L9.66513 22.1316L9.84113 20.7861L10.0081 20.9531ZM10.1846 29.2866L9.94763 28.9706L11.3996 27.4506L11.4236 27.6346L10.1846 29.2866Z" fill="url(#paint0_linear_1194_187)" stroke="url(#paint1_linear_1194_187)" stroke-width="0.3"/>
<path d="M8.99563 20.7157L8.98313 20.7152C8.94818 20.7135 8.91398 20.7044 8.88278 20.6885C8.85159 20.6727 8.8241 20.6504 8.80213 20.6231L7.30563 18.7821C7.26657 18.7342 7.24669 18.6734 7.24983 18.6116C7.25297 18.5498 7.27891 18.4914 7.32263 18.4477L8.50813 17.2621C8.55813 17.2121 8.63313 17.1796 8.69763 17.1891C8.73258 17.1908 8.76678 17.1999 8.79798 17.2158C8.82917 17.2316 8.85666 17.2539 8.87863 17.2811L10.3751 19.1226C10.4142 19.1706 10.4341 19.2314 10.4309 19.2932C10.4278 19.355 10.4018 19.4134 10.3581 19.4572L9.17263 20.6422C9.12567 20.6891 9.06203 20.7155 8.99563 20.7157ZM7.83563 18.6417L9.01463 20.0927L9.84463 19.2627L8.66563 17.8117L7.83563 18.6417Z" fill="url(#paint2_linear_1194_187)" stroke="url(#paint3_linear_1194_187)" stroke-width="0.3"/>
<path d="M11.3655 20.7155C11.2992 20.7154 11.2356 20.6892 11.1885 20.6425L10.003 19.4575C9.95773 19.4124 9.93147 19.3517 9.92962 19.2878C9.92776 19.2239 9.95043 19.1617 9.99299 19.114L11.636 17.2725C11.6586 17.2472 11.6861 17.2267 11.7169 17.2124C11.7477 17.198 11.781 17.1901 11.815 17.189C11.8825 17.1925 11.9505 17.214 11.999 17.262L13.1845 18.4475C13.2297 18.4927 13.256 18.5534 13.2579 18.6173C13.2597 18.6812 13.237 18.7434 13.1945 18.791L11.5515 20.632C11.5289 20.6574 11.5014 20.6779 11.4706 20.6922C11.4398 20.7066 11.4064 20.7145 11.3725 20.7155H11.3655ZM10.524 19.2705L11.3555 20.1015L12.665 18.634L11.8335 17.8025L10.524 19.2705ZM10.257 15.908C9.45179 15.9098 8.66747 15.6519 8.02049 15.1725L6.89749 14.3385C6.61646 14.1286 6.38816 13.8561 6.23065 13.5426C6.07314 13.2292 5.99075 12.8834 5.98999 12.5325V7.72205C5.98999 7.65574 6.01633 7.59215 6.06321 7.54527C6.1101 7.49838 6.17369 7.47205 6.23999 7.47205C6.30629 7.47205 6.36988 7.49838 6.41677 7.54527C6.46365 7.59215 6.48999 7.65574 6.48999 7.72205V12.5325C6.48999 13.0835 6.75349 13.6085 7.19599 13.9375L8.31849 14.7715C8.88389 15.1886 9.56868 15.4122 10.2712 15.4092C10.9738 15.4062 11.6566 15.1768 12.2185 14.755L13.296 13.9395C13.5111 13.7758 13.6855 13.5648 13.8059 13.3228C13.9262 13.0808 13.9892 12.8143 13.99 12.544V8.53805C13.99 8.47174 14.0163 8.40815 14.0632 8.36127C14.1101 8.31438 14.1737 8.28805 14.24 8.28805C14.3063 8.28805 14.3699 8.31438 14.4168 8.36127C14.4637 8.40815 14.49 8.47174 14.49 8.53805V12.544C14.49 13.244 14.1565 13.915 13.598 14.338L12.5205 15.1535C11.8683 15.6448 11.0735 15.9097 10.257 15.908Z" fill="url(#paint4_linear_1194_187)" stroke="url(#paint5_linear_1194_187)" stroke-width="0.3"/>
<path d="M8.48901 10.2876C8.76516 10.2876 8.98901 10.0637 8.98901 9.7876C8.98901 9.51146 8.76516 9.2876 8.48901 9.2876C8.21287 9.2876 7.98901 9.51146 7.98901 9.7876C7.98901 10.0637 8.21287 10.2876 8.48901 10.2876Z" fill="url(#paint6_linear_1194_187)" stroke="url(#paint7_linear_1194_187)" stroke-width="0.3"/>
<path d="M11.989 10.2876C12.2652 10.2876 12.489 10.0637 12.489 9.7876C12.489 9.51146 12.2652 9.2876 11.989 9.2876C11.7129 9.2876 11.489 9.51146 11.489 9.7876C11.489 10.0637 11.7129 10.2876 11.989 10.2876Z" fill="url(#paint8_linear_1194_187)" stroke="url(#paint9_linear_1194_187)" stroke-width="0.3"/>
<path d="M9.37292 9.15413C9.30659 9.15414 9.24296 9.12789 9.19592 9.08113C9.00811 8.89399 8.7538 8.78892 8.48867 8.78892C8.22355 8.78892 7.96923 8.89399 7.78142 9.08113C7.73427 9.12667 7.67112 9.15187 7.60557 9.1513C7.54002 9.15073 7.47732 9.12443 7.43097 9.07808C7.38462 9.03173 7.35832 8.96903 7.35775 8.90348C7.35718 8.83793 7.38238 8.77478 7.42792 8.72763C7.70943 8.44664 8.09093 8.28882 8.48867 8.28882C8.88642 8.28882 9.26792 8.44664 9.54942 8.72763C9.58427 8.76259 9.608 8.80709 9.6176 8.85551C9.6272 8.90393 9.62225 8.95411 9.60337 8.99972C9.58449 9.04534 9.55254 9.08434 9.51153 9.11182C9.47051 9.1393 9.42229 9.15402 9.37292 9.15413ZM12.8729 9.15413C12.8066 9.15414 12.743 9.12789 12.6959 9.08113C12.5081 8.89399 12.2538 8.78892 11.9887 8.78892C11.7235 8.78892 11.4692 8.89399 11.2814 9.08113C11.2343 9.12667 11.1711 9.15187 11.1056 9.1513C11.04 9.15073 10.9773 9.12443 10.931 9.07808C10.8846 9.03173 10.8583 8.96903 10.8578 8.90348C10.8572 8.83793 10.8824 8.77478 10.9279 8.72763C11.2094 8.44664 11.5909 8.28882 11.9887 8.28882C12.3864 8.28882 12.7679 8.44664 13.0494 8.72763C13.0843 8.76259 13.108 8.80709 13.1176 8.85551C13.1272 8.90393 13.1222 8.95411 13.1034 8.99972C13.0845 9.04534 13.0525 9.08434 13.0115 9.11182C12.9705 9.1393 12.9223 9.15402 12.8729 9.15413ZM4.73242 30.5316C4.66612 30.5316 4.60253 30.5053 4.55564 30.4584C4.50876 30.4115 4.48242 30.3479 4.48242 30.2816V24.0536C4.48242 23.9873 4.50876 23.9237 4.55564 23.8769C4.60253 23.83 4.66612 23.8036 4.73242 23.8036C4.79873 23.8036 4.86231 23.83 4.9092 23.8769C4.95608 23.9237 4.98242 23.9873 4.98242 24.0536V30.2816C4.98242 30.3479 4.95608 30.4115 4.9092 30.4584C4.86231 30.5053 4.79873 30.5316 4.73242 30.5316ZM15.2324 30.5316C15.1661 30.5316 15.1025 30.5053 15.0556 30.4584C15.0088 30.4115 14.9824 30.3479 14.9824 30.2816V24.0536C14.9824 23.9873 15.0088 23.9237 15.0556 23.8769C15.1025 23.83 15.1661 23.8036 15.2324 23.8036C15.2987 23.8036 15.3623 23.83 15.4092 23.8769C15.4561 23.9237 15.4824 23.9873 15.4824 24.0536V30.2816C15.4824 30.3479 15.4561 30.4115 15.4092 30.4584C15.3623 30.5053 15.2987 30.5316 15.2324 30.5316Z" fill="url(#paint10_linear_1194_187)" stroke="url(#paint11_linear_1194_187)" stroke-width="0.3"/>
<path fill-rule="evenodd" clip-rule="evenodd" d="M1.2395 30.7881H17V30.2881H1.4895V22.5381C1.4895 20.4701 3.1715 18.7881 5.2395 18.7881H7.499C7.56531 18.7881 7.62889 18.7617 7.67578 18.7149C7.72266 18.668 7.749 18.6044 7.749 18.5381C7.749 18.4718 7.72266 18.4082 7.67578 18.3613C7.62889 18.3144 7.56531 18.2881 7.499 18.2881H5.2395C2.896 18.2881 0.989502 20.1946 0.989502 22.5381V30.5381C0.989502 30.6044 1.01584 30.668 1.06273 30.7149C1.10961 30.7617 1.1732 30.7881 1.2395 30.7881ZM18.6126 20.9001H19.1612C18.5187 19.3674 17.0028 18.2881 15.2395 18.2881H13.0685C13.0022 18.2881 12.9386 18.3144 12.8917 18.3613C12.8448 18.4082 12.8185 18.4718 12.8185 18.5381C12.8185 18.6044 12.8448 18.668 12.8917 18.7149C12.9386 18.7617 13.0022 18.7881 13.0685 18.7881H15.2395C16.7205 18.7881 18.0036 19.6508 18.6126 20.9001ZM9.746 11.5896C9.892 11.7356 10.0845 11.8086 10.2765 11.8086C10.3749 11.8088 10.4724 11.7896 10.5634 11.752C10.6543 11.7144 10.7369 11.6592 10.8065 11.5896C10.852 11.5424 10.8772 11.4793 10.8767 11.4137C10.8761 11.3482 10.8498 11.2855 10.8035 11.2391C10.7571 11.1928 10.6944 11.1665 10.6289 11.1659C10.5633 11.1653 10.5002 11.1905 10.453 11.2361C10.3555 11.3336 10.197 11.3336 10.0995 11.2361C10.0524 11.1905 9.9892 11.1653 9.92365 11.1659C9.8581 11.1665 9.7954 11.1928 9.74905 11.2391C9.70269 11.2855 9.6764 11.3482 9.67583 11.4137C9.67526 11.4793 9.70046 11.5424 9.746 11.5896ZM8.7765 12.5306C8.7765 13.3576 9.4495 14.0306 10.2765 14.0306C11.1035 14.0306 11.7765 13.3576 11.7765 12.5306C11.7765 12.4643 11.7502 12.4007 11.7033 12.3538C11.6564 12.3069 11.5928 12.2806 11.5265 12.2806H9.0265C8.9602 12.2806 8.89661 12.3069 8.84972 12.3538C8.80284 12.4007 8.7765 12.4643 8.7765 12.5306ZM10.2765 13.5306C9.811 13.5306 9.4195 13.2111 9.308 12.7806H11.245C11.1335 13.2111 10.742 13.5306 10.2765 13.5306ZM8.56423 17.7224C8.61111 17.7692 8.6747 17.7956 8.741 17.7956C8.80731 17.7956 8.87089 17.7692 8.91778 17.7224C8.96466 17.6755 8.991 17.6119 8.991 17.5456V15.3901C8.991 15.3238 8.96466 15.2602 8.91778 15.2133C8.87089 15.1664 8.80731 15.1401 8.741 15.1401C8.6747 15.1401 8.61111 15.1664 8.56423 15.2133C8.51734 15.2602 8.491 15.3238 8.491 15.3901V17.5456C8.491 17.6119 8.51734 17.6755 8.56423 17.7224ZM11.5727 17.6734C11.6196 17.7202 11.6832 17.7466 11.7495 17.7466C11.8158 17.7466 11.8794 17.7202 11.9263 17.6734C11.9732 17.6265 11.9995 17.5629 11.9995 17.4966V15.4446C11.9995 15.3783 11.9732 15.3147 11.9263 15.2678C11.8794 15.2209 11.8158 15.1946 11.7495 15.1946C11.6832 15.1946 11.6196 15.2209 11.5727 15.2678C11.5258 15.3147 11.4995 15.3783 11.4995 15.4446V17.4966C11.4995 17.5629 11.5258 17.6265 11.5727 17.6734ZM11.479 6.03809C11.479 7.00309 12.264 7.78809 13.229 7.78809C13.2953 7.78809 13.3589 7.76175 13.4058 7.71486C13.4527 7.66798 13.479 7.60439 13.479 7.53809C13.479 7.47178 13.4527 7.40819 13.4058 7.36131C13.3589 7.31442 13.2953 7.28809 13.229 7.28809C12.5395 7.28809 11.979 6.72759 11.979 6.03809C11.979 5.97178 11.9527 5.90819 11.9058 5.86131C11.8589 5.81442 11.7953 5.78809 11.729 5.78809C11.6627 5.78809 11.5991 5.81442 11.5522 5.86131C11.5053 5.90819 11.479 5.97178 11.479 6.03809Z" fill="url(#paint12_linear_1194_187)" stroke="url(#paint13_linear_1194_187)" stroke-width="0.3"/>
<path d="M14.229 8.78807C14.1627 8.78807 14.0991 8.76174 14.0522 8.71485C14.0054 8.66797 13.979 8.60438 13.979 8.53807C13.979 8.12457 13.6425 7.78807 13.229 7.78807C13.1627 7.78807 13.0991 7.76173 13.0522 7.71485C13.0054 7.66797 12.979 7.60438 12.979 7.53807C12.979 7.47177 13.0054 7.40818 13.0522 7.3613C13.0991 7.31441 13.1627 7.28807 13.229 7.28807C13.9185 7.28807 14.479 7.84857 14.479 8.53807C14.479 8.60438 14.4527 8.66797 14.4058 8.71485C14.3589 8.76174 14.2953 8.78807 14.229 8.78807ZM4.23002 9.30207C4.16371 9.30207 4.10013 9.27574 4.05324 9.22885C4.00636 9.18197 3.98002 9.11838 3.98002 9.05207C3.97663 8.22865 4.19958 7.42012 4.6245 6.71479C5.04943 6.00947 5.65999 5.43446 6.38952 5.05257C7.03422 4.71484 7.75121 4.53847 8.47902 4.53857C8.54532 4.53857 8.60891 4.56491 8.6558 4.6118C8.70268 4.65868 8.72902 4.72227 8.72902 4.78857C8.72902 4.85488 8.70268 4.91847 8.6558 4.96535C8.60891 5.01224 8.54532 5.03857 8.47902 5.03857C7.53034 5.03838 6.61247 5.37536 5.88929 5.98937C5.16611 6.60338 4.6847 7.45443 4.53102 8.39057C5.34836 7.67928 6.39551 7.28784 7.47902 7.28857H10.229C10.9185 7.28857 11.479 6.72807 11.479 6.03857C11.479 5.97227 11.5054 5.90868 11.5522 5.8618C11.5991 5.81491 11.6627 5.78857 11.729 5.78857C11.7953 5.78857 11.8589 5.81491 11.9058 5.8618C11.9527 5.90868 11.979 5.97227 11.979 6.03857C11.979 7.00357 11.194 7.78857 10.229 7.78857H7.47902C6.89625 7.78846 6.32053 7.91598 5.79232 8.16217C5.2641 8.40835 4.79621 8.76723 4.42152 9.21357C4.39785 9.24124 4.36848 9.26346 4.33543 9.27874C4.30238 9.29401 4.26643 9.30197 4.23002 9.30207Z" fill="url(#paint14_linear_1194_187)" stroke="url(#paint15_linear_1194_187)" stroke-width="0.3"/>
<path d="M8.7405 16.2881H4.7395C4.6732 16.2881 4.60961 16.2617 4.56273 16.2149C4.51584 16.168 4.4895 16.1044 4.4895 16.0381V8.53809C4.4895 8.47178 4.51584 8.40819 4.56273 8.36131C4.60961 8.31442 4.6732 8.28809 4.7395 8.28809C4.80581 8.28809 4.86939 8.31442 4.91628 8.36131C4.96316 8.40819 4.9895 8.47178 4.9895 8.53809V15.7881H8.7405C8.80681 15.7881 8.87039 15.8144 8.91728 15.8613C8.96416 15.9082 8.9905 15.9718 8.9905 16.0381C8.9905 16.1044 8.96416 16.168 8.91728 16.2149C8.87039 16.2617 8.80681 16.2881 8.7405 16.2881ZM15.7395 16.2881H11.7495C11.6832 16.2881 11.6196 16.2617 11.5727 16.2149C11.5258 16.168 11.4995 16.1044 11.4995 16.0381C11.4995 15.9718 11.5258 15.9082 11.5727 15.8613C11.6196 15.8144 11.6832 15.7881 11.7495 15.7881H15.4895V8.28809C15.4895 5.48459 13.327 3.28809 10.5665 3.28809H9.9895C8.96528 3.29039 7.96628 3.60604 7.12666 4.19263C6.28704 4.77921 5.647 5.60866 5.2925 6.56959C5.28121 6.60045 5.26395 6.62878 5.2417 6.65297C5.21946 6.67716 5.19267 6.69673 5.16286 6.71057C5.13305 6.7244 5.10081 6.73223 5.06798 6.73361C5.03515 6.73498 5.00236 6.72988 4.9715 6.71859C4.94064 6.70729 4.91231 6.69003 4.88812 6.66779C4.86393 6.64554 4.84436 6.61875 4.83052 6.58894C4.81668 6.55914 4.80886 6.5269 4.80748 6.49406C4.8061 6.46123 4.81121 6.42845 4.8225 6.39759C5.21249 5.34064 5.91651 4.42832 6.84004 3.7831C7.76358 3.13789 8.86241 2.79068 9.989 2.78809H10.566C13.607 2.78809 15.989 5.20409 15.989 8.28809V16.0381C15.9892 16.0709 15.9829 16.1035 15.9704 16.1339C15.958 16.1643 15.9396 16.1919 15.9164 16.2151C15.8932 16.2384 15.8656 16.2568 15.8353 16.2693C15.8049 16.2818 15.7723 16.2882 15.7395 16.2881Z" fill="url(#paint16_linear_1194_187)" stroke="url(#paint17_linear_1194_187)" stroke-width="0.3"/>
<path d="M16.9641 28.7669H16.6141V29.1169H16.9641V28.7669ZM30.1407 28.7669V29.1169H30.4907V28.7669H30.1407ZM17.3141 28.7669V23H16.6141V28.7669H17.3141ZM18.9641 21.35H28.1407V20.65H18.9641V21.35ZM29.7907 23V28.7669H30.4907V23H29.7907ZM30.1407 28.4169H16.9641V29.1169H30.1407V28.4169ZM28.1407 21.35C29.052 21.35 29.7907 22.0887 29.7907 23H30.4907C30.4907 21.7021 29.4386 20.65 28.1407 20.65V21.35ZM17.3141 23C17.3141 22.0887 18.0528 21.35 18.9641 21.35V20.65C17.6662 20.65 16.6141 21.7021 16.6141 23H17.3141Z" fill="url(#paint18_linear_1194_187)"/>
<path d="M24.813 25.5699C24.7167 25.531 24.6347 25.4662 24.5771 25.3835C24.5196 25.3009 24.4892 25.204 24.4896 25.1051C24.4908 25.0168 24.5159 24.9303 24.5623 24.8536C24.6088 24.777 24.6752 24.7128 24.7552 24.6671C24.7733 24.6566 24.7889 24.6427 24.8012 24.6262C24.8134 24.6098 24.822 24.5912 24.8264 24.5715C24.8308 24.5518 24.831 24.5315 24.8268 24.5118C24.8227 24.4921 24.8144 24.4734 24.8024 24.4568C24.7305 24.358 24.6367 24.2752 24.5275 24.2139C24.4184 24.1527 24.2965 24.1146 24.1702 24.1022C24.2878 23.926 24.3411 23.7185 24.3221 23.511C24.3184 23.4734 24.2994 23.4385 24.2691 23.4138C24.2388 23.3891 24.1995 23.3765 24.1595 23.3785C23.8892 23.4013 23.6387 23.5216 23.4601 23.7146C23.3469 23.8385 23.267 23.9863 23.2272 24.1456C23.145 24.1193 23.059 24.1054 22.9722 24.1043C22.8116 24.1086 22.6549 24.1521 22.5172 24.2304C22.3796 24.3087 22.2657 24.4193 22.1867 24.5514C21.8895 25.0386 22.0713 25.7687 22.3932 26.2081C22.5223 26.3842 22.7161 26.6485 23.0083 26.6485C23.0141 26.6485 23.0199 26.6485 23.0258 26.6482C23.1237 26.643 23.2196 26.6195 23.3079 26.5793C23.3785 26.5455 23.4563 26.5275 23.5354 26.5267C23.6098 26.5276 23.6829 26.5448 23.7491 26.5769C23.8457 26.6201 23.951 26.6432 24.0579 26.6447C24.359 26.6394 24.5368 26.394 24.6667 26.2147C24.7692 26.0723 24.8494 25.9167 24.9048 25.7527C24.9166 25.7169 24.9138 25.6782 24.8967 25.6444C24.8797 25.6105 24.8498 25.5839 24.813 25.5699ZM23.6984 23.9087C23.7811 23.8213 23.8847 23.7539 24.0005 23.7121C23.9752 23.8299 23.9191 23.9398 23.8374 24.0319C23.7819 24.0948 23.7144 24.1472 23.6384 24.1865C23.6339 24.1883 23.629 24.19 23.6246 24.1917C23.5952 24.2026 23.5589 24.2161 23.531 24.2248C23.558 24.1079 23.6155 23.9992 23.6984 23.9087ZM24.407 26.047C24.2805 26.2214 24.1809 26.3453 24.0521 26.3474C23.9898 26.3473 23.9286 26.3323 23.874 26.304C23.7685 26.2555 23.6528 26.23 23.5354 26.2294C23.414 26.23 23.2942 26.256 23.1846 26.3056C23.1314 26.3313 23.0733 26.3468 23.0137 26.3512H23.009C22.8811 26.3512 22.7434 26.1635 22.652 26.0388C22.4234 25.7267 22.2125 25.1048 22.4595 24.6998C22.5113 24.6122 22.5862 24.5387 22.677 24.4864C22.7677 24.4342 22.8712 24.405 22.9774 24.4016L22.9827 24.4015C23.0723 24.4087 23.1598 24.4311 23.2411 24.4675C23.2617 24.4752 23.2821 24.4829 23.3023 24.49C23.3075 24.4921 23.3128 24.494 23.3181 24.4956C23.3742 24.5168 23.4337 24.5288 23.494 24.5308C23.5794 24.5244 23.6629 24.5032 23.7402 24.4683C23.8491 24.4183 23.9689 24.393 24.09 24.3944C24.2196 24.3992 24.3439 24.4437 24.4442 24.5213C24.3585 24.5959 24.2902 24.6866 24.2438 24.7876C24.1974 24.8886 24.1739 24.9976 24.1748 25.1077C24.1739 25.241 24.2088 25.3725 24.2763 25.4895C24.3438 25.6066 24.4416 25.7056 24.5606 25.7772C24.5192 25.8718 24.4677 25.9622 24.407 26.047Z" fill="url(#paint19_linear_1194_187)" stroke="url(#paint20_linear_1194_187)" stroke-width="0.3"/>
<path d="M30.1668 30.7363H16.9379C16.5567 30.736 16.1911 30.5953 15.9215 30.3451C15.6519 30.0949 15.5003 29.7556 15.5 29.4018V28.868C15.5 28.7972 15.5303 28.7293 15.5842 28.6792C15.6382 28.6292 15.7113 28.6011 15.7876 28.6011H31.3172C31.3935 28.6011 31.4666 28.6292 31.5205 28.6792C31.5745 28.7293 31.6048 28.7972 31.6048 28.868V29.4018C31.6048 30.1379 30.96 30.7363 30.1668 30.7363ZM15.9129 29.0137V29.4018C15.9129 29.8432 16.3381 30.3451 16.8138 30.3451H30.1935C30.6691 30.3451 31.2387 29.8432 31.2387 29.4018V29.0137H15.9129Z" fill="url(#paint21_linear_1194_187)" stroke="url(#paint22_linear_1194_187)" stroke-width="0.4"/>
<defs>
<linearGradient id="paint0_linear_1194_187" x1="8.43631" y1="20.2842" x2="14.4803" y2="21.696" gradientUnits="userSpaceOnUse">
<stop stop-color="#07FFE1"/>
<stop offset="1" stop-color="#9DFF00"/>
</linearGradient>
<linearGradient id="paint1_linear_1194_187" x1="8.43631" y1="20.2842" x2="14.4803" y2="21.696" gradientUnits="userSpaceOnUse">
<stop stop-color="#07FFE1"/>
<stop offset="1" stop-color="#9DFF00"/>
</linearGradient>
<linearGradient id="paint2_linear_1194_187" x1="7.25154" y1="17.5935" x2="11.2966" y2="20.2534" gradientUnits="userSpaceOnUse">
<stop stop-color="#07FFE1"/>
<stop offset="1" stop-color="#9DFF00"/>
</linearGradient>
<linearGradient id="paint3_linear_1194_187" x1="7.25154" y1="17.5935" x2="11.2966" y2="20.2534" gradientUnits="userSpaceOnUse">
<stop stop-color="#07FFE1"/>
<stop offset="1" stop-color="#9DFF00"/>
</linearGradient>
<linearGradient id="paint4_linear_1194_187" x1="5.9954" y1="8.9961" x2="18.6933" y2="14.9387" gradientUnits="userSpaceOnUse">
<stop stop-color="#07FFE1"/>
<stop offset="1" stop-color="#9DFF00"/>
</linearGradient>
<linearGradient id="paint5_linear_1194_187" x1="5.9954" y1="8.9961" x2="18.6933" y2="14.9387" gradientUnits="userSpaceOnUse">
<stop stop-color="#07FFE1"/>
<stop offset="1" stop-color="#9DFF00"/>
</linearGradient>
<linearGradient id="paint6_linear_1194_187" x1="7.98965" y1="9.40268" x2="9.17858" y2="10.2696" gradientUnits="userSpaceOnUse">
<stop stop-color="#07FFE1"/>
<stop offset="1" stop-color="#9DFF00"/>
</linearGradient>
<linearGradient id="paint7_linear_1194_187" x1="7.98965" y1="9.40268" x2="9.17858" y2="10.2696" gradientUnits="userSpaceOnUse">
<stop stop-color="#07FFE1"/>
<stop offset="1" stop-color="#9DFF00"/>
</linearGradient>
<linearGradient id="paint8_linear_1194_187" x1="11.4897" y1="9.40268" x2="12.6786" y2="10.2696" gradientUnits="userSpaceOnUse">
<stop stop-color="#07FFE1"/>
<stop offset="1" stop-color="#9DFF00"/>
</linearGradient>
<linearGradient id="paint9_linear_1194_187" x1="11.4897" y1="9.40268" x2="12.6786" y2="10.2696" gradientUnits="userSpaceOnUse">
<stop stop-color="#07FFE1"/>
<stop offset="1" stop-color="#9DFF00"/>
</linearGradient>
<linearGradient id="paint10_linear_1194_187" x1="4.48943" y1="10.8485" x2="22.216" y2="17.2408" gradientUnits="userSpaceOnUse">
<stop stop-color="#07FFE1"/>
<stop offset="1" stop-color="#9DFF00"/>
</linearGradient>
<linearGradient id="paint11_linear_1194_187" x1="4.48943" y1="10.8485" x2="22.216" y2="17.2408" gradientUnits="userSpaceOnUse">
<stop stop-color="#07FFE1"/>
<stop offset="1" stop-color="#9DFF00"/>
</linearGradient>
<linearGradient id="paint12_linear_1194_187" x1="1.00107" y1="8.66507" x2="26.8357" y2="22.3576" gradientUnits="userSpaceOnUse">
<stop stop-color="#07FFE1"/>
<stop offset="1" stop-color="#9DFF00"/>
</linearGradient>
<linearGradient id="paint13_linear_1194_187" x1="1.00107" y1="8.66507" x2="26.8357" y2="22.3576" gradientUnits="userSpaceOnUse">
<stop stop-color="#07FFE1"/>
<stop offset="1" stop-color="#9DFF00"/>
</linearGradient>
<linearGradient id="paint14_linear_1194_187" x1="3.98666" y1="5.08675" x2="9.32302" y2="13.663" gradientUnits="userSpaceOnUse">
<stop stop-color="#07FFE1"/>
<stop offset="1" stop-color="#9DFF00"/>
</linearGradient>
<linearGradient id="paint15_linear_1194_187" x1="3.98666" y1="5.08675" x2="9.32302" y2="13.663" gradientUnits="userSpaceOnUse">
<stop stop-color="#07FFE1"/>
<stop offset="1" stop-color="#9DFF00"/>
</linearGradient>
<linearGradient id="paint16_linear_1194_187" x1="4.49682" y1="4.34166" x2="19.6084" y2="13.7277" gradientUnits="userSpaceOnUse">
<stop stop-color="#07FFE1"/>
<stop offset="1" stop-color="#9DFF00"/>
</linearGradient>
<linearGradient id="paint17_linear_1194_187" x1="4.49682" y1="4.34166" x2="19.6084" y2="13.7277" gradientUnits="userSpaceOnUse">
<stop stop-color="#07FFE1"/>
<stop offset="1" stop-color="#9DFF00"/>
</linearGradient>
<linearGradient id="paint18_linear_1194_187" x1="16.9725" y1="21.8938" x2="26.4558" y2="33.6251" gradientUnits="userSpaceOnUse">
<stop stop-color="#07FFE1"/>
<stop offset="1" stop-color="#9DFF00"/>
</linearGradient>
<linearGradient id="paint19_linear_1194_187" x1="22.038" y1="23.7546" x2="25.7491" y2="26.1343" gradientUnits="userSpaceOnUse">
<stop stop-color="#07FFE1"/>
<stop offset="1" stop-color="#9DFF00"/>
</linearGradient>
<linearGradient id="paint20_linear_1194_187" x1="22.038" y1="23.7546" x2="25.7491" y2="26.1343" gradientUnits="userSpaceOnUse">
<stop stop-color="#07FFE1"/>
<stop offset="1" stop-color="#9DFF00"/>
</linearGradient>
<linearGradient id="paint21_linear_1194_187" x1="15.5103" y1="28.8468" x2="16.4488" y2="34.0087" gradientUnits="userSpaceOnUse">
<stop stop-color="#07FFE1"/>
<stop offset="1" stop-color="#9DFF00"/>
</linearGradient>
<linearGradient id="paint22_linear_1194_187" x1="15.5103" y1="28.8468" x2="16.4488" y2="34.0087" gradientUnits="userSpaceOnUse">
<stop stop-color="#07FFE1"/>
<stop offset="1" stop-color="#9DFF00"/>
</linearGradient>
</defs>
</svg>
