<svg width="65" height="63" viewBox="0 0 65 63" fill="none" xmlns="http://www.w3.org/2000/svg">
<path d="M22.4493 39.9729L22.7223 39.7061C22.816 39.6144 22.8687 39.4901 22.8687 39.3605C22.8687 39.231 22.816 39.1067 22.7223 39.015L21.2223 37.5489C21.1285 37.4572 21.0013 37.4058 20.8688 37.4058C20.7362 37.4058 20.609 37.4572 20.5153 37.5489L19.0153 39.015C18.9215 39.1067 18.8689 39.231 18.8689 39.3605C18.8689 39.4901 18.9215 39.6144 19.0153 39.7061L19.2883 39.9729L17.3723 54.3042C17.3556 54.4305 17.3901 54.5581 17.4683 54.66L20.4683 58.5698C20.515 58.6303 20.5754 58.6794 20.6448 58.7132C20.7142 58.747 20.7907 58.7646 20.8683 58.7646C20.9458 58.7646 21.0223 58.747 21.0917 58.7132C21.1611 58.6794 21.2216 58.6303 21.2683 58.5698L24.2683 54.66C24.3461 54.558 24.3805 54.4305 24.3643 54.3042L22.4493 39.9729ZM19.1153 55.1761L22.9693 51.41L23.1323 52.6279L19.7873 56.0509L19.1153 55.1761ZM19.6173 45.0654L21.8323 42.9004L22.0663 44.65L19.3133 47.3409L19.6173 45.0654ZM19.1043 48.9067C19.1243 48.8921 19.1483 48.8843 19.1663 48.8667L22.2293 45.8728L22.4363 47.424L18.8313 50.9476L19.1043 48.9067ZM18.3923 54.2338L18.6203 52.5262C18.6293 52.5184 18.6413 52.5155 18.6503 52.5067L22.6003 48.6458L22.8113 50.2234C22.7693 50.2458 22.7263 50.2673 22.6903 50.3016L18.5103 54.3863L18.3923 54.2338ZM20.8693 38.5849L21.6623 39.3601L20.8693 40.1352L20.0763 39.3601L20.8693 38.5849ZM20.5163 41.1713C20.5626 41.217 20.6177 41.2533 20.6785 41.2781C20.7392 41.3029 20.8044 41.3157 20.8703 41.3157C20.9361 41.3157 21.0013 41.3029 21.0621 41.2781C21.1228 41.2533 21.178 41.217 21.2243 41.1713L21.5583 40.8448L21.6693 41.6776L19.8303 43.4751L20.1823 40.8448L20.5163 41.1713ZM20.8693 57.4623L20.3953 56.8446L23.2993 53.8731L23.3473 54.2328L20.8693 57.4623Z" fill="url(#paint0_linear_838_5207)" stroke="url(#paint1_linear_838_5207)" stroke-width="0.3"/>
<path d="M18.4913 40.7071L18.4663 40.7062C18.3964 40.7028 18.328 40.6851 18.2656 40.6541C18.2032 40.6231 18.1482 40.5796 18.1043 40.5263L15.1113 36.9274C15.0331 36.8336 14.9934 36.7148 14.9997 36.594C15.0059 36.4732 15.0578 36.359 15.1453 36.2734L17.5163 33.9559C17.6163 33.8582 17.7663 33.7946 17.8953 33.8132C17.9652 33.8165 18.0336 33.8343 18.096 33.8653C18.1583 33.8963 18.2133 33.9398 18.2573 33.9931L21.2503 37.593C21.3284 37.6868 21.3681 37.8056 21.3619 37.9263C21.3556 38.0471 21.3037 38.1613 21.2163 38.2469L18.8453 40.5635C18.7513 40.6552 18.6241 40.7069 18.4913 40.7071ZM16.1713 36.6527L18.5293 39.4892L20.1893 37.8667L17.8313 35.0301L16.1713 36.6527Z" fill="url(#paint2_linear_838_5207)" stroke="url(#paint3_linear_838_5207)" stroke-width="0.3"/>
<path d="M23.231 40.7069C23.0984 40.7067 22.9712 40.6555 22.877 40.5642L20.506 38.2477C20.4155 38.1595 20.3629 38.0407 20.3592 37.9158C20.3555 37.7909 20.4009 37.6694 20.486 37.5762L23.772 33.9763C23.8172 33.9267 23.8722 33.8867 23.9338 33.8586C23.9953 33.8305 24.0621 33.815 24.13 33.813C24.265 33.8199 24.401 33.8619 24.498 33.9557L26.869 36.2732C26.9595 36.3615 27.012 36.4802 27.0157 36.6051C27.0195 36.73 26.9741 36.8515 26.889 36.9448L23.603 40.5437C23.5578 40.5932 23.5027 40.6333 23.4412 40.6613C23.3796 40.6894 23.3129 40.7049 23.245 40.7069H23.231ZM21.548 37.8821L23.211 39.5066L25.83 36.6378L24.167 35.0123L21.548 37.8821ZM21.014 31.3088C19.4036 31.3123 17.8349 30.8081 16.541 29.871L14.295 28.2406C13.7329 27.8301 13.2763 27.2974 12.9613 26.6847C12.6463 26.0719 12.4815 25.3959 12.48 24.7101V15.3061C12.48 15.1765 12.5327 15.0522 12.6264 14.9605C12.7202 14.8689 12.8474 14.8174 12.98 14.8174C13.1126 14.8174 13.2398 14.8689 13.3335 14.9605C13.4273 15.0522 13.48 15.1765 13.48 15.3061V24.7101C13.48 25.7872 14.007 26.8135 14.892 27.4567L17.137 29.0871C18.2678 29.9023 19.6374 30.3394 21.0424 30.3336C22.4475 30.3278 23.8133 29.8794 24.937 29.0548L27.092 27.4606C27.5221 27.1406 27.8711 26.728 28.1118 26.255C28.3525 25.7819 28.4785 25.2609 28.48 24.7326V16.9013C28.48 16.7717 28.5327 16.6474 28.6264 16.5557C28.7202 16.4641 28.8474 16.4126 28.98 16.4126C29.1126 16.4126 29.2398 16.4641 29.3335 16.5557C29.4273 16.6474 29.48 16.7717 29.48 16.9013V24.7326C29.48 26.101 28.813 27.4127 27.696 28.2396L25.541 29.8338C24.2365 30.7941 22.647 31.312 21.014 31.3088Z" fill="url(#paint4_linear_838_5207)" stroke="url(#paint5_linear_838_5207)" stroke-width="0.3"/>
<path d="M17.478 20.3213C18.0303 20.3213 18.478 19.8837 18.478 19.3439C18.478 18.8041 18.0303 18.3665 17.478 18.3665C16.9257 18.3665 16.478 18.8041 16.478 19.3439C16.478 19.8837 16.9257 20.3213 17.478 20.3213Z" fill="url(#paint6_linear_838_5207)" stroke="url(#paint7_linear_838_5207)" stroke-width="0.3"/>
<path d="M24.478 20.3213C25.0303 20.3213 25.478 19.8837 25.478 19.3439C25.478 18.8041 25.0303 18.3665 24.478 18.3665C23.9257 18.3665 23.478 18.8041 23.478 19.3439C23.478 19.8837 23.9257 20.3213 24.478 20.3213Z" fill="url(#paint8_linear_838_5207)" stroke="url(#paint9_linear_838_5207)" stroke-width="0.3"/>
<path d="M19.2458 18.1056C19.1132 18.1057 18.9859 18.0544 18.8918 17.9629C18.5162 17.5971 18.0076 17.3917 17.4773 17.3917C16.9471 17.3917 16.4385 17.5971 16.0628 17.9629C15.9685 18.052 15.8422 18.1012 15.7111 18.1001C15.58 18.099 15.4546 18.0476 15.3619 17.957C15.2692 17.8664 15.2166 17.7438 15.2155 17.6157C15.2144 17.4875 15.2648 17.3641 15.3558 17.2719C15.9189 16.7226 16.6819 16.4141 17.4773 16.4141C18.2728 16.4141 19.0358 16.7226 19.5988 17.2719C19.6685 17.3402 19.716 17.4272 19.7352 17.5219C19.7544 17.6165 19.7445 17.7146 19.7067 17.8038C19.669 17.893 19.6051 17.9692 19.5231 18.0229C19.441 18.0767 19.3446 18.1054 19.2458 18.1056ZM26.2458 18.1056C26.1132 18.1057 25.9859 18.0544 25.8918 17.9629C25.5162 17.5971 25.0076 17.3917 24.4773 17.3917C23.9471 17.3917 23.4385 17.5971 23.0628 17.9629C22.9685 18.052 22.8422 18.1012 22.7111 18.1001C22.58 18.099 22.4546 18.0476 22.3619 17.957C22.2692 17.8664 22.2166 17.7438 22.2155 17.6157C22.2144 17.4875 22.2648 17.3641 22.3558 17.2719C22.9189 16.7226 23.6819 16.4141 24.4773 16.4141C25.2728 16.4141 26.0358 16.7226 26.5988 17.2719C26.6685 17.3402 26.716 17.4272 26.7352 17.5219C26.7544 17.6165 26.7445 17.7146 26.7067 17.8038C26.669 17.893 26.6051 17.9692 26.5231 18.0229C26.441 18.0767 26.3446 18.1054 26.2458 18.1056ZM9.96484 59.8962C9.83224 59.8962 9.70506 59.8448 9.61129 59.7531C9.51752 59.6614 9.46484 59.5371 9.46484 59.4075V47.2325C9.46484 47.1029 9.51752 46.9786 9.61129 46.8869C9.70506 46.7953 9.83224 46.7438 9.96484 46.7438C10.0975 46.7438 10.2246 46.7953 10.3184 46.8869C10.4122 46.9786 10.4648 47.1029 10.4648 47.2325V59.4075C10.4648 59.5371 10.4122 59.6614 10.3184 59.7531C10.2246 59.8448 10.0975 59.8962 9.96484 59.8962ZM30.9648 59.8962C30.8322 59.8962 30.7051 59.8448 30.6113 59.7531C30.5175 59.6614 30.4648 59.5371 30.4648 59.4075V47.2325C30.4648 47.1029 30.5175 46.9786 30.6113 46.8869C30.7051 46.7953 30.8322 46.7438 30.9648 46.7438C31.0975 46.7438 31.2246 46.7953 31.3184 46.8869C31.4122 46.9786 31.4648 47.1029 31.4648 47.2325V59.4075C31.4648 59.5371 31.4122 59.6614 31.3184 59.7531C31.2246 59.8448 31.0975 59.8962 30.9648 59.8962Z" fill="url(#paint10_linear_838_5207)" stroke="url(#paint11_linear_838_5207)" stroke-width="0.3"/>
<path fill-rule="evenodd" clip-rule="evenodd" d="M2.979 60.3976H34.5V59.4202H3.479V44.2698C3.479 40.2271 6.843 36.939 10.979 36.939H15.498C15.6306 36.939 15.7578 36.8875 15.8516 36.7958C15.9453 36.7042 15.998 36.5799 15.998 36.4503C15.998 36.3206 15.9453 36.1963 15.8516 36.1047C15.7578 36.013 15.6306 35.9615 15.498 35.9615H10.979C6.292 35.9615 2.479 39.6885 2.479 44.2698V59.9089C2.479 60.0385 2.53168 60.1628 2.62545 60.2545C2.71922 60.3461 2.8464 60.3976 2.979 60.3976ZM37.7253 41.0678H38.8224C37.5374 38.0715 34.5056 35.9615 30.979 35.9615H26.637C26.5044 35.9615 26.3772 36.013 26.2835 36.1047C26.1897 36.1963 26.137 36.3206 26.137 36.4503C26.137 36.5799 26.1897 36.7042 26.2835 36.7958C26.3772 36.8875 26.5044 36.939 26.637 36.939H30.979C33.9411 36.939 36.5072 38.6255 37.7253 41.0678ZM19.992 22.8667C20.284 23.1521 20.669 23.2949 21.053 23.2949C21.2498 23.2953 21.4448 23.2576 21.6267 23.1842C21.8086 23.1107 21.9739 23.0028 22.113 22.8667C22.2041 22.7746 22.2545 22.6511 22.2533 22.523C22.2522 22.3948 22.1996 22.2722 22.1069 22.1816C22.0142 22.091 21.8888 22.0396 21.7577 22.0385C21.6266 22.0374 21.5003 22.0867 21.406 22.1757C21.211 22.3663 20.894 22.3663 20.699 22.1757C20.6047 22.0867 20.4784 22.0374 20.3473 22.0385C20.2162 22.0396 20.0908 22.091 19.9981 22.1816C19.9054 22.2722 19.8528 22.3948 19.8517 22.523C19.8505 22.6511 19.9009 22.7746 19.992 22.8667ZM18.053 24.7063C18.053 26.323 19.399 27.6386 21.053 27.6386C22.707 27.6386 24.053 26.323 24.053 24.7063C24.053 24.5767 24.0003 24.4524 23.9066 24.3607C23.8128 24.269 23.6856 24.2176 23.553 24.2176H18.553C18.4204 24.2176 18.2932 24.269 18.1994 24.3607C18.1057 24.4524 18.053 24.5767 18.053 24.7063ZM21.053 26.6612C20.122 26.6612 19.339 26.0366 19.116 25.195H22.99C22.767 26.0366 21.984 26.6612 21.053 26.6612ZM17.6285 34.8556C17.7222 34.9473 17.8494 34.9988 17.982 34.9988C18.1146 34.9988 18.2418 34.9473 18.3356 34.8556C18.4293 34.764 18.482 34.6397 18.482 34.51V30.2963C18.482 30.1667 18.4293 30.0424 18.3356 29.9507C18.2418 29.859 18.1146 29.8076 17.982 29.8076C17.8494 29.8076 17.7222 29.859 17.6285 29.9507C17.5347 30.0424 17.482 30.1667 17.482 30.2963V34.51C17.482 34.6397 17.5347 34.764 17.6285 34.8556ZM23.6455 34.7598C23.7392 34.8515 23.8664 34.903 23.999 34.903C24.1316 34.903 24.2588 34.8515 24.3526 34.7598C24.4463 34.6682 24.499 34.5439 24.499 34.4142V30.4028C24.499 30.2732 24.4463 30.1489 24.3526 30.0572C24.2588 29.9656 24.1316 29.9141 23.999 29.9141C23.8664 29.9141 23.7392 29.9656 23.6455 30.0572C23.5517 30.1489 23.499 30.2732 23.499 30.4028V34.4142C23.499 34.5439 23.5517 34.6682 23.6455 34.7598ZM23.458 12.0142C23.458 13.9006 25.028 15.4352 26.958 15.4352C27.0906 15.4352 27.2178 15.3837 27.3116 15.2921C27.4053 15.2004 27.458 15.0761 27.458 14.9465C27.458 14.8169 27.4053 14.6926 27.3116 14.6009C27.2178 14.5093 27.0906 14.4578 26.958 14.4578C25.579 14.4578 24.458 13.3621 24.458 12.0142C24.458 11.8846 24.4053 11.7602 24.3116 11.6686C24.2178 11.5769 24.0906 11.5255 23.958 11.5255C23.8254 11.5255 23.6982 11.5769 23.6045 11.6686C23.5107 11.7602 23.458 11.8846 23.458 12.0142Z" fill="url(#paint12_linear_838_5207)" stroke="url(#paint13_linear_838_5207)" stroke-width="0.3"/>
<path d="M28.958 17.3901C28.8254 17.3901 28.6983 17.3386 28.6045 17.2469C28.5107 17.1553 28.458 17.031 28.458 16.9013C28.458 16.093 27.785 15.4352 26.958 15.4352C26.8254 15.4352 26.6983 15.3837 26.6045 15.292C26.5107 15.2004 26.458 15.0761 26.458 14.9464C26.458 14.8168 26.5107 14.6925 26.6045 14.6009C26.6983 14.5092 26.8254 14.4577 26.958 14.4577C28.337 14.4577 29.458 15.5534 29.458 16.9013C29.458 17.031 29.4054 17.1553 29.3116 17.2469C29.2178 17.3386 29.0906 17.3901 28.958 17.3901ZM8.96004 18.3949C8.82743 18.3949 8.70025 18.3434 8.60648 18.2517C8.51272 18.1601 8.46004 18.0358 8.46004 17.9061C8.45327 16.2964 8.89916 14.7159 9.74901 13.337C10.5989 11.9582 11.82 10.8341 13.279 10.0876C14.5684 9.42735 16.0024 9.08256 17.458 9.08276C17.5906 9.08276 17.7178 9.13425 17.8116 9.22591C17.9054 9.31756 17.958 9.44187 17.958 9.57149C17.958 9.7011 17.9054 9.82541 17.8116 9.91706C17.7178 10.0087 17.5906 10.0602 17.458 10.0602C15.5607 10.0598 13.7249 10.7186 12.2786 11.9189C10.8322 13.1192 9.86941 14.7829 9.56204 16.613C11.1967 15.2225 13.291 14.4573 15.458 14.4587H20.958C22.337 14.4587 23.458 13.363 23.458 12.0151C23.458 11.8855 23.5107 11.7612 23.6045 11.6695C23.6983 11.5779 23.8254 11.5264 23.958 11.5264C24.0906 11.5264 24.2178 11.5779 24.3116 11.6695C24.4054 11.7612 24.458 11.8855 24.458 12.0151C24.458 13.9016 22.888 15.4361 20.958 15.4361H15.458C14.2925 15.4359 13.1411 15.6852 12.0846 16.1665C11.0282 16.6477 10.0924 17.3493 9.34304 18.2219C9.29569 18.2759 9.23696 18.3194 9.17087 18.3492C9.10477 18.3791 9.03285 18.3947 8.96004 18.3949Z" fill="url(#paint14_linear_838_5207)" stroke="url(#paint15_linear_838_5207)" stroke-width="0.3"/>
<path d="M17.981 32.0517H9.979C9.8464 32.0517 9.71922 32.0003 9.62545 31.9086C9.53168 31.8169 9.479 31.6926 9.479 31.563V16.9014C9.479 16.7718 9.53168 16.6474 9.62545 16.5558C9.71922 16.4641 9.8464 16.4126 9.979 16.4126C10.1116 16.4126 10.2388 16.4641 10.3326 16.5558C10.4263 16.6474 10.479 16.7718 10.479 16.9014V31.0743H17.981C18.1136 31.0743 18.2408 31.1258 18.3346 31.2174C18.4283 31.3091 18.481 31.4334 18.481 31.563C18.481 31.6926 18.4283 31.8169 18.3346 31.9086C18.2408 32.0003 18.1136 32.0517 17.981 32.0517ZM31.979 32.0517H23.999C23.8664 32.0517 23.7392 32.0003 23.6455 31.9086C23.5517 31.8169 23.499 31.6926 23.499 31.563C23.499 31.4334 23.5517 31.3091 23.6455 31.2174C23.7392 31.1258 23.8664 31.0743 23.999 31.0743H31.479V16.4126C31.479 10.9321 27.154 6.63821 21.633 6.63821H20.479C18.4306 6.64272 16.4326 7.25977 14.7533 8.40648C13.0741 9.5532 11.794 11.1747 11.085 13.0532C11.0624 13.1135 11.0279 13.1689 10.9834 13.2162C10.9389 13.2635 10.8853 13.3017 10.8257 13.3288C10.7661 13.3558 10.7016 13.3711 10.636 13.3738C10.5703 13.3765 10.5047 13.3665 10.443 13.3445C10.3813 13.3224 10.3246 13.2886 10.2762 13.2451C10.2279 13.2017 10.1887 13.1493 10.161 13.091C10.1334 13.0327 10.1177 12.9697 10.115 12.9055C10.1122 12.8413 10.1224 12.7773 10.145 12.7169C10.925 10.6507 12.333 8.86723 14.1801 7.60591C16.0272 6.34459 18.2248 5.66583 20.478 5.66077H21.632C27.714 5.66077 32.478 10.3838 32.478 16.4126V31.563C32.4784 31.6272 32.4658 31.6909 32.4408 31.7503C32.4159 31.8097 32.3792 31.8637 32.3328 31.9091C32.2864 31.9546 32.2312 31.9906 32.1705 32.0151C32.1098 32.0395 32.0447 32.052 31.979 32.0517Z" fill="url(#paint16_linear_838_5207)" stroke="url(#paint17_linear_838_5207)" stroke-width="0.3"/>
<path d="M34.4282 56.4465H34.0782V56.7965H34.4282V56.4465ZM60.7815 56.4465V56.7965H61.1315V56.4465H60.7815ZM34.7782 56.4465V43.2631H34.0782V56.4465H34.7782ZM36.4282 41.6131H58.7815V40.9131H36.4282V41.6131ZM60.4315 43.2631V56.4465H61.1315V43.2631H60.4315ZM60.7815 56.0965H34.4282V56.7965H60.7815V56.0965ZM58.7815 41.6131C59.6928 41.6131 60.4315 42.3519 60.4315 43.2631H61.1315C61.1315 41.9653 60.0793 40.9131 58.7815 40.9131V41.6131ZM34.7782 43.2631C34.7782 42.3519 35.517 41.6131 36.4282 41.6131V40.9131C35.1304 40.9131 34.0782 41.9653 34.0782 43.2631H34.7782Z" fill="url(#paint18_linear_838_5207)"/>
<path d="M50.126 50.1968C49.9334 50.1208 49.7693 49.994 49.6543 49.8324C49.5392 49.6708 49.4783 49.4815 49.4792 49.2881C49.4817 49.1155 49.5317 48.9463 49.6247 48.7966C49.7176 48.6468 49.8504 48.5213 50.0104 48.432C50.0466 48.4113 50.0779 48.3841 50.1024 48.352C50.1269 48.3198 50.144 48.2834 50.1529 48.245C50.1617 48.2066 50.162 48.1669 50.1537 48.1283C50.1454 48.0898 50.1288 48.0532 50.1048 48.0208C49.9609 47.8277 49.7734 47.6657 49.5551 47.546C49.3368 47.4263 49.093 47.3517 48.8405 47.3275C49.0755 46.9832 49.1822 46.5774 49.1442 46.1719C49.1368 46.0983 49.0988 46.0302 49.0381 45.9819C48.9775 45.9336 48.899 45.9088 48.819 45.9128C48.2784 45.9573 47.7774 46.1926 47.4202 46.5698C47.1938 46.812 47.034 47.101 46.9544 47.4123C46.7901 47.361 46.618 47.3338 46.4444 47.3317C46.1232 47.3402 45.8097 47.425 45.5345 47.5782C45.2592 47.7313 45.0315 47.9475 44.8733 48.2058C44.2791 49.1582 44.6426 50.5853 45.2864 51.4443C45.5446 51.7885 45.9321 52.3053 46.5167 52.3053C46.5282 52.3053 46.5399 52.3053 46.5516 52.3047C46.7474 52.2945 46.9392 52.2487 47.1158 52.1699C47.2569 52.1039 47.4126 52.0688 47.5708 52.0672C47.7196 52.0689 47.8659 52.1025 47.9981 52.1654C48.1914 52.2498 48.402 52.295 48.6158 52.2979C49.218 52.2874 49.5737 51.8078 49.8335 51.4574C50.0384 51.179 50.1988 50.8747 50.3097 50.5541C50.3333 50.4841 50.3275 50.4085 50.2935 50.3423C50.2594 50.2761 50.1996 50.2242 50.126 50.1968ZM47.8969 46.9492C48.0622 46.7785 48.2694 46.6467 48.5011 46.565C48.4504 46.7952 48.3382 47.0101 48.1748 47.1901C48.0638 47.313 47.9288 47.4156 47.7768 47.4924C47.7679 47.4958 47.7581 47.4992 47.7491 47.5026C47.6904 47.5239 47.6179 47.5503 47.5619 47.5673C47.6159 47.3387 47.7311 47.1262 47.8969 46.9492ZM49.3139 51.1293C49.0609 51.4704 48.8619 51.7125 48.6042 51.7168C48.4797 51.7164 48.3572 51.6872 48.2481 51.6319C48.037 51.537 47.8056 51.4871 47.5708 51.486C47.3279 51.4872 47.0883 51.538 46.8693 51.635C46.7628 51.6852 46.6466 51.7155 46.5274 51.7241H46.5181C46.2621 51.7241 45.9868 51.3572 45.8041 51.1134C45.3468 50.5033 44.925 49.2876 45.419 48.4958C45.5226 48.3245 45.6724 48.1808 45.8539 48.0787C46.0354 47.9765 46.2424 47.9194 46.4549 47.9129L46.4655 47.9126C46.6447 47.9267 46.8197 47.9704 46.9821 48.0418C47.0235 48.0568 47.0642 48.0719 47.1046 48.0858C47.1149 48.0897 47.1255 48.0934 47.1363 48.0965C47.2483 48.1381 47.3673 48.1615 47.488 48.1655C47.6588 48.153 47.8257 48.1115 47.9803 48.0432C48.1982 47.9456 48.4378 47.8961 48.68 47.8987C48.9391 47.9081 49.1878 47.9952 49.3885 48.1468C49.217 48.2926 49.0805 48.47 48.9877 48.6674C48.8949 48.8648 48.8478 49.078 48.8496 49.2933C48.8478 49.5538 48.9176 49.8108 49.0526 50.0397C49.1875 50.2685 49.3832 50.462 49.6212 50.6021C49.5383 50.7869 49.4354 50.9636 49.3139 51.1293Z" fill="#0071BC"/>
<path d="M60.8337 60.2963H34.3759C33.6133 60.2958 32.8822 60.0208 32.343 59.5316C31.8038 59.0425 31.5006 58.3793 31.5 57.6875V56.644C31.5 56.5056 31.5606 56.3729 31.6685 56.2751C31.7763 56.1772 31.9226 56.1223 32.0752 56.1223H63.1344C63.2869 56.1223 63.4332 56.1772 63.5411 56.2751C63.6489 56.3729 63.7095 56.5056 63.7095 56.644V57.6875C63.7095 59.1266 62.42 60.2963 60.8337 60.2963ZM32.3258 56.9288V57.6875C32.3258 58.5505 33.1762 59.5316 34.1275 59.5316H60.8869C61.8383 59.5316 62.9775 58.5505 62.9775 57.6875V56.9288H32.3258Z" fill="url(#paint19_linear_838_5207)" stroke="url(#paint20_linear_838_5207)" stroke-width="0.4"/>
<defs>
<linearGradient id="paint0_linear_838_5207" x1="17.3726" y1="39.8637" x2="29.4314" y2="42.7455" gradientUnits="userSpaceOnUse">
<stop stop-color="#07FFE1"/>
<stop offset="1" stop-color="#9DFF00"/>
</linearGradient>
<linearGradient id="paint1_linear_838_5207" x1="17.3726" y1="39.8637" x2="29.4314" y2="42.7455" gradientUnits="userSpaceOnUse">
<stop stop-color="#07FFE1"/>
<stop offset="1" stop-color="#9DFF00"/>
</linearGradient>
<linearGradient id="paint2_linear_838_5207" x1="15.0031" y1="34.6037" x2="22.9807" y2="39.9707" gradientUnits="userSpaceOnUse">
<stop stop-color="#07FFE1"/>
<stop offset="1" stop-color="#9DFF00"/>
</linearGradient>
<linearGradient id="paint3_linear_838_5207" x1="15.0031" y1="34.6037" x2="22.9807" y2="39.9707" gradientUnits="userSpaceOnUse">
<stop stop-color="#07FFE1"/>
<stop offset="1" stop-color="#9DFF00"/>
</linearGradient>
<linearGradient id="paint4_linear_838_5207" x1="12.4908" y1="17.7967" x2="37.6754" y2="29.855" gradientUnits="userSpaceOnUse">
<stop stop-color="#07FFE1"/>
<stop offset="1" stop-color="#9DFF00"/>
</linearGradient>
<linearGradient id="paint5_linear_838_5207" x1="12.4908" y1="17.7967" x2="37.6754" y2="29.855" gradientUnits="userSpaceOnUse">
<stop stop-color="#07FFE1"/>
<stop offset="1" stop-color="#9DFF00"/>
</linearGradient>
<linearGradient id="paint6_linear_838_5207" x1="16.4793" y1="18.5914" x2="18.8192" y2="20.337" gradientUnits="userSpaceOnUse">
<stop stop-color="#07FFE1"/>
<stop offset="1" stop-color="#9DFF00"/>
</linearGradient>
<linearGradient id="paint7_linear_838_5207" x1="16.4793" y1="18.5914" x2="18.8192" y2="20.337" gradientUnits="userSpaceOnUse">
<stop stop-color="#07FFE1"/>
<stop offset="1" stop-color="#9DFF00"/>
</linearGradient>
<linearGradient id="paint8_linear_838_5207" x1="23.4793" y1="18.5914" x2="25.8192" y2="20.337" gradientUnits="userSpaceOnUse">
<stop stop-color="#07FFE1"/>
<stop offset="1" stop-color="#9DFF00"/>
</linearGradient>
<linearGradient id="paint9_linear_838_5207" x1="23.4793" y1="18.5914" x2="25.8192" y2="20.337" gradientUnits="userSpaceOnUse">
<stop stop-color="#07FFE1"/>
<stop offset="1" stop-color="#9DFF00"/>
</linearGradient>
<linearGradient id="paint10_linear_838_5207" x1="9.47885" y1="21.418" x2="44.7426" y2="34.4277" gradientUnits="userSpaceOnUse">
<stop stop-color="#07FFE1"/>
<stop offset="1" stop-color="#9DFF00"/>
</linearGradient>
<linearGradient id="paint11_linear_838_5207" x1="9.47885" y1="21.418" x2="44.7426" y2="34.4277" gradientUnits="userSpaceOnUse">
<stop stop-color="#07FFE1"/>
<stop offset="1" stop-color="#9DFF00"/>
</linearGradient>
<linearGradient id="paint12_linear_838_5207" x1="2.50214" y1="17.1496" x2="53.6478" y2="44.8828" gradientUnits="userSpaceOnUse">
<stop stop-color="#07FFE1"/>
<stop offset="1" stop-color="#9DFF00"/>
</linearGradient>
<linearGradient id="paint13_linear_838_5207" x1="2.50214" y1="17.1496" x2="53.6478" y2="44.8828" gradientUnits="userSpaceOnUse">
<stop stop-color="#07FFE1"/>
<stop offset="1" stop-color="#9DFF00"/>
</linearGradient>
<linearGradient id="paint14_linear_838_5207" x1="8.47333" y1="10.1544" x2="18.7985" y2="27.1313" gradientUnits="userSpaceOnUse">
<stop stop-color="#07FFE1"/>
<stop offset="1" stop-color="#9DFF00"/>
</linearGradient>
<linearGradient id="paint15_linear_838_5207" x1="8.47333" y1="10.1544" x2="18.7985" y2="27.1313" gradientUnits="userSpaceOnUse">
<stop stop-color="#07FFE1"/>
<stop offset="1" stop-color="#9DFF00"/>
</linearGradient>
<linearGradient id="paint16_linear_838_5207" x1="9.49365" y1="8.69782" x2="39.3289" y2="27.6566" gradientUnits="userSpaceOnUse">
<stop stop-color="#07FFE1"/>
<stop offset="1" stop-color="#9DFF00"/>
</linearGradient>
<linearGradient id="paint17_linear_838_5207" x1="9.49365" y1="8.69782" x2="39.3289" y2="27.6566" gradientUnits="userSpaceOnUse">
<stop stop-color="#07FFE1"/>
<stop offset="1" stop-color="#9DFF00"/>
</linearGradient>
<linearGradient id="paint18_linear_838_5207" x1="34.445" y1="43.0104" x2="52.8908" y2="66.3553" gradientUnits="userSpaceOnUse">
<stop stop-color="#07FFE1"/>
<stop offset="1" stop-color="#9DFF00"/>
</linearGradient>
<linearGradient id="paint19_linear_838_5207" x1="31.5205" y1="56.6026" x2="33.3165" y2="66.708" gradientUnits="userSpaceOnUse">
<stop stop-color="#07FFE1"/>
<stop offset="1" stop-color="#9DFF00"/>
</linearGradient>
<linearGradient id="paint20_linear_838_5207" x1="31.5205" y1="56.6026" x2="33.3165" y2="66.708" gradientUnits="userSpaceOnUse">
<stop stop-color="#07FFE1"/>
<stop offset="1" stop-color="#9DFF00"/>
</linearGradient>
</defs>
</svg>
