<svg width="32" height="32" viewBox="0 0 32 32" fill="none" xmlns="http://www.w3.org/2000/svg">
<path d="M20.8125 15.5625H17.2319C17.1666 15.3795 17.0615 15.2133 16.9241 15.0759C16.7867 14.9385 16.6205 14.8333 16.4375 14.7681V9.4375C16.4375 9.32147 16.3914 9.21019 16.3094 9.12814C16.2273 9.04609 16.116 9 16 9C15.884 9 15.7727 9.04609 15.6906 9.12814C15.6086 9.21019 15.5625 9.32147 15.5625 9.4375V14.7681C15.3537 14.8415 15.1669 14.9667 15.0195 15.1319C14.8722 15.2971 14.7692 15.497 14.7201 15.7128C14.671 15.9287 14.6774 16.1535 14.7388 16.3661C14.8002 16.5788 14.9145 16.7725 15.071 16.929C15.2275 17.0855 15.4212 17.1998 15.6338 17.2612C15.8465 17.3225 16.0713 17.329 16.2871 17.2799C16.503 17.2308 16.7029 17.1278 16.8681 16.9804C17.0333 16.8331 17.1585 16.6463 17.2319 16.4375H20.8125C20.9285 16.4375 21.0398 16.3914 21.1219 16.3094C21.2039 16.2273 21.25 16.116 21.25 16C21.25 15.884 21.2039 15.7727 21.1219 15.6906C21.0398 15.6086 20.9285 15.5625 20.8125 15.5625ZM16 16.4375C15.9135 16.4375 15.8289 16.4118 15.7569 16.3638C15.685 16.3157 15.6289 16.2474 15.5958 16.1674C15.5627 16.0875 15.554 15.9995 15.5709 15.9146C15.5878 15.8298 15.6295 15.7518 15.6906 15.6906C15.7518 15.6295 15.8298 15.5878 15.9146 15.5709C15.9995 15.554 16.0875 15.5627 16.1674 15.5958C16.2474 15.6289 16.3157 15.685 16.3638 15.7569C16.4118 15.8289 16.4375 15.9135 16.4375 16C16.4374 16.116 16.3913 16.2272 16.3093 16.3093C16.2272 16.3913 16.116 16.4374 16 16.4375ZM24.0624 7.98539C24.0548 7.97642 24.0518 7.96515 24.0433 7.95666C24.0348 7.94816 24.0236 7.94523 24.0146 7.93759C21.8867 5.81622 19.0046 4.625 16 4.625C12.9953 4.625 10.1132 5.81622 7.98539 7.93759C7.97642 7.94523 7.96515 7.94816 7.95666 7.95666C7.94816 7.96515 7.94523 7.97641 7.93759 7.98539C5.81622 10.1132 4.62499 12.9953 4.62499 16C4.62499 19.0046 5.81622 21.8867 7.93759 24.0146C7.94523 24.0236 7.94816 24.0348 7.95666 24.0433C7.96515 24.0518 7.97641 24.0548 7.98539 24.0624C10.1132 26.1838 12.9953 27.375 16 27.375C19.0046 27.375 21.8867 26.1838 24.0146 24.0624C24.0236 24.0548 24.0348 24.0518 24.0433 24.0433C24.0518 24.0348 24.0548 24.0236 24.0624 24.0146C26.1838 21.8867 27.375 19.0046 27.375 16C27.375 12.9953 26.1838 10.1132 24.0624 7.98539ZM23.7157 23.097L22.806 22.1874C22.7237 22.1067 22.6129 22.0618 22.4976 22.0624C22.3824 22.0629 22.272 22.109 22.1905 22.1905C22.109 22.272 22.063 22.3823 22.0624 22.4976C22.0618 22.6129 22.1067 22.7237 22.1874 22.806L23.0971 23.7157C21.2754 25.3977 18.9148 26.3768 16.4375 26.4778V25.1875C16.4375 25.0715 16.3914 24.9602 16.3094 24.8781C16.2273 24.7961 16.116 24.75 16 24.75C15.884 24.75 15.7727 24.7961 15.6906 24.8781C15.6086 24.9602 15.5625 25.0715 15.5625 25.1875V26.4778C13.0852 26.3768 10.7246 25.3977 8.90296 23.7157L9.81262 22.806C9.89329 22.7237 9.93821 22.6129 9.93763 22.4976C9.93705 22.3824 9.89101 22.272 9.80951 22.1905C9.72801 22.109 9.61765 22.063 9.50239 22.0624C9.38714 22.0618 9.27631 22.1067 9.19399 22.1874L8.28431 23.097C6.6023 21.2754 5.62321 18.9148 5.52216 16.4375H6.8125C6.92853 16.4375 7.03981 16.3914 7.12186 16.3094C7.2039 16.2273 7.25 16.116 7.25 16C7.25 15.884 7.2039 15.7727 7.12186 15.6906C7.03981 15.6086 6.92853 15.5625 6.8125 15.5625H5.52216C5.62321 13.0852 6.6023 10.7246 8.28431 8.90296L9.19397 9.81262C9.27628 9.89329 9.38711 9.93822 9.50236 9.93763C9.61762 9.93705 9.72799 9.89101 9.80948 9.80951C9.89098 9.72801 9.93702 9.61765 9.93761 9.50239C9.93819 9.38714 9.89326 9.27631 9.81259 9.19399L8.90296 8.28431C10.7246 6.6023 13.0852 5.62321 15.5625 5.52216V6.8125C15.5625 6.92853 15.6086 7.03981 15.6906 7.12186C15.7727 7.20391 15.884 7.25 16 7.25C16.116 7.25 16.2273 7.20391 16.3094 7.12186C16.3914 7.03981 16.4375 6.92853 16.4375 6.8125V5.52216C18.9148 5.62321 21.2754 6.6023 23.097 8.28431L22.1874 9.19397C22.1461 9.23444 22.1132 9.28269 22.0907 9.33594C22.0682 9.38919 22.0564 9.44638 22.0561 9.5042C22.0558 9.56202 22.067 9.61932 22.089 9.67279C22.111 9.72627 22.1433 9.77485 22.1842 9.81573C22.2251 9.85662 22.2737 9.88899 22.3272 9.91098C22.3806 9.93298 22.438 9.94415 22.4958 9.94386C22.5536 9.94356 22.6108 9.93181 22.664 9.90928C22.7173 9.88675 22.7655 9.85389 22.806 9.81259L23.7157 8.90296C25.3977 10.7246 26.3768 13.0852 26.4778 15.5625H25.1875C25.0715 15.5625 24.9602 15.6086 24.8781 15.6906C24.7961 15.7727 24.75 15.884 24.75 16C24.75 16.116 24.7961 16.2273 24.8781 16.3094C24.9602 16.3914 25.0715 16.4375 25.1875 16.4375H26.4778C26.3768 18.9148 25.3977 21.2754 23.7157 23.097ZM16 2C13.2311 2 10.5243 2.82109 8.22201 4.35943C5.91973 5.89776 4.12531 8.08426 3.06568 10.6424C2.00606 13.2006 1.72881 16.0155 2.269 18.7313C2.8092 21.447 4.14257 23.9416 6.1005 25.8995C8.05844 27.8574 10.553 29.1908 13.2687 29.731C15.9845 30.2712 18.7994 29.9939 21.3576 28.9343C23.9157 27.8747 26.1022 26.0803 27.6406 23.778C29.1789 21.4757 30 18.7689 30 16C29.9957 12.2883 28.5194 8.72978 25.8948 6.10519C23.2702 3.4806 19.7117 2.00424 16 2V2ZM16 29.125C13.4041 29.125 10.8665 28.3552 8.70814 26.913C6.54974 25.4708 4.86748 23.421 3.87408 21.0227C2.88068 18.6244 2.62076 15.9854 3.12719 13.4394C3.63362 10.8934 4.88366 8.55479 6.71922 6.71922C8.55478 4.88366 10.8934 3.63362 13.4394 3.12719C15.9854 2.62076 18.6244 2.88068 21.0227 3.87408C23.421 4.86748 25.4708 6.54974 26.913 8.70814C28.3552 10.8665 29.125 13.4041 29.125 16C29.1211 19.4798 27.737 22.8159 25.2764 25.2764C22.8159 27.737 19.4798 29.1211 16 29.125Z" fill="url(#paint0_linear_1194_205)"/>
<defs>
<linearGradient id="paint0_linear_1194_205" x1="2.01782" y1="5.22222" x2="35.3078" y2="29.4962" gradientUnits="userSpaceOnUse">
<stop stop-color="#07FFE1"/>
<stop offset="1" stop-color="#9DFF00"/>
</linearGradient>
</defs>
</svg>
