<svg width="65" height="63" viewBox="0 0 65 63" fill="none" xmlns="http://www.w3.org/2000/svg">
<path d="M41.9439 30.6335H34.7827C34.6522 30.2757 34.4419 29.9507 34.1671 29.6822C33.8923 29.4136 33.5599 29.208 33.1939 29.0805V18.6598C33.1939 18.4329 33.1017 18.2154 32.9376 18.055C32.7735 17.8946 32.5509 17.8045 32.3189 17.8045C32.0868 17.8045 31.8642 17.8946 31.7001 18.055C31.536 18.2154 31.4439 18.4329 31.4439 18.6598V29.0805C31.0262 29.224 30.6526 29.4687 30.358 29.7917C30.0633 30.1147 29.8573 30.5054 29.7591 30.9274C29.6609 31.3493 29.6738 31.7887 29.7965 32.2045C29.9192 32.6203 30.1478 32.9989 30.4608 33.3048C30.7739 33.6108 31.1612 33.8342 31.5866 33.9542C32.0119 34.0742 32.4615 34.0867 32.8932 33.9907C33.3249 33.8948 33.7246 33.6934 34.055 33.4054C34.3855 33.1174 34.6358 32.7522 34.7827 32.344H41.9439C42.1759 32.344 42.3985 32.2539 42.5626 32.0935C42.7267 31.9331 42.8189 31.7155 42.8189 31.4887C42.8189 31.2619 42.7267 31.0443 42.5626 30.884C42.3985 30.7236 42.1759 30.6335 41.9439 30.6335ZM32.3189 32.344C32.1458 32.344 31.9766 32.2938 31.8327 32.1998C31.6888 32.1059 31.5767 31.9723 31.5105 31.816C31.4442 31.6597 31.4269 31.4878 31.4607 31.3219C31.4944 31.156 31.5778 31.0036 31.7001 30.884C31.8225 30.7643 31.9784 30.6829 32.1482 30.6499C32.3179 30.6169 32.4938 30.6338 32.6537 30.6986C32.8136 30.7633 32.9502 30.8729 33.0464 31.0136C33.1425 31.1542 33.1939 31.3196 33.1939 31.4887C33.1937 31.7155 33.1015 31.933 32.9374 32.0933C32.7733 32.2537 32.5509 32.3438 32.3189 32.344ZM48.4436 15.8211C48.4284 15.8035 48.4225 15.7815 48.4055 15.7649C48.3885 15.7483 48.366 15.7426 48.348 15.7276C44.0924 11.5806 38.3282 9.25187 32.3188 9.25187C26.3095 9.25187 20.5453 11.5806 16.2896 15.7276C16.2717 15.7426 16.2492 15.7483 16.2322 15.7649C16.2152 15.7815 16.2093 15.8035 16.194 15.8211C11.9513 19.9808 9.56885 25.6149 9.56885 31.4887C9.56885 37.3625 11.9513 42.9966 16.194 47.1563C16.2093 47.1739 16.2152 47.1959 16.2322 47.2125C16.2492 47.2291 16.2717 47.2349 16.2896 47.2498C20.5453 51.3968 26.3095 53.7255 32.3188 53.7255C38.3282 53.7255 44.0924 51.3968 48.348 47.2498C48.366 47.2349 48.3885 47.2291 48.4055 47.2125C48.4225 47.1959 48.4284 47.1739 48.4436 47.1563C52.6864 42.9966 55.0688 37.3625 55.0688 31.4887C55.0688 25.6149 52.6864 19.9808 48.4436 15.8211ZM47.7502 45.3626L45.9309 43.5843C45.7663 43.4266 45.5446 43.3388 45.3141 43.34C45.0836 43.3411 44.8629 43.4311 44.6999 43.5904C44.5369 43.7497 44.4448 43.9655 44.4436 44.1908C44.4425 44.4161 44.5323 44.6328 44.6937 44.7937L46.513 46.572C42.8698 49.8601 38.1486 51.7742 33.1939 51.9717V49.4492C33.1939 49.2224 33.1017 49.0049 32.9376 48.8445C32.7735 48.6841 32.5509 48.594 32.3189 48.594C32.0868 48.594 31.8642 48.6841 31.7001 48.8445C31.536 49.0049 31.4439 49.2224 31.4439 49.4492V51.9717C26.4892 51.7742 21.768 49.8601 18.1248 46.572L19.9441 44.7937C20.1054 44.6328 20.1953 44.4162 20.1941 44.1908C20.193 43.9655 20.1009 43.7498 19.9379 43.5905C19.7749 43.4312 19.5542 43.3411 19.3236 43.34C19.0931 43.3389 18.8715 43.4267 18.7069 43.5844L16.8875 45.3626C13.5235 41.8016 11.5653 37.1869 11.3632 32.344H13.9439C14.1759 32.344 14.3985 32.2539 14.5626 32.0935C14.7267 31.9331 14.8189 31.7155 14.8189 31.4887C14.8189 31.2619 14.7267 31.0443 14.5626 30.884C14.3985 30.7236 14.1759 30.6335 13.9439 30.6335H11.3632C11.5653 25.7905 13.5235 21.1759 16.8875 17.6148L18.7068 19.3931C18.8714 19.5508 19.0931 19.6386 19.3236 19.6375C19.5541 19.6363 19.7748 19.5463 19.9378 19.387C20.1008 19.2277 20.1929 19.0119 20.1941 18.7866C20.1952 18.5613 20.1054 18.3447 19.944 18.1837L18.1248 16.4054C21.768 13.1173 26.4892 11.2033 31.4439 11.0057V13.5282C31.4439 13.755 31.536 13.9726 31.7001 14.133C31.8642 14.2933 32.0868 14.3835 32.3189 14.3835C32.5509 14.3835 32.7735 14.2933 32.9376 14.133C33.1017 13.9726 33.1939 13.755 33.1939 13.5282V11.0057C38.1485 11.2033 42.8697 13.1173 46.5129 16.4054L44.6936 18.1837C44.611 18.2628 44.5453 18.3571 44.5002 18.4612C44.4552 18.5653 44.4317 18.6771 44.4311 18.7902C44.4305 18.9032 44.4528 19.0152 44.4968 19.1197C44.5408 19.2243 44.6056 19.3193 44.6873 19.3992C44.7691 19.4791 44.8663 19.5424 44.9732 19.5854C45.0802 19.6284 45.1948 19.6502 45.3104 19.6496C45.426 19.6491 45.5404 19.6261 45.6469 19.5821C45.7534 19.538 45.8499 19.4738 45.9309 19.393L47.7502 17.6148C51.1142 21.1759 53.0724 25.7905 53.2745 30.6335H50.6939C50.4618 30.6335 50.2392 30.7236 50.0751 30.884C49.911 31.0443 49.8189 31.2619 49.8189 31.4887C49.8189 31.7155 49.911 31.9331 50.0751 32.0935C50.2392 32.2539 50.4618 32.344 50.6939 32.344H53.2745C53.0724 37.1869 51.1142 41.8016 47.7502 45.3626ZM32.3189 4.1203C26.781 4.1203 21.3675 5.72543 16.7629 8.73271C12.1583 11.74 8.56949 16.0144 6.45023 21.0153C4.33098 26.0162 3.77649 31.5191 4.85687 36.828C5.93726 42.137 8.604 47.0136 12.5199 50.8411C16.4357 54.6687 21.4249 57.2752 26.8563 58.3313C32.2878 59.3873 37.9177 58.8453 43.034 56.7738C48.1503 54.7024 52.5233 51.1945 55.6 46.6938C58.6767 42.1931 60.3189 36.9017 60.3189 31.4887C60.3104 24.2327 57.3576 17.2763 52.1085 12.1455C46.8593 7.01471 39.7423 4.1286 32.3189 4.1203ZM32.3189 57.1466C27.1271 57.1466 22.0519 55.6418 17.7351 52.8225C13.4184 50.0031 10.0538 45.9959 8.06702 41.3076C6.08022 36.6192 5.56038 31.4603 6.57325 26.4831C7.58611 21.506 10.0862 16.9342 13.7573 13.3458C17.4284 9.75753 22.1057 7.31385 27.1977 6.32384C32.2897 5.33382 37.5677 5.84193 42.3643 7.78392C47.1609 9.7259 51.2605 13.0145 54.1449 17.234C57.0293 21.4534 58.5689 26.4141 58.5689 31.4887C58.561 38.2912 55.7928 44.813 50.8717 49.6231C45.9506 54.4332 39.2784 57.1389 32.3189 57.1466Z" fill="url(#paint0_linear_838_5265)"/>
<defs>
<linearGradient id="paint0_linear_838_5265" x1="4.3545" y1="10.4194" x2="69.8727" y2="59.2955" gradientUnits="userSpaceOnUse">
<stop stop-color="#07FFE1"/>
<stop offset="1" stop-color="#9DFF00"/>
</linearGradient>
</defs>
</svg>
