<svg width="64" height="64" viewBox="0 0 64 64" fill="none" xmlns="http://www.w3.org/2000/svg">
<path d="M45.7883 54H18.1567C17.9823 54 17.8149 53.9318 17.6915 53.8105C17.5682 53.6891 17.4988 53.5245 17.4988 53.3529C17.4988 53.1813 17.5682 53.0167 17.6915 52.8954C17.8149 52.774 17.9823 52.7059 18.1567 52.7059H45.7883C45.9628 52.7059 46.1301 52.774 46.2535 52.8954C46.3769 53.0167 46.4462 53.1813 46.4462 53.3529C46.4462 53.5245 46.3769 53.6891 46.2535 53.8105C46.1301 53.9318 45.9628 54 45.7883 54ZM56.3146 39.7647H7.75805C7.58357 39.7647 7.41623 39.6965 7.29285 39.5752C7.16947 39.4538 7.10016 39.2893 7.10016 39.1176C7.10016 38.946 7.16947 38.7814 7.29285 38.6601C7.41623 38.5388 7.58357 38.4706 7.75805 38.4706H56.3146C56.4891 38.4706 56.6564 38.5388 56.7798 38.6601C56.9032 38.7814 56.9725 38.946 56.9725 39.1176C56.9725 39.2893 56.9032 39.4538 56.7798 39.5752C56.6564 39.6965 56.4891 39.7647 56.3146 39.7647Z" fill="url(#paint0_linear_510_3254)"/>
<path d="M37.8934 54H26.0513C25.8768 54 25.7095 53.9318 25.5861 53.8105C25.4627 53.6891 25.3934 53.5245 25.3934 53.3529V45.5882C25.3934 45.4166 25.4627 45.252 25.5861 45.1307C25.7095 45.0093 25.8768 44.9412 26.0513 44.9412H37.8934C38.0679 44.9412 38.2352 45.0093 38.3586 45.1307C38.482 45.252 38.5513 45.4166 38.5513 45.5882V53.3529C38.5513 53.5245 38.482 53.6891 38.3586 53.8105C38.2352 53.9318 38.0679 54 37.8934 54ZM26.7092 52.7059H37.2355V46.2353H26.7092V52.7059Z" fill="url(#paint1_linear_510_3254)"/>
<path d="M31.9724 43.6471C32.6991 43.6471 33.2882 43.0677 33.2882 42.353C33.2882 41.6382 32.6991 41.0588 31.9724 41.0588C31.2457 41.0588 30.6566 41.6382 30.6566 42.353C30.6566 43.0677 31.2457 43.6471 31.9724 43.6471Z" fill="url(#paint2_linear_510_3254)"/>
<path d="M53.7105 46.2353H10.2895C9.41737 46.2343 8.58129 45.8931 7.96462 45.2866C7.34795 44.6801 7.00104 43.8577 7 43V13.2353C7 11.4507 8.47632 10 10.2895 10H53.7105C55.5237 10 57 11.4507 57 13.2353V43C57 44.7846 55.5237 46.2353 53.7105 46.2353ZM10.2895 11.2941C9.20132 11.2941 8.31579 12.1651 8.31579 13.2353V43C8.31579 44.0702 9.20132 44.9412 10.2895 44.9412H53.7105C54.7987 44.9412 55.6842 44.0702 55.6842 43V13.2353C55.6842 12.1651 54.7987 11.2941 53.7105 11.2941H10.2895Z" fill="url(#paint3_linear_510_3254)"/>
<path d="M52.3948 35.8824H11.6054C11.4309 35.8824 11.2635 35.8143 11.1402 35.6929C11.0168 35.5716 10.9475 35.407 10.9475 35.2354V14.5295C10.9475 14.3579 11.0168 14.1933 11.1402 14.072C11.2635 13.9506 11.4309 13.8824 11.6054 13.8824H52.3948C52.5693 13.8824 52.7367 13.9506 52.86 14.072C52.9834 14.1933 53.0527 14.3579 53.0527 14.5295V35.2354C53.0527 35.407 52.9834 35.5716 52.86 35.6929C52.7367 35.8143 52.5693 35.8824 52.3948 35.8824ZM12.2633 34.5883H51.7369V15.1766H12.2633V34.5883Z" fill="url(#paint4_linear_510_3254)"/>
<path d="M29.44 19.4909H26.5309V27.2181C26.5309 29.1301 25.8752 29.664 24.7341 29.664C24.1994 29.664 23.7178 29.5723 23.3432 29.4435L23.04 31.7056C23.5745 31.8897 24.3949 32 25.0366 32C27.6565 32 29.44 30.7683 29.44 27.2371V19.4909ZM35.7841 19.2C32.968 19.2 31.1855 20.7999 31.1855 22.9147C31.1855 24.7359 32.5582 25.8761 34.5542 26.6116C35.9979 27.1264 36.5685 27.5864 36.5685 28.3403C36.5685 29.1678 35.9089 29.7012 34.6613 29.7012C33.5026 29.7012 32.4508 29.3143 31.7379 28.9283V28.9275L31.1855 31.2264C31.8632 31.6133 33.1288 31.9993 34.5006 31.9993C37.7983 31.9993 39.3309 30.2338 39.3309 28.1558C39.3309 26.3903 38.3506 25.2503 36.2299 24.4408C34.6612 23.8156 34.0019 23.4664 34.0019 22.6756C34.0019 22.0501 34.5724 21.4804 35.7489 21.4804C36.9069 21.4804 37.7032 21.8697 38.1673 22.1091L38.8627 19.7819C38.1355 19.4625 37.1559 19.2 35.7841 19.2Z" fill="#0071BC"/>
<defs>
<linearGradient id="paint0_linear_510_3254" x1="7.13191" y1="40.2577" x2="21.1397" y2="73.0598" gradientUnits="userSpaceOnUse">
<stop stop-color="#07FFE1"/>
<stop offset="1" stop-color="#9DFF00"/>
</linearGradient>
<linearGradient id="paint1_linear_510_3254" x1="25.4018" y1="45.9836" x2="36.6952" y2="57.9446" gradientUnits="userSpaceOnUse">
<stop stop-color="#07FFE1"/>
<stop offset="1" stop-color="#9DFF00"/>
</linearGradient>
<linearGradient id="paint2_linear_510_3254" x1="30.6583" y1="41.3567" x2="33.7508" y2="43.6494" gradientUnits="userSpaceOnUse">
<stop stop-color="#07FFE1"/>
<stop offset="1" stop-color="#9DFF00"/>
</linearGradient>
<linearGradient id="paint3_linear_510_3254" x1="7.03183" y1="14.1699" x2="52.279" y2="59.6956" gradientUnits="userSpaceOnUse">
<stop stop-color="#07FFE1"/>
<stop offset="1" stop-color="#9DFF00"/>
</linearGradient>
<linearGradient id="paint4_linear_510_3254" x1="10.9743" y1="16.4142" x2="36.9881" y2="52.7174" gradientUnits="userSpaceOnUse">
<stop stop-color="#07FFE1"/>
<stop offset="1" stop-color="#9DFF00"/>
</linearGradient>
</defs>
</svg>
