<svg width="64" height="64" viewBox="0 0 64 64" fill="none" xmlns="http://www.w3.org/2000/svg">
<path d="M40.7068 57.6H21.6511C20.2478 57.5983 18.9024 57.0359 17.9101 56.0361C16.9178 55.0362 16.3596 53.6807 16.3579 52.2667V11.7334C16.3579 8.79362 18.7335 6.40002 21.6511 6.40002H40.7068C43.6244 6.40002 46 8.79362 46 11.7334V52.2667C46 55.2064 43.6244 57.6 40.7068 57.6ZM21.6511 7.98099C19.9001 7.98099 18.0242 9.96909 18.0242 11.7334V52.2667C18.0242 54.031 19.9001 56.0361 21.6511 56.0361H40.7068C42.4578 56.0361 44.5 54.031 44.5 52.2667C44.5 50.5024 44.5 11.7334 44.5 11.7334C44.5 9.96909 42.4578 7.98099 40.7068 7.98099H21.6511Z" fill="url(#paint0_linear_1117_540)"/>
<path d="M46 44H16.3579V15L46 15V44ZM17.7154 42.5421H44.6646V16.4382H17.7154V29.5V42.5421Z" fill="url(#paint1_linear_1117_540)"/>
<path d="M26.72 51.4C27.2723 51.4 27.72 50.9523 27.72 50.4C27.72 49.8477 27.2723 49.4 26.72 49.4C26.1677 49.4 25.72 49.8477 25.72 50.4C25.72 50.9523 26.1677 51.4 26.72 51.4Z" fill="url(#paint2_linear_1117_540)"/>
<path d="M26.47 11.9C26.8842 11.9 27.22 11.5642 27.22 11.15C27.22 10.7358 26.8842 10.4 26.47 10.4C26.0558 10.4 25.72 10.7358 25.72 11.15C25.72 11.5642 26.0558 11.9 26.47 11.9Z" fill="url(#paint3_linear_1117_540)"/>
<path d="M33.47 10.4H30.47C30.2711 10.4 30.0803 10.479 29.9396 10.6197C29.799 10.7603 29.72 10.9511 29.72 11.15C29.72 11.3489 29.799 11.5397 29.9396 11.6804C30.0803 11.821 30.2711 11.9 30.47 11.9H33.47C33.6689 11.9 33.8597 11.821 34.0003 11.6804C34.141 11.5397 34.22 11.3489 34.22 11.15C34.22 10.9511 34.141 10.7603 34.0003 10.6197C33.8597 10.479 33.6689 10.4 33.47 10.4Z" fill="url(#paint4_linear_1117_540)"/>
<path d="M38.397 31.8675C37.863 31.6391 37.4082 31.2585 37.0892 30.7731C36.7703 30.2877 36.6015 29.7192 36.6038 29.1384C36.6107 28.62 36.7495 28.1119 37.0072 27.662C37.2649 27.2121 37.6329 26.8353 38.0765 26.567C38.1769 26.505 38.2637 26.4233 38.3316 26.3268C38.3994 26.2302 38.4471 26.121 38.4715 26.0055C38.496 25.8901 38.4968 25.7709 38.4738 25.6552C38.4509 25.5394 38.4048 25.4295 38.3382 25.3321C37.9394 24.7521 37.4194 24.2656 36.8143 23.9061C36.2092 23.5467 35.5332 23.3228 34.8331 23.25C35.4847 22.2159 35.7804 20.9971 35.6752 19.7794C35.6546 19.5583 35.5492 19.3537 35.3811 19.2086C35.213 19.0636 34.9952 18.9892 34.7735 19.0013C33.2749 19.1348 31.8857 19.8416 30.8955 20.9743C30.2678 21.7017 29.8249 22.5697 29.6043 23.5048C29.1486 23.3505 28.6714 23.2689 28.1903 23.2627C27.2997 23.288 26.4307 23.5429 25.6675 24.0028C24.9044 24.4628 24.2731 25.1121 23.8347 25.8878C22.1872 28.7481 23.1951 33.0343 24.9797 35.6141C25.6957 36.648 26.77 38.2 28.3906 38.2C28.4226 38.2 28.455 38.2 28.4874 38.1983C29.0304 38.1675 29.562 38.0299 30.0517 37.7934C30.443 37.5951 30.8746 37.4896 31.3131 37.4849C31.7256 37.4899 32.1312 37.5909 32.4978 37.7798C33.0336 38.0333 33.6175 38.169 34.2101 38.1778C35.8797 38.1463 36.8659 36.7059 37.586 35.6533C38.1543 34.8172 38.5989 33.9035 38.9062 32.9405C38.9717 32.7303 38.9557 32.5033 38.8613 32.3044C38.767 32.1056 38.6012 31.9496 38.397 31.8675ZM32.217 22.1138C32.6754 21.6011 33.2498 21.2054 33.8922 20.9598C33.7516 21.6513 33.4407 22.2967 32.9875 22.8374C32.6799 23.2065 32.3056 23.5144 31.8842 23.7452L31.8816 23.746C31.8569 23.7563 31.8322 23.7656 31.8075 23.7759C31.6447 23.8398 31.4435 23.9191 31.2884 23.9702C31.4382 23.2836 31.7574 22.6455 32.217 22.1138ZM36.1456 34.6681C35.4442 35.6926 34.8924 36.4196 34.1781 36.4324C33.8329 36.4313 33.4934 36.3437 33.1907 36.1775C32.6057 35.8925 31.964 35.7427 31.3132 35.7394C30.6397 35.7428 29.9754 35.8956 29.3682 36.1869C29.073 36.3376 28.7509 36.4285 28.4205 36.4545H28.3945C27.6849 36.4545 26.9217 35.3525 26.415 34.6204C25.1472 32.7879 23.9779 29.1367 25.3475 26.7588C25.6347 26.2442 26.0501 25.8126 26.5533 25.5059C27.0564 25.1992 27.6304 25.0278 28.2193 25.0082L28.2487 25.0074C28.7456 25.0496 29.2307 25.181 29.681 25.3952C29.7956 25.4403 29.9086 25.4855 30.0206 25.5273C30.0492 25.5392 30.0786 25.5503 30.1084 25.5597C30.419 25.6846 30.7489 25.7546 31.0835 25.7668C31.5571 25.7291 32.0198 25.6046 32.4484 25.3994C33.0526 25.1062 33.7167 24.9577 34.3882 24.9656C35.1065 24.9937 35.7961 25.2552 36.3524 25.7105C35.877 26.1485 35.4985 26.6811 35.2411 27.2741C34.9838 27.8671 34.8534 28.5074 34.8583 29.1538V29.1547C34.8534 29.9372 35.047 30.7082 35.4212 31.3955C35.7953 32.0828 36.3377 32.6639 36.9975 33.0846C36.7678 33.6398 36.4823 34.1704 36.1456 34.6681Z" fill="#0071BC"/>
<defs>
<linearGradient id="paint0_linear_1117_540" x1="16.3768" y1="12.2921" x2="62.1921" y2="31.633" gradientUnits="userSpaceOnUse">
<stop stop-color="#07FFE1"/>
<stop offset="1" stop-color="#9DFF00"/>
</linearGradient>
<linearGradient id="paint1_linear_1117_540" x1="16.3768" y1="18.3373" x2="51.0798" y2="44.2018" gradientUnits="userSpaceOnUse">
<stop stop-color="#07FFE1"/>
<stop offset="1" stop-color="#9DFF00"/>
</linearGradient>
<linearGradient id="paint2_linear_1117_540" x1="25.7212" y1="49.6302" x2="28.0991" y2="51.364" gradientUnits="userSpaceOnUse">
<stop stop-color="#07FFE1"/>
<stop offset="1" stop-color="#9DFF00"/>
</linearGradient>
<linearGradient id="paint3_linear_1117_540" x1="25.7209" y1="10.5726" x2="27.5043" y2="11.873" gradientUnits="userSpaceOnUse">
<stop stop-color="#07FFE1"/>
<stop offset="1" stop-color="#9DFF00"/>
</linearGradient>
<linearGradient id="paint4_linear_1117_540" x1="29.7228" y1="10.5726" x2="31.1394" y2="13.6713" gradientUnits="userSpaceOnUse">
<stop stop-color="#07FFE1"/>
<stop offset="1" stop-color="#9DFF00"/>
</linearGradient>
</defs>
</svg>
