<svg width="64" height="64" viewBox="0 0 64 64" fill="none" xmlns="http://www.w3.org/2000/svg">
<path d="M7.79718 43.6192H7.19718V44.2192H7.79718V43.6192ZM57.4307 43.6192V44.2192H58.0307V43.6192H57.4307ZM8.39718 43.6192V15.3H7.19718V43.6192H8.39718ZM10.2972 13.4H54.9307V12.2H10.2972V13.4ZM56.8307 15.3V43.6192H58.0307V15.3H56.8307ZM57.4307 43.0192H7.79718V44.2192H57.4307V43.0192ZM54.9307 13.4C55.98 13.4 56.8307 14.2507 56.8307 15.3H58.0307C58.0307 13.5879 56.6428 12.2 54.9307 12.2V13.4ZM8.39718 15.3C8.39718 14.2507 9.24784 13.4 10.2972 13.4V12.2C8.5851 12.2 7.19718 13.5879 7.19718 15.3H8.39718Z" fill="url(#paint0_linear_510_3259)"/>
<path d="M10.3781 16.2133V40.6644H11.5781V16.2133H10.3781ZM11.0781 41.3644H54.0838V40.1644H11.0781V41.3644ZM54.7838 40.6644V16.2133H53.5838V40.6644H54.7838ZM54.0838 15.5133H11.0781V16.7133H54.0838V15.5133ZM54.7838 16.2133C54.7838 15.8267 54.4704 15.5133 54.0838 15.5133V16.7133C53.8076 16.7133 53.5838 16.4894 53.5838 16.2133H54.7838ZM54.0838 41.3644C54.4704 41.3644 54.7838 41.051 54.7838 40.6644H53.5838C53.5838 40.3883 53.8076 40.1644 54.0838 40.1644V41.3644ZM10.3781 40.6644C10.3781 41.051 10.6915 41.3644 11.0781 41.3644V40.1644C11.3543 40.1644 11.5781 40.3883 11.5781 40.6644H10.3781ZM11.5781 16.2133C11.5781 16.4894 11.3543 16.7133 11.0781 16.7133V15.5133C10.6915 15.5133 10.3781 15.8267 10.3781 16.2133H11.5781Z" fill="url(#paint1_linear_510_3259)"/>
<path d="M26.4469 43.6192V47.0252H27.6469V43.6192H26.4469ZM27.1469 47.7252H38.1331V46.5252H27.1469V47.7252ZM38.8331 47.0252V43.6192H37.6331V47.0252H38.8331ZM38.1331 47.7252C38.5197 47.7252 38.8331 47.4118 38.8331 47.0252H37.6331C37.6331 46.7491 37.857 46.5252 38.1331 46.5252V47.7252ZM26.4469 47.0252C26.4469 47.4118 26.7603 47.7252 27.1469 47.7252V46.5252C27.423 46.5252 27.6469 46.7491 27.6469 47.0252H26.4469Z" fill="url(#paint2_linear_510_3259)"/>
<path d="M56.2971 51.2992H8.98285C7.61922 51.2981 6.31174 50.7481 5.34751 49.7698C4.38327 48.7916 3.84109 47.4652 3.84 46.0817V43.9947C3.84 43.718 3.94836 43.4526 4.14126 43.2569C4.33415 43.0612 4.59577 42.9512 4.86857 42.9512H60.4114C60.6842 42.9512 60.9458 43.0612 61.1387 43.2569C61.3316 43.4526 61.44 43.718 61.44 43.9947V46.0817C61.44 48.9597 59.1339 51.2992 56.2971 51.2992ZM5.31684 44.5643V46.0817C5.31684 47.8077 6.83749 49.7698 8.53875 49.7698H56.3924C58.0936 49.7698 60.1309 47.8077 60.1309 46.0817V44.5643H5.31684Z" fill="url(#paint3_linear_510_3259)"/>
<path d="M29.5582 33.0585C29.5582 33.0585 28.9218 33.4567 30.0119 33.5913C31.3323 33.7534 32.0073 33.7301 33.4623 33.4344C33.4623 33.4344 33.8458 33.6921 34.3799 33.9155C31.1172 35.4186 26.9957 33.8284 29.5582 33.0585ZM29.1592 31.0965C29.1592 31.0965 28.4452 31.6652 29.5361 31.7865C30.9469 31.943 32.0606 31.9559 33.9892 31.5566C33.9892 31.5566 34.2553 31.8475 34.6745 32.0061C30.7304 33.2468 26.3374 32.1038 29.1592 31.0965Z" fill="#0071BC" stroke="#0071BC" stroke-width="0.3"/>
<path d="M32.5198 27.7682C33.3242 28.7639 32.3089 29.6591 32.3089 29.6591C32.3089 29.6591 34.3501 28.5261 33.4128 27.1068C32.537 25.7838 31.8659 25.1268 35.5001 22.8604C35.5001 22.8604 29.7952 24.392 32.5198 27.7682Z" fill="#0071BC" stroke="#0071BC" stroke-width="0.3"/>
<path d="M36.8352 34.5093C36.8352 34.5093 37.3065 34.9271 36.3162 35.2501C34.4333 35.8634 28.4785 36.0485 26.8245 35.2745C26.2303 34.9963 27.3452 34.6104 27.6958 34.5293C28.0615 34.4441 28.2704 34.4597 28.2704 34.4597C27.6092 33.959 23.9963 35.4431 26.4354 35.8688C33.0871 37.0281 38.5603 35.3466 36.8352 34.5093ZM29.8645 29.0635C29.8645 29.0635 26.8357 29.8372 28.7921 30.1185C29.6184 30.2373 31.2645 30.21 32.7989 30.0716C34.0525 29.9585 35.3106 29.7165 35.3106 29.7165C35.3106 29.7165 34.869 29.9203 34.549 30.155C31.4728 31.025 25.5313 30.6197 27.2419 29.7303C28.6882 28.9778 29.8645 29.0635 29.8645 29.0635ZM35.298 32.3288C38.4249 30.5822 36.979 28.9034 35.9699 29.1295C35.7232 29.1849 35.6124 29.2329 35.6124 29.2329C35.6124 29.2329 35.7044 29.0778 35.8794 29.0114C37.8759 28.257 39.4109 31.2371 35.2356 32.4174C35.2356 32.4174 35.2835 32.3707 35.298 32.3288Z" fill="#0071BC" stroke="#0071BC" stroke-width="0.3"/>
<path d="M33.4132 19.2C33.4132 19.2 35.1447 21.0627 31.7706 23.9265C29.0649 26.2244 31.1536 27.5343 31.7694 29.0315C30.19 27.4991 29.0315 26.15 29.8086 24.8947C30.9499 23.0522 34.1116 22.1584 33.4132 19.2Z" fill="#0071BC" stroke="#0071BC" stroke-width="0.3"/>
<path d="M30.1721 37.0638C33.1727 37.2701 37.7821 36.949 37.8912 35.4221C37.8912 35.4221 37.6815 36.0008 35.4108 36.4601C32.8493 36.9785 29.6895 36.9183 27.8159 36.5857C27.8159 36.5857 28.1997 36.9275 30.1721 37.0638Z" fill="#0071BC" stroke="#0071BC" stroke-width="0.3"/>
<defs>
<linearGradient id="paint0_linear_510_3259" x1="7.82878" y1="16.3467" x2="45.8221" y2="60.9624" gradientUnits="userSpaceOnUse">
<stop stop-color="#07FFE1"/>
<stop offset="1" stop-color="#9DFF00"/>
</linearGradient>
<linearGradient id="paint1_linear_510_3259" x1="11.0056" y1="18.9501" x2="40.8847" y2="57.1356" gradientUnits="userSpaceOnUse">
<stop stop-color="#07FFE1"/>
<stop offset="1" stop-color="#9DFF00"/>
</linearGradient>
<linearGradient id="paint2_linear_510_3259" x1="27.054" y1="44.0227" x2="30.2308" y2="51.4133" gradientUnits="userSpaceOnUse">
<stop stop-color="#07FFE1"/>
<stop offset="1" stop-color="#9DFF00"/>
</linearGradient>
<linearGradient id="paint3_linear_510_3259" x1="3.87667" y1="43.9119" x2="7.86309" y2="63.9683" gradientUnits="userSpaceOnUse">
<stop stop-color="#07FFE1"/>
<stop offset="1" stop-color="#9DFF00"/>
</linearGradient>
</defs>
</svg>
