<svg width="64" height="64" viewBox="0 0 64 64" fill="none" xmlns="http://www.w3.org/2000/svg">
<path d="M7.95709 43.6192H7.35709V44.2192H7.95709V43.6192ZM57.5906 43.6192V44.2192H58.1906V43.6192H57.5906ZM8.55709 43.6192V15.3H7.35709V43.6192H8.55709ZM10.4571 13.4H55.0906V12.2H10.4571V13.4ZM56.9906 15.3V43.6192H58.1906V15.3H56.9906ZM57.5906 43.0192H7.95709V44.2192H57.5906V43.0192ZM55.0906 13.4C56.14 13.4 56.9906 14.2507 56.9906 15.3H58.1906C58.1906 13.5879 56.8027 12.2 55.0906 12.2V13.4ZM8.55709 15.3C8.55709 14.2507 9.40775 13.4 10.4571 13.4V12.2C8.74501 12.2 7.35709 13.5879 7.35709 15.3H8.55709Z" fill="url(#paint0_linear_510_3253)"/>
<path d="M10.538 16.2133V40.6644H11.738V16.2133H10.538ZM11.238 41.3644H54.2437V40.1644H11.238V41.3644ZM54.9437 40.6644V16.2133H53.7437V40.6644H54.9437ZM54.2437 15.5133H11.238V16.7133H54.2437V15.5133ZM54.9437 16.2133C54.9437 15.8267 54.6303 15.5133 54.2437 15.5133V16.7133C53.9675 16.7133 53.7437 16.4894 53.7437 16.2133H54.9437ZM54.2437 41.3644C54.6303 41.3644 54.9437 41.051 54.9437 40.6644H53.7437C53.7437 40.3883 53.9675 40.1644 54.2437 40.1644V41.3644ZM10.538 40.6644C10.538 41.051 10.8514 41.3644 11.238 41.3644V40.1644C11.5142 40.1644 11.738 40.3883 11.738 40.6644H10.538ZM11.738 16.2133C11.738 16.4894 11.5142 16.7133 11.238 16.7133V15.5133C10.8514 15.5133 10.538 15.8267 10.538 16.2133H11.738Z" fill="url(#paint1_linear_510_3253)"/>
<path d="M26.6068 43.6192V47.0252H27.8068V43.6192H26.6068ZM27.3068 47.7252H38.293V46.5252H27.3068V47.7252ZM38.993 47.0252V43.6192H37.793V47.0252H38.993ZM38.293 47.7252C38.6796 47.7252 38.993 47.4118 38.993 47.0252H37.793C37.793 46.7491 38.0169 46.5252 38.293 46.5252V47.7252ZM26.6068 47.0252C26.6068 47.4118 26.9202 47.7252 27.3068 47.7252V46.5252C27.5829 46.5252 27.8068 46.7491 27.8068 47.0252H26.6068Z" fill="url(#paint2_linear_510_3253)"/>
<path d="M56.457 51.2992H9.14277C7.77913 51.2981 6.47166 50.7481 5.50742 49.7698C4.54318 48.7916 4.001 47.4652 3.99991 46.0817V43.9947C3.99991 43.718 4.10828 43.4526 4.30117 43.2569C4.49406 43.0612 4.75569 42.9512 5.02848 42.9512H60.5713C60.8441 42.9512 61.1058 43.0612 61.2986 43.2569C61.4915 43.4526 61.5999 43.718 61.5999 43.9947V46.0817C61.5999 48.9597 59.2938 51.2992 56.457 51.2992ZM5.47675 44.5643V46.0817C5.47675 47.8077 6.99741 49.7698 8.69866 49.7698H56.5523C58.2535 49.7698 60.2908 47.8077 60.2908 46.0817V44.5643H5.47675Z" fill="url(#paint3_linear_510_3253)"/>
<path d="M25.2731 24.6413H20.1953L18.0001 35.7568H20.6075L21.1566 32.8755H23.627C25.9591 33.0125 28.5678 31.0912 28.5678 27.7978C28.5678 25.8765 27.4695 24.7782 25.2743 24.6413H25.2731ZM23.3518 30.8173H21.7044L22.3905 26.7008H24.1748C25.1348 26.7008 25.8222 27.113 25.8222 27.936C25.6852 30.2694 24.587 30.6803 23.3518 30.8173ZM34.4673 24.6413H31.9969L32.546 21.76H29.9387L27.7435 32.8755H30.3508L31.586 26.7008H33.6443C34.6055 26.7008 34.6055 27.113 34.4673 27.799L33.5073 32.8768H36.2516L37.2116 27.2499C37.4855 25.8778 36.6625 24.7795 34.4673 24.6426V24.6413ZM43.6615 24.6413H38.5838L36.3886 35.7568H38.9959L39.545 32.8755H42.0154C44.3489 33.0125 46.9563 31.0912 46.9563 27.7978C46.9563 25.8765 45.858 24.7782 43.6628 24.6413H43.6615ZM41.7402 30.8173H40.0929L40.779 26.7008H42.5633C43.5246 26.7008 44.2106 27.113 44.2106 27.936C44.0737 30.2694 42.9755 30.6803 41.7402 30.8173Z" fill="#0071BC"/>
<defs>
<linearGradient id="paint0_linear_510_3253" x1="7.98869" y1="16.3467" x2="45.982" y2="60.9624" gradientUnits="userSpaceOnUse">
<stop stop-color="#07FFE1"/>
<stop offset="1" stop-color="#9DFF00"/>
</linearGradient>
<linearGradient id="paint1_linear_510_3253" x1="11.1655" y1="18.9501" x2="41.0446" y2="57.1356" gradientUnits="userSpaceOnUse">
<stop stop-color="#07FFE1"/>
<stop offset="1" stop-color="#9DFF00"/>
</linearGradient>
<linearGradient id="paint2_linear_510_3253" x1="27.2139" y1="44.0227" x2="30.3907" y2="51.4133" gradientUnits="userSpaceOnUse">
<stop stop-color="#07FFE1"/>
<stop offset="1" stop-color="#9DFF00"/>
</linearGradient>
<linearGradient id="paint3_linear_510_3253" x1="4.03658" y1="43.9119" x2="8.023" y2="63.9683" gradientUnits="userSpaceOnUse">
<stop stop-color="#07FFE1"/>
<stop offset="1" stop-color="#9DFF00"/>
</linearGradient>
</defs>
</svg>
