<svg width="64" height="64" viewBox="0 0 64 64" fill="none" xmlns="http://www.w3.org/2000/svg">
<path d="M7.79718 52.5792H7.19718V53.1792H7.79718V52.5792ZM57.4307 52.5792V53.1792H58.0307V52.5792H57.4307ZM8.39718 52.5792V24.26H7.19718V52.5792H8.39718ZM10.2972 22.36H54.9307V21.16H10.2972V22.36ZM56.8307 24.26V52.5792H58.0307V24.26H56.8307ZM57.4307 51.9792H7.79718V53.1792H57.4307V51.9792ZM54.9307 22.36C55.98 22.36 56.8307 23.2107 56.8307 24.26H58.0307C58.0307 22.5479 56.6428 21.16 54.9307 21.16V22.36ZM8.39718 24.26C8.39718 23.2107 9.24784 22.36 10.2972 22.36V21.16C8.5851 21.16 7.19718 22.5479 7.19718 24.26H8.39718Z" fill="url(#paint0_linear_510_3257)"/>
<path d="M10.3781 25.1733V49.6244H11.5781V25.1733H10.3781ZM11.0781 50.3244H54.0838V49.1244H11.0781V50.3244ZM54.7838 49.6244V25.1733H53.5838V49.6244H54.7838ZM54.0838 24.4733H11.0781V25.6733H54.0838V24.4733ZM54.7838 25.1733C54.7838 24.7867 54.4704 24.4733 54.0838 24.4733V25.6733C53.8076 25.6733 53.5838 25.4494 53.5838 25.1733H54.7838ZM54.0838 50.3244C54.4704 50.3244 54.7838 50.011 54.7838 49.6244H53.5838C53.5838 49.3483 53.8076 49.1244 54.0838 49.1244V50.3244ZM10.3781 49.6244C10.3781 50.011 10.6915 50.3244 11.0781 50.3244V49.1244C11.3543 49.1244 11.5781 49.3482 11.5781 49.6244H10.3781ZM11.5781 25.1733C11.5781 25.4494 11.3543 25.6733 11.0781 25.6733V24.4733C10.6915 24.4733 10.3781 24.7867 10.3781 25.1733H11.5781Z" fill="url(#paint1_linear_510_3257)"/>
<path d="M26.4469 52.5792V55.9852H27.6469V52.5792H26.4469ZM27.1469 56.6852H38.1331V55.4852H27.1469V56.6852ZM38.8331 55.9852V52.5792H37.6331V55.9852H38.8331ZM38.1331 56.6852C38.5197 56.6852 38.8331 56.3718 38.8331 55.9852H37.6331C37.6331 55.7091 37.857 55.4852 38.1331 55.4852V56.6852ZM26.4469 55.9852C26.4469 56.3718 26.7603 56.6852 27.1469 56.6852V55.4852C27.423 55.4852 27.6469 55.7091 27.6469 55.9852H26.4469Z" fill="url(#paint2_linear_510_3257)"/>
<path d="M56.2971 60.2592H8.98285C7.61922 60.2581 6.31174 59.7081 5.34751 58.7298C4.38327 57.7516 3.84109 56.4252 3.84 55.0417V52.9548C3.84 52.678 3.94836 52.4126 4.14126 52.2169C4.33415 52.0212 4.59577 51.9113 4.86857 51.9113H60.4114C60.6842 51.9113 60.9458 52.0212 61.1387 52.2169C61.3316 52.4126 61.44 52.678 61.44 52.9548V55.0417C61.44 57.9197 59.1339 60.2592 56.2971 60.2592ZM5.31684 53.5243V55.0417C5.31684 56.7677 6.83749 58.7298 8.53875 58.7298H32.4656H56.3924C58.0936 58.7298 60.1309 56.7677 60.1309 55.0417V53.5243H5.31684Z" fill="url(#paint3_linear_510_3257)"/>
<path d="M45.6879 44.6715H41.6733C40.865 44.6715 40.1899 45.2395 40.0346 45.9924H35.1154L33.3248 44.225L33.3128 40.7087H34.6497V41.6994C34.6497 41.787 34.6849 41.871 34.7476 41.9329C34.8104 41.9949 34.8955 42.0296 34.9842 42.0296H40.3371C40.4258 42.0296 40.5109 41.9949 40.5736 41.9329C40.6364 41.871 40.6716 41.787 40.6716 41.6994V39.0576C40.6716 38.97 40.6364 38.886 40.5736 38.8241C40.5109 38.7621 40.4258 38.7273 40.3371 38.7273H37.9952V36.746H41.0062C41.0949 36.746 41.18 36.7112 41.2427 36.6493C41.3055 36.5873 41.3407 36.5033 41.3407 36.4157V33.7739C41.3407 33.6863 41.3055 33.6023 41.2427 33.5404C41.18 33.4785 41.0949 33.4437 41.0062 33.4437H37.9952V32.453C37.9952 32.3654 37.9599 32.2814 37.8972 32.2195C37.8345 32.1575 37.7494 32.1228 37.6606 32.1228H32.9769V31.4623H35.6533C36.576 31.4623 37.3261 30.7213 37.3261 29.8112C37.3261 28.901 36.576 28.16 35.6533 28.16H29.6314C28.7087 28.16 27.9586 28.901 27.9586 29.8112C27.9586 30.7213 28.7087 31.4623 29.6314 31.4623H32.3078V32.1228H27.624C27.5353 32.1228 27.4502 32.1575 27.3875 32.2195C27.3247 32.2814 27.2895 32.3654 27.2895 32.453V33.4437H24.2785C24.1898 33.4437 24.1047 33.4785 24.0419 33.5404C23.9792 33.6023 23.944 33.6863 23.944 33.7739V34.7646H21.6021C21.5134 34.7646 21.4283 34.7994 21.3655 34.8613C21.3028 34.9232 21.2675 35.0072 21.2675 35.0948V38.2426L19.3398 40.1454C19.2771 40.2073 19.2419 40.2913 19.2419 40.3788C19.2419 40.4664 19.2771 40.5504 19.3398 40.6123L21.2675 42.5144V44.6715H19.5928C18.6701 44.6715 17.92 45.4125 17.92 46.3226C17.92 47.2327 18.6701 47.9738 19.5928 47.9738H23.6074C24.4157 47.9738 25.0908 47.4058 25.246 46.6529H30.8123L32.7266 48.5424C32.7576 48.5733 32.7945 48.5979 32.8352 48.6146C32.8758 48.6314 32.9195 48.64 32.9635 48.64C33.0076 48.64 33.0512 48.6314 33.0918 48.6146C33.1325 48.5979 33.1694 48.5733 33.2004 48.5424L35.1147 46.6529H40.034C40.1892 47.4058 40.865 47.9738 41.6726 47.9738H45.6872C46.6099 47.9738 47.36 47.2327 47.36 46.3226C47.36 45.4125 46.6106 44.6715 45.6879 44.6715ZM40.0025 39.3878V41.3692H35.3188V39.3878H40.0025ZM40.6716 34.1041V36.0855H34.6497V34.1041H40.6716ZM29.6314 30.8018C29.078 30.8018 28.6277 30.3574 28.6277 29.8112C28.6277 29.265 29.078 28.8205 29.6314 28.8205H35.6533C36.2067 28.8205 36.657 29.265 36.657 29.8112C36.657 30.3574 36.2067 30.8018 35.6533 30.8018H29.6314ZM24.6131 34.1041H30.635V36.0855H24.6131V34.1041ZM21.9366 35.4251H23.944V36.4157C23.944 36.5033 23.9792 36.5873 24.0419 36.6493C24.1047 36.7112 24.1898 36.746 24.2785 36.746H30.9696C31.0583 36.746 31.1434 36.7112 31.2061 36.6493C31.2689 36.5873 31.3041 36.5033 31.3041 36.4157V33.7739C31.3041 33.6863 31.2689 33.6023 31.2061 33.5404C31.1434 33.4785 31.0583 33.4437 30.9696 33.4437H27.9586V32.7832H37.3261V33.4437H34.3151C34.2264 33.4437 34.1413 33.4785 34.0785 33.5404C34.0158 33.6023 33.9806 33.6863 33.9806 33.7739V36.4157C33.9806 36.5033 34.0158 36.5873 34.0785 36.6493C34.1413 36.7112 34.2264 36.746 34.3151 36.746H37.3261V38.7273H34.9842C34.8955 38.7273 34.8104 38.7621 34.7476 38.8241C34.6849 38.886 34.6497 38.97 34.6497 39.0576V40.0483H31.3041V39.0576C31.3041 38.97 31.2689 38.886 31.2061 38.8241C31.1434 38.7621 31.0583 38.7273 30.9696 38.7273H25.6167C25.528 38.7273 25.4429 38.7621 25.3802 38.8241C25.3174 38.886 25.2822 38.97 25.2822 39.0576V40.0483H23.7399L21.9366 38.2683V35.4251ZM30.635 39.3878V41.3692H25.9513V39.3878H30.635ZM20.0498 40.3785L21.5894 38.8588L23.129 40.3785L21.5894 41.8982L20.0498 40.3785ZM24.6091 46.3418C24.604 46.6009 24.4963 46.8476 24.309 47.0293C24.1218 47.2109 23.8699 47.3128 23.6074 47.3133H19.5928C19.0394 47.3133 18.5891 46.8688 18.5891 46.3226C18.5891 45.7764 19.0394 45.3319 19.5928 45.3319H23.6074C23.8699 45.3324 24.1218 45.4344 24.309 45.616C24.4963 45.7976 24.604 46.0444 24.6091 46.3035C24.6084 46.3101 24.605 46.316 24.605 46.3226C24.605 46.3292 24.6091 46.3352 24.6091 46.3418ZM25.2467 45.9924C25.1693 45.6197 24.964 45.2848 24.6654 45.0442C24.3669 44.8036 23.9935 44.6719 23.6081 44.6715H21.9366V42.4887L23.7399 40.7087H25.2822V41.6994C25.2822 41.787 25.3174 41.871 25.3802 41.9329C25.4429 41.9949 25.528 42.0296 25.6167 42.0296H30.9696C31.0583 42.0296 31.1434 41.9949 31.2061 41.9329C31.2689 41.871 31.3041 41.787 31.3041 41.6994V40.7087H32.641L32.6296 44.1986L30.813 45.9924H25.2467ZM32.9635 47.8423L31.4246 46.3226L32.9642 44.8029L34.5038 46.3226L32.9635 47.8423ZM45.6879 47.3133H41.6733C41.1199 47.3133 40.6696 46.8688 40.6696 46.3226C40.6696 45.7764 41.1199 45.3319 41.6733 45.3319H45.6879C46.2413 45.3319 46.6916 45.7764 46.6916 46.3226C46.6916 46.8688 46.2413 47.3133 45.6879 47.3133Z" fill="#0071BC"/>
<path d="M12.8259 9.81634C11.8852 9.81379 11.1106 10.5543 11.0944 11.4933C11.0878 11.9452 11.2606 12.3812 11.575 12.7058C11.8893 13.0304 12.3196 13.217 12.7714 13.2249H12.7986C13.2456 13.2238 13.6744 13.0477 13.993 12.7342C14.3116 12.4207 14.4947 11.9948 14.5029 11.5479C14.5098 11.096 14.337 10.6599 14.0226 10.3352C13.7082 10.0106 13.2778 9.82397 12.8259 9.81634ZM12.7859 12.3727C12.5664 12.3613 12.3599 12.2657 12.2092 12.1057C12.0586 11.9457 11.9755 11.7338 11.9772 11.5141C11.979 11.2944 12.0655 11.0838 12.2187 10.9263C12.3718 10.7687 12.5799 10.6764 12.7995 10.6685H12.8131C13.2835 10.6761 13.6593 11.0647 13.6516 11.5342C13.6431 12.0038 13.2528 12.3804 12.7859 12.3727Z" fill="url(#paint4_linear_510_3257)"/>
<path d="M20.1185 10.4665L18.312 10.1878C18.1886 9.67435 17.9932 9.18091 17.7316 8.72215L18.8599 7.28289C18.9232 7.20182 18.9551 7.10055 18.9496 6.9978C18.9442 6.89505 18.9017 6.79776 18.83 6.72389L17.7879 5.64764C17.7165 5.57325 17.6205 5.52738 17.5178 5.5186C17.4151 5.50982 17.3127 5.53873 17.2297 5.59992L15.7547 6.68043C15.3045 6.40456 14.8177 6.19343 14.3086 6.05326L14.0888 4.23906C14.0764 4.13688 14.0275 4.04262 13.9511 3.97369C13.8746 3.90477 13.7758 3.86585 13.6729 3.86412L12.174 3.84026C11.932 3.83259 11.7786 3.99109 11.7463 4.20157L11.4676 6.00809C10.9541 6.13148 10.4607 6.32685 10.0019 6.5884L8.56267 5.46017C8.48189 5.39611 8.38048 5.36378 8.27753 5.36927C8.17457 5.37477 8.07718 5.4177 8.00367 5.49L6.92743 6.53216C6.85336 6.60371 6.80772 6.69967 6.79895 6.80229C6.79017 6.9049 6.81886 7.00722 6.87971 7.09031L7.96021 8.56535C7.68434 9.01556 7.47321 9.50236 7.33304 10.0114L5.51885 10.2313C5.41667 10.2436 5.3224 10.2925 5.25348 10.369C5.18456 10.4454 5.14563 10.5442 5.14391 10.6471L5.12005 12.146C5.11844 12.2489 5.15415 12.349 5.22056 12.4276C5.28698 12.5062 5.37962 12.5582 5.48135 12.5738L7.28788 12.8524C7.41144 13.3654 7.60573 13.8563 7.86818 14.3181L6.73996 15.7574C6.67659 15.8384 6.6447 15.9397 6.65018 16.0425C6.65567 16.1452 6.69815 16.2425 6.76978 16.3164L7.81194 17.3926C7.8835 17.4667 7.97946 17.5123 8.08207 17.5211C8.18468 17.5299 8.287 17.5012 8.37009 17.4403L9.84514 16.3598C10.2952 16.636 10.782 16.8471 11.2912 16.987L11.5111 18.8012C11.5234 18.9034 11.5723 18.9976 11.6487 19.0666C11.7252 19.1355 11.824 19.1744 11.9269 19.1761L13.4258 19.2H13.4326C13.5344 19.2 13.6328 19.1635 13.71 19.0972C13.7872 19.031 13.8381 18.9393 13.8536 18.8387L14.1322 17.0322C14.6456 16.9085 15.139 16.7131 15.5979 16.4519L17.0372 17.5801C17.205 17.7113 17.4436 17.6994 17.5962 17.5503L18.6724 16.5081C18.7465 16.4365 18.7921 16.3406 18.8009 16.238C18.8097 16.1354 18.781 16.033 18.7201 15.95L17.6396 14.4749C17.9154 14.0247 18.1266 13.5379 18.2668 13.0288L20.081 12.809C20.1832 12.7966 20.2774 12.7477 20.3464 12.6713C20.4153 12.5949 20.4542 12.4961 20.4559 12.3931L20.4798 10.8942C20.4814 10.7913 20.4457 10.6913 20.3793 10.6127C20.3128 10.534 20.2202 10.4821 20.1185 10.4665ZM19.6098 12.008L17.8714 12.2193C17.7836 12.2301 17.7013 12.2678 17.6358 12.3274C17.5703 12.3869 17.5249 12.4652 17.5058 12.5516C17.3737 13.1601 17.1236 13.7368 16.7696 14.2491C16.7195 14.322 16.6934 14.4086 16.6947 14.497C16.6961 14.5854 16.7249 14.6712 16.7773 14.7425L17.8126 16.1553L17.2698 16.6811L15.891 15.6006C15.8214 15.546 15.7364 15.5144 15.648 15.5103C15.5596 15.5062 15.4721 15.5297 15.3976 15.5776C14.8685 15.9167 14.2899 16.1459 13.6772 16.2593C13.5902 16.2754 13.5105 16.3182 13.4489 16.3817C13.3874 16.4453 13.3471 16.5263 13.3338 16.6138L13.0671 18.3436L12.3112 18.3317L12.0999 16.5933C12.0891 16.5055 12.0513 16.4232 11.9918 16.3577C11.9323 16.2922 11.854 16.2468 11.7676 16.2277C11.1591 16.0955 10.5824 15.8454 10.0701 15.4915C9.99723 15.4414 9.91059 15.4153 9.82219 15.4166C9.73378 15.418 9.64799 15.4469 9.57672 15.4992L8.16388 16.5345L7.63811 15.9917L8.71862 14.613C8.77323 14.5433 8.80478 14.4584 8.80891 14.3699C8.81303 14.2815 8.78951 14.194 8.74162 14.1196C8.40467 13.5959 8.17311 13.0115 8.05991 12.3991C8.04377 12.3122 8.00098 12.2324 7.93746 12.1708C7.87394 12.1093 7.79285 12.0691 7.70543 12.0557L5.97559 11.789L5.98752 11.0331L7.72588 10.8218C7.81377 10.8108 7.89611 10.7729 7.96157 10.7133C8.02703 10.6536 8.0724 10.5751 8.09144 10.4886C8.22349 9.88036 8.47363 9.30394 8.82769 8.79202C8.87776 8.71915 8.90392 8.63251 8.90255 8.54411C8.90117 8.4557 8.87233 8.36991 8.82002 8.29863L7.78468 6.88579L8.32748 6.36003L9.70624 7.44053C9.77601 7.49491 9.86092 7.52632 9.94928 7.53044C10.0376 7.53456 10.1251 7.51119 10.1996 7.46354C10.7232 7.12629 11.3076 6.89471 11.9201 6.78183C12.007 6.76569 12.0868 6.7229 12.1483 6.65938C12.2099 6.59586 12.2501 6.51477 12.2635 6.42735L12.5302 4.69751L13.2861 4.70944L13.4974 6.4478C13.5083 6.53569 13.5463 6.61803 13.6059 6.68349C13.6656 6.74895 13.7441 6.79432 13.8306 6.81336C14.4388 6.94541 15.0153 7.19555 15.5272 7.54961C15.5999 7.60004 15.6866 7.62643 15.7751 7.62505C15.8636 7.62368 15.9494 7.59461 16.0206 7.54194L17.4334 6.50659L17.9592 7.0494L16.8787 8.42816C16.824 8.49782 16.7925 8.58276 16.7884 8.67118C16.7842 8.7596 16.8078 8.84711 16.8557 8.92155C17.1948 9.44987 17.424 10.0285 17.5374 10.642C17.5535 10.729 17.5963 10.8087 17.6598 10.8703C17.7233 10.9318 17.8044 10.972 17.8918 10.9854L19.6217 11.2521L19.6098 12.008Z" fill="url(#paint5_linear_510_3257)"/>
<path d="M54.7474 10.24H56.6491C57.1759 10.24 57.6 10.7608 57.6 11.4077V13.7432C57.6 14.3901 57.1759 14.9109 56.6491 14.9109H54.7474" fill="url(#paint6_linear_510_3257)"/>
<path d="M29.0744 14.9109V10.24L24.32 12.5754L29.0744 14.9109Z" stroke="url(#paint7_linear_510_3257)" stroke-linecap="round" stroke-linejoin="round"/>
<path d="M29.0744 12.5754H52.8459" stroke="url(#paint8_linear_510_3257)"/>
<path d="M54.7474 10.24H56.6491C57.1759 10.24 57.6 10.7608 57.6 11.4077V13.7432C57.6 14.3901 57.1759 14.9109 56.6491 14.9109H54.7474" stroke="url(#paint9_linear_510_3257)" stroke-linecap="round" stroke-linejoin="round"/>
<path d="M54.7476 10.2401H29.0744V14.911H54.7476V10.2401Z" stroke="url(#paint10_linear_510_3257)" stroke-linecap="round" stroke-linejoin="round"/>
<defs>
<linearGradient id="paint0_linear_510_3257" x1="7.82878" y1="25.3067" x2="45.8221" y2="69.9224" gradientUnits="userSpaceOnUse">
<stop stop-color="#07FFE1"/>
<stop offset="1" stop-color="#9DFF00"/>
</linearGradient>
<linearGradient id="paint1_linear_510_3257" x1="11.0056" y1="27.9101" x2="40.8847" y2="66.0956" gradientUnits="userSpaceOnUse">
<stop stop-color="#07FFE1"/>
<stop offset="1" stop-color="#9DFF00"/>
</linearGradient>
<linearGradient id="paint2_linear_510_3257" x1="27.054" y1="52.9827" x2="30.2308" y2="60.3733" gradientUnits="userSpaceOnUse">
<stop stop-color="#07FFE1"/>
<stop offset="1" stop-color="#9DFF00"/>
</linearGradient>
<linearGradient id="paint3_linear_510_3257" x1="3.87667" y1="52.8719" x2="7.86309" y2="72.9283" gradientUnits="userSpaceOnUse">
<stop stop-color="#07FFE1"/>
<stop offset="1" stop-color="#9DFF00"/>
</linearGradient>
<linearGradient id="paint4_linear_510_3257" x1="11.0964" y1="10.2086" x2="15.149" y2="13.164" gradientUnits="userSpaceOnUse">
<stop stop-color="#07FFE1"/>
<stop offset="1" stop-color="#9DFF00"/>
</linearGradient>
<linearGradient id="paint5_linear_510_3257" x1="5.12977" y1="5.60762" x2="23.3917" y2="18.9234" gradientUnits="userSpaceOnUse">
<stop stop-color="#07FFE1"/>
<stop offset="1" stop-color="#9DFF00"/>
</linearGradient>
<linearGradient id="paint6_linear_510_3257" x1="54.7492" y1="10.7775" x2="59.0843" y2="12.7079" gradientUnits="userSpaceOnUse">
<stop stop-color="#07FFE1"/>
<stop offset="1" stop-color="#9DFF00"/>
</linearGradient>
<linearGradient id="paint7_linear_510_3257" x1="24.323" y1="10.7775" x2="29.9057" y2="14.921" gradientUnits="userSpaceOnUse">
<stop stop-color="#07FFE1"/>
<stop offset="1" stop-color="#9DFF00"/>
</linearGradient>
<linearGradient id="paint8_linear_510_3257" x1="29.0896" y1="12.6905" x2="29.2332" y2="15.1797" gradientUnits="userSpaceOnUse">
<stop stop-color="#07FFE1"/>
<stop offset="1" stop-color="#9DFF00"/>
</linearGradient>
<linearGradient id="paint9_linear_510_3257" x1="54.7492" y1="10.7775" x2="59.0843" y2="12.7079" gradientUnits="userSpaceOnUse">
<stop stop-color="#07FFE1"/>
<stop offset="1" stop-color="#9DFF00"/>
</linearGradient>
<linearGradient id="paint10_linear_510_3257" x1="29.0908" y1="10.7777" x2="31.8308" y2="21.7593" gradientUnits="userSpaceOnUse">
<stop stop-color="#07FFE1"/>
<stop offset="1" stop-color="#9DFF00"/>
</linearGradient>
</defs>
</svg>
