<svg width="64" height="64" viewBox="0 0 64 64" fill="none" xmlns="http://www.w3.org/2000/svg">
<path d="M46.4702 59.4091L43.5737 46.8574C43.5492 46.751 43.4894 46.656 43.404 46.5879C43.3186 46.5199 43.2126 46.4828 43.1035 46.4828H39.2414C39.1689 46.483 39.0973 46.4996 39.032 46.5311C38.9667 46.5627 38.9094 46.6086 38.8642 46.6653C38.8189 46.722 38.787 46.7881 38.7708 46.8588C38.7545 46.9295 38.7543 47.0029 38.7702 47.0737L39.7483 51.3103H24.2517L25.2298 47.0737C25.2457 47.0029 25.2455 46.9295 25.2292 46.8588C25.213 46.7881 25.1811 46.722 25.1359 46.6653C25.0906 46.6086 25.0333 46.5627 24.968 46.5311C24.9027 46.4996 24.8312 46.483 24.7586 46.4828H20.8966C20.7874 46.4828 20.6814 46.5199 20.596 46.5879C20.5106 46.656 20.4508 46.751 20.4264 46.8574L17.5298 59.4091C17.5139 59.4798 17.5141 59.5531 17.5303 59.6237C17.5465 59.6944 17.5783 59.7604 17.6234 59.8171C17.6686 59.8738 17.7258 59.9197 17.791 59.9513C17.8561 59.983 17.9276 59.9996 18 60H21.8621C21.9713 59.9999 22.0772 59.9629 22.1626 59.8948C22.248 59.8268 22.3078 59.7318 22.3323 59.6254L23.3606 55.1724H40.6404L41.6677 59.6254C41.6922 59.7318 41.752 59.8268 41.8374 59.8948C41.9228 59.9629 42.0287 59.9999 42.1379 60H46C46.0727 60.0001 46.1444 59.9838 46.2099 59.9523C46.2754 59.9209 46.333 59.8752 46.3785 59.8185C46.4233 59.7614 46.4548 59.695 46.4706 59.6242C46.4865 59.5533 46.4864 59.4799 46.4702 59.4091ZM21.4788 59.0345H18.6073L21.2808 47.4483H24.1523L21.4788 59.0345ZM23.5826 54.2069L24.0287 52.2759H39.9713L40.4174 54.2069H23.5826ZM42.5212 59.0345L39.8477 47.4483H42.7192L45.3927 59.0345H42.5212ZM50.8247 39.7241H45.0316C43.8652 39.7241 42.891 40.5545 42.667 41.6552H35.5686L32.9848 39.0715L32.9675 33.931H34.8966V35.3793C34.8966 35.5074 34.9474 35.6301 35.038 35.7207C35.1285 35.8112 35.2513 35.8621 35.3793 35.8621H43.1035C43.2315 35.8621 43.3543 35.8112 43.4448 35.7207C43.5354 35.6301 43.5862 35.5074 43.5862 35.3793V31.5172C43.5862 31.3892 43.5354 31.2664 43.4448 31.1759C43.3543 31.0853 43.2315 31.0345 43.1035 31.0345H39.7241V28.1379H44.069C44.197 28.1379 44.3198 28.0871 44.4103 27.9965C44.5009 27.906 44.5517 27.7832 44.5517 27.6552V23.7931C44.5517 23.6651 44.5009 23.5423 44.4103 23.4517C44.3198 23.3612 44.197 23.3103 44.069 23.3103H39.7241V21.8621C39.7241 21.734 39.6733 21.6112 39.5827 21.5207C39.4922 21.4302 39.3694 21.3793 39.2414 21.3793H32.4828V20.4138H36.3448C37.6763 20.4138 38.7586 19.3305 38.7586 18C38.7586 16.6695 37.6763 15.5862 36.3448 15.5862H27.6552C26.3237 15.5862 25.2414 16.6695 25.2414 18C25.2414 19.3305 26.3237 20.4138 27.6552 20.4138H31.5173V21.3793H24.7586C24.6306 21.3793 24.5078 21.4302 24.4173 21.5207C24.3267 21.6112 24.2759 21.734 24.2759 21.8621V23.3103H19.931C19.803 23.3103 19.6802 23.3612 19.5897 23.4517C19.4991 23.5423 19.4483 23.6651 19.4483 23.7931V25.2414H16.069C15.9409 25.2414 15.8182 25.2922 15.7276 25.3828C15.6371 25.4733 15.5862 25.5961 15.5862 25.7241V30.3258L12.8046 33.1075C12.7141 33.198 12.6632 33.3208 12.6632 33.4488C12.6632 33.5768 12.7141 33.6995 12.8046 33.7901L15.5862 36.5708V39.7241H13.1695C11.8381 39.7241 10.7557 40.8075 10.7557 42.1379C10.7557 43.4684 11.8381 44.5517 13.1695 44.5517H18.9626C20.129 44.5517 21.1032 43.7214 21.3272 42.6207H29.3593L32.1217 45.383C32.1664 45.4282 32.2196 45.4641 32.2783 45.4886C32.3369 45.5131 32.3999 45.5257 32.4635 45.5257C32.527 45.5257 32.59 45.5131 32.6486 45.4886C32.7073 45.4641 32.7605 45.4282 32.8053 45.383L35.5676 42.6207H42.6661C42.8901 43.7214 43.8652 44.5517 45.0306 44.5517H50.8237C52.1552 44.5517 53.2375 43.4684 53.2375 42.1379C53.2375 40.8075 52.1561 39.7241 50.8247 39.7241ZM42.6207 32V34.8966H35.8621V32H42.6207ZM43.5862 24.2759V27.1724H34.8966V24.2759H43.5862ZM27.6552 19.4483C26.8567 19.4483 26.2069 18.7985 26.2069 18C26.2069 17.2015 26.8567 16.5517 27.6552 16.5517H36.3448C37.1433 16.5517 37.7931 17.2015 37.7931 18C37.7931 18.7985 37.1433 19.4483 36.3448 19.4483H27.6552ZM20.4138 24.2759H29.1035V27.1724H20.4138V24.2759ZM16.5517 26.2069H19.4483V27.6552C19.4483 27.7832 19.4991 27.906 19.5897 27.9965C19.6802 28.0871 19.803 28.1379 19.931 28.1379H29.5862C29.7143 28.1379 29.837 28.0871 29.9276 27.9965C30.0181 27.906 30.069 27.7832 30.069 27.6552V23.7931C30.069 23.6651 30.0181 23.5423 29.9276 23.4517C29.837 23.3612 29.7143 23.3103 29.5862 23.3103H25.2414V22.3448H38.7586V23.3103H34.4138C34.2858 23.3103 34.163 23.3612 34.0724 23.4517C33.9819 23.5423 33.931 23.6651 33.931 23.7931V27.6552C33.931 27.7832 33.9819 27.906 34.0724 27.9965C34.163 28.0871 34.2858 28.1379 34.4138 28.1379H38.7586V31.0345H35.3793C35.2513 31.0345 35.1285 31.0853 35.038 31.1759C34.9474 31.2664 34.8966 31.3892 34.8966 31.5172V32.9655H30.069V31.5172C30.069 31.3892 30.0181 31.2664 29.9276 31.1759C29.837 31.0853 29.7143 31.0345 29.5862 31.0345H21.8621C21.734 31.0345 21.6113 31.0853 21.5207 31.1759C21.4302 31.2664 21.3793 31.3892 21.3793 31.5172V32.9655H19.1538L16.5517 30.3635V26.2069ZM29.1035 32V34.8966H22.3448V32H29.1035ZM13.829 33.4483L16.0506 31.2266L18.2723 33.4483L16.0506 35.6699L13.829 33.4483ZM20.408 42.1659C20.4007 42.5447 20.2453 42.9055 19.9751 43.171C19.7049 43.4365 19.3414 43.5855 18.9626 43.5862H13.1695C12.371 43.5862 11.7213 42.9364 11.7213 42.1379C11.7213 41.3395 12.371 40.6897 13.1695 40.6897H18.9626C19.3414 40.6903 19.7049 40.8394 19.9751 41.1049C20.2453 41.3704 20.4007 41.7312 20.408 42.1099C20.407 42.1196 20.4022 42.1283 20.4022 42.1379C20.4022 42.1476 20.408 42.1563 20.408 42.1659ZM21.3281 41.6552C21.2164 41.1104 20.9201 40.6208 20.4894 40.269C20.0586 39.9172 19.5197 39.7248 18.9636 39.7241H16.5517V36.5331L19.1538 33.931H21.3793V35.3793C21.3793 35.5074 21.4302 35.6301 21.5207 35.7207C21.6113 35.8112 21.734 35.8621 21.8621 35.8621H29.5862C29.7143 35.8621 29.837 35.8112 29.9276 35.7207C30.0181 35.6301 30.069 35.5074 30.069 35.3793V33.931H31.9981L31.9817 39.0328L29.3603 41.6552H21.3281ZM32.4635 44.3596L30.2428 42.1379L32.4644 39.9163L34.6861 42.1379L32.4635 44.3596ZM50.8247 43.5862H45.0316C44.2331 43.5862 43.5833 42.9364 43.5833 42.1379C43.5833 41.3395 44.2331 40.6897 45.0316 40.6897H50.8247C51.6232 40.6897 52.273 41.3395 52.273 42.1379C52.273 42.9364 51.6232 43.5862 50.8247 43.5862Z" fill="#0071BC" stroke="#0071BC" stroke-width="0.3"/>
<path d="M57.1034 9.7931H32.4828V7.79352C33.3131 7.57724 33.931 6.828 33.931 5.93103C33.931 4.86607 33.065 4 32 4C30.935 4 30.069 4.86607 30.069 5.93103C30.069 6.828 30.6869 7.57724 31.5172 7.79352V9.7931H6.89655C5.83158 9.7931 4.96552 10.6592 4.96552 11.7241C4.96552 12.7891 5.83158 13.6552 6.89655 13.6552H7.86207V46.9655C7.86207 47.0936 7.91293 47.2163 8.00346 47.3069C8.094 47.3974 8.21679 47.4483 8.34483 47.4483H55.6552C55.7832 47.4483 55.906 47.3974 55.9965 47.3069C56.0871 47.2163 56.1379 47.0936 56.1379 46.9655V13.6552H57.1034C58.1684 13.6552 59.0345 12.7891 59.0345 11.7241C59.0345 10.6592 58.1684 9.7931 57.1034 9.7931ZM31.0345 5.93103C31.0343 5.7398 31.0908 5.55281 31.197 5.39372C31.3031 5.23464 31.454 5.11061 31.6307 5.03734C31.8073 4.96407 32.0017 4.94485 32.1893 4.98211C32.3768 5.01937 32.5491 5.11144 32.6844 5.24666C32.8196 5.38189 32.9117 5.55419 32.9489 5.74175C32.9862 5.92932 32.967 6.12373 32.8937 6.30037C32.8204 6.47701 32.6964 6.62795 32.5373 6.73407C32.3782 6.8402 32.1912 6.89674 32 6.89655C31.467 6.89655 31.0345 6.46303 31.0345 5.93103ZM55.1724 46.4828H8.82758V13.6552H55.1724V46.4828ZM57.1034 12.6897H6.89655C6.64795 12.6785 6.41322 12.572 6.24123 12.3921C6.06924 12.2122 5.97326 11.973 5.97326 11.7241C5.97326 11.4753 6.06924 11.236 6.24123 11.0562C6.41322 10.8763 6.64795 10.7697 6.89655 10.7586H57.1034C57.352 10.7697 57.5868 10.8763 57.7588 11.0562C57.9307 11.236 58.0267 11.4753 58.0267 11.7241C58.0267 11.973 57.9307 12.2122 57.7588 12.3921C57.5868 12.572 57.352 12.6785 57.1034 12.6897Z" fill="url(#paint0_linear_510_3260)" stroke="url(#paint1_linear_510_3260)" stroke-width="0.3"/>
<defs>
<linearGradient id="paint0_linear_510_3260" x1="4.99994" y1="9" x2="58.9999" y2="58" gradientUnits="userSpaceOnUse">
<stop stop-color="#07FFE1"/>
<stop offset="1" stop-color="#9DFF00"/>
</linearGradient>
<linearGradient id="paint1_linear_510_3260" x1="4.99994" y1="9" x2="58.9999" y2="58" gradientUnits="userSpaceOnUse">
<stop stop-color="#07FFE1"/>
<stop offset="1" stop-color="#9DFF00"/>
</linearGradient>
</defs>
</svg>
