<svg width="64" height="64" viewBox="0 0 64 64" fill="none" xmlns="http://www.w3.org/2000/svg">
<path d="M56.2971 51.2992H8.98285C7.61922 51.2981 6.31174 50.7481 5.34751 49.7698C4.38327 48.7916 3.84109 47.4652 3.84 46.0817V43.9947C3.84 43.718 3.94836 43.4526 4.14126 43.2569C4.33415 43.0612 4.59577 42.9512 4.86857 42.9512H60.4114C60.6842 42.9512 60.9458 43.0612 61.1387 43.2569C61.3316 43.4526 61.44 43.718 61.44 43.9947V46.0817C61.44 48.9597 59.1339 51.2992 56.2971 51.2992ZM5.31684 44.5643V46.0817C5.31684 47.8077 6.83749 49.7698 8.53875 49.7698H56.3924C58.0936 49.7698 60.1309 47.8077 60.1309 46.0817V44.5643H5.31684Z" fill="url(#paint0_linear_510_3261)"/>
<path d="M7.79718 43.6192H7.19718V44.2192H7.79718V43.6192ZM57.4307 43.6192V44.2192H58.0307V43.6192H57.4307ZM8.39718 43.6192V15.3H7.19718V43.6192H8.39718ZM10.2972 13.4H54.9307V12.2H10.2972V13.4ZM56.8307 15.3V43.6192H58.0307V15.3H56.8307ZM57.4307 43.0192H7.79718V44.2192H57.4307V43.0192ZM54.9307 13.4C55.98 13.4 56.8307 14.2507 56.8307 15.3H58.0307C58.0307 13.5879 56.6428 12.2 54.9307 12.2V13.4ZM8.39718 15.3C8.39718 14.2507 9.24784 13.4 10.2972 13.4V12.2C8.5851 12.2 7.19718 13.5879 7.19718 15.3H8.39718Z" fill="url(#paint1_linear_510_3261)"/>
<path d="M10.3781 16.2133V40.6644H11.5781V16.2133H10.3781ZM11.0781 41.3644H54.0838V40.1644H11.0781V41.3644ZM54.7838 40.6644V16.2133H53.5838V40.6644H54.7838ZM54.0838 15.5133H11.0781V16.7133H54.0838V15.5133ZM54.7838 16.2133C54.7838 15.8267 54.4704 15.5133 54.0838 15.5133V16.7133C53.8076 16.7133 53.5838 16.4894 53.5838 16.2133H54.7838ZM54.0838 41.3644C54.4704 41.3644 54.7838 41.051 54.7838 40.6644H53.5838C53.5838 40.3883 53.8076 40.1644 54.0838 40.1644V41.3644ZM10.3781 40.6644C10.3781 41.051 10.6915 41.3644 11.0781 41.3644V40.1644C11.3543 40.1644 11.5781 40.3883 11.5781 40.6644H10.3781ZM11.5781 16.2133C11.5781 16.4894 11.3543 16.7133 11.0781 16.7133V15.5133C10.6915 15.5133 10.3781 15.8267 10.3781 16.2133H11.5781Z" fill="url(#paint2_linear_510_3261)"/>
<path d="M26.4469 43.6192V47.0252H27.6469V43.6192H26.4469ZM27.1469 47.7252H38.1331V46.5252H27.1469V47.7252ZM38.8331 47.0252V43.6192H37.6331V47.0252H38.8331ZM38.1331 47.7252C38.5197 47.7252 38.8331 47.4118 38.8331 47.0252H37.6331C37.6331 46.7491 37.857 46.5252 38.1331 46.5252V47.7252ZM26.4469 47.0252C26.4469 47.4118 26.7603 47.7252 27.1469 47.7252V46.5252C27.423 46.5252 27.6469 46.7491 27.6469 47.0252H26.4469Z" fill="url(#paint3_linear_510_3261)"/>
<path d="M31.8913 19.2001C31.1524 19.2036 30.4472 19.2658 29.8263 19.3745C27.9975 19.6941 27.6657 20.363 27.6657 21.5969V23.2262H31.987V23.7693H26.0438C24.788 23.7693 23.6883 24.516 23.3443 25.9371C22.9474 27.5653 22.9299 28.5816 23.3443 30.2819C23.6514 31.5476 24.385 32.4493 25.641 32.4493H27.1269V30.496C27.1269 29.0849 28.3608 27.8403 29.8265 27.8403H34.1428C35.3444 27.8403 36.3034 26.8614 36.3034 25.6679V21.5971C36.3034 20.4383 35.3153 19.568 34.1428 19.3746C33.4001 19.2524 32.63 19.1968 31.8913 19.2001ZM29.5543 20.5105C30.0006 20.5105 30.3653 20.8771 30.3653 21.3279C30.3653 21.7768 30.0008 22.1398 29.5543 22.1398C29.1063 22.1398 28.7436 21.7768 28.7436 21.3279C28.7434 20.8771 29.1063 20.5105 29.5543 20.5105Z" fill="#0071BC"/>
<path d="M36.8423 23.7695V25.668C36.8423 27.1396 35.5809 28.3783 34.1428 28.3783H29.8264C28.6441 28.3783 27.6658 29.3795 27.6658 30.5509V34.622C27.6658 35.7804 28.684 36.462 29.8264 36.7943C31.1942 37.1919 32.506 37.264 34.1428 36.7943C35.2306 36.4825 36.3033 35.8554 36.3033 34.622V32.9925H31.9871V32.4493H38.4642C39.72 32.4493 40.1883 31.5828 40.6251 30.2819C41.0763 28.9427 41.0568 27.6548 40.6251 25.9371C40.3147 24.7001 39.7219 23.7693 38.4642 23.7693H36.8423V23.7695ZM34.4145 34.0788C34.8627 34.0788 35.2255 34.4418 35.2255 34.8911C35.2255 35.3415 34.8625 35.7081 34.4145 35.7081C33.9683 35.7081 33.6038 35.3415 33.6038 34.8911C33.6038 34.4418 33.9683 34.0788 34.4145 34.0788Z" fill="url(#paint4_linear_510_3261)"/>
<defs>
<linearGradient id="paint0_linear_510_3261" x1="3.87667" y1="43.9119" x2="7.86309" y2="63.9683" gradientUnits="userSpaceOnUse">
<stop stop-color="#07FFE1"/>
<stop offset="1" stop-color="#9DFF00"/>
</linearGradient>
<linearGradient id="paint1_linear_510_3261" x1="7.82878" y1="16.3467" x2="45.8221" y2="60.9624" gradientUnits="userSpaceOnUse">
<stop stop-color="#07FFE1"/>
<stop offset="1" stop-color="#9DFF00"/>
</linearGradient>
<linearGradient id="paint2_linear_510_3261" x1="11.0056" y1="18.9501" x2="40.8847" y2="57.1356" gradientUnits="userSpaceOnUse">
<stop stop-color="#07FFE1"/>
<stop offset="1" stop-color="#9DFF00"/>
</linearGradient>
<linearGradient id="paint3_linear_510_3261" x1="27.054" y1="44.0227" x2="30.2308" y2="51.4133" gradientUnits="userSpaceOnUse">
<stop stop-color="#07FFE1"/>
<stop offset="1" stop-color="#9DFF00"/>
</linearGradient>
<linearGradient id="paint4_linear_510_3261" x1="27.6743" y1="25.3057" x2="43.5253" y2="36.8115" gradientUnits="userSpaceOnUse">
<stop stop-color="#07FFE1"/>
<stop offset="1" stop-color="#9DFF00"/>
</linearGradient>
</defs>
</svg>
