<svg width="64" height="64" viewBox="0 0 64 64" fill="none" xmlns="http://www.w3.org/2000/svg">
<path d="M54.75 55.301H40.493C40.4541 55.2996 40.4153 55.2953 40.377 55.288C40.201 55.256 40.044 55.131 39.984 54.963C39.924 54.795 39.946 54.606 40.062 54.47C40.8278 53.5675 41.2488 52.4226 41.25 51.239C41.25 48.482 39.007 46.239 36.25 46.239C33.493 46.239 31.25 48.482 31.25 51.239C31.25 52.415 31.669 53.558 32.429 54.46C32.4813 54.5221 32.5178 54.5959 32.5352 54.6752C32.5526 54.7545 32.5504 54.8369 32.5289 54.9152C32.5073 54.9934 32.467 55.0653 32.4114 55.1245C32.3559 55.1837 32.2867 55.2285 32.21 55.255C32.1448 55.2799 32.0765 55.2957 32.007 55.302H17.75C17.6174 55.302 17.4902 55.2493 17.3964 55.1555C17.3027 55.0618 17.25 54.9346 17.25 54.802V41.498C16.3375 42.0237 15.3031 42.3009 14.25 42.302C10.941 42.302 8.25 39.611 8.25 36.302C8.25 32.993 10.941 30.302 14.25 30.302C15.304 30.302 16.342 30.584 17.25 31.108V17.801C17.25 17.6684 17.3027 17.5412 17.3964 17.4474C17.4902 17.3537 17.6174 17.301 17.75 17.301H31.054C30.5282 16.3885 30.251 15.3541 30.25 14.301C30.25 10.992 32.941 8.30099 36.25 8.30099C39.559 8.30099 42.25 10.992 42.25 14.301C42.2495 15.3542 41.9722 16.3887 41.446 17.301H54.75C54.8826 17.301 55.0098 17.3537 55.1036 17.4474C55.1973 17.5412 55.25 17.6684 55.25 17.801V32.058C55.25 32.1528 55.2231 32.2457 55.1724 32.3258C55.1216 32.4059 55.0491 32.4699 54.9634 32.5103C54.8776 32.5508 54.7821 32.566 54.6881 32.5543C54.594 32.5426 54.5052 32.5043 54.432 32.444C53.5359 31.7056 52.4111 31.3016 51.25 31.301C48.493 31.301 46.25 33.544 46.25 36.301C46.25 39.058 48.493 41.301 51.25 41.301C52.4113 41.3004 53.5362 40.8959 54.432 40.157C54.505 40.0963 54.5939 40.0577 54.6881 40.0457C54.7824 40.0337 54.8781 40.0489 54.964 40.0894C55.0499 40.13 55.1224 40.1942 55.1731 40.2745C55.2238 40.3549 55.2504 40.448 55.25 40.543V54.801C55.25 54.9336 55.1973 55.0608 55.1036 55.1545C55.0098 55.2483 54.8826 55.301 54.75 55.301ZM18.25 54.301H31.093C30.5419 53.3743 30.2507 52.3162 30.25 51.238C30.25 47.929 32.941 45.238 36.25 45.238C39.559 45.238 42.25 47.929 42.25 51.238C42.25 52.318 41.956 53.375 41.409 54.296L54.25 54.301V41.496C53.3377 42.0223 52.3032 42.2999 51.25 42.301C47.941 42.301 45.25 39.61 45.25 36.301C45.25 32.992 47.941 30.301 51.25 30.301C52.307 30.301 53.343 30.582 54.25 31.105V18.301H40.493C40.4394 18.3655 40.3703 18.4155 40.2923 18.4462C40.2142 18.477 40.1296 18.4876 40.0464 18.477C39.9632 18.4664 39.8839 18.4351 39.8161 18.3857C39.7482 18.3364 39.6938 18.2708 39.658 18.1949C39.6222 18.1191 39.6061 18.0354 39.6112 17.9516C39.6163 17.8679 39.6425 17.7868 39.6872 17.7158C39.732 17.6448 39.7939 17.5863 39.8673 17.5456C39.9406 17.5049 40.0231 17.4834 40.107 17.483C40.8453 16.5869 41.2494 15.4621 41.25 14.301C41.25 11.544 39.007 9.30099 36.25 9.30099C33.493 9.30099 31.25 11.544 31.25 14.301C31.2508 15.4621 31.6548 16.5868 32.393 17.483C32.4537 17.556 32.4923 17.6449 32.5043 17.7391C32.5163 17.8334 32.5011 17.929 32.4606 18.015C32.42 18.1009 32.3558 18.1734 32.2755 18.2241C32.1951 18.2747 32.102 18.3014 32.007 18.301H18.25V32.007C18.2502 32.1176 18.2135 32.2251 18.1458 32.3126C18.078 32.4 17.9831 32.4625 17.876 32.49C17.724 32.53 17.514 32.511 17.39 32.411C16.5032 31.6889 15.3936 31.2966 14.25 31.301C11.493 31.301 9.25 33.544 9.25 36.301C9.25 39.058 11.493 41.301 14.25 41.301C15.4109 41.3008 16.5355 40.8967 17.431 40.158C17.5042 40.0977 17.593 40.0594 17.6871 40.0477C17.7811 40.0359 17.8766 40.0512 17.9624 40.0917C18.0481 40.1321 18.1206 40.1961 18.1714 40.2762C18.2221 40.3563 18.249 40.4492 18.249 40.544L18.25 54.301Z" fill="url(#paint0_linear_510_3255)" stroke="url(#paint1_linear_510_3255)" stroke-width="0.5"/>
<path d="M31.1467 42.24C32.7953 42.24 34.1333 40.902 34.1333 39.2534V36.2667H31.1467C29.498 36.2667 28.16 37.6047 28.16 39.2534C28.16 40.902 29.498 42.24 31.1467 42.24Z" fill="url(#paint2_linear_510_3255)"/>
<path d="M28.16 33.28C28.16 31.6313 29.498 30.2933 31.1467 30.2933H34.1333V36.2666H31.1467C29.498 36.2666 28.16 34.9286 28.16 33.28Z" fill="#0071BC"/>
<path d="M28.16 27.3067C28.16 25.658 29.498 24.32 31.1467 24.32H34.1333V30.2933H31.1467C29.498 30.2933 28.16 28.9553 28.16 27.3067Z" fill="#9DFF00"/>
<path d="M34.1333 24.32H37.12C38.7686 24.32 40.1066 25.658 40.1066 27.3067C40.1066 28.9553 38.7686 30.2933 37.12 30.2933H34.1333V24.32Z" fill="#07FFE1"/>
<path d="M40.1066 33.28C40.1066 34.9286 38.7686 36.2666 37.12 36.2666C35.4713 36.2666 34.1333 34.9286 34.1333 33.28C34.1333 31.6313 35.4713 30.2933 37.12 30.2933C38.7686 30.2933 40.1066 31.6313 40.1066 33.28Z" fill="#009DFF"/>
<defs>
<linearGradient id="paint0_linear_510_3255" x1="8.27992" y1="13.7098" x2="64.1604" y2="54.4551" gradientUnits="userSpaceOnUse">
<stop stop-color="#07FFE1"/>
<stop offset="1" stop-color="#9DFF00"/>
</linearGradient>
<linearGradient id="paint1_linear_510_3255" x1="8.27992" y1="13.7098" x2="64.1604" y2="54.4551" gradientUnits="userSpaceOnUse">
<stop stop-color="#07FFE1"/>
<stop offset="1" stop-color="#9DFF00"/>
</linearGradient>
<linearGradient id="paint2_linear_510_3255" x1="28.1638" y1="36.9541" x2="35.2657" y2="42.1326" gradientUnits="userSpaceOnUse">
<stop stop-color="#07FFE1"/>
<stop offset="1" stop-color="#9DFF00"/>
</linearGradient>
</defs>
</svg>
