<svg width="46" height="46" viewBox="0 0 46 46" fill="none" xmlns="http://www.w3.org/2000/svg">
<path d="M19.4063 33.0624C19.0287 33.0628 18.6548 32.9886 18.3059 32.844C17.9571 32.6995 17.6403 32.4874 17.3737 32.2201L10.1862 25.0326C9.91924 24.7656 9.70751 24.4487 9.56305 24.1C9.41859 23.7512 9.34424 23.3774 9.34424 22.9999C9.34424 22.6224 9.41859 22.2486 9.56305 21.8999C9.70751 21.5511 9.91924 21.2342 10.1862 20.9673C10.4531 20.7004 10.77 20.4886 11.1188 20.3442C11.4675 20.1997 11.8413 20.1254 12.2188 20.1254C12.5963 20.1254 12.9701 20.1997 13.3188 20.3442C13.6676 20.4886 13.9845 20.7004 14.2514 20.9673L19.4063 26.1222L31.7487 13.7798C32.0156 13.5129 32.3325 13.3011 32.6813 13.1567C33.03 13.0122 33.4038 12.9379 33.7813 12.9379C34.1588 12.9379 34.5326 13.0122 34.8813 13.1567C35.2301 13.3011 35.547 13.5129 35.8139 13.7798C36.0809 14.0467 36.2926 14.3636 36.4371 14.7124C36.5815 15.0611 36.6559 15.4349 36.6559 15.8124C36.6559 16.1899 36.5815 16.5637 36.4371 16.9125C36.2926 17.2612 36.0809 17.5781 35.8139 17.8451L21.4389 32.2201C21.1723 32.4874 20.8555 32.6995 20.5067 32.844C20.1578 32.9886 19.7839 33.0628 19.4063 33.0624Z" fill="#07FFE1"/>
<path d="M23 46C10.3184 46 0 35.6816 0 23C0 10.3184 10.3184 0 23 0C35.6816 0 46 10.3184 46 23C46 35.6816 35.6816 46 23 46ZM23 2.875C11.9054 2.875 2.875 11.9054 2.875 23C2.875 34.0946 11.9054 43.125 23 43.125C34.0946 43.125 43.125 34.0946 43.125 23C43.125 11.9054 34.0946 2.875 23 2.875Z" fill="#07FFE1"/>
</svg>
