<svg width="172" height="172" viewBox="0 0 172 172" fill="none" xmlns="http://www.w3.org/2000/svg">
<path d="M170.782 86.0001C170.782 132.847 132.786 170.829 85.9229 170.829" stroke="#0071BC" stroke-miterlimit="10"/>
<path d="M1 85.9999C1 39.1528 38.9955 1.1705 85.8588 1.1705" stroke="#0071BC" stroke-miterlimit="10"/>
<path d="M85.8583 148.441C120.356 148.441 148.321 120.485 148.321 85.9999C148.321 51.5146 120.356 23.5587 85.8583 23.5587C51.3611 23.5587 23.3955 51.5146 23.3955 85.9999C23.3955 120.485 51.3611 148.441 85.8583 148.441Z" stroke="#0071BC" stroke-miterlimit="10"/>
<path d="M85.8584 23.5587V36.1764" stroke="#0071BC" stroke-miterlimit="10"/>
<path d="M85.8584 135.888V148.506" stroke="#0071BC" stroke-miterlimit="10"/>
<path d="M80.4219 23.8175L81.5223 36.3704" stroke="#0071BC" stroke-miterlimit="10"/>
<path d="M90.2607 135.694L91.3611 148.247" stroke="#0071BC" stroke-miterlimit="10"/>
<path d="M75.0488 24.5293L77.2496 36.9528" stroke="#0071BC" stroke-miterlimit="10"/>
<path d="M94.5322 135.112L96.733 147.535" stroke="#0071BC" stroke-miterlimit="10"/>
<path d="M69.7412 25.6939L72.9776 37.8586" stroke="#0071BC" stroke-miterlimit="10"/>
<path d="M98.8047 134.206L102.041 146.37" stroke="#0071BC" stroke-miterlimit="10"/>
<path d="M64.498 27.3116L68.8348 39.1528" stroke="#0071BC" stroke-miterlimit="10"/>
<path d="M102.946 132.847L107.283 144.753" stroke="#0071BC" stroke-miterlimit="10"/>
<path d="M59.4492 29.3821L64.8217 40.8351" stroke="#0071BC" stroke-miterlimit="10"/>
<path d="M106.96 131.229L112.268 142.617" stroke="#0071BC" stroke-miterlimit="10"/>
<path d="M54.6582 31.9058L60.9368 42.841" stroke="#0071BC" stroke-miterlimit="10"/>
<path d="M110.842 129.223L117.12 140.094" stroke="#0071BC" stroke-miterlimit="10"/>
<path d="M50.0635 34.8175L57.313 45.1704" stroke="#0071BC" stroke-miterlimit="10"/>
<path d="M114.468 126.829L121.717 137.182" stroke="#0071BC" stroke-miterlimit="10"/>
<path d="M45.7266 38.1823L53.8176 47.8235" stroke="#0071BC" stroke-miterlimit="10"/>
<path d="M117.963 124.241L126.054 133.882" stroke="#0071BC" stroke-miterlimit="10"/>
<path d="M41.7129 41.8707L50.6454 50.8001" stroke="#0071BC" stroke-miterlimit="10"/>
<path d="M121.135 121.265L130.067 130.194" stroke="#0071BC" stroke-miterlimit="10"/>
<path d="M38.0244 45.8823L47.6689 53.9705" stroke="#0071BC" stroke-miterlimit="10"/>
<path d="M124.113 118.094L133.758 126.182" stroke="#0071BC" stroke-miterlimit="10"/>
<path d="M34.7227 50.2175L45.0144 57.3999" stroke="#0071BC" stroke-miterlimit="10"/>
<path d="M126.767 114.6L137.058 121.847" stroke="#0071BC" stroke-miterlimit="10"/>
<path d="M31.7451 54.8115L42.6842 61.088" stroke="#0071BC" stroke-miterlimit="10"/>
<path d="M129.097 110.976L140.036 117.253" stroke="#0071BC" stroke-miterlimit="10"/>
<path d="M29.2207 59.5999L40.6776 64.9705" stroke="#0071BC" stroke-miterlimit="10"/>
<path d="M131.104 107.094L142.496 112.4" stroke="#0071BC" stroke-miterlimit="10"/>
<path d="M27.1494 64.6469L38.9947 68.9822" stroke="#0071BC" stroke-miterlimit="10"/>
<path d="M132.722 103.082L144.632 107.417" stroke="#0071BC" stroke-miterlimit="10"/>
<path d="M25.5312 69.8234L37.7002 73.1234" stroke="#0071BC" stroke-miterlimit="10"/>
<path d="M134.081 98.9409L146.25 102.176" stroke="#0071BC" stroke-miterlimit="10"/>
<path d="M24.3662 75.1939L36.794 77.3947" stroke="#0071BC" stroke-miterlimit="10"/>
<path d="M134.986 94.6703L147.414 96.871" stroke="#0071BC" stroke-miterlimit="10"/>
<path d="M23.6543 80.5646L36.2116 81.665" stroke="#0071BC" stroke-miterlimit="10"/>
<path d="M135.569 90.3352L148.127 91.4356" stroke="#0071BC" stroke-miterlimit="10"/>
<path d="M23.3955 85.9998H36.0175" stroke="#0071BC" stroke-miterlimit="10"/>
<path d="M135.764 85.9998H148.386" stroke="#0071BC" stroke-miterlimit="10"/>
<path d="M23.6543 91.4356L36.2116 90.3352" stroke="#0071BC" stroke-miterlimit="10"/>
<path d="M135.569 81.665L148.127 80.5646" stroke="#0071BC" stroke-miterlimit="10"/>
<path d="M24.3662 96.871L36.794 94.6703" stroke="#0071BC" stroke-miterlimit="10"/>
<path d="M134.986 77.3947L147.414 75.1939" stroke="#0071BC" stroke-miterlimit="10"/>
<path d="M25.5312 102.176L37.7002 98.9409" stroke="#0071BC" stroke-miterlimit="10"/>
<path d="M134.081 73.1234L146.25 69.8234" stroke="#0071BC" stroke-miterlimit="10"/>
<path d="M27.1494 107.417L38.9947 103.082" stroke="#0071BC" stroke-miterlimit="10"/>
<path d="M132.722 68.9822L144.632 64.6469" stroke="#0071BC" stroke-miterlimit="10"/>
<path d="M29.2207 112.4L40.6776 107.094" stroke="#0071BC" stroke-miterlimit="10"/>
<path d="M131.104 64.9705L142.496 59.5999" stroke="#0071BC" stroke-miterlimit="10"/>
<path d="M31.7451 117.253L42.6842 110.976" stroke="#0071BC" stroke-miterlimit="10"/>
<path d="M129.097 61.0881L140.036 54.8116" stroke="#0071BC" stroke-miterlimit="10"/>
<path d="M34.7227 121.847L45.0144 114.6" stroke="#0071BC" stroke-miterlimit="10"/>
<path d="M126.767 57.3999L137.058 50.2176" stroke="#0071BC" stroke-miterlimit="10"/>
<path d="M38.0244 126.182L47.6689 118.094" stroke="#0071BC" stroke-miterlimit="10"/>
<path d="M124.113 53.9705L133.758 45.8822" stroke="#0071BC" stroke-miterlimit="10"/>
<path d="M41.7129 130.194L50.6454 121.265" stroke="#0071BC" stroke-miterlimit="10"/>
<path d="M121.135 50.8001L130.067 41.8707" stroke="#0071BC" stroke-miterlimit="10"/>
<path d="M45.7266 133.882L53.8176 124.241" stroke="#0071BC" stroke-miterlimit="10"/>
<path d="M117.963 47.8235L126.054 38.1823" stroke="#0071BC" stroke-miterlimit="10"/>
<path d="M50.0635 137.182L57.313 126.829" stroke="#0071BC" stroke-miterlimit="10"/>
<path d="M114.468 45.1705L121.717 34.8175" stroke="#0071BC" stroke-miterlimit="10"/>
<path d="M54.6582 140.094L60.9368 129.223" stroke="#0071BC" stroke-miterlimit="10"/>
<path d="M110.842 42.841L117.12 31.9057" stroke="#0071BC" stroke-miterlimit="10"/>
<path d="M59.4492 142.617L64.8217 131.229" stroke="#0071BC" stroke-miterlimit="10"/>
<path d="M106.96 40.8351L112.268 29.3822" stroke="#0071BC" stroke-miterlimit="10"/>
<path d="M64.498 144.753L68.8348 132.847" stroke="#0071BC" stroke-miterlimit="10"/>
<path d="M102.946 39.1529L107.283 27.3117" stroke="#0071BC" stroke-miterlimit="10"/>
<path d="M69.7412 146.37L72.9776 134.206" stroke="#0071BC" stroke-miterlimit="10"/>
<path d="M98.8047 37.8586L102.041 25.6939" stroke="#0071BC" stroke-miterlimit="10"/>
<path d="M75.0488 147.535L77.2496 135.112" stroke="#0071BC" stroke-miterlimit="10"/>
<path d="M94.5322 36.9528L96.733 24.5293" stroke="#0071BC" stroke-miterlimit="10"/>
<path d="M80.4219 148.247L81.5223 135.694" stroke="#0071BC" stroke-miterlimit="10"/>
<path d="M90.2607 36.3705L91.3611 23.8175" stroke="#0071BC" stroke-miterlimit="10"/>
<path d="M85.8581 158.276C125.789 158.276 158.16 125.917 158.16 86C158.16 46.0828 125.789 13.7235 85.8581 13.7235C45.9271 13.7235 13.5566 46.0828 13.5566 86C13.5566 125.917 45.9271 158.276 85.8581 158.276Z" stroke="#009DFF" stroke-width="5" stroke-miterlimit="10"/>
</svg>
